<svg width="24" height="24" viewBox="0 0 37 29" fill="none" xmlns="http://www.w3.org/2000/svg">
<path fill-rule="evenodd" clip-rule="evenodd" d="M1.62415 5.0191C4.59873 2.04468 10.6526 3.27605 15.1456 7.7691C19.6387 12.2622 20.8701 18.316 17.8956 21.2906C14.9211 24.2651 8.86728 23.0337 4.37415 18.5406C-0.118953 14.0475 -1.3504 7.99364 1.62415 5.0191ZM12.9034 11.2486C8.89469 8.11873 4.26571 7.34814 2.56458 9.52691C0.86378 11.7058 2.73465 16.0094 6.74329 19.1392C10.752 22.269 15.381 23.0397 17.0822 20.8609C18.7828 18.682 16.912 14.3784 12.9034 11.2486Z" fill="url(#paint0_linear_2070_2436)"/>
<path fill-rule="evenodd" clip-rule="evenodd" d="M35.1805 23.7529C32.206 26.7273 26.1521 25.4959 21.6591 21.0029C17.166 16.5098 15.9346 10.456 18.9091 7.48139C21.8836 4.50683 27.9374 5.73826 32.4305 10.2314C36.9236 14.7245 38.1551 20.7783 35.1805 23.7529ZM23.9442 17.5673C27.953 20.6973 32.5819 21.4688 34.2831 19.29C35.9841 17.1111 34.1131 12.8076 30.1044 9.67768C26.0957 6.54783 21.4667 5.77637 19.7655 7.95502C18.0644 10.1338 19.9355 14.4374 23.9442 17.5673Z" fill="url(#paint1_linear_2070_2436)"/>
<path d="M19.5023 0H23.9375L17.4079 28.5704H12.9727L19.5023 0Z" fill="#fff"/>
<defs>
<linearGradient id="paint0_linear_2070_2436" x1="11.8521" y1="18.5541" x2="14.3825" y2="22.6655" gradientUnits="userSpaceOnUse">
<stop stop-color="#fff"/>
<stop offset="1" stop-color="#fff" stop-opacity="0"/>
</linearGradient>
<linearGradient id="paint1_linear_2070_2436" x1="24.0123" y1="12.3183" x2="22.4222" y2="6.10642" gradientUnits="userSpaceOnUse">
<stop stop-color="#fff"/>
<stop offset="1" stop-color="#fff" stop-opacity="0"/>
</linearGradient>
</defs>
</svg>
