<svg width="24" height="24" xmlns="http://www.w3.org/2000/svg" id="Layer_2" viewBox="0 0 245.99 246.02"><defs><style>.cls-1{fill:none;stroke:#f6e8d7;stroke-linecap:round;stroke-linejoin:round;stroke-width:6px}</style></defs><g id="Layer_1-2"><path d="m123.02 242.95-119.93.07 60-59.98 59.93 59.91z" style="fill:#aebfc3;stroke-width:0"/><path d="M242.99 122.98c0 33.14-13.4 63.12-35.12 84.83l-84.88-84.83V3c66.28 0 119.99 53.72 119.99 119.98Z" style="stroke-width:0;fill:#4281a4"/><path d="M122.99 3C56.72 3 3 56.72 3 122.98h119.99V3Z" style="fill:#6696ae;stroke-width:0"/><path d="m3 122.98 120.02 119.97h119.92l.05-.04-120-119.93H3z" style="fill:#8aaab8;stroke-width:0"/><path d="m123.02 242.95-119.93.07 60-59.98 59.93 59.91zm119.97-119.97c0 33.14-13.4 63.12-35.12 84.83l-84.88-84.83V3c66.28 0 119.99 53.72 119.99 119.98ZM122.99 3C56.72 3 3 56.72 3 122.98h119.99V3Z" class="cls-1"/><path d="m3 122.98 120.02 119.97h119.92l.05-.04-120-119.93H3z" class="cls-1"/></g></svg>
