<svg width="24" height="24" viewBox="0 0 80 80" fill="none" xmlns="http://www.w3.org/2000/svg">
<path d="M47.8808 19.538C46.9038 18.492 44.6675 16.6733 41.3019 16.6733C37.9651 16.6733 35.7648 18.4163 34.7946 19.4203C34.7622 19.4609 34.2423 20.1349 34.6483 21.1176L40.8048 36.0151C40.8048 36.0151 41.3538 37.3509 41.9068 36.0151L48.0442 21.1932C48.4241 20.2073 47.8808 19.538 47.8808 19.538Z" fill="url(#paint0_linear_2267_63010)"/>
<path d="M31.5185 20.5834C30.0891 20.5356 27.2237 20.8332 24.8438 23.2166C22.4843 25.5797 22.1591 28.3701 22.1821 29.7671C22.1878 29.8187 22.2959 30.6635 23.277 31.0708L38.149 37.2452C38.149 37.2452 39.4803 37.801 38.9282 36.4648L32.8027 21.638C32.3751 20.6721 31.5185 20.5834 31.5185 20.5834Z" fill="url(#paint1_linear_2267_63010)"/>
<path d="M21.1358 33.2081C20.0914 34.1866 18.2753 36.4262 18.2753 39.7967C18.2753 43.1384 20.0157 45.342 21.0183 46.3136C21.0588 46.346 21.7319 46.8667 22.7131 46.46L37.5888 40.2945C37.5888 40.2945 38.9226 39.7447 37.5888 39.1908L22.7885 33.0446C21.804 32.6642 21.1358 33.2081 21.1358 33.2081Z" fill="url(#paint2_linear_2267_63010)"/>
<path d="M22.1847 49.5294C22.137 50.961 22.4341 53.8306 24.8141 56.2139C27.1736 58.5769 29.96 58.9026 31.3549 58.8796C31.4065 58.8738 32.25 58.7656 32.6567 57.7831L38.822 42.8892C38.822 42.8892 39.377 41.5559 38.0428 42.1089L23.2378 48.2433C22.273 48.6715 22.1847 49.5294 22.1847 49.5294Z" fill="url(#paint3_linear_2267_63010)"/>
<path d="M34.781 59.9216C35.758 60.9675 37.9943 62.7863 41.3599 62.7863C44.6966 62.7863 46.897 61.0433 47.8672 60.0393C47.8996 59.9988 48.4195 59.3248 48.0134 58.342L41.8569 43.4445C41.8569 43.4445 41.3079 42.1088 40.7548 43.4445L34.6175 58.2664C34.2379 59.2523 34.781 59.9216 34.781 59.9216Z" fill="url(#paint4_linear_2267_63010)"/>
<path d="M51.0859 58.8761C52.5153 58.9239 55.3808 58.6263 57.7606 56.2429C60.1201 53.8799 60.4453 51.0894 60.4224 49.6924C60.4166 49.6408 60.3085 48.796 59.3274 48.3888L44.4554 42.2144C44.4554 42.2144 43.1241 41.6585 43.6762 42.9947L49.8017 57.8215C50.2294 58.7875 51.0859 58.8761 51.0859 58.8761Z" fill="url(#paint5_linear_2267_63010)"/>
<path d="M61.4638 46.3063C62.5083 45.3279 64.3243 43.0883 64.3243 39.7177C64.3243 36.3761 62.5839 34.1725 61.5814 33.2008C61.541 33.1684 60.8679 32.6478 59.8866 33.0543L45.0109 39.2198C45.0109 39.2198 43.6772 39.7697 45.0109 40.3235L59.8111 46.4699C60.7956 46.8501 61.4638 46.3063 61.4638 46.3063Z" fill="url(#paint6_linear_2267_63010)"/>
<path d="M60.4191 29.9302C60.4669 28.4986 60.1697 25.629 57.7898 23.2457C55.4302 20.8827 52.6439 20.557 51.2489 20.58C51.1974 20.5858 50.3538 20.694 49.9472 21.6765L43.7818 36.5704C43.7818 36.5704 43.2268 37.9037 44.561 37.3507L59.3661 31.2163C60.3306 30.7881 60.4191 29.9302 60.4191 29.9302Z" fill="url(#paint7_linear_2267_63010)"/>
<path d="M51.8043 68.6253C52.2745 69.9192 51.6102 71.3596 50.2866 71.7323C46.06 72.9223 41.6313 73.263 37.2572 72.7252C32.0578 72.0858 27.0833 70.2232 22.7405 67.2896C18.3976 64.356 14.8097 60.4347 12.27 55.8464C9.7304 51.258 8.31115 46.1328 8.12833 40.8899C7.94551 35.647 9.00432 30.4351 11.2182 25.6805C13.432 20.9259 16.7381 16.7635 20.866 13.5337C24.994 10.3038 29.8266 8.09826 34.9688 7.09725C39.2947 6.25514 43.7364 6.28566 48.0356 7.1775C49.382 7.45681 50.145 8.84729 49.766 10.1709C49.387 11.4946 48.0094 12.2483 46.6595 11.9869C43.1195 11.3014 39.4732 11.3002 35.9189 11.9921C31.548 12.843 27.4403 14.7177 23.9315 17.4631C20.4228 20.2085 17.6126 23.7465 15.7308 27.7879C13.8491 31.8293 12.9491 36.2594 13.1045 40.7159C13.2599 45.1724 14.4662 49.5287 16.6249 53.4289C18.7836 57.329 21.8334 60.6621 25.5248 63.1556C29.2162 65.6492 33.4445 67.2324 37.864 67.7759C41.4579 68.2178 45.0952 67.9619 48.5788 67.0307C49.9073 66.6756 51.334 67.3313 51.8043 68.6253Z" fill="url(#paint8_linear_2267_63010)"/>
<defs>
<linearGradient id="paint0_linear_2267_63010" x1="64.3836" y1="47.7054" x2="8.10811" y2="47.7054" gradientUnits="userSpaceOnUse">
<stop stop-color="#A6F45D"/>
<stop offset="0.58" stop-color="#FEE46C"/>
</linearGradient>
<linearGradient id="paint1_linear_2267_63010" x1="64.3836" y1="47.7054" x2="8.10811" y2="47.7054" gradientUnits="userSpaceOnUse">
<stop stop-color="#A6F45D"/>
<stop offset="0.58" stop-color="#FEE46C"/>
</linearGradient>
<linearGradient id="paint2_linear_2267_63010" x1="64.3836" y1="47.7054" x2="8.10811" y2="47.7054" gradientUnits="userSpaceOnUse">
<stop stop-color="#A6F45D"/>
<stop offset="0.58" stop-color="#FEE46C"/>
</linearGradient>
<linearGradient id="paint3_linear_2267_63010" x1="64.3836" y1="47.7054" x2="8.10811" y2="47.7054" gradientUnits="userSpaceOnUse">
<stop stop-color="#A6F45D"/>
<stop offset="0.58" stop-color="#FEE46C"/>
</linearGradient>
<linearGradient id="paint4_linear_2267_63010" x1="64.3836" y1="47.7054" x2="8.10811" y2="47.7054" gradientUnits="userSpaceOnUse">
<stop stop-color="#A6F45D"/>
<stop offset="0.58" stop-color="#FEE46C"/>
</linearGradient>
<linearGradient id="paint5_linear_2267_63010" x1="64.3836" y1="47.7054" x2="8.10811" y2="47.7054" gradientUnits="userSpaceOnUse">
<stop stop-color="#A6F45D"/>
<stop offset="0.58" stop-color="#FEE46C"/>
</linearGradient>
<linearGradient id="paint6_linear_2267_63010" x1="64.3836" y1="47.7054" x2="8.10811" y2="47.7054" gradientUnits="userSpaceOnUse">
<stop stop-color="#A6F45D"/>
<stop offset="0.58" stop-color="#FEE46C"/>
</linearGradient>
<linearGradient id="paint7_linear_2267_63010" x1="64.3836" y1="47.7054" x2="8.10811" y2="47.7054" gradientUnits="userSpaceOnUse">
<stop stop-color="#A6F45D"/>
<stop offset="0.58" stop-color="#FEE46C"/>
</linearGradient>
<linearGradient id="paint8_linear_2267_63010" x1="64.3836" y1="47.7054" x2="8.10811" y2="47.7054" gradientUnits="userSpaceOnUse">
<stop stop-color="#A6F45D"/>
<stop offset="0.58" stop-color="#FEE46C"/>
</linearGradient>
</defs>
</svg>
