<?xml version="1.0" encoding="UTF-8"?>
<svg id="Layer_1" data-name="Layer 1" xmlns="http://www.w3.org/2000/svg" viewBox="0 0 657.3 657.3">
  <path d="M328.7,0C147.1,0,0,147.1,0,328.6s147.1,328.7,328.7,328.7,328.6-147.1,328.6-328.7S510.2,0,328.7,0ZM328.8,584.5c-141.3,0-255.8-114.5-255.8-255.8s114.5-255.8,255.8-255.8,255.8,114.5,255.8,255.8-114.5,255.8-255.8,255.8Z" fill="#ff004d" stroke-width="0"/>
  <path d="M328.8,72.9c-141.3,0-255.8,114.5-255.8,255.8s114.5,255.8,255.8,255.8,255.8-114.5,255.8-255.8-114.5-255.8-255.8-255.8ZM509.3,347.8c-2.3,12.9-6.8,24.9-13,35.6-13,22.4-33.5,39.4-57.6,48.1-17.5,6.3-36.9,8.3-56.5,4.8-6.4-1.2-12.7-2.9-18.6-5l38-102.5h0s-57.9,69.1-76.6,84.3c-19.2,15.8-43.6,24.9-69.5,24.9-6.3,0-12.8-.6-19.3-1.7-19.5-3.5-36.8-11.9-51-23.8-19.7-16.5-33.2-39.5-37.6-65.1-2.1-12.3-2.2-25.1.1-38.1,2.3-12.9,6.8-24.9,13-35.6,13-22.4,33.5-39.4,57.6-48.1,17.5-6.3,36.9-8.3,56.5-4.8,6.4,1.2,12.7,2.9,18.6,5l-38,102.5h0s57.9-69.1,76.6-84.3c19.2-15.8,43.6-24.9,69.5-24.9,6.4,0,12.8.6,19.3,1.7,19.5,3.5,36.8,11.9,51,23.8,19.7,16.5,33.2,39.5,37.6,65.1h0c2.1,12.3,2.2,25.1-.1,38.1h0Z" fill="#fff" stroke-width="0"/>
  <path d="M509.4,309.7h0c-4.5-25.6-18-48.7-37.6-65.2-14.2-11.9-31.5-20.3-51-23.8-6.5-1.2-12.9-1.7-19.3-1.7-25.9,0-50.3,9.1-69.5,24.9-18.6,15.3-76.6,84.3-76.6,84.3h0l38-102.5c-5.9-2.2-12.2-3.9-18.6-5-19.6-3.5-39-1.6-56.5,4.8-24,8.7-44.6,25.7-57.6,48.1-6.2,10.7-10.7,22.7-13,35.6-2.3,13-2.2,25.8-.1,38.1,4.5,25.6,18,48.7,37.6,65.1,14.2,11.9,31.5,20.3,51,23.8,6.5,1.2,12.9,1.7,19.3,1.7,25.9,0,50.3-9.1,69.5-24.9,18.6-15.3,76.6-84.3,76.6-84.3h0l-38,102.5c5.9,2.2,12.2,3.9,18.6,5,19.6,3.5,39,1.6,56.5-4.8,24-8.7,44.6-25.7,57.6-48.1,6.2-10.7,10.7-22.7,13-35.6,2.3-13,2.2-25.8.1-38.1v.1Z" fill="#ff004d" stroke-width="0"/>
  <g>
    <circle cx="471.4072" cy="470.9636" r="127.5" fill="#52b3d8" stroke-width="0"/>
    <path d="M510.8044,418.4431c-17.2105,0-32.5371,8.0235-42.482,20.5203l8.7216,16.4298c6.2973-12.2416,19.0419-20.6254,33.753-20.6254,20.9558,0,37.9411,16.9852,37.9411,37.9409s-16.9853,37.9409-37.9411,37.9409v.0676c-13.4051-.0225-25.9396-7.2354-32.7472-18.8541l-10.2077-19.2219.015-.0225-3.9255-7.348-26.7127-50.3176-59.4824,112.0212h18.3739l12.4669-23.4625h12.1592l8.5865-16.2496h-12.1141l20.0101-37.6556,12.2342,23.0422-28.8443,54.3256h18.4264l19.6273-36.9951,3.265,6.1546c.6155,1.2759,3.918,6.8301,3.918,6.8301,10.0276,14.8536,27.0204,23.9879,44.9664,24.0029h0c29.9701,0,54.266-24.2957,54.266-54.2656s-24.3033-54.258-54.2735-54.258h0Z" fill="#fff" stroke="#fff" stroke-miterlimit="10" stroke-width="6"/>
  </g>
</svg>