<?xml version="1.0" encoding="UTF-8"?>
<svg width="152px" height="22px" viewBox="0 0 152 22" version="1.1" xmlns="http://www.w3.org/2000/svg" xmlns:xlink="http://www.w3.org/1999/xlink">
  <g stroke="none" stroke-width="1" fill="none" fill-rule="evenodd">
    <g fill="#000000" fill-rule="nonzero">
      <path d="M19.3374517,21.1274131 L19.3374517,8.52651283e-14 L24.1498069,8.52651283e-14 L24.1498069,21.1274131 L19.3374517,21.1274131 Z M112.884942,13.2339768 C112.884942,8.12818533 108.923552,4.95907336 104.287259,4.95907336 C99.6216216,4.95907336 95.6895753,8.15752896 95.6895753,13.2339768 C95.6895753,18.3397683 99.6509653,21.5382239 104.287259,21.5382239 C108.923552,21.5382239 112.884942,18.3104247 112.884942,13.2339768 Z M108.131274,13.2339768 C108.131274,15.9042471 106.341313,17.4007722 104.257915,17.4007722 C102.174517,17.4007722 100.384556,15.9042471 100.384556,13.2339768 C100.384556,10.5343629 102.174517,9.0965251 104.257915,9.0965251 C106.341313,9.0965251 108.131274,10.5343629 108.131274,13.2339768 Z M17.4007722,15.0532819 C17.4007722,12.6764479 16.1683398,10.8571429 13.9675676,10.0355212 C16.0509653,8.89111969 16.784556,7.39459459 16.784556,5.63397683 C16.784556,2.55289575 14.5544402,8.94041785e-14 9.56602317,0.0293436293 L1.13686838e-13,0.0293436293 L1.13686838e-13,21.1567568 L9.97683398,21.1567568 C14.9945946,21.1274131 17.4007722,18.6332046 17.4007722,15.0532819 Z M11.6787645,6.25019305 C11.6787645,7.68803089 10.769112,8.50965251 9.00849421,8.50965251 L5.01776062,8.50965251 L5.01776062,4.10810811 L9.00849421,4.10810811 C10.6223938,4.10810811 11.6787645,4.81235521 11.6787645,6.25019305 Z M12.1189189,14.7305019 C12.1189189,16.1096525 11.1505792,17.019305 9.36061776,17.019305 L5.01776062,17.019305 L5.01776062,12.4416988 L9.36061776,12.4416988 C11.0918919,12.4416988 12.1189189,13.3220077 12.1189189,14.7305019 Z M59.3034749,9.27258687 C57.9830116,6.51428571 55.5181467,4.98841699 51.7915058,4.98841699 C47.3899614,4.98841699 43.4579151,7.74671815 43.4579151,13.2339768 C43.4579151,18.5745174 46.9204633,21.5382239 51.7328185,21.5382239 C55.1073359,21.5382239 57.953668,20.188417 59.3034749,17.2833977 L55.4301158,15.2880309 C54.7258687,16.5791506 53.6401544,17.4007722 51.9088803,17.4007722 C49.6787645,17.4007722 48.2409266,15.8162162 48.2409266,13.2339768 C48.2409266,10.6517375 49.8841699,9.0965251 51.8795367,9.0965251 C53.434749,9.0965251 54.6084942,9.8007722 55.3420849,11.3266409 L59.3034749,9.27258687 Z M130.227027,9.27258687 C128.906564,6.51428571 126.441699,4.98841699 122.715058,4.98841699 C118.313514,4.98841699 114.381467,7.74671815 114.381467,13.2339768 C114.381467,18.5745174 117.844015,21.5382239 122.656371,21.5382239 C126.030888,21.5382239 128.87722,20.188417 130.227027,17.2833977 L126.353668,15.2880309 C125.649421,16.5791506 124.563707,17.4007722 122.832432,17.4007722 C120.602317,17.4007722 119.164479,15.8162162 119.164479,13.2339768 C119.164479,10.6517375 120.807722,9.0965251 122.803089,9.0965251 C124.358301,9.0965251 125.532046,9.8007722 126.265637,11.3266409 L130.227027,9.27258687 Z"/>
    </g>
  </g>
</svg>
