<svg width="128" height="128" viewBox="0 0 128 128" fill="none" xmlns="http://www.w3.org/2000/svg">
<rect width="128" height="128" rx="64" fill="url(#paint0_linear_4575_38030)"/>
<path d="M92.2257 54.8818C93.4997 46.3648 87.0147 41.7866 78.147 38.7324L81.0237 27.1954L74 25.4455L71.1996 36.6787C69.3531 36.2183 67.4568 35.7844 65.5722 35.3542L68.3929 24.0468L61.3736 22.2969L58.4952 33.8302C56.9672 33.4823 55.4664 33.1385 54.0104 32.7762L54.0185 32.7399L44.3326 30.3215L42.4642 37.8224C42.4642 37.8224 47.6752 39.0168 47.5654 39.0903C50.4097 39.8001 50.924 41.6827 50.8386 43.1749L47.5617 56.3183C47.7575 56.368 48.0116 56.44 48.2919 56.5526C48.0576 56.4944 47.8082 56.4309 47.5495 56.369L42.9564 74.781C42.6088 75.645 41.7265 76.9417 39.738 76.4493C39.8083 76.5513 34.633 75.1754 34.633 75.1754L31.1458 83.2145L40.2861 85.4928C41.9865 85.9191 43.6528 86.3652 45.2937 86.7847L42.3873 98.4541L49.4029 100.204L52.2812 88.6586C54.1978 89.1788 56.0577 89.6587 57.8786 90.111L55.01 101.602L62.034 103.352L64.9402 91.7046C76.9171 93.971 85.9228 93.0572 89.7135 82.2253C92.7679 73.5043 89.5614 68.4741 83.2604 65.1938C87.8498 64.1355 91.3066 61.1174 92.2283 54.8827L92.2261 54.8812L92.2257 54.8818ZM76.1782 77.3821C74.0075 86.1031 59.3224 81.3888 54.5613 80.2066L58.4183 64.7468C63.1791 65.9352 78.4467 68.287 76.1785 77.3821H76.1782ZM78.3503 54.7554C76.3703 62.688 64.1477 58.6579 60.1828 57.6697L63.6797 43.6485C67.6446 44.6367 80.413 46.4812 78.351 54.7554H78.3503Z" fill="#F6FF0D"/>
<defs>
<linearGradient id="paint0_linear_4575_38030" x1="64" y1="0" x2="64" y2="128" gradientUnits="userSpaceOnUse">
<stop offset="0.0992415" stop-color="#0E1633"/>
<stop offset="0.416257" stop-color="#063083"/>
<stop offset="0.727508" stop-color="#007DDD"/>
<stop offset="1" stop-color="#BAEBFE"/>
</linearGradient>
</defs>
</svg>
