<svg xmlns="http://www.w3.org/2000/svg" width="180" height="62" fill="none" viewBox="0 0 180 62">
  <g clip-path="url(#a)">
    <path fill="#655EA8" d="m51.12 34.275-1.941-7.567a.63.63 0 0 0-.458-.451l-7.499-1.849a1 1 0 0 0-.173-.018.61.61 0 0 0-.5.173L27.892 37.218l-1.676-6.54a.63.63 0 0 0-.457-.452l-6.443-1.589 12.65-12.65a.65.65 0 0 0 .148-.26.6.6 0 0 0 .037-.4l-1.94-7.568a.63.63 0 0 0-.458-.452l-7.5-1.848a.63.63 0 0 0-.426.05h-.007c-.037.018-.068.043-.105.067-.03.025-.074.037-.099.068L.028 27.221s-.037.062-.062.093a.61.61 0 0 0-.123.575l2.096 7.314c.061.21.222.37.426.426l7.023 2.016 2.016 7.017c.062.21.223.37.427.427l7.048 2.021 2.021 7.048c.062.21.223.371.427.427l7.345 2.108a.6.6 0 0 0 .173.025c.012 0 .024-.006.043-.006h.012c.161 0 .322-.062.446-.186L50.94 34.931a.65.65 0 0 0 .148-.26.6.6 0 0 0 .037-.402zm-9.682 8.39-1.576-6.151 3.493-3.488 6.003 1.725-7.913 7.92zM29.191 54.913l-1.577-6.152 6.319-6.318 6.003 1.724zm4.872-14.369-1.509-5.255 5.422 1.336-3.913 3.913zm4.773-3.004 1.385 5.397-5.274-1.515 3.889-3.888zm.179-1.948-6.145-1.514 7.895-7.896 1.706 5.954zm-7.672.007 1.706 5.953-6.288 6.288-6.145-1.515zm16.717-8.23 1.576 6.152-5.96-1.712-1.706-5.942zM19.689 45.41l-1.577-6.151 2.275-2.276 6.003 1.725zm.828-10.325-1.509-5.255 5.422 1.336-3.913 3.913zm6.158 2.4L21.4 35.968l3.889-3.888 1.385 5.397zm-7.166-1.386-2.244 2.245-6.145-1.515 6.683-6.684zm-7.073-19.518 1.707 5.954L7.8 28.878l-6.146-1.515zm9.367-9.366 1.706 5.953-3.4 3.4-6.146-1.514zm.73 16.426-1.577-6.145 3.437-3.437 6.003 1.718zm-7.376-2.114-1.509-5.255 5.422 1.335-3.913 3.914zm4.773-3.005 1.384 5.398-5.267-1.515 3.889-3.889zm-4.897 4.897 6.003 1.719-10.8 10.8-1.577-6.145zM29.098 8.414l1.577 6.152-5.96-1.713-1.706-5.941zM1.345 28.581l5.422 1.336-3.913 3.913-1.509-5.255zm2.393 6.14 3.888-3.89 1.385 5.398-5.267-1.515zm8.773 9.267-1.707-5.941 6.09 1.502 1.577 6.152zm7.796 3.555 5.422 1.335-3.914 3.914-1.508-5.255zm2.392 6.14 3.89-3.89 1.384 5.398-5.274-1.515z"/>
    <path fill="#fff" d="M69.564 43.438c-1.985 0-3.71-.396-5.194-1.187-1.477-.792-2.627-1.867-3.437-3.24-.816-1.366-1.218-2.943-1.218-4.723q0-2.672 1.187-4.724a8.66 8.66 0 0 1 3.27-3.24c1.392-.79 2.974-1.186 4.76-1.186 1.788 0 3.284.383 4.644 1.15s2.424 1.842 3.203 3.22q1.168 2.071 1.168 4.91c0 .154 0 .352-.019.587a8 8 0 0 1-.049.618H63.022v-2.77h12.656l-1.67.866c.026-1.002-.185-1.898-.617-2.69a4.64 4.64 0 0 0-1.787-1.836c-.754-.433-1.651-.649-2.671-.649s-1.898.216-2.69.65a4.4 4.4 0 0 0-1.817 1.854c-.42.804-.637 1.725-.637 2.77v.668q.002 1.605.717 2.837c.476.823 1.163 1.465 2.053 1.917q1.334.686 3.103.686 1.505 0 2.702-.5a6.3 6.3 0 0 0 2.14-1.472l2.268 2.603a8 8 0 0 1-3.054 2.139q-1.818.734-4.154.736zM77.91 28.847V25.51h11.883v3.338zm9.082 14.591q-2.941 0-4.538-1.52-1.603-1.521-1.601-4.458V21.435h4.142v15.889q0 1.269.668 1.972c.445.47 1.07.698 1.867.698q1.371-.002 2.27-.735l1.199 2.974c-.514.401-1.126.698-1.837.902a8 8 0 0 1-2.17.303M102.548 25.144q2.17 0 3.821.835 1.65.835 2.64 2.571c.656 1.156.983 2.64.983 4.44v10.213h-4.173V33.52c0-1.583-.365-2.757-1.1-3.536q-1.103-1.17-3.141-1.169c-.977 0-1.849.198-2.603.6a4.1 4.1 0 0 0-1.75 1.787q-.62 1.186-.618 2.986v9.014h-4.142V18.43h4.142v11.784l-.865-1.503q.9-1.704 2.689-2.64 1.788-.934 4.124-.933zM121.349 43.438c-1.985 0-3.71-.396-5.194-1.187-1.477-.791-2.627-1.867-3.437-3.24-.816-1.366-1.218-2.943-1.218-4.723q0-2.672 1.187-4.724a8.66 8.66 0 0 1 3.271-3.24c1.391-.79 2.973-1.186 4.76-1.186s3.283.383 4.643 1.15 2.424 1.842 3.203 3.22q1.168 2.071 1.168 4.91c0 .154 0 .352-.018.587a8 8 0 0 1-.05.618h-14.856v-2.77h12.655l-1.669.866c.025-1.002-.186-1.898-.618-2.69a4.65 4.65 0 0 0-1.787-1.836c-.754-.432-1.651-.649-2.671-.649s-1.898.217-2.689.65a4.38 4.38 0 0 0-1.818 1.854c-.42.804-.637 1.725-.637 2.77v.668q.001 1.605.717 2.837c.476.823 1.163 1.466 2.053 1.917q1.334.686 3.104.686 1.504 0 2.701-.5a6.3 6.3 0 0 0 2.139-1.472l2.269 2.603a8 8 0 0 1-3.054 2.139c-1.211.488-2.596.736-4.154.736zM131.592 43.203v-17.83h3.975v4.908l-.469-1.434a5.53 5.53 0 0 1 2.503-2.751q1.736-.954 4.242-.952v3.975a6 6 0 0 0-.47-.05 6 6 0 0 0-.433-.018q-2.4.001-3.808 1.366-1.402 1.372-1.404 4.173v8.613h-4.142zM149.688 28.847V25.51h11.882v3.338zm2.936 14.356V24.408q0-2.837 1.651-4.526 1.652-1.687 4.723-1.687c.736 0 1.428.08 2.09.235q.983.232 1.651.735l-1.169 3.104a4.3 4.3 0 0 0-1.032-.5 3.8 3.8 0 0 0-1.237-.199c-.865 0-1.527.241-1.972.718-.445.476-.668 1.186-.668 2.12v2.071l.099 1.836v14.888h-4.142zm13.991-20.767q-1.167-.001-1.916-.736-.75-.73-.749-1.805-.001-1.003.749-1.737.749-.735 1.916-.736c.779 0 1.416.229 1.923.686q.75.685.748 1.75-.001 1.066-.736 1.817c-.488.501-1.137.755-1.935.755zm-2.071 20.767v-17.83h4.142v17.83zM146.803 42.516l-1.657-2.738a.68.68 0 0 0-.569-.322h-.012a.67.67 0 0 0-.575.346l-1.539 2.782a1.27 1.27 0 0 0 0 1.23l1.545 2.789c.118.21.334.34.575.346h.006a.66.66 0 0 0 .575-.327l1.651-2.795a1.28 1.28 0 0 0 0-1.304z"/>
  </g>
  <defs>
    <clipPath id="a">
      <path fill="#fff" d="M0 0h180v62H0z"/>
    </clipPath>
  </defs>
</svg>
