<svg width="57" height="57" viewBox="0 0 57 57" fill="none" xmlns="http://www.w3.org/2000/svg">
<rect width="56.7" height="56.7" rx="28.35" fill="white"/>
<g clip-path="url(#clip0_40_71)">
<path d="M56.7 19.1V4.4C56.7 2 54.7 0 52.3 0H4.4C2 0 0 2 0 4.4V52.7C0 55.1 2 57.1 4.4 57.1H52.3C54.7 57.1 56.7 55.1 56.7 52.7V38H46.5C43.1 44.5 36.2 49 28.3 49C17 49 7.9 39.9 7.9 28.5C7.9 17.1 17 8 28.3 8C36.2 8 43 12.5 46.5 19H56.7V19.1Z" fill="black"/>
<path d="M22.4 31.3H30.5V29.4H21.9C21.9 29 21.8 28.7 21.8 28.5C21.8 28.3 21.8 28 21.9 27.6H30.5V25.7H22.4C22.9 24.5 23.8 23.6 24.9 22.9C26 22.2 27.3 21.9 28.8 21.9C30.9 21.9 32.6 22.6 34 24.1L36.3 22C35.4 21 34.3001 20.2 32.9001 19.6C31.6001 19.1 30.1 18.8 28.5 18.8C26.9 18.8 25.4 19.1 24 19.7C22.6 20.3 21.4 21.1 20.5 22.1C19.6 23.1 18.9 24.4 18.5 25.7H15.3V27.6H18.1C18.1 27.8 18.1 28.1 18.1 28.5C18.1 28.9 18.1 29.2 18.1 29.4H15.3V31.3H18.5C18.9 32.7 19.6 33.9 20.5 34.9C21.4 35.9 22.6 36.8 24 37.3C25.4 37.9 26.9 38.2 28.5 38.2C30.1 38.2 31.6001 37.9 32.9001 37.4C34.2001 36.9 35.4 36.1 36.3 35L34 32.8C32.6 34.3 30.8 35 28.8 35C27.3 35 26 34.7 24.9 34C23.8 33.5 22.9 32.5 22.4 31.3ZM56.7001 25.4H46.7001V31.7H56.7001V25.4Z" fill="#E60028"/>
</g>
<defs>
<clipPath id="clip0_40_71">
<rect width="56.7" height="56.7" rx="28.35" fill="white"/>
</clipPath>
</defs>
</svg>
