<?xml version="1.0" encoding="UTF-8"?>
<!-- Generated by Pixelmator Pro 3.6.15 -->
<svg width="400" height="400" viewBox="0 0 400 400" xmlns="http://www.w3.org/2000/svg" xmlns:xlink="http://www.w3.org/1999/xlink">
    <path id="Path" fill="#ffffff" stroke="none" d="M 200 0 C 310.45697 0 400 89.54306 400 200 C 400 310.45697 310.45697 400 200 400 C 89.54306 400 0 310.45697 0 200 C 0 89.54306 89.54306 0 200 0 Z"/>
    <mask id="mask1" maskUnits="userSpaceOnUse" maskContentUnits="userSpaceOnUse" mask-type="alpha">
        <path id="path1" fill="#ffffff" stroke="none" d="M 200 0 C 310.45697 0 400 89.54306 400 200 C 400 310.45697 310.45697 400 200 400 C 89.54306 400 0 310.45697 0 200 C 0 89.54306 89.54306 0 200 0 Z"/>
    </mask>
    <g id="Group" mask="url(#mask1)"/>
    <g id="FXN">
        <g id="f-logo-1">
            <g id="Layer1">
                <path id="path2" fill="#a6c15b" stroke="none" d="M 95.909088 61.363647 C 51.909088 95.181824 25.909088 139.272736 25.909088 208.27272 C 25.909088 290.090912 101.181824 364.636353 181.545456 364.636353 C 237.454559 364.636353 264.272705 332.909088 264.272705 297.909088 C 265.148621 270.106201 249.583939 244.39061 224.545456 232.27272 C 223.707687 231.83049 222.700424 231.854675 221.884842 232.336624 C 221.06929 232.818558 220.56221 233.689194 220.545456 234.636353 L 220.545456 281.818176 C 220.496155 283.690491 218.963852 285.182465 217.090897 285.181824 L 182.909103 285.181824 C 181.036148 285.182465 179.503845 283.690491 179.454544 281.818176 L 179.454544 218.181824 C 179.445633 215.609085 177.909714 213.287323 175.545456 212.272736 C 111.909088 184.454559 98.090912 135.181824 95.818176 106.909088 C 94.651642 92.392944 95.817932 77.78363 99.272705 63.636353 C 99.603973 62.733856 99.277039 61.721741 98.480438 61.183502 C 97.683868 60.645264 96.622894 60.719574 95.909088 61.363647 Z"/>
            </g>
        </g>
        <g id="x-logo-2">
            <g id="g1">
                <path id="path3" fill="#187f49" stroke="none" d="M 305.684631 338.258057 C 349.861969 303.933441 375.089233 259.365356 374.919891 190.663635 C 374.226563 108.965576 298.464233 34.505371 217.953613 34.975311 C 161.959198 35.366211 135.098236 67.110291 135.485229 102.430084 C 134.841766 130.260742 150.604095 155.873962 175.738815 167.840805 C 176.59549 168.263779 177.612076 168.201645 178.410858 167.677505 C 179.209641 167.153351 179.671265 166.245499 179.624222 165.291245 L 179.373764 118.320465 C 179.364639 116.429047 180.884659 114.885315 182.775986 114.865112 L 217.063736 114.599518 C 217.975494 114.590454 218.851501 114.953857 219.489075 115.605713 C 220.126663 116.257568 220.470612 117.141388 220.441345 118.052734 L 220.880478 181.574905 C 220.898087 184.134415 222.41478 186.445801 224.755783 187.480713 C 288.667664 214.911331 302.795807 264.226074 305.373413 292.549957 C 306.603302 307.06073 305.49585 321.674774 302.093262 335.834412 C 301.738312 336.798218 302.087341 337.879822 302.93869 338.454346 C 303.790039 339.0289 304.923676 338.947876 305.684631 338.258057 Z"/>
            </g>
        </g>
        <path id="Rectangle" fill="#ffffff" fill-rule="evenodd" stroke="none" d="M 179 368 L 221 368 L 221 33 L 179 33 Z"/>
        <mask id="mask2" maskUnits="userSpaceOnUse" maskContentUnits="userSpaceOnUse" mask-type="alpha">
            <path id="path4" fill="#ffffff" fill-rule="evenodd" stroke="none" d="M 179 368 L 221 368 L 221 33 L 179 33 Z"/>
        </mask>
        <g id="g2" mask="url(#mask2)"/>
    </g>
</svg>
