<svg width="46" height="42" viewBox="0 0 46 42" fill="none" xmlns="http://www.w3.org/2000/svg">
<g clip-path="url(#clip0_66_59)">
<rect width="46" height="42" rx="21" fill="white"/>
<mask id="mask0_66_59" style="mask-type:luminance" maskUnits="userSpaceOnUse" x="0" y="0" width="40" height="40">
<path d="M40 0H0V40H40V0Z" fill="white"/>
</mask>
<g mask="url(#mask0_66_59)">
<path fill-rule="evenodd" clip-rule="evenodd" d="M9.67113 7.65433C12.7211 0.996495 20.4471 -1.86185 26.9281 1.27082C32.3181 3.87745 35.1501 9.80888 34.1951 15.5626C35.5251 16.4667 36.7141 17.6411 37.6791 19.0682C41.7671 25.1116 40.3131 33.4154 34.4311 37.6156C29.5391 41.1089 23.1251 40.663 18.7531 36.9375C17.2844 37.6883 15.69 38.145 14.0551 38.2835C6.91813 38.8999 0.645123 33.4545 0.0461231 26.1206C-0.451877 20.0206 3.13112 14.5362 8.45813 12.509C8.55881 10.8265 8.97112 9.17894 9.67113 7.65433ZM14.1771 24.2167L9.01213 24.3441L13.9861 15.7342C12.6674 15.5825 11.3324 15.7297 10.0751 16.1653C8.81771 16.601 7.66858 17.3145 6.70857 18.2557C5.74857 19.1968 5.00102 20.3428 4.51856 21.6128C4.03611 22.8828 3.83047 24.2461 3.91612 25.6066C4.00178 26.9671 4.37664 28.2917 5.01433 29.4873C5.65202 30.6829 6.53703 31.7203 7.60705 32.5266C8.67707 33.3328 9.9061 33.8883 11.2076 34.1539C12.5091 34.4195 13.8514 34.3887 15.1401 34.0638L9.17513 26.3363L25.9161 26.2778L28.4511 30.5252L18.7071 30.405C19.2388 31.654 20.0305 32.7681 21.0264 33.6689C22.0223 34.5697 23.1982 35.2352 24.4715 35.6187C25.7447 36.0021 27.0843 36.0942 28.3959 35.8884C29.7075 35.6826 30.9593 35.184 32.0631 34.4275C33.167 33.6711 34.096 32.6753 34.7849 31.5102C35.4737 30.3451 35.9057 29.039 36.0503 27.6839C36.1949 26.3288 36.0487 24.9576 35.6219 23.6668C35.1951 22.376 34.4982 21.197 33.5801 20.2128L30.0501 29.3848L21.6501 14.9245L23.9431 10.1366L28.7131 18.8679C29.5004 17.7703 30.0439 16.5088 30.3053 15.1722C30.5668 13.8355 30.54 12.4562 30.2267 11.1314C29.9133 9.80655 29.3212 8.56839 28.4919 7.50407C27.6625 6.43975 26.6162 5.57515 25.4266 4.97114C24.237 4.36713 22.9329 4.03839 21.6063 4.00807C20.2796 3.97775 18.9627 4.24658 17.7481 4.79565C16.5335 5.34471 15.4508 6.16066 14.5762 7.18603C13.7016 8.21141 13.0565 9.42129 12.6861 10.7305L22.1831 9.28591L14.1781 24.2178L14.1771 24.2167Z" fill="url(#paint0_linear_66_59)"/>
</g>
<path d="M45.0005 31.9982C45.0005 27.0275 40.971 22.998 36.0003 22.998C31.0296 22.998 27 27.0275 27 31.9982C27 36.9689 31.0296 40.9985 36.0003 40.9985C40.971 40.9985 45.0005 36.9689 45.0005 31.9982Z" stroke="#121421" stroke-width="2"/>
<path d="M43.7631 33.9328C43.3804 35.4682 42.5511 36.8557 41.3799 37.9197C40.2087 38.9837 38.7483 39.6766 37.1833 39.9106C35.6184 40.1446 34.0191 39.9092 32.5879 39.2343C31.1567 38.5594 29.9578 37.4752 29.1428 36.1189C28.3278 34.7626 27.9333 33.195 28.0092 31.6145C28.0851 30.0339 28.6281 28.5114 29.5693 27.2394C30.5106 25.9674 31.8079 25.0032 33.2972 24.4685C34.7865 23.9339 36.4009 23.8529 37.9362 24.2358C39.9947 24.7492 41.765 26.0592 42.8577 27.8777C43.9504 29.6962 44.2761 31.8742 43.7631 33.9328Z" fill="white"/>
<path d="M36.0004 26.417L35.9258 26.6717V34.0549L36.0004 34.1296L39.4277 32.1036L36.0004 26.417Z" fill="#343434"/>
<path d="M36.0015 26.417L32.5742 32.1036L36.0015 34.1296V26.417Z" fill="#8C8C8C"/>
<path d="M35.999 34.7768L35.957 34.8281V37.4581L35.999 37.5814L39.4283 32.7515L35.999 34.7768Z" fill="#3C3C3B"/>
<path d="M36.0015 37.5814V34.7768L32.5742 32.7515L36.0015 37.5814Z" fill="#8C8C8C"/>
<path d="M36 34.1291L39.4273 32.1032L36 30.5452V34.1291Z" fill="#141414"/>
<path d="M32.5742 32.1032L36.0015 34.1291V30.5452L32.5742 32.1032Z" fill="#393939"/>
</g>
<defs>
<linearGradient id="paint0_linear_66_59" x1="36.7731" y1="5.95494" x2="-4.74837" y2="36.948" gradientUnits="userSpaceOnUse">
<stop stop-color="#03D1CF" stop-opacity="0.988"/>
<stop offset="1" stop-color="#4E09F8"/>
</linearGradient>
<clipPath id="clip0_66_59">
<rect width="46" height="42" rx="21" fill="white"/>
</clipPath>
</defs>
</svg>
