<svg width="46" height="42" viewBox="0 0 46 42" fill="none" xmlns="http://www.w3.org/2000/svg">
<g clip-path="url(#clip0_66_29)">
<rect width="46" height="42" rx="21" fill="white"/>
<mask id="mask0_66_29" style="mask-type:luminance" maskUnits="userSpaceOnUse" x="0" y="0" width="40" height="40">
<path d="M40 0H0V40H40V0Z" fill="white"/>
</mask>
<g mask="url(#mask0_66_29)">
<path fill-rule="evenodd" clip-rule="evenodd" d="M9.67113 7.65433C12.7211 0.996495 20.4471 -1.86185 26.9281 1.27082C32.3181 3.87745 35.1501 9.80888 34.1951 15.5626C35.5251 16.4667 36.7141 17.6411 37.6791 19.0682C41.7671 25.1116 40.3131 33.4154 34.4311 37.6156C29.5391 41.1089 23.1251 40.663 18.7531 36.9375C17.2844 37.6883 15.69 38.145 14.0551 38.2835C6.91813 38.8999 0.645123 33.4545 0.0461231 26.1206C-0.451877 20.0206 3.13112 14.5362 8.45813 12.509C8.55881 10.8265 8.97112 9.17894 9.67113 7.65433ZM14.1771 24.2167L9.01213 24.3441L13.9861 15.7342C12.6674 15.5825 11.3324 15.7297 10.0751 16.1653C8.81771 16.601 7.66858 17.3145 6.70857 18.2557C5.74857 19.1968 5.00102 20.3428 4.51856 21.6128C4.03611 22.8828 3.83047 24.2461 3.91612 25.6066C4.00178 26.9671 4.37664 28.2917 5.01433 29.4873C5.65202 30.6829 6.53703 31.7203 7.60705 32.5266C8.67707 33.3328 9.9061 33.8883 11.2076 34.1539C12.5091 34.4195 13.8514 34.3887 15.1401 34.0638L9.17513 26.3363L25.9161 26.2778L28.4511 30.5252L18.7071 30.405C19.2388 31.654 20.0305 32.7681 21.0264 33.6689C22.0223 34.5697 23.1982 35.2352 24.4715 35.6187C25.7447 36.0021 27.0843 36.0942 28.3959 35.8884C29.7075 35.6826 30.9593 35.184 32.0631 34.4275C33.167 33.6711 34.096 32.6753 34.7849 31.5102C35.4737 30.3451 35.9057 29.039 36.0503 27.6839C36.1949 26.3288 36.0487 24.9576 35.6219 23.6668C35.1951 22.376 34.4982 21.197 33.5801 20.2128L30.0501 29.3848L21.6501 14.9245L23.9431 10.1366L28.7131 18.8679C29.5004 17.7703 30.0439 16.5088 30.3053 15.1722C30.5668 13.8355 30.54 12.4562 30.2267 11.1314C29.9133 9.80655 29.3212 8.56839 28.4919 7.50407C27.6625 6.43975 26.6162 5.57515 25.4266 4.97114C24.237 4.36713 22.9329 4.03839 21.6063 4.00807C20.2796 3.97775 18.9627 4.24658 17.7481 4.79565C16.5335 5.34471 15.4508 6.16066 14.5762 7.18603C13.7016 8.21141 13.0565 9.42129 12.6861 10.7305L22.1831 9.28591L14.1781 24.2178L14.1771 24.2167Z" fill="url(#paint0_linear_66_29)"/>
</g>
<mask id="mask1_66_29" style="mask-type:luminance" maskUnits="userSpaceOnUse" x="28" y="23" width="17" height="17">
<path d="M44.0005 31.9982C44.0005 27.5798 40.4187 23.998 36.0003 23.998C31.5818 23.998 28 27.5798 28 31.9982C28 36.4167 31.5818 39.9985 36.0003 39.9985C40.4187 39.9985 44.0005 36.4167 44.0005 31.9982Z" fill="white"/>
</mask>
<g mask="url(#mask1_66_29)">
<path d="M43.7591 33.9319C43.3764 35.4672 42.547 36.8544 41.3757 37.9183C40.2044 38.9821 38.7439 39.6748 37.1789 39.9087C35.6139 40.1425 34.0147 39.9071 32.5835 39.2322C31.1523 38.5572 29.9534 37.473 29.1385 36.1168C28.3236 34.7605 27.9293 33.1931 28.0053 31.6127C28.0814 30.0324 28.6245 28.5101 29.5659 27.2383C30.5073 25.9666 31.8048 25.0026 33.2942 24.4682C34.7836 23.9337 36.398 23.853 37.9333 24.236C39.9916 24.7496 41.7617 26.0596 42.8542 27.8778C43.9467 29.6961 44.2722 31.8737 43.7591 33.9319Z" fill="#F7931A"/>
<path d="M39.4114 30.8818C39.5658 29.8535 38.7794 29.3007 37.7034 28.932L38.0522 27.5389L37.2002 27.3277L36.8602 28.684C36.6362 28.6284 36.4061 28.576 36.1773 28.524L36.5197 27.1589L35.6681 26.9478L35.3189 28.3404C35.1333 28.2984 34.9513 28.2568 34.7749 28.2132V28.2088L33.5997 27.9169L33.3728 28.8224C33.3728 28.8224 34.0053 28.9664 33.9917 28.9756C34.1093 28.9893 34.2169 29.0486 34.2912 29.1409C34.3655 29.2331 34.4006 29.3509 34.3889 29.4687L33.9913 31.0558C34.0215 31.0632 34.0512 31.0727 34.0801 31.0842L33.9901 31.0622L33.4329 33.2852C33.4076 33.3634 33.3522 33.4284 33.279 33.4659C33.2058 33.5034 33.1207 33.5103 33.0424 33.4852C33.0508 33.4976 32.4232 33.3316 32.4232 33.3316L32 34.3023L33.1088 34.5775C33.3153 34.6291 33.5173 34.6826 33.7165 34.7334L33.3641 36.1425L34.2153 36.3537L34.5645 34.9598C34.7969 35.0226 35.0229 35.0798 35.2445 35.135L34.8965 36.5225L35.7485 36.7337L36.1009 35.3274C37.5542 35.601 38.6466 35.4906 39.1066 34.1827C39.4774 33.1296 39.0882 32.5224 38.3238 32.1265C38.6172 32.0681 38.883 31.9144 39.0798 31.6892C39.2767 31.4639 39.393 31.1803 39.4114 30.8818ZM37.4646 33.5984C37.2014 34.6515 35.4193 34.0819 34.8417 33.9395L35.3097 32.0729C35.8873 32.2165 37.7398 32.5005 37.4646 33.5984ZM37.7282 30.8666C37.4882 31.8245 36.0049 31.3378 35.5241 31.2186L35.9485 29.5255C36.4286 29.6455 37.9782 29.8675 37.7282 30.8666Z" fill="white"/>
</g>
<path d="M45.0005 31.9982C45.0005 27.0275 40.971 22.998 36.0003 22.998C31.0296 22.998 27 27.0275 27 31.9982C27 36.9689 31.0296 40.9985 36.0003 40.9985C40.971 40.9985 45.0005 36.9689 45.0005 31.9982Z" stroke="#121421" stroke-width="2"/>
</g>
<defs>
<linearGradient id="paint0_linear_66_29" x1="36.7731" y1="5.95494" x2="-4.74837" y2="36.948" gradientUnits="userSpaceOnUse">
<stop stop-color="#03D1CF" stop-opacity="0.988"/>
<stop offset="1" stop-color="#4E09F8"/>
</linearGradient>
<clipPath id="clip0_66_29">
<rect width="46" height="42" rx="21" fill="white"/>
</clipPath>
</defs>
</svg>
