<svg width="16" height="16" viewBox="0 0 16 16" fill="none" xmlns="http://www.w3.org/2000/svg">
<g clip-path="url(#clip0_3413_188)">
<mask id="mask0_3413_188" style="mask-type:luminance" maskUnits="userSpaceOnUse" x="0" y="0" width="16" height="16">
<path d="M16 0H0V16H16V0Z" fill="white"/>
</mask>
<g mask="url(#mask0_3413_188)">
<path d="M8 16C12.4183 16 16 12.4183 16 8C16 3.58172 12.4183 0 8 0C3.58172 0 0 3.58172 0 8C0 12.4183 3.58172 16 8 16Z" fill="#00C260"/>
<path d="M7.99888 11.221L7.94962 11.2811V14.3509L7.99888 14.4947L12 8.85773L7.99888 11.221Z" fill="black"/>
<path d="M7.99892 14.4947V11.221L4.00015 8.85773L7.99892 14.4947Z" fill="black"/>
<path d="M7.9989 1.4617L7.9115 1.75871V10.3764L7.9989 10.4637L11.9976 8.09912L7.9989 1.4617Z" fill="black"/>
<path d="M7.99892 1.4617L4.00015 8.09912L7.99892 10.4637V6.28086V1.4617Z" fill="black"/>
<path d="M7.99887 10.4637L11.9975 8.09915L7.99887 6.28088V10.4637Z" fill="black"/>
<path d="M4.00015 8.09915L7.99892 10.4637V6.28088L4.00015 8.09915Z" fill="black"/>
</g>
</g>
<defs>
<clipPath id="clip0_3413_188">
<rect width="16" height="16" fill="white"/>
</clipPath>
</defs>
</svg>
