<svg width="32" height="32" viewBox="0 0 32 32" fill="none" xmlns="http://www.w3.org/2000/svg">
    <g clip-path="url(#clip0_2334_11251)">
        <path d="M16 32C24.8667 32 32 24.8667 32 16C32 7.13328 24.8667 0 16 0C7.13328 0 0 7.13328 0 16C0 24.8667 7.13328 32 16 32Z" fill="#051212"/>
        <path d="M16 32C24.8667 32 32 24.8667 32 16C32 7.13328 24.8667 0 16 0C7.13328 0 0 7.13328 0 16C0 24.8667 7.13328 32 16 32Z" fill="url(#paint0_linear_2334_11251)"/>
        <path d="M2.4 16C2.4 19.6819 3.87306 23.01 6.2457 25.4535L6.47812 25.6871C8.91615 28.0808 12.1708 29.5088 15.6617 29.5957L16 29.6C19.5053 29.6 22.7931 28.2467 25.2832 25.9156L25.5215 25.6871C28.03 23.2243 29.6 19.8006 29.6 16C29.6 12.1994 28.03 8.77574 25.5215 6.31289L25.2832 6.08438C22.7931 3.75343 19.5053 2.4 16 2.4L16 2L16.3488 2.0043C19.8273 2.09096 23.0768 3.47137 25.5563 5.79219L25.802 6.02735C28.3025 8.48233 29.898 11.8673 29.9953 15.6344L30 16C30 19.7911 28.4825 23.2177 26.041 25.732L25.802 25.9723C23.2126 28.5145 19.7261 30 16 30L15.6516 29.9957C12.0567 29.9062 8.70646 28.4351 6.19804 25.9723C3.61698 23.4381 2 19.9134 2 16L2.00468 15.6344C2.10194 11.8674 3.69762 8.48233 6.19805 6.02734L6.44336 5.79219C9.00542 3.39385 12.3901 2.00004 16 2L16 2.4C12.3814 2.40004 8.99474 3.842 6.47812 6.31289L6.2457 6.54648C3.87308 8.98998 2.4 12.3182 2.4 16Z" fill="url(#paint1_linear_2334_11251)"/>
        <path d="M0.399999 16C0.399999 20.2235 2.0899 24.0411 4.81133 26.8437L5.07773 27.1117C7.87406 29.8572 11.6073 31.4956 15.6117 31.5953L16 31.6C20.021 31.6 23.7923 30.0476 26.6484 27.3738L26.9219 27.1117C29.7991 24.2869 31.6 20.3596 31.6 16C31.6 11.6404 29.7991 7.71315 26.9219 4.88828L26.6484 4.62617C23.7923 1.95259 20.021 0.4 16 0.4L16 5.08584e-07L16.3984 0.00507791C20.3739 0.10407 24.0878 1.68154 26.9215 4.33399L27.202 4.60274C30.0597 7.40841 31.8833 11.2769 31.9945 15.582L32 16C32 20.3327 30.2657 24.2487 27.4754 27.1223L27.202 27.3973C24.2427 30.3027 20.2583 32 16 32L15.6016 31.9949C11.4933 31.8926 7.66435 30.2118 4.79765 27.3973C1.84787 24.5011 -2.80692e-06 20.4724 -2.41593e-06 16L0.0054679 15.582C0.116642 11.2769 1.94005 7.40841 4.79766 4.60273L5.07813 4.33398C8.0062 1.59301 11.8744 4.21096e-05 16 5.08584e-07L16 0.4C11.8491 0.400044 7.96425 2.05421 5.07773 4.88828L4.81133 5.15625C2.08992 7.95895 0.399999 11.7766 0.399999 16Z" fill="#21F1A6"/>
        <path d="M30 15.9999C30 12.2126 28.4862 8.78834 26.041 6.27022L25.8016 6.02959C23.2881 3.56179 19.9381 2.09355 16.348 2.0042L16 1.9999C12.3955 1.99991 9.01174 3.39076 6.44492 5.79365L6.19883 6.02959C3.61331 8.56806 2 12.0905 2 15.9999C2 19.9091 3.61306 23.4317 6.19844 25.9702H6.19883C8.79347 28.5175 12.2792 29.9999 16 29.9999V31.5999L15.6113 31.5952C11.7353 31.4987 8.11435 29.9603 5.35156 27.3741L5.07813 27.112C2.20199 24.2882 0.400002 20.3605 0.400002 15.9999C0.400002 11.7755 2.09116 7.95747 4.81172 5.15576L5.07813 4.88779C7.96337 2.05498 11.8481 0.399909 16 0.399902L16.3883 0.40459C20.3939 0.504335 24.1272 2.1435 26.9223 4.88779C29.7983 7.71153 31.6 11.6393 31.6 15.9999C31.6 20.3605 29.7983 24.2882 26.9223 27.112L26.6488 27.3741C23.7939 30.0466 20.0225 31.5999 16 31.5999V29.9999C19.7212 29.9999 23.2071 28.518 25.8016 25.9706L26.041 25.7296C28.4862 23.2114 30 19.7872 30 15.9999Z" fill="url(#paint2_linear_2334_11251)"/>
        <path d="M15.9999 5.6001C18.7681 5.6001 21.3581 6.70344 23.2816 8.592C25.1989 10.4745 26.4 13.093 26.4 16.0001C26.4 18.9072 25.1989 21.5257 23.2816 23.4083C21.3581 25.2968 18.7681 26.4001 15.9999 26.4001C13.2319 26.4001 10.6422 25.2967 8.71869 23.4083C6.80125 21.5257 5.6 18.9072 5.6 16.0001C5.6 13.093 6.80125 10.4745 8.71869 8.592C10.6422 6.70344 13.2319 5.6001 15.9999 5.6001Z" fill="#051212"/>
        <path d="M26 16.0001C26 13.2931 24.9171 10.8462 23.1723 9.04932L23.0012 8.87744C21.2082 7.11708 18.8153 6.06713 16.2488 6.00322L16 6.0001C13.4229 6.0001 11.0055 6.9951 9.17422 8.70947L8.99883 8.87744C7.15406 10.6886 6 13.2058 6 16.0001C6 18.7943 7.15408 21.3116 8.99883 23.1228L9.17422 23.2911C11.0055 25.0053 13.423 26.0001 16 26.0001V26.4001L15.741 26.397C13.1569 26.3326 10.7427 25.3071 8.90078 23.5829L8.71875 23.4083C6.86128 21.5847 5.67584 19.0702 5.60351 16.272L5.6 16.0001C5.6 13.1839 6.72738 10.6386 8.54101 8.7708L8.71875 8.59189C10.6422 6.70339 13.2321 5.6001 16 5.6001L16.259 5.60322C18.9294 5.66975 21.4183 6.76239 23.2816 8.59189C25.199 10.4744 26.4 13.093 26.4 16.0001L26.3965 16.2716C26.3243 19.07 25.1391 21.5846 23.2816 23.4083L23.0992 23.5829C21.196 25.3646 18.6816 26.4001 16 26.4001V26.0001C18.6604 26.0001 21.1504 24.9399 23.0012 23.1228L23.1723 22.9509C24.917 21.1539 26 18.707 26 16.0001Z" fill="url(#paint3_linear_2334_11251)"/>
        <path d="M20 18.3799C20 16.2305 18.7463 15.4936 16.2388 15.1866C14.4477 14.9409 14.0895 14.4497 14.0895 13.5898C14.0895 12.73 14.6866 12.1774 15.8806 12.1774C16.9552 12.1774 17.5523 12.5459 17.8507 13.4671C17.9105 13.6513 18.0896 13.7741 18.2687 13.7741H19.2238C19.4627 13.7741 19.6418 13.5898 19.6418 13.3443V13.2828C19.4029 11.9317 18.3283 10.8878 16.9552 10.765V9.29119C16.9552 9.0455 16.7761 8.86126 16.4776 8.7998H15.5821C15.3433 8.7998 15.1641 8.98404 15.1044 9.29119V10.7036C13.3133 10.9493 12.1791 12.1774 12.1791 13.7127C12.1791 15.7393 13.3731 16.5375 15.8806 16.8447C17.5523 17.1517 18.0896 17.5202 18.0896 18.5028C18.0896 19.4854 17.2537 20.1609 16.1194 20.1609C14.5671 20.1609 14.0298 19.4852 13.8507 18.5641C13.7911 18.3185 13.612 18.1956 13.4328 18.1956H12.4178C12.1791 18.1956 12 18.3799 12 18.6255V18.687C12.2387 20.2222 13.194 21.3276 15.1642 21.6347V23.1086C15.1642 23.3541 15.3433 23.5383 15.6417 23.5998H16.5372C16.7761 23.5998 16.9552 23.4156 17.015 23.1086V21.6347C18.806 21.3276 20 20.0379 20 18.3799Z" fill="#21F1A6"/>
    </g>
    <defs>
        <linearGradient id="paint0_linear_2334_11251" x1="0" y1="16" x2="32" y2="16" gradientUnits="userSpaceOnUse">
            <stop stop-color="#97FCE4"/>
            <stop offset="1" stop-color="#97FCE4" stop-opacity="0.2"/>
        </linearGradient>
        <linearGradient id="paint1_linear_2334_11251" x1="1.36458" y1="16.3605" x2="27.6018" y2="16.3605" gradientUnits="userSpaceOnUse">
            <stop stop-color="#21F1A6" stop-opacity="0.6"/>
            <stop offset="1" stop-color="#21F1A6" stop-opacity="0.2"/>
        </linearGradient>
        <linearGradient id="paint2_linear_2334_11251" x1="32.308" y1="15.5982" x2="-20.4" y2="15.5982" gradientUnits="userSpaceOnUse">
            <stop stop-color="#051212"/>
            <stop offset="1" stop-color="#051212" stop-opacity="0.76"/>
        </linearGradient>
        <linearGradient id="paint3_linear_2334_11251" x1="26.872" y1="15.7323" x2="7.38154" y2="15.7323" gradientUnits="userSpaceOnUse">
            <stop stop-color="#21F1A6"/>
            <stop offset="1" stop-color="#21F1A6" stop-opacity="0"/>
        </linearGradient>
        <clipPath id="clip0_2334_11251">
            <rect width="32" height="32" fill="white"/>
        </clipPath>
    </defs>
</svg>
