<svg xmlns="http://www.w3.org/2000/svg" viewBox="0 0 120 120" role="img" aria-label="muBOND token logo">
  <rect width="120" height="120" rx="28" fill="#111827"/>
  <circle cx="60" cy="60" r="44" fill="#1f2937" stroke="#f59e0b" stroke-width="4"/>
  <g transform="translate(16 23) scale(.72)">
    <path d="M35.591 5.283V19.62H32.78v-9.297l-4.044 6.656h-.329l-4.044-6.636v9.278h-2.833V5.285h2.914l4.126 6.78 4.105-6.78zM44.5 9.379h2.649v10.24H44.5v-1.145c-.636.962-1.663 1.434-3.059 1.434-1.13 0-2.052-.37-2.79-1.127-.718-.758-1.089-1.783-1.089-3.113V9.38h2.649v5.959c0 1.372.801 2.111 2.031 2.111 1.374 0 2.257-.839 2.257-2.54zm10.488-4.096c1.971 0 3.613.697 4.927 2.069 1.335 1.371 1.992 3.106 1.992 5.133s-.657 3.734-1.992 5.105c-1.314 1.372-2.956 2.07-4.927 2.07h-5.707V5.283zm0 11.631c1.251 0 2.257-.41 3.038-1.23.78-.84 1.17-1.905 1.17-3.237 0-1.33-.39-2.396-1.17-3.214-.78-.839-1.787-1.248-3.038-1.248h-2.875v8.93zm8.088-10.383c0-.88.739-1.638 1.622-1.638s1.642.758 1.642 1.638-.738 1.618-1.642 1.618c-.903 0-1.622-.737-1.622-1.618zm.307 13.088V9.379h2.649v10.24zm12.52-9.948h2.586v9.456c0 1.576-.533 2.785-1.58 3.626-1.046.839-2.299 1.248-3.776 1.248-2.218 0-3.963-.86-4.864-2.498l2.257-1.29c.512.962 1.416 1.434 2.688 1.434 1.663 0 2.689-.902 2.689-2.519v-1.106c-.781 1.044-1.869 1.557-3.285 1.557s-2.668-.512-3.654-1.515c-.965-1.024-1.458-2.273-1.458-3.728s.493-2.682 1.458-3.707c.985-1.024 2.197-1.536 3.654-1.536s2.504.512 3.285 1.557zm-2.873 7.471c1.663 0 2.874-1.166 2.874-2.805s-1.211-2.786-2.874-2.786-2.874 1.167-2.874 2.786c0 1.639 1.21 2.805 2.874 2.805zm7.142-10.61c0-.88.739-1.638 1.622-1.638s1.643.758 1.643 1.638-.739 1.618-1.643 1.618-1.622-.737-1.622-1.618zm.307 13.088V9.379h2.649v10.24zm8.219-7.7h-2.32V9.379h2.32V7.31l2.649-.8v2.868h2.318v2.54h-2.318v4.26c0 1.106.801 1.127 2.318 1.044v2.396c-3.633.41-4.967-.635-4.967-3.44zm10.558-2.54h2.649v10.24h-2.649v-1.207c-.801 1.004-1.908 1.496-3.346 1.496s-2.545-.512-3.53-1.557c-.965-1.045-1.459-2.335-1.459-3.853 0-1.517.494-2.785 1.459-3.83.985-1.045 2.154-1.577 3.53-1.577 1.377 0 2.545.491 3.346 1.495zm-2.853 8.008c.821 0 1.499-.267 2.032-.8.534-.532.821-1.25.821-2.09 0-.84-.267-1.536-.82-2.069-.534-.553-1.212-.82-2.033-.82-.82 0-1.498.267-2.031.82-.534.533-.801 1.229-.801 2.07s.267 1.557.8 2.09c.534.532 1.212.799 2.032.799zm7.493 2.232V4.67h2.649V19.62z" fill="#fff"/>
  </g>
  <text x="60" y="89" font-family="Arial, Helvetica, sans-serif" font-size="24" font-weight="700" text-anchor="middle" fill="#fde68a">muBOND</text>
</svg>
