<svg xmlns="http://www.w3.org/2000/svg" width="95" height="28" viewBox="0 0 96 28" fill="none">
  <path fill="#FFF" fill-rule="evenodd" d="M14 0C6.268 0 0 6.268 0 14s6.268 14 14 14c2.638 0 5.107-.731 7.213-2H14A12.007 12.007 0 0 1 2 14C2 7.372 7.373 2 14 2c6.627 0 12 5.373 12 12 0 .681-.055 1.349-.166 1.999h2.023c.024-.167.046-.334.064-.503.007-.068.014-.136.019-.206.018-.189.032-.38.04-.571q.01-.179.014-.359c.003-.119.005-.24.005-.36C28 6.268 21.732 0 14 0Zm0 6.003A7.998 7.998 0 0 0 6.002 14C6.002 18.419 9.583 22 14 22h11.49a12 12 0 0 1-1.692 2H14A10.001 10.001 0 0 1 4 14C4 8.478 8.476 4 14 4s10 4.478 10 10a9.9 9.9 0 0 1-.199 1.999h-2.054A8.1 8.1 0 0 0 22 14c0-4.417-3.582-7.998-8-7.998Zm0 4C11.792 10.003 10.002 11.792 10.002 14S11.792 18 14 18h13.419a14 14 0 0 1-.766 1.999H14a6 6 0 1 1 6-6c0 .702-.121 1.374-.342 1.999h-2.193A4 4 0 0 0 18 14c0-2.208-1.792-3.997-4-3.997Zm31.06-4.68c4.789 0 8.477 3.735 8.477 8.573 0 4.909-3.688 8.669-8.477 8.669-4.814 0-8.478-3.76-8.478-8.669 0-4.838 3.664-8.573 8.478-8.573Zm0 2.227c-3.448 0-6.107 2.778-6.107 6.346 0 3.64 2.659 6.442 6.107 6.442 3.448 0 6.106-2.802 6.106-6.442 0-3.568-2.658-6.346-6.106-6.346ZM78.272 5.562h2.203v16.764h-2.203V19.93c-.862 1.677-2.395 2.635-4.454 2.635-3.161 0-5.675-2.706-5.675-6.083s2.514-6.083 5.675-6.083c2.059 0 3.592.958 4.454 2.635Zm-3.999 6.945c-2.227 0-3.975 1.748-3.975 3.975s1.748 3.976 3.975 3.976c2.299 0 3.999-1.677 3.999-3.976 0-2.298-1.7-3.975-3.999-3.975Zm14.068-2.107c3.376 0 6.034 2.658 6.034 6.107 0 3.424-2.658 6.058-6.034 6.058-3.401 0-6.035-2.634-6.035-6.058 0-3.449 2.634-6.107 6.035-6.107Zm0 2.107c-2.203 0-3.879 1.724-3.879 4 0 2.227 1.676 3.951 3.879 3.951 2.179 0 3.88-1.724 3.88-3.951 0-2.276-1.701-4-3.88-4Zm-21.948 3.137c0-3.233-1.868-5.244-4.885-5.244-1.676 0-2.994.838-3.737 2.275V10.64h-2.227v11.686h2.227v-6.442c0-2.036 1.269-3.377 3.233-3.377 1.94 0 3.185 1.341 3.185 3.377v6.442h2.203Z" clip-rule="evenodd"/>
</svg>
