<svg width="37" height="37" viewBox="0 0 37 37" xmlns="http://www.w3.org/2000/svg"><g xmlns="http://www.w3.org/2000/svg" width="37" height="37" fill="none" viewBox="0 0 37 37" transform="translate(-0.0040560799676018795, -0.00405298696981894) scale(0.6166666666666667, 0.6166666666666667)"><path fill="#000" d="M30 56.47A26.407 26.407 0 0 0 56.47 30 26.407 26.407 0 0 0 30 3.53 26.407 26.407 0 0 0 3.53 30 26.407 26.407 0 0 0 30 56.47"></path><path fill="#3A14A3" d="M56.476 30.003c0 14.62-11.852 26.473-26.473 26.473S3.529 44.624 3.529 30.003 15.382 3.529 30.003 3.529c14.62 0 26.473 11.853 26.473 26.474"></path><path fill="#fff" d="m30 20.372 8.195 8.194h7.246L30 13.125 14.559 28.566h7.246zM38.195 31.608 30 39.802l-8.195-8.194H14.56l15.44 15.44 15.442-15.44z"></path></g><circle cx="18.5" cy="18.5" r="17.5" stroke="#1BE3C2" stroke-width="2" fill="none"></circle></svg>