<svg width="37" height="38" viewBox="0 0 37 38" fill="none" xmlns="http://www.w3.org/2000/svg">
<path d="M18.5006 0.112305H18.5C8.28283 0.112305 0.000244141 8.39489 0.000244141 18.612V18.6127C0.000244141 28.8298 8.28283 37.1123 18.5 37.1123H18.5006C28.7177 37.1123 37.0002 28.8298 37.0002 18.6127V18.612C37.0002 8.39489 28.7177 0.112305 18.5006 0.112305Z" fill="black"/>
<path d="M18.8889 30.0457C18.9791 30.4395 18.91 30.6809 18.5221 30.8508V30.8496C17.751 30.3715 17.3198 29.7656 17.1826 28.848C16.892 26.8957 16.4713 24.9609 16.1057 23.0191C16.0705 22.8328 16.0471 22.6441 16.0119 22.4109C16.4783 22.309 16.9049 22.2152 17.3783 22.1121C17.7158 23.8852 18.044 25.5949 18.3674 27.3047C18.5408 28.2187 18.6803 29.1398 18.8889 30.0457Z" fill="black"/>
<path fill-rule="evenodd" clip-rule="evenodd" d="M17.9997 6.43496L9.90271 22.3663L18.4121 30.1881L26.9299 22.9014L18.5674 6.43505C18.4878 6.27825 18.2961 6.21569 18.1393 6.29532C18.0792 6.32589 18.0302 6.37479 17.9997 6.43496Z" stroke="white" stroke-width="0.95525"/>
<path d="M13.5651 15.1426L18.3162 17.447L23.1163 15.1426" stroke="white" stroke-width="0.95525"/>
<path d="M10.1521 22.5693L13.3667 20.8921L16.6675 23.1262L23.8034 21.3676L26.8068 23.0275L18.4163 30.1881L10.1521 22.5693Z" fill="white" stroke="white" stroke-width="0.640124"/>
<path d="M18.1377 17.2461L17.0857 23.2772L18.4163 30.1881" stroke="white" stroke-width="0.95525"/>
<path d="M17.0857 23.2773L18.4163 30.1882" stroke="#FFF3D1" stroke-width="0.95525"/>
<path d="M29.0001 21.6123H29.0004C33.1425 21.6123 36.5002 24.9701 36.5002 29.1122V29.1125C36.5002 33.2545 33.1425 36.6123 29.0004 36.6123H29.0001C24.858 36.6123 21.5002 33.2545 21.5002 29.1125V29.1122C21.5002 24.9701 24.858 21.6123 29.0001 21.6123Z" fill="#F47226" stroke="white"/>
<path d="M31.447 30.6878V30.0888C31.8174 29.9627 32.0854 29.5687 32.0854 29.1037C32.0854 28.6387 31.8174 28.2447 31.447 28.1186V27.5196C31.7938 27.4014 32.0539 27.0467 32.0775 26.6133H31.6598V26.7945C31.6598 26.9364 31.5731 27.0625 31.447 27.1177V27.0467C31.447 26.9206 31.3367 26.8182 31.2027 26.8182H31.1791C31.0451 26.8182 30.9348 26.9206 30.9348 27.0467V27.1334C30.8087 27.0704 30.722 26.9522 30.722 26.8103V26.629H30.3043C30.3358 27.0546 30.588 27.4172 30.9348 27.5354V28.1343C30.5643 28.2604 30.2964 28.6545 30.2964 29.1195C30.2964 29.5844 30.5643 29.9785 30.9348 30.1046V30.7036C30.588 30.8218 30.3279 31.1764 30.3043 31.6099H30.722V31.4286C30.722 31.2868 30.8087 31.1607 30.9348 31.1055V31.1922C30.9348 31.3183 31.0451 31.4207 31.1791 31.4207H31.2027C31.3367 31.4207 31.447 31.3183 31.447 31.1922V31.1055C31.5731 31.1685 31.6598 31.2868 31.6598 31.4286V31.6099H32.0775C32.0539 31.1607 31.7938 30.806 31.447 30.6878ZM30.722 29.3638V28.8436C30.722 28.7018 30.8087 28.5757 30.9348 28.5205V28.6072C30.9348 28.7333 31.0451 28.8357 31.1791 28.8357H31.2027C31.3367 28.8357 31.447 28.7333 31.447 28.6072V28.5205C31.5731 28.5836 31.6598 28.7018 31.6598 28.8436V29.3638C31.6598 29.5056 31.5731 29.6317 31.447 29.6869V29.6002C31.447 29.4741 31.3367 29.3717 31.2027 29.3717H31.1791C31.0451 29.3717 30.9348 29.4741 30.9348 29.6002V29.6869C30.8087 29.6317 30.722 29.5056 30.722 29.3638Z" fill="black"/>
<path d="M34.032 29.4189V28.7806C34.4024 28.6545 34.6704 28.2604 34.6704 27.7954C34.6704 27.3305 34.4024 26.9364 34.032 26.8103V26.6133H33.5277V26.8103C33.1572 26.9364 32.8893 27.3305 32.8893 27.7954C32.8893 28.2604 33.1572 28.6545 33.5277 28.7806V29.4189C33.1572 29.545 32.8893 29.9391 32.8893 30.4041C32.8893 30.8691 33.1572 31.2631 33.5277 31.3892V31.5862H34.032V31.3892C34.4024 31.2631 34.6704 30.8691 34.6704 30.4041C34.6704 29.9391 34.4024 29.545 34.032 29.4189ZM33.3149 28.0634V27.5432C33.3149 27.4014 33.4016 27.2753 33.5277 27.2201V27.3068C33.5277 27.4329 33.638 27.5354 33.772 27.5354H33.7956C33.9296 27.5354 34.0399 27.4329 34.0399 27.3068V27.2201C34.166 27.2832 34.2527 27.4014 34.2527 27.5432V28.0634C34.2527 28.2053 34.166 28.3314 34.0399 28.3865V28.3077C34.0399 28.1816 33.9296 28.0792 33.7956 28.0792H33.772C33.638 28.0792 33.5277 28.1816 33.5277 28.3077V28.3944C33.4016 28.3314 33.3149 28.2053 33.3149 28.0634ZM34.2448 30.6642C34.2448 30.806 34.1581 30.9321 34.032 30.9873V30.8612C34.032 30.7351 33.9217 30.6326 33.7877 30.6326H33.7641C33.6301 30.6326 33.5198 30.7351 33.5198 30.8612V30.9873C33.3937 30.9242 33.307 30.806 33.307 30.6642V30.144C33.307 30.0021 33.3937 29.876 33.5198 29.8209V29.8682C33.5198 29.9943 33.6301 30.0967 33.7641 30.0967H33.7877C33.9217 30.0967 34.032 29.9943 34.032 29.8682V29.8209C34.1581 29.8839 34.2448 30.0021 34.2448 30.144V30.6642Z" fill="black"/>
<path d="M28.531 28.5996C28.5231 28.5759 28.5231 28.5523 28.5073 28.5286C28.5073 28.5207 29.3033 27.4962 28.5704 26.8657C27.8374 26.2352 26.9863 27.0549 26.9784 27.0627C26.8444 27.0233 26.7026 26.9997 26.5686 26.9839C26.2928 26.9445 25.8987 26.9839 25.8987 26.9839C25.7647 26.9918 25.6307 27.0155 25.4968 27.0549C25.4889 27.047 24.6377 26.2274 23.9048 26.8578C23.1718 27.4883 23.96 28.5129 23.9678 28.5207C23.96 28.5444 23.9521 28.568 23.9442 28.5917C23.8654 29.033 23.3295 29.167 23.3295 29.9315C23.3295 30.7117 23.889 31.3264 25.0397 31.3264H25.5125C25.5125 31.3264 25.6938 31.5707 26.0721 31.5865C26.0721 31.5865 26.1588 31.5944 26.3558 31.5865C26.7577 31.5865 26.9469 31.3343 26.9469 31.3264H27.4197C28.5704 31.3264 29.1299 30.7117 29.1299 29.9315C29.1536 29.1749 28.6098 29.033 28.531 28.5996Z" fill="black"/>
<circle cx="18.5" cy="18.5" r="17.5" stroke="#1BE3C2" stroke-width="2"/>
<path d="M29.0001 21.5H29.0004C33.1425 21.5 36.5002 24.8578 36.5002 28.9999V29.0002C36.5002 33.1422 33.1425 36.5 29.0004 36.5H29.0001C24.858 36.5 21.5002 33.1422 21.5002 29.0002V28.9999C21.5002 24.8578 24.858 21.5 29.0001 21.5Z" fill="#F47226" stroke="white"/>
<path d="M31.447 30.5755V29.9765C31.8174 29.8504 32.0854 29.4564 32.0854 28.9914C32.0854 28.5264 31.8174 28.1324 31.447 28.0063V27.4073C31.7938 27.2891 32.0539 26.9344 32.0775 26.501H31.6598V26.6822C31.6598 26.8241 31.5731 26.9502 31.447 27.0054V26.9344C31.447 26.8083 31.3367 26.7059 31.2027 26.7059H31.1791C31.0451 26.7059 30.9348 26.8083 30.9348 26.9344V27.0211C30.8087 26.9581 30.722 26.8399 30.722 26.698V26.5167H30.3043C30.3358 26.9423 30.588 27.3048 30.9348 27.4231V28.022C30.5643 28.1481 30.2964 28.5422 30.2964 29.0072C30.2964 29.4721 30.5643 29.8662 30.9348 29.9923V30.5913C30.588 30.7095 30.3279 31.0641 30.3043 31.4976H30.722V31.3163C30.722 31.1745 30.8087 31.0484 30.9348 30.9932V31.0799C30.9348 31.206 31.0451 31.3084 31.1791 31.3084H31.2027C31.3367 31.3084 31.447 31.206 31.447 31.0799V30.9932C31.5731 31.0562 31.6598 31.1745 31.6598 31.3163V31.4976H32.0775C32.0539 31.0484 31.7938 30.6937 31.447 30.5755ZM30.722 29.2515V28.7313C30.722 28.5895 30.8087 28.4634 30.9348 28.4082V28.4949C30.9348 28.621 31.0451 28.7234 31.1791 28.7234H31.2027C31.3367 28.7234 31.447 28.621 31.447 28.4949V28.4082C31.5731 28.4712 31.6598 28.5895 31.6598 28.7313V29.2515C31.6598 29.3933 31.5731 29.5194 31.447 29.5746V29.4879C31.447 29.3618 31.3367 29.2594 31.2027 29.2594H31.1791C31.0451 29.2594 30.9348 29.3618 30.9348 29.4879V29.5746C30.8087 29.5194 30.722 29.3933 30.722 29.2515Z" fill="black"/>
<path d="M34.032 29.3066V28.6683C34.4024 28.5422 34.6704 28.1481 34.6704 27.6831C34.6704 27.2182 34.4024 26.8241 34.032 26.698V26.501H33.5277V26.698C33.1572 26.8241 32.8893 27.2182 32.8893 27.6831C32.8893 28.1481 33.1572 28.5422 33.5277 28.6683V29.3066C33.1572 29.4327 32.8893 29.8268 32.8893 30.2918C32.8893 30.7568 33.1572 31.1508 33.5277 31.2769V31.4739H34.032V31.2769C34.4024 31.1508 34.6704 30.7568 34.6704 30.2918C34.6704 29.8268 34.4024 29.4327 34.032 29.3066ZM33.3149 27.9511V27.4309C33.3149 27.2891 33.4016 27.163 33.5277 27.1078V27.1945C33.5277 27.3206 33.638 27.4231 33.772 27.4231H33.7956C33.9296 27.4231 34.0399 27.3206 34.0399 27.1945V27.1078C34.166 27.1709 34.2527 27.2891 34.2527 27.4309V27.9511C34.2527 28.093 34.166 28.2191 34.0399 28.2742V28.1954C34.0399 28.0693 33.9296 27.9669 33.7956 27.9669H33.772C33.638 27.9669 33.5277 28.0693 33.5277 28.1954V28.2821C33.4016 28.2191 33.3149 28.093 33.3149 27.9511ZM34.2448 30.5519C34.2448 30.6937 34.1581 30.8198 34.032 30.875V30.7489C34.032 30.6228 33.9217 30.5203 33.7877 30.5203H33.7641C33.6301 30.5203 33.5198 30.6228 33.5198 30.7489V30.875C33.3937 30.8119 33.307 30.6937 33.307 30.5519V30.0317C33.307 29.8898 33.3937 29.7637 33.5198 29.7086V29.7559C33.5198 29.882 33.6301 29.9844 33.7641 29.9844H33.7877C33.9217 29.9844 34.032 29.882 34.032 29.7559V29.7086C34.1581 29.7716 34.2448 29.8898 34.2448 30.0317V30.5519Z" fill="black"/>
<path d="M28.531 28.4873C28.5231 28.4636 28.5231 28.44 28.5073 28.4163C28.5073 28.4084 29.3033 27.3839 28.5704 26.7534C27.8374 26.1229 26.9863 26.9426 26.9784 26.9504C26.8444 26.911 26.7026 26.8874 26.5686 26.8716C26.2928 26.8322 25.8987 26.8716 25.8987 26.8716C25.7647 26.8795 25.6307 26.9032 25.4968 26.9426C25.4889 26.9347 24.6377 26.115 23.9048 26.7455C23.1718 27.376 23.96 28.4006 23.9678 28.4084C23.96 28.4321 23.9521 28.4557 23.9442 28.4794C23.8654 28.9207 23.3295 29.0547 23.3295 29.8192C23.3295 30.5994 23.889 31.2141 25.0397 31.2141H25.5125C25.5125 31.2141 25.6938 31.4584 26.0721 31.4742C26.0721 31.4742 26.1588 31.4821 26.3558 31.4742C26.7577 31.4742 26.9469 31.222 26.9469 31.2141H27.4197C28.5704 31.2141 29.1299 30.5994 29.1299 29.8192C29.1536 29.0626 28.6098 28.9207 28.531 28.4873Z" fill="black"/>
</svg>
