<svg width="37" height="37" viewBox="0 0 37 37" xmlns="http://www.w3.org/2000/svg"><g xmlns="http://www.w3.org/2000/svg" width="37" height="37" fill="none" viewBox="0 0 37 37" transform="translate(0.017999395728111267, 0.017999395728111267) scale(1, 1)"><path fill="#292929" stroke="#292929" stroke-width="0.387" d="M18.482 36.783c10.107 0 18.301-8.194 18.301-18.301S28.589.181 18.482.181.181 8.375.181 18.482s8.194 18.301 18.301 18.301Z"></path><path fill="#fff" d="M15.596 3.624v1.394l-.05.036c-3.373.713-6.388 2.75-8.354 5.563a13.75 13.75 0 0 0-.391 15.12c1.947 3.113 5.133 5.391 8.745 6.15l.05.038v1.394c-3.777-.698-7.197-2.926-9.427-6.028-3.91-5.438-3.765-12.864.371-18.132 2.235-2.847 5.479-4.874 9.058-5.534zm5.78 29.694v-1.437c3.57-.739 6.757-3.002 8.697-6.067 3.089-4.883 2.788-11.212-.761-15.763-1.962-2.517-4.795-4.327-7.931-4.994l-.005-1.432a15.22 15.22 0 0 1 9.484 6.171 15.14 15.14 0 0 1-.144 17.553 15.23 15.23 0 0 1-9.341 5.97z"></path><path fill="#D1F019" d="M19.585 17.452c2.273.417 4.282 1.099 4.263 3.77-.019 2.197-1.61 3.77-4.13 4.111v1.989h-2.349v-2.008c-2.595-.417-4.168-2.046-4.187-4.376l2.785.038c.095 1.288 1.118 2.178 2.747 2.178 1.307 0 2.273-.568 2.273-1.61 0-1.118-1.08-1.345-3.296-1.781-2.236-.417-4.206-1.137-4.206-3.827 0-2.065 1.497-3.599 3.884-3.941V9.987h2.349v2.027c2.368.398 3.827 1.895 3.865 4.073h-2.785c-.132-1.118-.985-1.895-2.368-1.895-1.212 0-2.084.512-2.084 1.534 0 1.08 1.042 1.307 3.239 1.724"></path></g><circle cx="18.5" cy="18.5" r="17.5" stroke="#1BE3C2" stroke-width="2" fill="none"></circle></svg>