<svg width="37" height="37" viewBox="0 0 37 37" xmlns="http://www.w3.org/2000/svg"><g xmlns="http://www.w3.org/2000/svg" viewBox="0 0 37 37" width="37" height="37" transform="translate(0, 0) scale(0.038381742738589214, 0.038381742738589214)"><path d="M482 949c-63.05 0-124.21-12.35-181.77-36.69-55.61-23.52-105.55-57.19-148.45-100.09-42.89-42.89-76.57-92.84-100.09-148.45C27.34 606.21 15 545.05 15 482s12.35-124.21 36.69-181.77c23.52-55.61 57.19-105.55 100.09-148.45s92.84-76.57 148.45-100.09C357.79 27.34 418.95 15 482 15s124.21 12.35 181.77 36.69c55.61 23.52 105.55 57.19 148.45 100.09 42.89 42.89 76.57 92.84 100.09 148.45C936.66 357.79 949 418.95 949 482s-12.35 124.21-36.69 181.77c-23.52 55.61-57.19 105.55-100.09 148.45s-92.84 76.57-148.45 100.09C606.21 936.66 545.05 949 482 949" style="fill:#f2f2f2"></path><path d="M482 30c61.03 0 120.22 11.95 175.93 35.51 53.82 22.76 102.16 55.36 143.68 96.88s74.12 89.86 96.88 143.68C922.05 361.78 934 420.97 934 482s-11.95 120.22-35.51 175.93c-22.76 53.82-55.36 102.16-96.88 143.68s-89.86 74.12-143.68 96.88C602.22 922.05 543.03 934 482 934s-120.22-11.95-175.93-35.51c-53.82-22.76-102.16-55.36-143.68-96.88s-74.12-89.86-96.88-143.68C41.95 602.22 30 543.03 30 482s11.95-120.22 35.51-175.93c22.76-53.82 55.36-102.16 96.88-143.68s89.86-74.12 143.68-96.88C361.78 41.95 420.97 30 482 30m0-30C215.8 0 0 215.8 0 482s215.8 482 482 482 482-215.8 482-482S748.2 0 482 0"></path><path d="M216.86 200.4h530.28v117.84H540.92v117.84H423.08V318.24H216.86z"></path><path d="M423.08 436.08v235.68H305.24V436.08zM540.94 671.76h117.82V436.08H540.92v235.68H423.1V789.6h117.84z"></path></g><circle cx="18.5" cy="18.5" r="17.5" stroke="#1BE3C2" stroke-width="2" fill="none"></circle></svg>