<svg version="1.2" xmlns="http://www.w3.org/2000/svg" viewBox="0 0 150 150" width="150" height="150">
	<title>3fb2bbe7-6d94-4c73-ba8d-27a3a3eab2d9-svg</title>
	<defs>
		<clipPath clipPathUnits="userSpaceOnUse" id="cp1">
			<path d="m77.32 150.08c-41.48 0-75-33.53-75-75 0-41.48 33.52-75 75-75 41.47 0 75 33.52 75 75 0 41.47-33.53 75-75 75z"/>
		</clipPath>
		<linearGradient id="g1" x2="1" gradientUnits="userSpaceOnUse" gradientTransform="matrix(-92.085,-1.412,.95,-61.934,94.119,76.491)">
			<stop offset="0" stop-color="#498e85"/>
			<stop offset="1" stop-color="#32645f"/>
		</linearGradient>
		<linearGradient id="g2" x2="1" gradientUnits="userSpaceOnUse" gradientTransform="matrix(90.173,1.858,-1.586,76.963,.203,77.912)">
			<stop offset="0" stop-color="#2f5d59"/>
			<stop offset="1" stop-color="#3f8078"/>
		</linearGradient>
	</defs>
	<style>
		.s0 { fill: #162e2f } 
		.s1 { fill: url(#g1) } 
		.s2 { fill: url(#g2) } 
		.s3 { fill: #c3fcf1 } 
	</style>
	<path class="s0" d="m75 0c41.4 0 75 33.6 75 75 0 41.4-33.6 75-75 75-41.4 0-75-33.6-75-75 0-41.4 33.6-75 75-75z"/>
	<g id="Clip-Path" clip-path="url(#cp1)">
		<g>
			<path class="s1" d="m-28.1 34.5h106.8l0.1 11.2 9.1 4.4 6.2 6.8v29.4 7.6l-6.2 7.2-9.2 5.7v8.9h-106.8z"/>
			<path class="s2" d="m66.2 47.1v55.9h-66v-55.9z"/>
		</g>
	</g>
	<path fill-rule="evenodd" class="s3" d="m83.3 41.2c11.4 1 20.5 4.6 21.5 15.2 0.8 7.8-2.4 12.5-7.6 15.1 8.5 2.1 13.8 7.2 12.8 18.6-1.3 14.1-11.8 17.9-26.8 18.8v6.7h-8.9v-6.5q-3.4 0-7.1-0.1v6.6h-8.8v-6.7c-2.1-0.1-11.7-0.1-13.9-0.1l0.1-7.8h7.4v-51.8h-7.4v-8c0 0 11.9 0.1 13.8 0v-6.8h8.9v6.5c2.3 0 4.7-0.1 7.1-0.1v-6.4h8.9zm-14.1 57c7.3 0.1 23.2 0.3 23.2-9.9 0-10.5-15.3-10.1-22.8-9.9q-1.2 0-2.2 0v19.8q0.8 0 1.8 0zm-0.3-28.8c6.1 0.1 19.4 0.3 19.4-9 0-9.5-12.8-9.1-19-9q-1.1 0.1-1.8 0.1v17.9q0.6 0 1.4 0z"/>
</svg>
