<svg width="37" height="38" viewBox="0 0 37 38" fill="none" xmlns="http://www.w3.org/2000/svg">
<path d="M18.5 37.1614C28.7521 37.1614 37 28.9135 37 18.6614C37 8.40923 28.7521 0.161377 18.5 0.161377C8.24786 0.161377 0 8.40923 0 18.6614C0 28.9135 8.24786 37.1614 18.5 37.1614Z" fill="#2775CA"/>
<path d="M23.3291 21.1864C23.3291 18.4885 21.7104 17.5635 18.4729 17.1782C16.1604 16.8698 15.6979 16.2532 15.6979 15.1739C15.6979 14.0946 16.4688 13.401 18.0104 13.401C19.3979 13.401 20.1688 13.8635 20.5541 15.0198C20.6313 15.251 20.8625 15.4051 21.0938 15.4051H22.327C22.6354 15.4051 22.8666 15.1739 22.8666 14.8657V14.7885C22.5582 13.0926 21.1707 11.7823 19.3979 11.6282V9.77817C19.3979 9.46977 19.1666 9.23852 18.7813 9.16138H17.625C17.3166 9.16138 17.0854 9.39263 17.0082 9.77817V11.551C14.6957 11.8594 13.2312 13.401 13.2312 15.3282C13.2312 17.8719 14.7729 18.8739 18.0104 19.2594C20.1688 19.6448 20.8625 20.1073 20.8625 21.3407C20.8625 22.5741 19.7832 23.4219 18.3188 23.4219C16.3145 23.4219 15.6207 22.5739 15.3895 21.4176C15.3125 21.1094 15.0813 20.9551 14.85 20.9551H13.5395C13.2313 20.9551 13 21.1864 13 21.4948V21.5719C13.3082 23.4989 14.5416 24.8864 17.0854 25.2719V27.1219C17.0854 27.4301 17.3166 27.6614 17.702 27.7385H18.8582C19.1666 27.7385 19.3979 27.5073 19.475 27.1219V25.2719C21.7875 24.8864 23.3291 23.2676 23.3291 21.1864Z" fill="white"/>
<path d="M14.9814 29.2883C8.96889 27.1301 5.88549 20.4239 8.12103 14.4883C9.27728 11.2508 11.821 8.78423 14.9814 7.62798C15.2898 7.47388 15.4439 7.24263 15.4439 6.85709V5.77798C15.4439 5.46959 15.2898 5.23834 14.9814 5.16138C14.9042 5.16138 14.7501 5.16138 14.673 5.23834C7.35014 7.55084 3.34174 15.3364 5.65424 22.6592C7.04174 26.9758 10.3564 30.2905 14.673 31.678C14.9814 31.8321 15.2898 31.678 15.3667 31.3696C15.4439 31.2926 15.4439 31.2155 15.4439 31.0614V29.9821C15.4439 29.7508 15.2126 29.4426 14.9814 29.2883ZM23.1523 5.23834C22.8439 5.08423 22.5355 5.23834 22.4585 5.54673C22.3814 5.62388 22.3814 5.70084 22.3814 5.85513V6.93423C22.3814 7.24263 22.6126 7.55084 22.8439 7.70513C28.8564 9.86334 31.9398 16.5696 29.7042 22.5051C28.548 25.7426 26.0042 28.2092 22.8439 29.3655C22.5355 29.5196 22.3814 29.7508 22.3814 30.1364V31.2155C22.3814 31.5239 22.5355 31.7551 22.8439 31.8321C22.921 31.8321 23.0751 31.8321 23.1523 31.7551C30.4751 29.4426 34.4835 21.6571 32.171 14.3342C30.7835 9.94048 27.3917 6.62584 23.1523 5.23834Z" fill="white"/>
<circle cx="18.5" cy="18.5" r="17.5" stroke="#1BE3C2" stroke-width="2"/>
<g clip-path="url(#clip0_7488_11467)">
<path d="M36.9475 29.0148C36.9475 24.6831 33.3658 21.1716 28.9475 21.1716C24.5292 21.1716 20.9475 24.6831 20.9475 29.0148C20.9475 33.3464 24.5292 36.8579 28.9475 36.8579C33.3658 36.8579 36.9475 33.3464 36.9475 29.0148Z" fill="url(#paint0_radial_7488_11467)"/>
<path d="M26.6425 25.3884C26.7188 25.3884 26.7806 25.449 26.7806 25.5238V27.8688C26.7806 27.9078 26.8027 27.9437 26.8378 27.9619L27.3572 28.2325C27.3915 28.2503 27.4329 28.2488 27.4656 28.2282L28.8319 27.367C28.8759 27.3393 28.9322 27.3383 28.9772 27.3645L30.4609 28.2303C30.4939 28.2496 30.5349 28.2503 30.5684 28.2319L31.0575 27.9626C31.0914 27.9439 31.1125 27.9087 31.1125 27.8707V25.5238C31.1125 25.449 31.1743 25.3884 31.2506 25.3884H32.2225C32.2988 25.3884 32.3606 25.449 32.3606 25.5238V28.5827C32.3606 28.6298 32.3357 28.6736 32.2947 28.6982L28.9784 30.6829C28.9328 30.7101 28.8753 30.7091 28.8306 30.6804L27.9175 30.0897C27.8322 30.0345 27.8354 29.9107 27.9234 29.8599L29.2416 29.1004C29.3128 29.0594 29.3121 28.9582 29.2403 28.9182L28.9606 28.7625C28.9261 28.7433 28.8835 28.7442 28.85 28.765L26.8306 30.0217C26.7996 30.041 26.7806 30.0745 26.7806 30.1105V32.5052C26.7806 32.5799 26.7188 32.6406 26.6425 32.6406H25.6366C25.5603 32.6406 25.4984 32.5799 25.4984 32.5052V29.443C25.4985 29.398 25.5213 29.356 25.5594 29.3308L25.9138 29.0971C25.9776 29.0549 25.9768 28.9623 25.9122 28.9212L25.5612 28.6982C25.5221 28.6732 25.4985 28.6306 25.4984 28.5848V25.5238C25.4984 25.449 25.5603 25.3884 25.6366 25.3884H26.6425ZM32.154 29.325C32.2461 29.2734 32.3606 29.3387 32.3606 29.4426V32.5052C32.3606 32.5799 32.2988 32.6406 32.2225 32.6406H31.2506C31.1743 32.6406 31.1125 32.5799 31.1125 32.5052V29.9871C31.1125 29.9385 31.1392 29.8938 31.1822 29.8697L32.154 29.325Z" fill="white" stroke="white" stroke-width="0.0959201"/>
</g>
<defs>
<radialGradient id="paint0_radial_7488_11467" cx="0" cy="0" r="1" gradientUnits="userSpaceOnUse" gradientTransform="translate(24.7142 22.2827) rotate(63.9621) scale(15.5669 15.7594)">
<stop stop-color="#C4B19F"/>
<stop offset="0.265908" stop-color="#A08472"/>
<stop offset="0.74564" stop-color="#584656"/>
<stop offset="1" stop-color="#3E3548"/>
</radialGradient>
<clipPath id="clip0_7488_11467">
<rect width="16" height="16" fill="white" transform="translate(21 21)"/>
</clipPath>
</defs>
</svg>
