<svg width="37" height="37" viewBox="0 0 37 37" fill="none" xmlns="http://www.w3.org/2000/svg">
<g clip-path="url(#clip0_6787_9902)">
<mask id="mask0_6787_9902" style="mask-type:luminance" maskUnits="userSpaceOnUse" x="0" y="0" width="37" height="37">
<path d="M37 18.1881C37 8.22 28.7173 0.139282 18.5 0.139282C8.28273 0.139282 0 8.22 0 18.1881C0 28.1561 8.28273 36.2368 18.5 36.2368C28.7173 36.2368 37 28.1561 37 18.1881Z" fill="white"/>
</mask>
<g mask="url(#mask0_6787_9902)">
<path d="M37 18.1881C37 23.0342 35.043 27.4329 31.857 30.6752C31.7658 30.7681 31.6733 30.8596 31.5808 30.9498C31.4883 31.0401 31.3998 31.1239 31.3086 31.2103C30.6572 31.82 29.9607 32.3834 29.2247 32.8952C28.8442 33.1608 28.4517 33.4122 28.0487 33.6495C25.2618 35.2919 21.9938 36.2368 18.5 36.2368C15.0062 36.2368 11.7475 35.2944 8.96193 33.6546C8.5589 33.4186 8.1651 33.1673 7.78322 32.9004C7.04718 32.3898 6.35078 31.8278 5.70065 31.2193C5.51432 31.0452 5.33197 30.8673 5.15357 30.6856C1.961 27.4432 0 23.0393 0 18.1881C0 13.3368 2.07068 8.69183 5.41918 5.42629C8.76635 2.15946 13.3913 0.139282 18.5 0.139282C23.6087 0.139282 28.2337 2.15946 31.5808 5.42629C34.9293 8.69183 37 13.204 37 18.1881Z" fill="#F8991D"/>
<mask id="mask1_6787_9902" style="mask-type:luminance" maskUnits="userSpaceOnUse" x="0" y="0" width="37" height="37">
<path d="M37 18.1881C37 23.0342 35.043 27.4329 31.857 30.6752C31.7658 30.7681 31.6733 30.8596 31.5808 30.9498C31.4883 31.0401 31.3998 31.1239 31.3086 31.2103C30.6572 31.82 29.9607 32.3834 29.2247 32.8952C28.8442 33.1608 28.4517 33.4122 28.0487 33.6495C25.2618 35.2919 21.9938 36.2368 18.5 36.2368C15.0062 36.2368 11.7475 35.2944 8.96193 33.6546C8.5589 33.4186 8.1651 33.1673 7.78322 32.9004C7.04718 32.3898 6.35078 31.8278 5.70065 31.2193C5.51432 31.0452 5.33197 30.8673 5.15357 30.6856C1.961 27.4432 0 23.0393 0 18.1881C0 13.3368 2.07068 8.69183 5.41918 5.42629C8.76635 2.15946 13.3913 0.139282 18.5 0.139282C23.6087 0.139282 28.2337 2.15946 31.5808 5.42629C34.9293 8.69183 37 13.204 37 18.1881Z" fill="white"/>
</mask>
<g mask="url(#mask1_6787_9902)">
<g opacity="0.2">
<path d="M4.31967 32.0379L32.4926 4.5509" stroke="#F6E8D7" stroke-width="0.764479" stroke-linecap="round" stroke-linejoin="round"/>
<path d="M3.98274 4.02222L33.3713 32.694" stroke="#F6E8D7" stroke-width="0.764479" stroke-linecap="round" stroke-linejoin="round"/>
<path d="M18.5 -0.761475V39.7864" stroke="#F6E8D7" stroke-width="0.764479" stroke-linecap="round" stroke-linejoin="round"/>
<path d="M-0.321579 12.4808L29.067 41.1539" stroke="#F6E8D7" stroke-width="0.764479" stroke-linecap="round" stroke-linejoin="round"/>
<path d="M-2.67834 18.1915H38.8845" stroke="#F6E8D7" stroke-width="0.764479" stroke-linecap="round" stroke-linejoin="round"/>
<path d="M18.4997 30.8549C25.6686 30.8549 31.4801 25.1852 31.4801 18.1912C31.4801 11.1971 25.6686 5.52734 18.4997 5.52734C11.3308 5.52734 5.51929 11.1971 5.51929 18.1912C5.51929 25.1852 11.3308 30.8549 18.4997 30.8549Z" stroke="#F6E8D7" stroke-width="0.764479" stroke-linecap="round" stroke-linejoin="round"/>
</g>
<path d="M16.3867 28.8214L7.69902 28.7372L12.0167 24.5261L16.3867 28.8214Z" stroke="#F6E8D7" stroke-width="0.764479" stroke-linecap="round" stroke-linejoin="round"/>
<path d="M31.4865 18.1862C31.4865 21.6851 30.037 24.8501 27.6862 27.1436L18.5009 18.1862V5.51855C25.675 5.51855 31.4879 11.1911 31.4879 18.1862H31.4865Z" stroke="#F6E8D7" stroke-width="0.764479" stroke-linecap="round" stroke-linejoin="round"/>
<path d="M18.5 5.51855C11.3273 5.51855 5.51295 11.1897 5.51295 18.1862H18.5V5.51855Z" stroke="#F6E8D7" stroke-width="0.764479" stroke-linecap="round" stroke-linejoin="round"/>
<path d="M5.51295 18.1863L16.4347 28.8364H29.4146L28.0025 27.5004L18.5 18.1863H5.51295Z" stroke="#F6E8D7" stroke-width="0.764479" stroke-linecap="round" stroke-linejoin="round"/>
</g>
</g>
<path d="M36.5375 18.188C36.5375 8.46915 28.4618 0.590454 18.5 0.590454C8.53816 0.590454 0.462494 8.46915 0.462494 18.188C0.462494 27.9069 8.53816 35.7856 18.5 35.7856C28.4618 35.7856 36.5375 27.9069 36.5375 18.188Z" stroke="url(#paint0_linear_6787_9902)" stroke-width="0.891892"/>
</g>
<circle cx="18.5" cy="18.5" r="17.5" stroke="#1BE3C2" stroke-width="2"/>
<defs>
<linearGradient id="paint0_linear_6787_9902" x1="18.5" y1="0.139235" x2="18.5" y2="36.2368" gradientUnits="userSpaceOnUse">
<stop stop-color="white" stop-opacity="0.55"/>
<stop offset="1" stop-opacity="0.3"/>
</linearGradient>
<clipPath id="clip0_6787_9902">
<rect width="37" height="37" fill="white"/>
</clipPath>
</defs>
</svg>
