<svg width="37" height="37" viewBox="0 0 37 37" xmlns="http://www.w3.org/2000/svg"><g xmlns="http://www.w3.org/2000/svg" width="37" height="37" fill="none" viewBox="0 0 37 37" transform="translate(0.00032167176942567567, 0.00032167176942567567) scale(0.047435897435897434, 0.047435897435897434)"><path fill="#2F2823" d="M109.85 661.323C-39.997 506.6-36.045 259.698 118.677 109.85 273.4-39.997 520.302-36.045 670.15 118.677 819.997 273.4 816.045 520.302 661.323 670.15 506.6 819.997 259.698 816.045 109.85 661.323"></path><path fill="#A99482" d="M144.33 627.929C12.926 492.249 16.391 275.735 152.071 144.33s352.194-127.939 483.599 7.741 127.939 352.194-7.741 483.599-352.194 127.939-483.599-7.741"></path><path fill="#FFF1E5" d="m331.861 528.103 48.942 63.845 10.026-5.788.017.009v-94.177zm-75.11-98.003 58.975 76.948v-.01l75.12-45.992v-113.05zm0-143.987-75.11 45.993 58.973 76.949v-.01l150.232-91.985-.001-113.05z"></path><path fill="#2F2823" d="m390.793 586.228.118-.068 9.957 5.747 48.909-63.804-58.984-36.111zm0-125.182 75.12 45.992v.01l58.975-76.948-134.095-82.104zm0-143.986 150.231 91.985v.01l58.974-76.949-75.11-45.993-134.094-82.103z"></path></g><circle cx="18.5" cy="18.5" r="17.5" stroke="#1BE3C2" stroke-width="2" fill="none"></circle></svg>