<svg width="37" height="37" viewBox="0 0 37 37" xmlns="http://www.w3.org/2000/svg"><g xmlns="http://www.w3.org/2000/svg" width="37" height="37" fill="none" viewBox="0 0 37 37" transform="translate(7.897615432739258e-7, 7.897615432739258e-7) scale(1, 1)"><g clip-path="url(#a)"><mask id="b" width="37" height="37" x="0" y="0" maskUnits="userSpaceOnUse" style="mask-type:luminance"><path fill="#fff" d="M0 0h37v37H0z"></path></mask><g mask="url(#b)"><path fill="#D1F019" stroke="#D1F019" stroke-width="0.387" d="M18.5 36.807c10.11 0 18.307-8.196 18.307-18.307S28.61.193 18.5.193.193 8.39.193 18.5 8.39 36.807 18.5 36.807Z"></path><path fill="#292929" d="M15.596 3.624v1.394l-.05.037c-3.373.713-6.387 2.75-8.354 5.563a13.75 13.75 0 0 0-.39 15.12c1.946 3.113 5.132 5.391 8.745 6.15l.05.037v1.394c-3.778-.698-7.198-2.926-9.428-6.027-3.91-5.439-3.765-12.864.37-18.133 2.235-2.846 5.479-4.873 9.058-5.534zm5.78 29.694v-1.437c3.57-.74 6.758-3.002 8.698-6.067 3.088-4.883 2.788-11.212-.761-15.764-1.962-2.516-4.795-4.327-7.93-4.993l-.006-1.432a15.23 15.23 0 0 1 9.485 6.171 15.14 15.14 0 0 1-.145 17.554 15.23 15.23 0 0 1-9.34 5.97z"></path><g filter="url(#c)"><path fill="#292929" d="M19.584 17.452c2.274.417 4.282 1.099 4.263 3.77-.019 2.197-1.61 3.77-4.13 4.11v1.99h-2.35v-2.008c-2.594-.417-4.167-2.046-4.186-4.376l2.785.038c.095 1.288 1.118 2.178 2.747 2.178 1.307 0 2.273-.568 2.273-1.61 0-1.118-1.08-1.345-3.296-1.78-2.236-.418-4.206-1.137-4.206-3.828 0-2.065 1.497-3.6 3.884-3.94V9.988h2.349v2.027c2.368.398 3.827 1.894 3.865 4.073h-2.785c-.133-1.118-.985-1.895-2.368-1.895-1.213 0-2.084.512-2.084 1.535 0 1.08 1.042 1.307 3.24 1.724"></path></g></g></g><defs><clipPath id="a"><path fill="#fff" d="M0 0h37v37H0z"></path></clipPath><filter id="c" width="11.153" height="17.822" x="12.937" y="9.988" color-interpolation-filters="sRGB" filterUnits="userSpaceOnUse"><feFlood flood-opacity="0" result="BackgroundImageFix"></feFlood><feColorMatrix in="SourceAlpha" result="hardAlpha" values="0 0 0 0 0 0 0 0 0 0 0 0 0 0 0 0 0 0 127 0"></feColorMatrix><feOffset dy="0.244"></feOffset><feGaussianBlur stdDeviation="0.122"></feGaussianBlur><feComposite in2="hardAlpha" operator="out"></feComposite><feColorMatrix values="0 0 0 0 0 0 0 0 0 0 0 0 0 0 0 0 0 0 0.25 0"></feColorMatrix><feBlend in2="BackgroundImageFix" result="effect1_dropShadow_7469_11301"></feBlend><feBlend in="SourceGraphic" in2="effect1_dropShadow_7469_11301" result="shape"></feBlend></filter></defs></g><circle cx="18.5" cy="18.5" r="17.5" stroke="#1BE3C2" stroke-width="2" fill="none"></circle></svg>