<svg viewBox="0 0 37 37" xmlns="http://www.w3.org/2000/svg" role="img" aria-label="PT token logo">
  <g fill="none" transform="translate(0.503757 0.504784) scale(0.973684)">
    <path fill="#fff" stroke="#000" stroke-width="0.67" d="M18.509.334c10.038 0 18.175 8.137 18.175 18.175S28.547 36.683 18.51 36.683h-.001C8.472 36.683.335 28.547.335 18.51S8.472.334 18.509.334Z"/>
    <path fill="#000" fill-rule="evenodd" clip-rule="evenodd" d="M15.54 3.278C8.395 4.654 2.998 10.94 2.998 18.486S8.395 32.32 15.54 33.695v-1.452C9.186 30.89 4.42 25.244 4.42 18.486c0-6.757 4.766-12.402 11.12-13.756zm5.92 1.458V3.283c7.131 1.387 12.515 7.667 12.515 15.204S28.59 32.303 21.46 33.69v-1.453c6.34-1.364 11.092-7.002 11.092-13.75S27.8 6.1 21.46 4.736"/>
    <path fill="#000" d="M20.693 17.969q1.773.338 2.75 1.303.978.94.977 2.413v1.544q0 1.762-1.272 2.848-1.273 1.06-3.341 1.061h-.477V29.6h-1.636v-2.462h-.5q-1.364 0-2.41-.603a4.4 4.4 0 0 1-1.636-1.737q-.567-1.134-.568-2.606h1.636q0 1.496.819 2.437.84.917 2.204.917h2.523q1.34 0 2.159-.628.818-.651.818-1.689v-1.544q0-.82-.614-1.4-.591-.579-1.636-.748l-4.09-.724q-1.728-.313-2.683-1.303t-.954-2.485v-1.303q0-1.762 1.227-2.8 1.25-1.06 3.296-1.061h.409V7.399h1.636v2.462h.523q1.93 0 3.113 1.255 1.182 1.23 1.182 3.257H22.51q0-1.327-.727-2.123t-1.931-.797h-2.568q-1.296 0-2.069.628-.772.603-.772 1.64v1.304q0 .844.568 1.423.591.58 1.613.773z"/>
  </g>
  <circle cx="18.5" cy="18.5" r="17.5" stroke="#1BE3C2" stroke-width="2" fill="none"/>
</svg>
