<svg width="37" height="37" viewBox="0 0 37 37" xmlns="http://www.w3.org/2000/svg"><g xmlns="http://www.w3.org/2000/svg" width="37" height="37" fill="none" viewBox="0 0 37 37" transform="translate(0.0000027063730600717904, 0.0000015464988914695945) scale(0.6166666666666667, 0.6166666666666667)"><path fill="#000" d="M30 56.47A26.407 26.407 0 0 0 56.47 30 26.407 26.407 0 0 0 30 3.53 26.407 26.407 0 0 0 3.53 30 26.407 26.407 0 0 0 30 56.47"></path><path fill="#fff" stroke="#3A14A3" d="M55.588 30c0 14.132-11.456 25.588-25.588 25.588S4.412 44.132 4.412 30 15.868 4.412 30 4.412 55.588 15.868 55.588 30Z"></path><path fill="#3A14A3" d="m29.997 20.37 8.194 8.193h7.246l-15.44-15.44-15.44 15.44h7.246zM38.19 31.605l-8.193 8.193-8.194-8.193h-7.245l15.439 15.439 15.44-15.44z"></path></g><circle cx="18.5" cy="18.5" r="17.5" stroke="#1BE3C2" stroke-width="2" fill="none"></circle></svg>