<svg xmlns="http://www.w3.org/2000/svg" width="37" height="37" fill="none"><g xmlns="http://www.w3.org/2000/svg"><circle cx="18.5" cy="18.5" r="18.5" fill="#306B4B"/><path fill="url(#a)" d="M5.322 8.27c2.424-3.122 7.358-1.83 11.02 2.889 3.661 4.717 4.664 11.074 2.24 14.198-2.424 3.123-7.358 1.83-11.02-2.888S2.898 11.394 5.322 8.271m9.196 6.542c-3.267-3.287-7.04-4.096-8.426-1.808s.138 6.807 3.405 10.093c3.267 3.287 7.04 4.096 8.426 1.809s-.138-6.808-3.405-10.094"/><path fill="url(#b)" d="M32.678 27.94c-2.424 3.124-7.358 1.831-11.02-2.887s-4.664-11.075-2.24-14.198 7.358-1.83 11.02 2.888 4.664 11.075 2.24 14.198m-9.156-6.492c3.266 3.286 7.039 4.096 8.425 1.808 1.387-2.287-.138-6.807-3.405-10.093-3.267-3.287-7.04-4.097-8.426-1.809s.139 6.807 3.406 10.094"/><path fill="#F2F2F3" d="M19.895 3h3.615l-5.322 30h-3.614z"/><defs><linearGradient id="a" x1="13.657" x2="16.555" y1="22.483" y2="26.137" gradientUnits="userSpaceOnUse"><stop stop-color="#F2F2F3"/><stop offset="1" stop-color="#F2F2F3" stop-opacity="0"/></linearGradient><linearGradient id="b" x1="23.576" x2="21.509" y1="15.934" y2="9.666" gradientUnits="userSpaceOnUse"><stop stop-color="#F2F2F3"/><stop offset="1" stop-color="#F2F2F3" stop-opacity="0"/></linearGradient></defs></g><circle cx="18.5" cy="18.5" r="17.5" stroke="#1BE3C2" stroke-width="2"/></svg>