<svg width="37" height="37" viewBox="0 0 37 37" xmlns="http://www.w3.org/2000/svg"><g xmlns="http://www.w3.org/2000/svg" width="37" height="37" fill="none" viewBox="0 0 37 37" transform="translate(0, 0) scale(0.925, 0.925)"><g clip-path="url(#a)"><path fill="#2C6EFF" d="M0 20C0 8.954 8.954 0 20 0s20 8.954 20 20-8.954 20-20 20S0 31.046 0 20"></path><path fill="#fff" fill-opacity="0.2" d="M39 20C39 9.507 30.493 1 20 1S1 9.507 1 20s8.507 19 19 19v1C8.954 40 0 31.046 0 20S8.954 0 20 0s20 8.954 20 20-8.954 20-20 20v-1c10.493 0 19-8.507 19-19"></path><path fill="#fff" fill-rule="evenodd" d="M20 3.812c8.94 0 16.188 7.248 16.188 16.188S28.94 36.188 20 36.188 3.812 28.94 3.812 20 11.06 3.812 20 3.812m9.84 5.549-13.23 4.784v.507c0 .287.17.551.433.673l11.308 5.241a2.57 2.57 0 0 1 1.488 2.32v.08a2.57 2.57 0 0 1-1.69 2.405l-3.838 1.39a.575.575 0 0 0-.38.538v2.93a.13.13 0 0 1-.084.12l-7.7 2.783a.064.064 0 0 1-.086-.06V30.35c0-.362.228-.686.57-.81l-5.523 2.001A14.5 14.5 0 0 0 20 34.57c8.046 0 14.569-6.523 14.569-14.569a14.53 14.53 0 0 0-4.73-10.744zM20 5.43c-8.046 0-14.569 6.523-14.569 14.57a14.53 14.53 0 0 0 4.728 10.742l13.145-4.76v-.66c0-.287-.17-.55-.432-.672l-11.223-5.195a2.57 2.57 0 0 1-1.49-2.32c0-1.072.68-2.04 1.695-2.406l3.827-1.381a.57.57 0 0 0 .38-.54V9.9c0-.054.034-.102.085-.12l7.7-2.784a.064.064 0 0 1 .085.06V9.77a.86.86 0 0 1-.57.81l5.64-2.035a14.5 14.5 0 0 0-9-3.113" clip-rule="evenodd"></path></g><defs><clipPath id="a"><path fill="#fff" d="M0 0h40v40H0z"></path></clipPath></defs></g><circle cx="18.5" cy="18.5" r="17.5" stroke="#1BE3C2" stroke-width="2" fill="none"></circle></svg>