<svg width="37" height="37" viewBox="0 0 37 37" fill="none" xmlns="http://www.w3.org/2000/svg">
<path d="M18.5619 2.35254H18.5629C27.515 2.35263 34.7719 9.61034 34.7719 18.5625C34.7718 27.5146 27.5141 34.7715 18.5619 34.7715C9.60977 34.7714 2.35292 27.5137 2.35292 18.5615C2.35302 9.60945 9.60983 2.35264 18.5619 2.35254Z" fill="black" stroke="black" stroke-width="0.597136"/>
<path d="M15.914 6.27368C10.2475 7.48177 5.99802 12.5153 5.99802 18.5422C5.9982 24.569 10.2477 29.6017 15.914 30.8098V32.1038C9.54213 30.8762 4.72867 25.2723 4.72849 18.5422C4.72849 11.8119 9.54195 6.20648 15.914 4.97876V6.27368ZM21.1943 4.98267C27.5546 6.2196 32.3564 11.8202 32.3564 18.5422C32.3562 25.2641 27.5544 30.863 21.1943 32.0999V30.8049C26.8489 29.5879 31.0877 24.5606 31.0879 18.5422C31.0879 12.5236 26.8491 7.49554 21.1943 6.27856V4.98267Z" fill="white"/>
<path d="M20.5104 18.0805C21.5643 18.2814 22.3819 18.6688 22.9629 19.2427C23.544 19.8022 23.8345 20.5197 23.8345 21.3949V22.7723C23.8345 23.8197 23.4561 24.6662 22.6994 25.3119C21.9427 25.9432 20.9495 26.2589 19.7199 26.2589H19.2942V28.4541H17.8348V26.2589H17.3889C16.5782 26.2589 15.862 26.0795 15.2404 25.7208C14.6188 25.3478 14.1324 24.8312 13.781 24.1712C13.4432 23.4969 13.2743 22.7221 13.2743 21.8468H14.7337C14.7337 22.7364 14.9769 23.461 15.4634 24.0206C15.9633 24.5658 16.6187 24.8384 17.4295 24.8384H19.6793C20.4766 24.8384 21.1184 24.6519 21.6049 24.2788C22.0913 23.8914 22.3346 23.3893 22.3346 22.7723V21.3949C22.3346 20.9071 22.1521 20.491 21.7873 20.1466C21.436 19.8022 20.9495 19.5799 20.3279 19.4794L16.6795 18.8338C15.6525 18.6472 14.8553 18.2598 14.2878 17.6716C13.7202 17.0833 13.4365 16.3444 13.4365 15.4548V14.2926C13.4365 13.2452 13.8013 12.413 14.531 11.796C15.2742 11.1647 16.2539 10.8491 17.47 10.8491H17.8348V8.65381H19.2942V10.8491H19.7604C20.909 10.8491 21.8346 11.2221 22.5373 11.9682C23.2399 12.7 23.5912 13.6685 23.5912 14.8737H22.1319C22.1319 14.0845 21.9157 13.4532 21.4833 12.9797C21.0509 12.5063 20.4766 12.2695 19.7604 12.2695H17.47C16.6998 12.2695 16.0849 12.456 15.6255 12.8291C15.1661 13.1878 14.9364 13.6756 14.9364 14.2926V15.4548C14.9364 15.957 15.1053 16.3802 15.4431 16.7246C15.7944 17.0689 16.2741 17.2985 16.8822 17.4133L20.5104 18.0805Z" fill="white"/>
<circle cx="18.5" cy="18.5" r="17.5" stroke="#1BE3C2" stroke-width="2"/>
<circle cx="28.5676" cy="28.5676" r="7.56757" fill="black"/>
<mask id="mask0_7111_11875" style="mask-type:luminance" maskUnits="userSpaceOnUse" x="24" y="24" width="10" height="10">
<path d="M33.2973 24.7839H24.7838V33.2975H33.2973V24.7839Z" fill="white"/>
</mask>
<g mask="url(#mask0_7111_11875)">
<path d="M27.7458 24.7864L27.3296 25.9171H24.7838V24.7864H27.7458Z" fill="#FF6200"/>
<path d="M33.3322 24.7864V25.9171H30.379L27.6974 33.16H24.7838V32.032H26.6785L29.3601 24.7864H33.3322Z" fill="#FF6200"/>
</g>
</svg>
