<svg width="37" height="37" viewBox="0 0 37 37" fill="none" xmlns="http://www.w3.org/2000/svg">
<g clip-path="url(#clip0_5195_3899)">
<path d="M18.027 35.5269C27.692 35.5269 35.527 27.6918 35.527 18.0269C35.527 8.36187 27.692 0.526855 18.027 0.526855C8.36206 0.526855 0.527039 8.36187 0.527039 18.0269C0.527039 27.6918 8.36206 35.5269 18.027 35.5269Z" fill="url(#paint0_radial_5195_3899)"/>
<path d="M11.3342 22.6275H8.84378C9.04704 26.5155 12.2998 29.8953 18.0683 29.8953C23.8115 29.8953 27.4708 26.7442 27.4708 22.6783C27.4708 14.953 15.8067 15.385 15.8067 10.9125C15.8067 9.66731 16.7469 8.19337 18.9323 8.19337C21.3719 8.19337 24.2435 10.0993 24.4468 12.5388H26.9118C26.6576 8.59995 22.8204 5.85547 17.9413 5.85547C12.8843 5.85547 9.07246 8.80328 9.07246 12.9709C9.07246 20.9249 20.7366 19.8829 20.7366 24.7875C20.7366 26.3122 19.7964 27.5828 17.433 27.5828C14.4852 27.5828 11.512 25.5244 11.3342 22.6275ZM13.4179 11.497C13.4179 17.545 24.9805 16.3507 24.9805 22.8054C24.9805 24.7367 23.7098 26.4393 22.1851 26.8713C22.7188 26.363 23.1253 25.2449 23.1253 24.1776C23.1253 18.2058 11.5374 19.019 11.5374 12.8947C11.5374 10.8362 12.8589 9.18444 14.5107 8.67623C13.8753 9.43855 13.4179 10.4296 13.4179 11.497Z" fill="white"/>
</g>
<circle cx="18.5" cy="18.5" r="17.5" stroke="#1BE3C2" stroke-width="2"/>
<defs>
<radialGradient id="paint0_radial_5195_3899" cx="0" cy="0" r="1" gradientUnits="userSpaceOnUse" gradientTransform="translate(18.027 41.0943) rotate(-90) scale(56.079)">
<stop stop-color="#FFD232"/>
<stop offset="1" stop-color="#FF6D6D"/>
</radialGradient>
<clipPath id="clip0_5195_3899">
<rect width="35" height="35" fill="white" transform="translate(0.527039 0.526855)"/>
</clipPath>
</defs>
</svg>
