<svg xmlns="http://www.w3.org/2000/svg" width="37" height="37"><g fill="none" transform="matrix(.925 0 0 .90244 0 .284)"><circle cx="20" cy="20.244" r="20" fill="#21C789" style="fill:#21c789;fill:color(display-p3 .1294 .7804 .5373);fill-opacity:1"/><path fill="#fff" d="m24.752 21.907-.003-.006a1.28 1.28 0 0 1-1.026-.636L17.68 10.8H10l6.043 10.465c.23.397.653.641 1.11.641h-.094l-.003.004v.002l-2.566 4.443v.002l2.566 4.443 1.283 2.222 3.849-6.667v-.001l2.566-4.444zm-5.13 0h.003l-.001.003-.002.002zm2.566.003-.001-.003h.004zM23.472 10.8l-1.926 3.336 3.294 5.703a.641.641 0 0 0 1.11 0L31.17 10.8z" style="fill:#fff;fill-opacity:1"/></g><svg xmlns="http://www.w3.org/2000/svg" width="37" height="37" fill="none" transform="translate(.5 .5)" viewBox="0 0 37 37"><circle cx="18.5" cy="18.5" r="17.5" stroke="#1BE3C2" stroke-width="2"/></svg></svg>