<svg width="120" height="120" viewBox="0 0 120 120" fill="none" xmlns="http://www.w3.org/2000/svg">
<g clip-path="url(#clip0_3422_25715)">
<circle cx="60" cy="60" r="59" fill="white" stroke="black" stroke-width="2"/>
<path d="M21.9318 65.1787C21.9318 64.9248 21.8514 64.7005 21.6906 64.5059C21.5383 64.3112 21.259 64.1335 20.8527 63.9727C20.4549 63.8118 19.8921 63.651 19.1643 63.4902C18.4787 63.3464 17.8397 63.1602 17.2473 62.9316C16.6548 62.6947 16.1385 62.4111 15.6984 62.0811C15.2583 61.7425 14.9156 61.3447 14.6701 60.8877C14.4247 60.4222 14.302 59.8932 14.302 59.3008C14.302 58.7253 14.4247 58.1794 14.6701 57.6631C14.924 57.1468 15.288 56.6898 15.7619 56.292C16.2443 55.8942 16.8283 55.5811 17.5139 55.3525C18.2079 55.124 18.995 55.0098 19.8752 55.0098C21.0855 55.0098 22.1307 55.2002 23.0109 55.5811C23.8911 55.9535 24.5682 56.4782 25.0422 57.1553C25.5161 57.8239 25.7531 58.5898 25.7531 59.4531H21.7922C21.7922 59.0977 21.7245 58.7887 21.5891 58.5264C21.4536 58.264 21.2463 58.0609 20.967 57.917C20.6877 57.7646 20.3195 57.6885 19.8625 57.6885C19.507 57.6885 19.1939 57.752 18.923 57.8789C18.6607 57.9974 18.4533 58.1624 18.301 58.374C18.1571 58.5856 18.0852 58.8311 18.0852 59.1104C18.0852 59.305 18.1275 59.4827 18.2121 59.6436C18.3052 59.7959 18.4449 59.9398 18.6311 60.0752C18.8257 60.2021 19.0754 60.3164 19.3801 60.418C19.6932 60.5195 20.0741 60.6169 20.5227 60.71C21.479 60.8877 22.3508 61.1374 23.1379 61.459C23.9335 61.7806 24.5682 62.2249 25.0422 62.792C25.5246 63.359 25.7658 64.1081 25.7658 65.0391C25.7658 65.6484 25.6262 66.207 25.3469 66.7148C25.076 67.2227 24.6825 67.667 24.1662 68.0479C23.6499 68.4287 23.0321 68.7249 22.3127 68.9365C21.5933 69.1481 20.7808 69.2539 19.8752 69.2539C18.5803 69.2539 17.4842 69.0212 16.5871 68.5557C15.69 68.0902 15.0129 67.5062 14.5559 66.8037C14.1073 66.0928 13.883 65.3649 13.883 64.6201H17.6027C17.6197 65.0771 17.7339 65.4495 17.9455 65.7373C18.1656 66.0251 18.4491 66.2367 18.7961 66.3721C19.1431 66.499 19.5324 66.5625 19.9641 66.5625C20.3957 66.5625 20.7554 66.5033 21.0432 66.3848C21.3309 66.2663 21.551 66.1055 21.7033 65.9023C21.8557 65.6908 21.9318 65.4495 21.9318 65.1787ZM35.3386 54.0322L30.5652 69H26.1472L32.99 50.5156H35.7829L35.3386 54.0322ZM39.2995 69L34.5134 54.0322L34.0183 50.5156H36.8493L43.7175 69H39.2995ZM39.0964 62.1191V65.3184H29.4607V62.1191H39.0964ZM55.1057 62.8047H59.219C59.1513 64.0742 58.8043 65.1956 58.178 66.1689C57.5601 67.1338 56.7011 67.8913 55.6008 68.4414C54.5006 68.9831 53.1929 69.2539 51.678 69.2539C50.4677 69.2539 49.3843 69.0465 48.428 68.6318C47.4716 68.2171 46.6591 67.6247 45.9905 66.8545C45.3303 66.0758 44.8225 65.1406 44.467 64.0488C44.12 62.9486 43.9465 61.7087 43.9465 60.3291V59.1992C43.9465 57.8197 44.1285 56.5798 44.4924 55.4795C44.8564 54.3792 45.3769 53.4398 46.0539 52.6611C46.731 51.8825 47.5435 51.2858 48.4914 50.8711C49.4394 50.4564 50.4973 50.249 51.6653 50.249C53.2395 50.249 54.5683 50.5326 55.6516 51.0996C56.7349 51.6667 57.5728 52.4453 58.1653 53.4355C58.7662 54.4258 59.1259 55.5557 59.2444 56.8252H55.1184C55.0845 56.1058 54.9491 55.5007 54.7121 55.0098C54.4752 54.5104 54.1112 54.1338 53.6203 53.8799C53.1295 53.626 52.4778 53.499 51.6653 53.499C51.0728 53.499 50.5523 53.609 50.1037 53.8291C49.6636 54.0492 49.2955 54.3919 48.9993 54.8574C48.7115 55.3229 48.4957 55.9154 48.3518 56.6348C48.2079 57.3457 48.136 58.1921 48.136 59.1738V60.3291C48.136 61.3024 48.1995 62.1445 48.3264 62.8555C48.4534 63.5664 48.6565 64.1546 48.9358 64.6201C49.2235 65.0856 49.5917 65.4326 50.0403 65.6611C50.4888 65.8896 51.0347 66.0039 51.678 66.0039C52.4143 66.0039 53.0279 65.8896 53.5188 65.6611C54.0097 65.4242 54.3863 65.0687 54.6487 64.5947C54.911 64.1208 55.0634 63.5241 55.1057 62.8047ZM60.9968 50.5156H68.0935C69.5069 50.5156 70.7299 50.7272 71.7625 51.1504C72.8035 51.5736 73.6033 52.1999 74.1619 53.0293C74.7205 53.8587 74.9998 54.8828 74.9998 56.1016C74.9998 57.1172 74.8347 57.9805 74.5046 58.6914C74.1746 59.4023 73.7091 59.9906 73.1082 60.4561C72.5157 60.9215 71.8217 61.2982 71.0261 61.5859L69.6804 62.3223H63.6375L63.6121 59.1104H68.1062C68.724 59.1104 69.2361 59.0003 69.6423 58.7803C70.0486 58.5602 70.3533 58.2513 70.5564 57.8535C70.768 57.4473 70.8738 56.9733 70.8738 56.4316C70.8738 55.873 70.768 55.3906 70.5564 54.9844C70.3448 54.5781 70.0317 54.2692 69.617 54.0576C69.2107 53.8376 68.7029 53.7275 68.0935 53.7275H65.1355V69H60.9968V50.5156ZM71.2293 69L67.0779 60.7861L71.4451 60.7734L75.6599 68.8096V69H71.2293ZM89.8538 65.8008V69H80.0149V65.8008H89.8538ZM81.4241 50.5156V69H77.2854V50.5156H81.4241ZM88.5843 57.9551V61.0527H80.0149V57.9551H88.5843ZM89.8665 50.5156V53.7275H80.0149V50.5156H89.8665ZM97.2176 69H93.1551L93.1805 65.8008H97.2176C98.1401 65.8008 98.9187 65.5892 99.5535 65.166C100.188 64.7344 100.671 64.0996 101.001 63.2617C101.331 62.4154 101.496 61.387 101.496 60.1768V59.3262C101.496 58.4121 101.403 57.6081 101.217 56.9141C101.03 56.2116 100.755 55.6234 100.391 55.1494C100.027 54.6755 99.5747 54.32 99.033 54.083C98.4998 53.846 97.8862 53.7275 97.1922 53.7275H93.0789V50.5156H97.1922C98.4448 50.5156 99.5874 50.7272 100.62 51.1504C101.661 51.5736 102.558 52.1787 103.311 52.9658C104.073 53.7529 104.661 54.6839 105.076 55.7588C105.491 56.8337 105.698 58.0312 105.698 59.3516V60.1768C105.698 61.4886 105.491 62.6862 105.076 63.7695C104.661 64.8444 104.073 65.7754 103.311 66.5625C102.558 67.3411 101.665 67.9421 100.633 68.3652C99.6001 68.7884 98.4617 69 97.2176 69ZM95.5037 50.5156V69H91.365V50.5156H95.5037Z" fill="#037D56"/>
</g>
<defs>
<clipPath id="clip0_3422_25715">
<rect width="120" height="120" fill="white"/>
</clipPath>
</defs>
</svg>
