<svg width="240" height="240" viewBox="0 0 240 240" fill="none" xmlns="http://www.w3.org/2000/svg">
<rect width="240" height="240" rx="120" fill="url(#paint0_radial_10884_837)"/>
<path d="M173.125 75H66.875C65.1491 75 63.75 76.3991 63.75 78.125V83.125C63.75 84.8509 65.1491 86.25 66.875 86.25H173.125C174.851 86.25 176.25 84.8509 176.25 83.125V78.125C176.25 76.3991 174.851 75 173.125 75Z" fill="black"/>
<path d="M173.125 91.875H66.875C65.1491 91.875 63.75 93.2741 63.75 95V111.25C63.75 112.976 65.1491 114.375 66.875 114.375H173.125C174.851 114.375 176.25 112.976 176.25 111.25V95C176.25 93.2741 174.851 91.875 173.125 91.875Z" fill="black"/>
<path d="M171.25 120C173 120 173.875 120 174.544 120.341C175.132 120.64 175.61 121.118 175.909 121.706C176.25 122.375 176.25 123.25 176.25 125V160C176.25 161.75 176.25 162.625 175.909 163.294C175.61 163.882 175.132 164.36 174.544 164.659C173.875 165 173 165 171.25 165H68.75C66.9998 165 66.1245 165 65.4561 164.659C64.8683 164.36 64.3904 163.882 64.0908 163.294C63.7502 162.625 63.75 161.75 63.75 160V125C63.75 123.25 63.7502 122.375 64.0908 121.706C64.3904 121.118 64.8683 120.64 65.4561 120.341C66.1245 120 66.9998 120 68.75 120H171.25Z" fill="black"/>
<defs>
<radialGradient id="paint0_radial_10884_837" cx="0" cy="0" r="1" gradientUnits="userSpaceOnUse" gradientTransform="translate(120.778 -1.97651) rotate(90) scale(555.671 465.875)">
<stop stop-color="#FFDA1A"/>
<stop offset="1" stop-color="#FF9900"/>
</radialGradient>
</defs>
</svg>
