<svg viewBox="0 0 34 34" fill="none" xmlns="http://www.w3.org/2000/svg">
<path d="M17 32C25.3125 32 32 25.3125 32 17C32 8.68745 25.3125 2 17 2C8.68745 2 2 8.68745 2 17C2 25.3125 8.68745 32 17 32Z" fill="black"/>
<path d="M31.5 17C31.5 25.0081 25.0081 31.5 17 31.5C8.99189 31.5 2.5 25.0081 2.5 17C2.5 8.99189 8.99189 2.5 17 2.5C25.0081 2.5 31.5 8.99189 31.5 17Z" fill="white" stroke="#3A14A3"/>
<path d="M23.0946 18.3328L16.9999 27L16.998 26.9972L10.9043 18.3328L16.999 21.9516L23.0946 18.3328Z" fill="#3A14A3"/>
<path d="M16.9999 7L23.0955 17.1907L16.999 20.8095L16.998 20.8086L10.9043 17.1907L16.998 7.00186L16.9999 7Z" fill="#3A14A3"/>
</svg>
