<svg width="313" height="313" viewBox="0 0 313 313" fill="none" xmlns="http://www.w3.org/2000/svg">
<g clip-path="url(#clip0_877_139)">
<mask id="mask0_877_139" style="mask-type:luminance" maskUnits="userSpaceOnUse" x="0" y="0" width="313" height="313">
<path d="M313 156.5C313 70.0674 242.933 0 156.5 0C70.0674 0 0 70.0674 0 156.5C0 242.933 70.0674 313 156.5 313C242.933 313 313 242.933 313 156.5Z" fill="white"/>
</mask>
<g mask="url(#mask0_877_139)">
<path d="M313 156.5C313 70.0674 242.933 0 156.5 0C70.0674 0 0 70.0674 0 156.5C0 242.933 70.0674 313 156.5 313C242.933 313 313 242.933 313 156.5Z" fill="#FF2E00"/>
<g opacity="0.8">
<path d="M109.413 77.5861V75.8389H111.16V74.0917H112.908V75.8389H114.655V77.5861H112.908V79.3333H111.16V77.5861H109.413Z" fill="#F3F3F3"/>
<path d="M127.221 77.5861V75.8389H128.968V74.0917H130.715V75.8389H132.463V77.5861H130.715V79.3333H128.968V77.5861H127.221Z" fill="#F3F3F3"/>
<path d="M145.029 77.5861V75.8389H146.776V74.0917H148.523V75.8389H150.27V77.5861H148.523V79.3333H146.776V77.5861H145.029ZM145.029 67.1029V65.3557H146.776V63.6085H148.523V65.3557H150.27V67.1029H148.523V68.8501H146.776V67.1029H145.029Z" fill="#F3F3F3"/>
<path d="M162.836 77.5861V75.8389H164.584V74.0917H166.331V75.8389H168.078V77.5861H166.331V79.3333H164.584V77.5861H162.836ZM162.836 67.1029V65.3557H164.584V63.6085H166.331V65.3557H168.078V67.1029H166.331V68.8501H164.584V67.1029H162.836Z" fill="#F3F3F3"/>
<path d="M189.38 75.8389H187.633V74.0917H189.38V75.8389ZM189.38 63.6085V65.3557H187.633V63.6085H189.38ZM177.15 75.8389V74.0917H178.897V75.8389H177.15ZM177.15 65.3557V63.6085H178.897V65.3557H177.15ZM180.644 72.3445V70.5973H175.403V68.8501H180.644V67.1029H182.392V61.8613H184.139V67.1029H185.886V68.8501H191.128V70.5973H185.886V72.3445H184.139V77.5861H182.392V72.3445H180.644ZM180.644 74.0917H178.897V72.3445H180.644V74.0917ZM180.644 67.1029H178.897V65.3557H180.644V67.1029ZM187.633 72.3445V74.0917H185.886V72.3445H187.633ZM187.633 67.1029H185.886V65.3557H187.633V67.1029Z" fill="#F3F3F3"/>
<path d="M207.188 75.8389H205.441V74.0917H207.188V75.8389ZM207.188 63.6085V65.3557H205.441V63.6085H207.188ZM194.958 75.8389V74.0917H196.705V75.8389H194.958ZM194.958 65.3557V63.6085H196.705V65.3557H194.958ZM198.452 72.3445V70.5973H193.21V68.8501H198.452V67.1029H200.199V61.8613H201.947V67.1029H203.694V68.8501H208.935V70.5973H203.694V72.3445H201.947V77.5861H200.199V72.3445H198.452ZM198.452 74.0917H196.705V72.3445H198.452V74.0917ZM198.452 67.1029H196.705V65.3557H198.452V67.1029ZM205.441 72.3445V74.0917H203.694V72.3445H205.441ZM205.441 67.1029H203.694V65.3557H205.441V67.1029Z" fill="#F3F3F3"/>
<path d="M224.996 75.8389H223.249V74.0917H224.996V75.8389ZM224.996 63.6085V65.3557H223.249V63.6085H224.996ZM212.765 75.8389V74.0917H214.513V75.8389H212.765ZM212.765 65.3557V63.6085H214.513V65.3557H212.765ZM216.26 72.3445V70.5973H211.018V68.8501H216.26V67.1029H218.007V61.8613H219.754V67.1029H221.501V68.8501H226.743V70.5973H221.501V72.3445H219.754V77.5861H218.007V72.3445H216.26ZM216.26 74.0917H214.513V72.3445H216.26V74.0917ZM216.26 67.1029H214.513V65.3557H216.26V67.1029ZM223.249 72.3445V74.0917H221.501V72.3445H223.249ZM223.249 67.1029H221.501V65.3557H223.249V67.1029Z" fill="#F3F3F3"/>
<path d="M242.804 75.8389H241.056V74.0917H242.804V75.8389ZM242.804 63.6085V65.3557H241.056V63.6085H242.804ZM230.573 75.8389V74.0917H232.32V75.8389H230.573ZM230.573 65.3557V63.6085H232.32V65.3557H230.573ZM234.068 72.3445V70.5973H228.826V68.8501H234.068V67.1029H235.815V61.8613H237.562V67.1029H239.309V68.8501H244.551V70.5973H239.309V72.3445H237.562V77.5861H235.815V72.3445H234.068ZM234.068 74.0917H232.32V72.3445H234.068V74.0917ZM234.068 67.1029H232.32V65.3557H234.068V67.1029ZM241.056 72.3445V74.0917H239.309V72.3445H241.056ZM241.056 67.1029H239.309V65.3557H241.056V67.1029Z" fill="#F3F3F3"/>
<path d="M260.611 75.8389H258.864V74.0917H260.611V75.8389ZM260.611 63.6085V65.3557H258.864V63.6085H260.611ZM248.381 75.8389V74.0917H250.128V75.8389H248.381ZM248.381 65.3557V63.6085H250.128V65.3557H248.381ZM251.875 72.3445V70.5973H246.634V68.8501H251.875V67.1029H253.623V61.8613H255.37V67.1029H257.117V68.8501H262.359V70.5973H257.117V72.3445H255.37V77.5861H253.623V72.3445H251.875ZM251.875 74.0917H250.128V72.3445H251.875V74.0917ZM251.875 67.1029H250.128V65.3557H251.875V67.1029ZM258.864 72.3445V74.0917H257.117V72.3445H258.864ZM258.864 67.1029H257.117V65.3557H258.864V67.1029Z" fill="#F3F3F3"/>
<path d="M278.419 75.8389H276.672V74.0917H278.419V75.8389ZM278.419 63.6085V65.3557H276.672V63.6085H278.419ZM266.189 75.8389V74.0917H267.936V75.8389H266.189ZM266.189 65.3557V63.6085H267.936V65.3557H266.189ZM269.683 72.3445V70.5973H264.442V68.8501H269.683V67.1029H271.43V61.8613H273.178V67.1029H274.925V68.8501H280.166V70.5973H274.925V72.3445H273.178V77.5861H271.43V72.3445H269.683ZM269.683 74.0917H267.936V72.3445H269.683V74.0917ZM269.683 67.1029H267.936V65.3557H269.683V67.1029ZM276.672 72.3445V74.0917H274.925V72.3445H276.672ZM276.672 67.1029H274.925V65.3557H276.672V67.1029Z" fill="#F3F3F3"/>
<path d="M296.227 75.8389H294.48V74.0917H296.227V75.8389ZM296.227 63.6085V65.3557H294.48V63.6085H296.227ZM283.997 75.8389V74.0917H285.744V75.8389H283.997ZM283.997 65.3557V63.6085H285.744V65.3557H283.997ZM287.491 72.3445V70.5973H282.249V68.8501H287.491V67.1029H289.238V61.8613H290.985V67.1029H292.733V68.8501H297.974V70.5973H292.733V72.3445H290.985V77.5861H289.238V72.3445H287.491ZM287.491 74.0917H285.744V72.3445H287.491V74.0917ZM287.491 67.1029H285.744V65.3557H287.491V67.1029ZM294.48 72.3445V74.0917H292.733V72.3445H294.48ZM294.48 67.1029H292.733V65.3557H294.48V67.1029Z" fill="#F3F3F3"/>
<path d="M314.035 75.8389H312.288V74.0917H314.035V75.8389ZM314.035 63.6085V65.3557H312.288V63.6085H314.035ZM301.804 75.8389V74.0917H303.552V75.8389H301.804ZM301.804 65.3557V63.6085H303.552V65.3557H301.804ZM305.299 72.3445V70.5973H300.057V68.8501H305.299V67.1029H307.046V61.8613H308.793V67.1029H310.54V68.8501H315.782V70.5973H310.54V72.3445H308.793V77.5861H307.046V72.3445H305.299ZM305.299 74.0917H303.552V72.3445H305.299V74.0917ZM305.299 67.1029H303.552V65.3557H305.299V67.1029ZM312.288 72.3445V74.0917H310.54V72.3445H312.288ZM312.288 67.1029H310.54V65.3557H312.288V67.1029Z" fill="#F3F3F3"/>
<path d="M38.1819 112.53V110.783H39.9291V109.036H41.6763V110.783H43.4235V112.53H41.6763V114.277H39.9291V112.53H38.1819Z" fill="#F3F3F3"/>
<path d="M55.9897 112.53V110.783H57.7369V109.036H59.4841V110.783H61.2313V112.53H59.4841V114.277H57.7369V112.53H55.9897ZM55.9897 102.047V100.3H57.7369V98.5525H59.4841V100.3H61.2313V102.047H59.4841V103.794H57.7369V102.047H55.9897Z" fill="#F3F3F3"/>
<path d="M73.7976 112.53V110.783H75.5448V109.036H77.292V110.783H79.0392V112.53H77.292V114.277H75.5448V112.53H73.7976ZM73.7976 102.047V100.3H75.5448V98.5525H77.292V100.3H79.0392V102.047H77.292V103.794H75.5448V102.047H73.7976Z" fill="#F3F3F3"/>
<path d="M100.341 110.783H98.5942V109.036H100.341V110.783ZM100.341 98.5525V100.3H98.5942V98.5525H100.341ZM88.1109 110.783V109.036H89.8582V110.783H88.1109ZM88.1109 100.3V98.5525H89.8582V100.3H88.1109ZM91.6054 107.289V105.541H86.3638V103.794H91.6054V102.047H93.3526V96.8053H95.0998V102.047H96.8469V103.794H102.089V105.541H96.8469V107.289H95.0998V112.53H93.3526V107.289H91.6054ZM91.6054 109.036H89.8582V107.289H91.6054V109.036ZM91.6054 102.047H89.8582V100.3H91.6054V102.047ZM98.5942 107.289V109.036H96.8469V107.289H98.5942ZM98.5942 102.047H96.8469V100.3H98.5942V102.047Z" fill="#F3F3F3"/>
<path d="M118.149 110.783H116.402V109.036H118.149V110.783ZM118.149 98.5525V100.3H116.402V98.5525H118.149ZM105.919 110.783V109.036H107.666V110.783H105.919ZM105.919 100.3V98.5525H107.666V100.3H105.919ZM109.413 107.289V105.541H104.172V103.794H109.413V102.047H111.16V96.8053H112.908V102.047H114.655V103.794H119.896V105.541H114.655V107.289H112.908V112.53H111.16V107.289H109.413ZM109.413 109.036H107.666V107.289H109.413V109.036ZM109.413 102.047H107.666V100.3H109.413V102.047ZM116.402 107.289V109.036H114.655V107.289H116.402ZM116.402 102.047H114.655V100.3H116.402V102.047Z" fill="#F3F3F3"/>
<path d="M135.957 110.783H134.21V109.036H135.957V110.783ZM135.957 98.5525V100.3H134.21V98.5525H135.957ZM123.727 110.783V109.036H125.474V110.783H123.727ZM123.727 100.3V98.5525H125.474V100.3H123.727ZM127.221 107.289V105.541H121.979V103.794H127.221V102.047H128.968V96.8053H130.715V102.047H132.463V103.794H137.704V105.541H132.463V107.289H130.715V112.53H128.968V107.289H127.221ZM127.221 109.036H125.474V107.289H127.221V109.036ZM127.221 102.047H125.474V100.3H127.221V102.047ZM134.21 107.289V109.036H132.463V107.289H134.21ZM134.21 102.047H132.463V100.3H134.21V102.047Z" fill="#F3F3F3"/>
<path d="M153.765 110.783H152.018V109.036H153.765V110.783ZM153.765 98.5525V100.3H152.018V98.5525H153.765ZM141.534 110.783V109.036H143.282V110.783H141.534ZM141.534 100.3V98.5525H143.282V100.3H141.534ZM145.029 107.289V105.541H139.787V103.794H145.029V102.047H146.776V96.8053H148.523V102.047H150.27V103.794H155.512V105.541H150.27V107.289H148.523V112.53H146.776V107.289H145.029ZM145.029 109.036H143.282V107.289H145.029V109.036ZM145.029 102.047H143.282V100.3H145.029V102.047ZM152.018 107.289V109.036H150.27V107.289H152.018ZM152.018 102.047H150.27V100.3H152.018V102.047Z" fill="#F3F3F3"/>
<path d="M171.572 110.783H169.825V109.036H171.572V110.783ZM171.572 98.5525V100.3H169.825V98.5525H171.572ZM159.342 110.783V109.036H161.089V110.783H159.342ZM159.342 100.3V98.5525H161.089V100.3H159.342ZM162.836 107.289V105.541H157.595V103.794H162.836V102.047H164.584V96.8053H166.331V102.047H168.078V103.794H173.32V105.541H168.078V107.289H166.331V112.53H164.584V107.289H162.836ZM162.836 109.036H161.089V107.289H162.836V109.036ZM162.836 102.047H161.089V100.3H162.836V102.047ZM169.825 107.289V109.036H168.078V107.289H169.825ZM169.825 102.047H168.078V100.3H169.825V102.047Z" fill="#F3F3F3"/>
<path d="M189.38 110.783H187.633V109.036H189.38V110.783ZM189.38 98.5525V100.3H187.633V98.5525H189.38ZM177.15 110.783V109.036H178.897V110.783H177.15ZM177.15 100.3V98.5525H178.897V100.3H177.15ZM180.644 107.289V105.541H175.403V103.794H180.644V102.047H182.392V96.8053H184.139V102.047H185.886V103.794H191.128V105.541H185.886V107.289H184.139V112.53H182.392V107.289H180.644ZM180.644 109.036H178.897V107.289H180.644V109.036ZM180.644 102.047H178.897V100.3H180.644V102.047ZM187.633 107.289V109.036H185.886V107.289H187.633ZM187.633 102.047H185.886V100.3H187.633V102.047Z" fill="#F3F3F3"/>
<path d="M207.188 110.783H205.441V109.036H207.188V110.783ZM207.188 98.5525V100.3H205.441V98.5525H207.188ZM194.958 110.783V109.036H196.705V110.783H194.958ZM194.958 100.3V98.5525H196.705V100.3H194.958ZM198.452 107.289V105.541H193.21V103.794H198.452V102.047H200.199V96.8053H201.947V102.047H203.694V103.794H208.935V105.541H203.694V107.289H201.947V112.53H200.199V107.289H198.452ZM198.452 109.036H196.705V107.289H198.452V109.036ZM198.452 102.047H196.705V100.3H198.452V102.047ZM205.441 107.289V109.036H203.694V107.289H205.441ZM205.441 102.047H203.694V100.3H205.441V102.047Z" fill="#F3F3F3"/>
<path d="M224.996 110.783H223.249V109.036H224.996V110.783ZM224.996 98.5525V100.3H223.249V98.5525H224.996ZM212.765 110.783V109.036H214.513V110.783H212.765ZM212.765 100.3V98.5525H214.513V100.3H212.765ZM216.26 107.289V105.541H211.018V103.794H216.26V102.047H218.007V96.8053H219.754V102.047H221.501V103.794H226.743V105.541H221.501V107.289H219.754V112.53H218.007V107.289H216.26ZM216.26 109.036H214.513V107.289H216.26V109.036ZM216.26 102.047H214.513V100.3H216.26V102.047ZM223.249 107.289V109.036H221.501V107.289H223.249ZM223.249 102.047H221.501V100.3H223.249V102.047Z" fill="#F3F3F3"/>
<path d="M242.804 110.783H241.056V109.036H242.804V110.783ZM242.804 98.5525V100.3H241.056V98.5525H242.804ZM230.573 110.783V109.036H232.32V110.783H230.573ZM230.573 100.3V98.5525H232.32V100.3H230.573ZM234.068 107.289V105.541H228.826V103.794H234.068V102.047H235.815V96.8053H237.562V102.047H239.309V103.794H244.551V105.541H239.309V107.289H237.562V112.53H235.815V107.289H234.068ZM234.068 109.036H232.32V107.289H234.068V109.036ZM234.068 102.047H232.32V100.3H234.068V102.047ZM241.056 107.289V109.036H239.309V107.289H241.056ZM241.056 102.047H239.309V100.3H241.056V102.047Z" fill="#F3F3F3"/>
<path d="M246.634 95.0581V93.3109H253.623V95.0581H251.875V112.53H260.611V110.783H262.359V109.036H264.106V112.53H262.359V114.277H246.634V112.53H248.381V95.0581H246.634Z" fill="#F3F3F3"/>
<path d="M264.442 95.0581V93.3109H271.43V95.0581H269.683V112.53H278.419V110.783H280.166V109.036H281.914V112.53H280.166V114.277H264.442V112.53H266.189V95.0581H264.442Z" fill="#F3F3F3"/>
<path d="M282.249 95.0581V93.3109H289.238V95.0581H287.491V112.53H296.227V110.783H297.974V109.036H299.721V112.53H297.974V114.277H282.249V112.53H283.997V95.0581H282.249Z" fill="#F3F3F3"/>
<path d="M300.057 95.0581V93.3109H307.046V95.0581H305.299V112.53H314.035V110.783H315.782V109.036H317.529V112.53H315.782V114.277H300.057V112.53H301.804V95.0581H300.057Z" fill="#F3F3F3"/>
<path d="M2.56641 147.474V145.727H4.31361V143.98H6.06083V145.727H7.80802V147.474H6.06083V149.221H4.31361V147.474H2.56641ZM2.56641 136.991V135.244H4.31361V133.497H6.06083V135.244H7.80802V136.991H6.06083V138.738H4.31361V136.991H2.56641Z" fill="#F3F3F3"/>
<path d="M29.1102 145.727H27.363V143.98H29.1102V145.727ZM29.1102 133.497V135.244H27.363V133.497H29.1102ZM16.8798 145.727V143.98H18.627V145.727H16.8798ZM16.8798 135.244V133.497H18.627V135.244H16.8798ZM20.3742 142.233V140.485H15.1326V138.738H20.3742V136.991H22.1214V131.749H23.8686V136.991H25.6158V138.738H30.8574V140.485H25.6158V142.233H23.8686V147.474H22.1214V142.233H20.3742ZM20.3742 143.98H18.627V142.233H20.3742V143.98ZM20.3742 136.991H18.627V135.244H20.3742V136.991ZM27.363 142.233V143.98H25.6158V142.233H27.363ZM27.363 136.991H25.6158V135.244H27.363V136.991Z" fill="#F3F3F3"/>
<path d="M46.918 145.727H45.1708V143.98H46.918V145.727ZM46.918 133.497V135.244H45.1708V133.497H46.918ZM34.6876 145.727V143.98H36.4348V145.727H34.6876ZM34.6876 135.244V133.497H36.4348V135.244H34.6876ZM38.182 142.233V140.485H32.9404V138.738H38.182V136.991H39.9292V131.749H41.6764V136.991H43.4236V138.738H48.6652V140.485H43.4236V142.233H41.6764V147.474H39.9292V142.233H38.182ZM38.182 143.98H36.4348V142.233H38.182V143.98ZM38.182 136.991H36.4348V135.244H38.182V136.991ZM45.1708 142.233V143.98H43.4236V142.233H45.1708ZM45.1708 136.991H43.4236V135.244H45.1708V136.991Z" fill="#F3F3F3"/>
<path d="M64.7255 145.727H62.9784V143.98H64.7255V145.727ZM64.7255 133.497V135.244H62.9784V133.497H64.7255ZM52.4952 145.727V143.98H54.2424V145.727H52.4952ZM52.4952 135.244V133.497H54.2424V135.244H52.4952ZM55.9896 142.233V140.485H50.748V138.738H55.9896V136.991H57.7368V131.749H59.484V136.991H61.2312V138.738H66.4728V140.485H61.2312V142.233H59.484V147.474H57.7368V142.233H55.9896ZM55.9896 143.98H54.2424V142.233H55.9896V143.98ZM55.9896 136.991H54.2424V135.244H55.9896V136.991ZM62.9784 142.233V143.98H61.2312V142.233H62.9784ZM62.9784 136.991H61.2312V135.244H62.9784V136.991Z" fill="#F3F3F3"/>
<path d="M82.5334 145.727H80.7863V143.98H82.5334V145.727ZM82.5334 133.497V135.244H80.7863V133.497H82.5334ZM70.3031 145.727V143.98H72.0503V145.727H70.3031ZM70.3031 135.244V133.497H72.0503V135.244H70.3031ZM73.7975 142.233V140.485H68.5559V138.738H73.7975V136.991H75.5447V131.749H77.2919V136.991H79.0391V138.738H84.2807V140.485H79.0391V142.233H77.2919V147.474H75.5447V142.233H73.7975ZM73.7975 143.98H72.0503V142.233H73.7975V143.98ZM73.7975 136.991H72.0503V135.244H73.7975V136.991ZM80.7863 142.233V143.98H79.0391V142.233H80.7863ZM80.7863 136.991H79.0391V135.244H80.7863V136.991Z" fill="#F3F3F3"/>
<path d="M100.341 145.727H98.5942V143.98H100.341V145.727ZM100.341 133.497V135.244H98.5942V133.497H100.341ZM88.1109 145.727V143.98H89.8582V145.727H88.1109ZM88.1109 135.244V133.497H89.8582V135.244H88.1109ZM91.6054 142.233V140.485H86.3638V138.738H91.6054V136.991H93.3526V131.749H95.0998V136.991H96.8469V138.738H102.089V140.485H96.8469V142.233H95.0998V147.474H93.3526V142.233H91.6054ZM91.6054 143.98H89.8582V142.233H91.6054V143.98ZM91.6054 136.991H89.8582V135.244H91.6054V136.991ZM98.5942 142.233V143.98H96.8469V142.233H98.5942ZM98.5942 136.991H96.8469V135.244H98.5942V136.991Z" fill="#F3F3F3"/>
<path d="M118.149 145.727H116.402V143.98H118.149V145.727ZM118.149 133.497V135.244H116.402V133.497H118.149ZM105.919 145.727V143.98H107.666V145.727H105.919ZM105.919 135.244V133.497H107.666V135.244H105.919ZM109.413 142.233V140.485H104.172V138.738H109.413V136.991H111.16V131.749H112.908V136.991H114.655V138.738H119.896V140.485H114.655V142.233H112.908V147.474H111.16V142.233H109.413ZM109.413 143.98H107.666V142.233H109.413V143.98ZM109.413 136.991H107.666V135.244H109.413V136.991ZM116.402 142.233V143.98H114.655V142.233H116.402ZM116.402 136.991H114.655V135.244H116.402V136.991Z" fill="#F3F3F3"/>
<path d="M135.957 145.727H134.21V143.98H135.957V145.727ZM135.957 133.497V135.244H134.21V133.497H135.957ZM123.727 145.727V143.98H125.474V145.727H123.727ZM123.727 135.244V133.497H125.474V135.244H123.727ZM127.221 142.233V140.485H121.979V138.738H127.221V136.991H128.968V131.749H130.715V136.991H132.463V138.738H137.704V140.485H132.463V142.233H130.715V147.474H128.968V142.233H127.221ZM127.221 143.98H125.474V142.233H127.221V143.98ZM127.221 136.991H125.474V135.244H127.221V136.991ZM134.21 142.233V143.98H132.463V142.233H134.21ZM134.21 136.991H132.463V135.244H134.21V136.991Z" fill="#F3F3F3"/>
<path d="M153.765 145.727H152.018V143.98H153.765V145.727ZM153.765 133.497V135.244H152.018V133.497H153.765ZM141.534 145.727V143.98H143.282V145.727H141.534ZM141.534 135.244V133.497H143.282V135.244H141.534ZM145.029 142.233V140.485H139.787V138.738H145.029V136.991H146.776V131.749H148.523V136.991H150.27V138.738H155.512V140.485H150.27V142.233H148.523V147.474H146.776V142.233H145.029ZM145.029 143.98H143.282V142.233H145.029V143.98ZM145.029 136.991H143.282V135.244H145.029V136.991ZM152.018 142.233V143.98H150.27V142.233H152.018ZM152.018 136.991H150.27V135.244H152.018V136.991Z" fill="#F3F3F3"/>
<path d="M171.572 145.727H169.825V143.98H171.572V145.727ZM171.572 133.497V135.244H169.825V133.497H171.572ZM159.342 145.727V143.98H161.089V145.727H159.342ZM159.342 135.244V133.497H161.089V135.244H159.342ZM162.836 142.233V140.485H157.595V138.738H162.836V136.991H164.584V131.749H166.331V136.991H168.078V138.738H173.32V140.485H168.078V142.233H166.331V147.474H164.584V142.233H162.836ZM162.836 143.98H161.089V142.233H162.836V143.98ZM162.836 136.991H161.089V135.244H162.836V136.991ZM169.825 142.233V143.98H168.078V142.233H169.825ZM169.825 136.991H168.078V135.244H169.825V136.991Z" fill="#F3F3F3"/>
<path d="M189.38 145.727H187.633V143.98H189.38V145.727ZM189.38 133.497V135.244H187.633V133.497H189.38ZM177.15 145.727V143.98H178.897V145.727H177.15ZM177.15 135.244V133.497H178.897V135.244H177.15ZM180.644 142.233V140.485H175.403V138.738H180.644V136.991H182.392V131.749H184.139V136.991H185.886V138.738H191.128V140.485H185.886V142.233H184.139V147.474H182.392V142.233H180.644ZM180.644 143.98H178.897V142.233H180.644V143.98ZM180.644 136.991H178.897V135.244H180.644V136.991ZM187.633 142.233V143.98H185.886V142.233H187.633ZM187.633 136.991H185.886V135.244H187.633V136.991Z" fill="#F3F3F3"/>
<path d="M207.188 145.727H205.441V143.98H207.188V145.727ZM207.188 133.497V135.244H205.441V133.497H207.188ZM194.958 145.727V143.98H196.705V145.727H194.958ZM194.958 135.244V133.497H196.705V135.244H194.958ZM198.452 142.233V140.485H193.21V138.738H198.452V136.991H200.199V131.749H201.947V136.991H203.694V138.738H208.935V140.485H203.694V142.233H201.947V147.474H200.199V142.233H198.452ZM198.452 143.98H196.705V142.233H198.452V143.98ZM198.452 136.991H196.705V135.244H198.452V136.991ZM205.441 142.233V143.98H203.694V142.233H205.441ZM205.441 136.991H203.694V135.244H205.441V136.991Z" fill="#F3F3F3"/>
<path d="M211.018 130.002V128.255H218.007V130.002H216.26V147.474H224.996V145.727H226.743V143.98H228.49V147.474H226.743V149.221H211.018V147.474H212.765V130.002H211.018Z" fill="#F3F3F3"/>
<path d="M228.826 130.002V128.255H235.815V130.002H234.068V147.474H242.804V145.727H244.551V143.98H246.298V147.474H244.551V149.221H228.826V147.474H230.573V130.002H228.826Z" fill="#F3F3F3"/>
<path d="M246.634 130.002V128.255H253.623V130.002H251.875V147.474H260.611V145.727H262.359V143.98H264.106V147.474H262.359V149.221H246.634V147.474H248.381V130.002H246.634Z" fill="#F3F3F3"/>
<path d="M264.442 130.002V128.255H271.43V130.002H269.683V147.474H278.419V145.727H280.166V143.98H281.914V147.474H280.166V149.221H264.442V147.474H266.189V130.002H264.442Z" fill="#F3F3F3"/>
<path d="M282.249 130.002V128.255H289.238V130.002H287.491V147.474H296.227V145.727H297.974V143.98H299.721V147.474H297.974V149.221H282.249V147.474H283.997V130.002H282.249Z" fill="#F3F3F3"/>
<path d="M300.057 130.002V128.255H307.046V130.002H305.299V147.474H314.035V145.727H315.782V143.98H317.529V147.474H315.782V149.221H300.057V147.474H301.804V130.002H300.057Z" fill="#F3F3F3"/>
<path d="M11.3023 180.671H9.55512V178.924H11.3023V180.671ZM11.3023 168.441V170.188H9.55512V168.441H11.3023ZM-0.92809 180.671V178.924H0.81911V180.671H-0.92809ZM-0.92809 170.188V168.441H0.81911V170.188H-0.92809ZM2.5663 177.177V175.429H-2.67529V173.682H2.5663V171.935H4.3135V166.693H6.06072V171.935H7.80791V173.682H13.0495V175.429H7.80791V177.177H6.06072V182.418H4.3135V177.177H2.5663ZM2.5663 178.924H0.81911V177.177H2.5663V178.924ZM2.5663 171.935H0.81911V170.188H2.5663V171.935ZM9.55512 177.177V178.924H7.80791V177.177H9.55512ZM9.55512 171.935H7.80791V170.188H9.55512V171.935Z" fill="#F3F3F3"/>
<path d="M29.1102 180.671H27.363V178.924H29.1102V180.671ZM29.1102 168.441V170.188H27.363V168.441H29.1102ZM16.8798 180.671V178.924H18.627V180.671H16.8798ZM16.8798 170.188V168.441H18.627V170.188H16.8798ZM20.3742 177.177V175.429H15.1326V173.682H20.3742V171.935H22.1214V166.693H23.8686V171.935H25.6158V173.682H30.8574V175.429H25.6158V177.177H23.8686V182.418H22.1214V177.177H20.3742ZM20.3742 178.924H18.627V177.177H20.3742V178.924ZM20.3742 171.935H18.627V170.188H20.3742V171.935ZM27.363 177.177V178.924H25.6158V177.177H27.363ZM27.363 171.935H25.6158V170.188H27.363V171.935Z" fill="#F3F3F3"/>
<path d="M46.918 180.671H45.1708V178.924H46.918V180.671ZM46.918 168.441V170.188H45.1708V168.441H46.918ZM34.6876 180.671V178.924H36.4348V180.671H34.6876ZM34.6876 170.188V168.441H36.4348V170.188H34.6876ZM38.182 177.177V175.429H32.9404V173.682H38.182V171.935H39.9292V166.693H41.6764V171.935H43.4236V173.682H48.6652V175.429H43.4236V177.177H41.6764V182.418H39.9292V177.177H38.182ZM38.182 178.924H36.4348V177.177H38.182V178.924ZM38.182 171.935H36.4348V170.188H38.182V171.935ZM45.1708 177.177V178.924H43.4236V177.177H45.1708ZM45.1708 171.935H43.4236V170.188H45.1708V171.935Z" fill="#F3F3F3"/>
<path d="M64.7255 180.671H62.9784V178.924H64.7255V180.671ZM64.7255 168.441V170.188H62.9784V168.441H64.7255ZM52.4952 180.671V178.924H54.2424V180.671H52.4952ZM52.4952 170.188V168.441H54.2424V170.188H52.4952ZM55.9896 177.177V175.429H50.748V173.682H55.9896V171.935H57.7368V166.693H59.484V171.935H61.2312V173.682H66.4728V175.429H61.2312V177.177H59.484V182.418H57.7368V177.177H55.9896ZM55.9896 178.924H54.2424V177.177H55.9896V178.924ZM55.9896 171.935H54.2424V170.188H55.9896V171.935ZM62.9784 177.177V178.924H61.2312V177.177H62.9784ZM62.9784 171.935H61.2312V170.188H62.9784V171.935Z" fill="#F3F3F3"/>
<path d="M82.5334 180.671H80.7863V178.924H82.5334V180.671ZM82.5334 168.441V170.188H80.7863V168.441H82.5334ZM70.3031 180.671V178.924H72.0503V180.671H70.3031ZM70.3031 170.188V168.441H72.0503V170.188H70.3031ZM73.7975 177.177V175.429H68.5559V173.682H73.7975V171.935H75.5447V166.693H77.2919V171.935H79.0391V173.682H84.2807V175.429H79.0391V177.177H77.2919V182.418H75.5447V177.177H73.7975ZM73.7975 178.924H72.0503V177.177H73.7975V178.924ZM73.7975 171.935H72.0503V170.188H73.7975V171.935ZM80.7863 177.177V178.924H79.0391V177.177H80.7863ZM80.7863 171.935H79.0391V170.188H80.7863V171.935Z" fill="#F3F3F3"/>
<path d="M100.341 180.671H98.5942V178.924H100.341V180.671ZM100.341 168.441V170.188H98.5942V168.441H100.341ZM88.1109 180.671V178.924H89.8582V180.671H88.1109ZM88.1109 170.188V168.441H89.8582V170.188H88.1109ZM91.6054 177.177V175.429H86.3638V173.682H91.6054V171.935H93.3526V166.693H95.0998V171.935H96.8469V173.682H102.089V175.429H96.8469V177.177H95.0998V182.418H93.3526V177.177H91.6054ZM91.6054 178.924H89.8582V177.177H91.6054V178.924ZM91.6054 171.935H89.8582V170.188H91.6054V171.935ZM98.5942 177.177V178.924H96.8469V177.177H98.5942ZM98.5942 171.935H96.8469V170.188H98.5942V171.935Z" fill="#F3F3F3"/>
<path d="M118.149 180.671H116.402V178.924H118.149V180.671ZM118.149 168.441V170.188H116.402V168.441H118.149ZM105.919 180.671V178.924H107.666V180.671H105.919ZM105.919 170.188V168.441H107.666V170.188H105.919ZM109.413 177.177V175.429H104.172V173.682H109.413V171.935H111.16V166.693H112.908V171.935H114.655V173.682H119.896V175.429H114.655V177.177H112.908V182.418H111.16V177.177H109.413ZM109.413 178.924H107.666V177.177H109.413V178.924ZM109.413 171.935H107.666V170.188H109.413V171.935ZM116.402 177.177V178.924H114.655V177.177H116.402ZM116.402 171.935H114.655V170.188H116.402V171.935Z" fill="#F3F3F3"/>
<path d="M135.957 180.671H134.21V178.924H135.957V180.671ZM135.957 168.441V170.188H134.21V168.441H135.957ZM123.727 180.671V178.924H125.474V180.671H123.727ZM123.727 170.188V168.441H125.474V170.188H123.727ZM127.221 177.177V175.429H121.979V173.682H127.221V171.935H128.968V166.693H130.715V171.935H132.463V173.682H137.704V175.429H132.463V177.177H130.715V182.418H128.968V177.177H127.221ZM127.221 178.924H125.474V177.177H127.221V178.924ZM127.221 171.935H125.474V170.188H127.221V171.935ZM134.21 177.177V178.924H132.463V177.177H134.21ZM134.21 171.935H132.463V170.188H134.21V171.935Z" fill="#F3F3F3"/>
<path d="M153.765 180.671H152.018V178.924H153.765V180.671ZM153.765 168.441V170.188H152.018V168.441H153.765ZM141.534 180.671V178.924H143.282V180.671H141.534ZM141.534 170.188V168.441H143.282V170.188H141.534ZM145.029 177.177V175.429H139.787V173.682H145.029V171.935H146.776V166.693H148.523V171.935H150.27V173.682H155.512V175.429H150.27V177.177H148.523V182.418H146.776V177.177H145.029ZM145.029 178.924H143.282V177.177H145.029V178.924ZM145.029 171.935H143.282V170.188H145.029V171.935ZM152.018 177.177V178.924H150.27V177.177H152.018ZM152.018 171.935H150.27V170.188H152.018V171.935Z" fill="#F3F3F3"/>
<path d="M171.572 180.671H169.825V178.924H171.572V180.671ZM171.572 168.441V170.188H169.825V168.441H171.572ZM159.342 180.671V178.924H161.089V180.671H159.342ZM159.342 170.188V168.441H161.089V170.188H159.342ZM162.836 177.177V175.429H157.595V173.682H162.836V171.935H164.584V166.693H166.331V171.935H168.078V173.682H173.32V175.429H168.078V177.177H166.331V182.418H164.584V177.177H162.836ZM162.836 178.924H161.089V177.177H162.836V178.924ZM162.836 171.935H161.089V170.188H162.836V171.935ZM169.825 177.177V178.924H168.078V177.177H169.825ZM169.825 171.935H168.078V170.188H169.825V171.935Z" fill="#F3F3F3"/>
<path d="M175.403 164.946V163.199H182.392V164.946H180.644V182.418H189.38V180.671H191.128V178.924H192.875V182.418H191.128V184.165H175.403V182.418H177.15V164.946H175.403Z" fill="#F3F3F3"/>
<path d="M193.21 164.946V163.199H200.199V164.946H198.452V182.418H207.188V180.671H208.935V178.924H210.683V182.418H208.935V184.165H193.21V182.418H194.958V164.946H193.21Z" fill="#F3F3F3"/>
<path d="M211.018 164.946V163.199H218.007V164.946H216.26V182.418H224.996V180.671H226.743V178.924H228.49V182.418H226.743V184.165H211.018V182.418H212.765V164.946H211.018Z" fill="#F3F3F3"/>
<path d="M228.826 164.946V163.199H235.815V164.946H234.068V182.418H242.804V180.671H244.551V178.924H246.298V182.418H244.551V184.165H228.826V182.418H230.573V164.946H228.826Z" fill="#F3F3F3"/>
<path d="M246.634 164.946V163.199H253.623V164.946H251.875V182.418H260.611V180.671H262.359V178.924H264.106V182.418H262.359V184.165H246.634V182.418H248.381V164.946H246.634Z" fill="#F3F3F3"/>
<path d="M264.442 164.946V163.199H271.43V164.946H269.683V182.418H278.419V180.671H280.166V178.924H281.914V182.418H280.166V184.165H264.442V182.418H266.189V164.946H264.442Z" fill="#F3F3F3"/>
<path d="M282.249 164.946V163.199H289.238V164.946H287.491V182.418H296.227V180.671H297.974V178.924H299.721V182.418H297.974V184.165H282.249V182.418H283.997V164.946H282.249Z" fill="#F3F3F3"/>
<path d="M300.057 164.946V163.199H307.046V164.946H305.299V182.418H314.035V180.671H315.782V178.924H317.529V182.418H315.782V184.165H300.057V182.418H301.804V164.946H300.057Z" fill="#F3F3F3"/>
<path d="M11.3023 215.615H9.55512V213.868H11.3023V215.615ZM11.3023 203.385V205.132H9.55512V203.385H11.3023ZM-0.92809 215.615V213.868H0.81911V215.615H-0.92809ZM-0.92809 205.132V203.385H0.81911V205.132H-0.92809ZM2.5663 212.121V210.373H-2.67529V208.626H2.5663V206.879H4.3135V201.637H6.06072V206.879H7.80791V208.626H13.0495V210.373H7.80791V212.121H6.06072V217.362H4.3135V212.121H2.5663ZM2.5663 213.868H0.81911V212.121H2.5663V213.868ZM2.5663 206.879H0.81911V205.132H2.5663V206.879ZM9.55512 212.121V213.868H7.80791V212.121H9.55512ZM9.55512 206.879H7.80791V205.132H9.55512V206.879Z" fill="#F3F3F3"/>
<path d="M29.1102 215.615H27.363V213.868H29.1102V215.615ZM29.1102 203.385V205.132H27.363V203.385H29.1102ZM16.8798 215.615V213.868H18.627V215.615H16.8798ZM16.8798 205.132V203.385H18.627V205.132H16.8798ZM20.3742 212.121V210.373H15.1326V208.626H20.3742V206.879H22.1214V201.637H23.8686V206.879H25.6158V208.626H30.8574V210.373H25.6158V212.121H23.8686V217.362H22.1214V212.121H20.3742ZM20.3742 213.868H18.627V212.121H20.3742V213.868ZM20.3742 206.879H18.627V205.132H20.3742V206.879ZM27.363 212.121V213.868H25.6158V212.121H27.363ZM27.363 206.879H25.6158V205.132H27.363V206.879Z" fill="#F3F3F3"/>
<path d="M46.918 215.615H45.1708V213.868H46.918V215.615ZM46.918 203.385V205.132H45.1708V203.385H46.918ZM34.6876 215.615V213.868H36.4348V215.615H34.6876ZM34.6876 205.132V203.385H36.4348V205.132H34.6876ZM38.182 212.121V210.373H32.9404V208.626H38.182V206.879H39.9292V201.637H41.6764V206.879H43.4236V208.626H48.6652V210.373H43.4236V212.121H41.6764V217.362H39.9292V212.121H38.182ZM38.182 213.868H36.4348V212.121H38.182V213.868ZM38.182 206.879H36.4348V205.132H38.182V206.879ZM45.1708 212.121V213.868H43.4236V212.121H45.1708ZM45.1708 206.879H43.4236V205.132H45.1708V206.879Z" fill="#F3F3F3"/>
<path d="M64.7255 215.615H62.9784V213.868H64.7255V215.615ZM64.7255 203.385V205.132H62.9784V203.385H64.7255ZM52.4952 215.615V213.868H54.2424V215.615H52.4952ZM52.4952 205.132V203.385H54.2424V205.132H52.4952ZM55.9896 212.121V210.373H50.748V208.626H55.9896V206.879H57.7368V201.637H59.484V206.879H61.2312V208.626H66.4728V210.373H61.2312V212.121H59.484V217.362H57.7368V212.121H55.9896ZM55.9896 213.868H54.2424V212.121H55.9896V213.868ZM55.9896 206.879H54.2424V205.132H55.9896V206.879ZM62.9784 212.121V213.868H61.2312V212.121H62.9784ZM62.9784 206.879H61.2312V205.132H62.9784V206.879Z" fill="#F3F3F3"/>
<path d="M82.5334 215.615H80.7863V213.868H82.5334V215.615ZM82.5334 203.385V205.132H80.7863V203.385H82.5334ZM70.3031 215.615V213.868H72.0503V215.615H70.3031ZM70.3031 205.132V203.385H72.0503V205.132H70.3031ZM73.7975 212.121V210.373H68.5559V208.626H73.7975V206.879H75.5447V201.637H77.2919V206.879H79.0391V208.626H84.2807V210.373H79.0391V212.121H77.2919V217.362H75.5447V212.121H73.7975ZM73.7975 213.868H72.0503V212.121H73.7975V213.868ZM73.7975 206.879H72.0503V205.132H73.7975V206.879ZM80.7863 212.121V213.868H79.0391V212.121H80.7863ZM80.7863 206.879H79.0391V205.132H80.7863V206.879Z" fill="#F3F3F3"/>
<path d="M100.341 215.615H98.5942V213.868H100.341V215.615ZM100.341 203.385V205.132H98.5942V203.385H100.341ZM88.1109 215.615V213.868H89.8582V215.615H88.1109ZM88.1109 205.132V203.385H89.8582V205.132H88.1109ZM91.6054 212.121V210.373H86.3638V208.626H91.6054V206.879H93.3526V201.637H95.0998V206.879H96.8469V208.626H102.089V210.373H96.8469V212.121H95.0998V217.362H93.3526V212.121H91.6054ZM91.6054 213.868H89.8582V212.121H91.6054V213.868ZM91.6054 206.879H89.8582V205.132H91.6054V206.879ZM98.5942 212.121V213.868H96.8469V212.121H98.5942ZM98.5942 206.879H96.8469V205.132H98.5942V206.879Z" fill="#F3F3F3"/>
<path d="M118.149 215.615H116.402V213.868H118.149V215.615ZM118.149 203.385V205.132H116.402V203.385H118.149ZM105.919 215.615V213.868H107.666V215.615H105.919ZM105.919 205.132V203.385H107.666V205.132H105.919ZM109.413 212.121V210.373H104.172V208.626H109.413V206.879H111.16V201.637H112.908V206.879H114.655V208.626H119.896V210.373H114.655V212.121H112.908V217.362H111.16V212.121H109.413ZM109.413 213.868H107.666V212.121H109.413V213.868ZM109.413 206.879H107.666V205.132H109.413V206.879ZM116.402 212.121V213.868H114.655V212.121H116.402ZM116.402 206.879H114.655V205.132H116.402V206.879Z" fill="#F3F3F3"/>
<path d="M135.957 215.615H134.21V213.868H135.957V215.615ZM135.957 203.385V205.132H134.21V203.385H135.957ZM123.727 215.615V213.868H125.474V215.615H123.727ZM123.727 205.132V203.385H125.474V205.132H123.727ZM127.221 212.121V210.373H121.979V208.626H127.221V206.879H128.968V201.637H130.715V206.879H132.463V208.626H137.704V210.373H132.463V212.121H130.715V217.362H128.968V212.121H127.221ZM127.221 213.868H125.474V212.121H127.221V213.868ZM127.221 206.879H125.474V205.132H127.221V206.879ZM134.21 212.121V213.868H132.463V212.121H134.21ZM134.21 206.879H132.463V205.132H134.21V206.879Z" fill="#F3F3F3"/>
<path d="M139.787 199.89V198.143H146.776V199.89H145.029V217.362H153.765V215.615H155.512V213.868H157.259V217.362H155.512V219.109H139.787V217.362H141.534V199.89H139.787Z" fill="#F3F3F3"/>
<path d="M157.595 199.89V198.143H164.584V199.89H162.836V217.362H171.572V215.615H173.32V213.868H175.067V217.362H173.32V219.109H157.595V217.362H159.342V199.89H157.595Z" fill="#F3F3F3"/>
<path d="M175.403 199.89V198.143H182.392V199.89H180.644V217.362H189.38V215.615H191.128V213.868H192.875V217.362H191.128V219.109H175.403V217.362H177.15V199.89H175.403Z" fill="#F3F3F3"/>
<path d="M193.21 199.89V198.143H200.199V199.89H198.452V217.362H207.188V215.615H208.935V213.868H210.683V217.362H208.935V219.109H193.21V217.362H194.958V199.89H193.21Z" fill="#F3F3F3"/>
<path d="M211.018 199.89V198.143H218.007V199.89H216.26V217.362H224.996V215.615H226.743V213.868H228.49V217.362H226.743V219.109H211.018V217.362H212.765V199.89H211.018Z" fill="#F3F3F3"/>
<path d="M228.826 199.89V198.143H235.815V199.89H234.068V217.362H242.804V215.615H244.551V213.868H246.298V217.362H244.551V219.109H228.826V217.362H230.573V199.89H228.826Z" fill="#F3F3F3"/>
<path d="M246.634 199.89V198.143H253.623V199.89H251.875V217.362H260.611V215.615H262.359V213.868H264.106V217.362H262.359V219.109H246.634V217.362H248.381V199.89H246.634Z" fill="#F3F3F3"/>
<path d="M264.442 199.89V198.143H271.43V199.89H269.683V217.362H278.419V215.615H280.166V213.868H281.914V217.362H280.166V219.109H264.442V217.362H266.189V199.89H264.442Z" fill="#F3F3F3"/>
<path d="M282.249 199.89V198.143H289.238V199.89H287.491V217.362H296.227V215.615H297.974V213.868H299.721V217.362H297.974V219.109H282.249V217.362H283.997V199.89H282.249Z" fill="#F3F3F3"/>
<path d="M300.057 199.89V198.143H307.046V199.89H305.299V217.362H314.035V215.615H315.782V213.868H317.529V217.362H315.782V219.109H300.057V217.362H301.804V199.89H300.057Z" fill="#F3F3F3"/>
<path d="M11.3023 250.559H9.55512V248.812H11.3023V250.559ZM11.3023 238.329V240.076H9.55512V238.329H11.3023ZM-0.92809 250.559V248.812H0.81911V250.559H-0.92809ZM-0.92809 240.076V238.329H0.81911V240.076H-0.92809ZM2.5663 247.065V245.317H-2.67529V243.57H2.5663V241.823H4.3135V236.581H6.06072V241.823H7.80791V243.57H13.0495V245.317H7.80791V247.065H6.06072V252.306H4.3135V247.065H2.5663ZM2.5663 248.812H0.81911V247.065H2.5663V248.812ZM2.5663 241.823H0.81911V240.076H2.5663V241.823ZM9.55512 247.065V248.812H7.80791V247.065H9.55512ZM9.55512 241.823H7.80791V240.076H9.55512V241.823Z" fill="#F3F3F3"/>
<path d="M29.1102 250.559H27.363V248.812H29.1102V250.559ZM29.1102 238.329V240.076H27.363V238.329H29.1102ZM16.8798 250.559V248.812H18.627V250.559H16.8798ZM16.8798 240.076V238.329H18.627V240.076H16.8798ZM20.3742 247.065V245.317H15.1326V243.57H20.3742V241.823H22.1214V236.581H23.8686V241.823H25.6158V243.57H30.8574V245.317H25.6158V247.065H23.8686V252.306H22.1214V247.065H20.3742ZM20.3742 248.812H18.627V247.065H20.3742V248.812ZM20.3742 241.823H18.627V240.076H20.3742V241.823ZM27.363 247.065V248.812H25.6158V247.065H27.363ZM27.363 241.823H25.6158V240.076H27.363V241.823Z" fill="#F3F3F3"/>
<path d="M46.918 250.559H45.1708V248.812H46.918V250.559ZM46.918 238.329V240.076H45.1708V238.329H46.918ZM34.6876 250.559V248.812H36.4348V250.559H34.6876ZM34.6876 240.076V238.329H36.4348V240.076H34.6876ZM38.182 247.065V245.317H32.9404V243.57H38.182V241.823H39.9292V236.581H41.6764V241.823H43.4236V243.57H48.6652V245.317H43.4236V247.065H41.6764V252.306H39.9292V247.065H38.182ZM38.182 248.812H36.4348V247.065H38.182V248.812ZM38.182 241.823H36.4348V240.076H38.182V241.823ZM45.1708 247.065V248.812H43.4236V247.065H45.1708ZM45.1708 241.823H43.4236V240.076H45.1708V241.823Z" fill="#F3F3F3"/>
<path d="M64.7255 250.559H62.9784V248.812H64.7255V250.559ZM64.7255 238.329V240.076H62.9784V238.329H64.7255ZM52.4952 250.559V248.812H54.2424V250.559H52.4952ZM52.4952 240.076V238.329H54.2424V240.076H52.4952ZM55.9896 247.065V245.317H50.748V243.57H55.9896V241.823H57.7368V236.581H59.484V241.823H61.2312V243.57H66.4728V245.317H61.2312V247.065H59.484V252.306H57.7368V247.065H55.9896ZM55.9896 248.812H54.2424V247.065H55.9896V248.812ZM55.9896 241.823H54.2424V240.076H55.9896V241.823ZM62.9784 247.065V248.812H61.2312V247.065H62.9784ZM62.9784 241.823H61.2312V240.076H62.9784V241.823Z" fill="#F3F3F3"/>
<path d="M82.5334 250.559H80.7863V248.812H82.5334V250.559ZM82.5334 238.329V240.076H80.7863V238.329H82.5334ZM70.3031 250.559V248.812H72.0503V250.559H70.3031ZM70.3031 240.076V238.329H72.0503V240.076H70.3031ZM73.7975 247.065V245.317H68.5559V243.57H73.7975V241.823H75.5447V236.581H77.2919V241.823H79.0391V243.57H84.2807V245.317H79.0391V247.065H77.2919V252.306H75.5447V247.065H73.7975ZM73.7975 248.812H72.0503V247.065H73.7975V248.812ZM73.7975 241.823H72.0503V240.076H73.7975V241.823ZM80.7863 247.065V248.812H79.0391V247.065H80.7863ZM80.7863 241.823H79.0391V240.076H80.7863V241.823Z" fill="#F3F3F3"/>
<path d="M100.341 250.559H98.5942V248.812H100.341V250.559ZM100.341 238.329V240.076H98.5942V238.329H100.341ZM88.1109 250.559V248.812H89.8582V250.559H88.1109ZM88.1109 240.076V238.329H89.8582V240.076H88.1109ZM91.6054 247.065V245.317H86.3638V243.57H91.6054V241.823H93.3526V236.581H95.0998V241.823H96.8469V243.57H102.089V245.317H96.8469V247.065H95.0998V252.306H93.3526V247.065H91.6054ZM91.6054 248.812H89.8582V247.065H91.6054V248.812ZM91.6054 241.823H89.8582V240.076H91.6054V241.823ZM98.5942 247.065V248.812H96.8469V247.065H98.5942ZM98.5942 241.823H96.8469V240.076H98.5942V241.823Z" fill="#F3F3F3"/>
<path d="M104.172 234.834V233.087H111.16V234.834H109.413V252.306H118.149V250.559H119.896V248.812H121.644V252.306H119.896V254.053H104.172V252.306H105.919V234.834H104.172Z" fill="#F3F3F3"/>
<path d="M121.979 234.834V233.087H128.968V234.834H127.221V252.306H135.957V250.559H137.704V248.812H139.451V252.306H137.704V254.053H121.979V252.306H123.727V234.834H121.979Z" fill="#F3F3F3"/>
<path d="M139.787 234.834V233.087H146.776V234.834H145.029V252.306H153.765V250.559H155.512V248.812H157.259V252.306H155.512V254.053H139.787V252.306H141.534V234.834H139.787Z" fill="#F3F3F3"/>
<path d="M157.595 234.834V233.087H164.584V234.834H162.836V252.306H171.572V250.559H173.32V248.812H175.067V252.306H173.32V254.053H157.595V252.306H159.342V234.834H157.595Z" fill="#F3F3F3"/>
<path d="M175.403 234.834V233.087H182.392V234.834H180.644V252.306H189.38V250.559H191.128V248.812H192.875V252.306H191.128V254.053H175.403V252.306H177.15V234.834H175.403Z" fill="#F3F3F3"/>
<path d="M193.21 234.834V233.087H200.199V234.834H198.452V252.306H207.188V250.559H208.935V248.812H210.683V252.306H208.935V254.053H193.21V252.306H194.958V234.834H193.21Z" fill="#F3F3F3"/>
<path d="M211.018 234.834V233.087H218.007V234.834H216.26V252.306H224.996V250.559H226.743V248.812H228.49V252.306H226.743V254.053H211.018V252.306H212.765V234.834H211.018Z" fill="#F3F3F3"/>
<path d="M228.826 234.834V233.087H235.815V234.834H234.068V252.306H242.804V250.559H244.551V248.812H246.298V252.306H244.551V254.053H228.826V252.306H230.573V234.834H228.826Z" fill="#F3F3F3"/>
<path d="M246.634 234.834V233.087H253.623V234.834H251.875V252.306H260.611V250.559H262.359V248.812H264.106V252.306H262.359V254.053H246.634V252.306H248.381V234.834H246.634Z" fill="#F3F3F3"/>
<path d="M264.442 234.834V233.087H271.43V234.834H269.683V252.306H278.419V250.559H280.166V248.812H281.914V252.306H280.166V254.053H264.442V252.306H266.189V234.834H264.442Z" fill="#F3F3F3"/>
<path d="M282.249 234.834V233.087H289.238V234.834H287.491V252.306H296.227V250.559H297.974V248.812H299.721V252.306H297.974V254.053H282.249V252.306H283.997V234.834H282.249Z" fill="#F3F3F3"/>
<path d="M300.057 234.834V233.087H307.046V234.834H305.299V252.306H314.035V250.559H315.782V248.812H317.529V252.306H315.782V254.053H300.057V252.306H301.804V234.834H300.057Z" fill="#F3F3F3"/>
<path d="M11.3023 285.503H9.55512V283.756H11.3023V285.503ZM11.3023 273.273V275.02H9.55512V273.273H11.3023ZM-0.92809 285.503V283.756H0.81911V285.503H-0.92809ZM-0.92809 275.02V273.273H0.81911V275.02H-0.92809ZM2.5663 282.009V280.261H-2.67529V278.514H2.5663V276.767H4.3135V271.525H6.06072V276.767H7.80791V278.514H13.0495V280.261H7.80791V282.009H6.06072V287.25H4.3135V282.009H2.5663ZM2.5663 283.756H0.81911V282.009H2.5663V283.756ZM2.5663 276.767H0.81911V275.02H2.5663V276.767ZM9.55512 282.009V283.756H7.80791V282.009H9.55512ZM9.55512 276.767H7.80791V275.02H9.55512V276.767Z" fill="#F3F3F3"/>
<path d="M29.1102 285.503H27.363V283.756H29.1102V285.503ZM29.1102 273.273V275.02H27.363V273.273H29.1102ZM16.8798 285.503V283.756H18.627V285.503H16.8798ZM16.8798 275.02V273.273H18.627V275.02H16.8798ZM20.3742 282.009V280.261H15.1326V278.514H20.3742V276.767H22.1214V271.525H23.8686V276.767H25.6158V278.514H30.8574V280.261H25.6158V282.009H23.8686V287.25H22.1214V282.009H20.3742ZM20.3742 283.756H18.627V282.009H20.3742V283.756ZM20.3742 276.767H18.627V275.02H20.3742V276.767ZM27.363 282.009V283.756H25.6158V282.009H27.363ZM27.363 276.767H25.6158V275.02H27.363V276.767Z" fill="#F3F3F3"/>
<path d="M46.918 285.503H45.1708V283.756H46.918V285.503ZM46.918 273.273V275.02H45.1708V273.273H46.918ZM34.6876 285.503V283.756H36.4348V285.503H34.6876ZM34.6876 275.02V273.273H36.4348V275.02H34.6876ZM38.182 282.009V280.261H32.9404V278.514H38.182V276.767H39.9292V271.525H41.6764V276.767H43.4236V278.514H48.6652V280.261H43.4236V282.009H41.6764V287.25H39.9292V282.009H38.182ZM38.182 283.756H36.4348V282.009H38.182V283.756ZM38.182 276.767H36.4348V275.02H38.182V276.767ZM45.1708 282.009V283.756H43.4236V282.009H45.1708ZM45.1708 276.767H43.4236V275.02H45.1708V276.767Z" fill="#F3F3F3"/>
<path d="M64.7255 285.503H62.9784V283.756H64.7255V285.503ZM64.7255 273.273V275.02H62.9784V273.273H64.7255ZM52.4952 285.503V283.756H54.2424V285.503H52.4952ZM52.4952 275.02V273.273H54.2424V275.02H52.4952ZM55.9896 282.009V280.261H50.748V278.514H55.9896V276.767H57.7368V271.525H59.484V276.767H61.2312V278.514H66.4728V280.261H61.2312V282.009H59.484V287.25H57.7368V282.009H55.9896ZM55.9896 283.756H54.2424V282.009H55.9896V283.756ZM55.9896 276.767H54.2424V275.02H55.9896V276.767ZM62.9784 282.009V283.756H61.2312V282.009H62.9784ZM62.9784 276.767H61.2312V275.02H62.9784V276.767Z" fill="#F3F3F3"/>
<path d="M68.5559 269.778V268.031H75.5447V269.778H73.7975V287.25H82.5334V285.503H84.2807V283.756H86.0279V287.25H84.2807V288.997H68.5559V287.25H70.3031V269.778H68.5559Z" fill="#F3F3F3"/>
<path d="M86.3638 269.778V268.031H93.3526V269.778H91.6054V287.25H100.341V285.503H102.089V283.756H103.836V287.25H102.089V288.997H86.3638V287.25H88.1109V269.778H86.3638Z" fill="#F3F3F3"/>
<path d="M104.172 269.778V268.031H111.16V269.778H109.413V287.25H118.149V285.503H119.896V283.756H121.644V287.25H119.896V288.997H104.172V287.25H105.919V269.778H104.172Z" fill="#F3F3F3"/>
<path d="M121.979 269.778V268.031H128.968V269.778H127.221V287.25H135.957V285.503H137.704V283.756H139.451V287.25H137.704V288.997H121.979V287.25H123.727V269.778H121.979Z" fill="#F3F3F3"/>
<path d="M139.787 269.778V268.031H146.776V269.778H145.029V287.25H153.765V285.503H155.512V283.756H157.259V287.25H155.512V288.997H139.787V287.25H141.534V269.778H139.787Z" fill="#F3F3F3"/>
<path d="M157.595 269.778V268.031H164.584V269.778H162.836V287.25H171.572V285.503H173.32V283.756H175.067V287.25H173.32V288.997H157.595V287.25H159.342V269.778H157.595Z" fill="#F3F3F3"/>
<path d="M175.403 269.778V268.031H182.392V269.778H180.644V287.25H189.38V285.503H191.128V283.756H192.875V287.25H191.128V288.997H175.403V287.25H177.15V269.778H175.403Z" fill="#F3F3F3"/>
<path d="M193.21 269.778V268.031H200.199V269.778H198.452V287.25H207.188V285.503H208.935V283.756H210.683V287.25H208.935V288.997H193.21V287.25H194.958V269.778H193.21Z" fill="#F3F3F3"/>
<path d="M211.018 269.778V268.031H218.007V269.778H216.26V287.25H224.996V285.503H226.743V283.756H228.49V287.25H226.743V288.997H211.018V287.25H212.765V269.778H211.018Z" fill="#F3F3F3"/>
<path d="M228.826 269.778V268.031H235.815V269.778H234.068V287.25H242.804V285.503H244.551V283.756H246.298V287.25H244.551V288.997H228.826V287.25H230.573V269.778H228.826Z" fill="#F3F3F3"/>
<path d="M246.634 269.778V268.031H253.623V269.778H251.875V287.25H260.611V285.503H262.359V283.756H264.106V287.25H262.359V288.997H246.634V287.25H248.381V269.778H246.634Z" fill="#F3F3F3"/>
<path d="M264.442 269.778V268.031H271.43V269.778H269.683V287.25H278.419V285.503H280.166V283.756H281.914V287.25H280.166V288.997H264.442V287.25H266.189V269.778H264.442Z" fill="#F3F3F3"/>
<path d="M282.249 269.778V268.031H289.238V269.778H287.491V287.25H296.227V285.503H297.974V283.756H299.721V287.25H297.974V288.997H282.249V287.25H283.997V269.778H282.249Z" fill="#F3F3F3"/>
<path d="M300.057 269.778V268.031H307.046V269.778H305.299V287.25H314.035V285.503H315.782V283.756H317.529V287.25H315.782V288.997H300.057V287.25H301.804V269.778H300.057Z" fill="#F3F3F3"/>
<path d="M11.3023 320.447H9.55512V318.7H11.3023V320.447ZM11.3023 308.217V309.964H9.55512V308.217H11.3023ZM-0.92809 320.447V318.7H0.81911V320.447H-0.92809ZM-0.92809 309.964V308.217H0.81911V309.964H-0.92809ZM2.5663 316.953V315.205H-2.67529V313.458H2.5663V311.711H4.3135V306.469H6.06072V311.711H7.80791V313.458H13.0495V315.205H7.80791V316.953H6.06072V322.194H4.3135V316.953H2.5663ZM2.5663 318.7H0.81911V316.953H2.5663V318.7ZM2.5663 311.711H0.81911V309.964H2.5663V311.711ZM9.55512 316.953V318.7H7.80791V316.953H9.55512ZM9.55512 311.711H7.80791V309.964H9.55512V311.711Z" fill="#F3F3F3"/>
<path d="M29.1102 320.447H27.363V318.7H29.1102V320.447ZM29.1102 308.217V309.964H27.363V308.217H29.1102ZM16.8798 320.447V318.7H18.627V320.447H16.8798ZM16.8798 309.964V308.217H18.627V309.964H16.8798ZM20.3742 316.953V315.205H15.1326V313.458H20.3742V311.711H22.1214V306.469H23.8686V311.711H25.6158V313.458H30.8574V315.205H25.6158V316.953H23.8686V322.194H22.1214V316.953H20.3742ZM20.3742 318.7H18.627V316.953H20.3742V318.7ZM20.3742 311.711H18.627V309.964H20.3742V311.711ZM27.363 316.953V318.7H25.6158V316.953H27.363ZM27.363 311.711H25.6158V309.964H27.363V311.711Z" fill="#F3F3F3"/>
<path d="M32.9404 304.722V302.975H39.9292V304.722H38.182V322.194H46.918V320.447H48.6652V318.7H50.4124V322.194H48.6652V323.941H32.9404V322.194H34.6876V304.722H32.9404Z" fill="#F3F3F3"/>
<path d="M50.748 304.722V302.975H57.7368V304.722H55.9896V322.194H64.7255V320.447H66.4728V318.7H68.22V322.194H66.4728V323.941H50.748V322.194H52.4952V304.722H50.748Z" fill="#F3F3F3"/>
<path d="M68.5559 304.722V302.975H75.5447V304.722H73.7975V322.194H82.5334V320.447H84.2807V318.7H86.0279V322.194H84.2807V323.941H68.5559V322.194H70.3031V304.722H68.5559Z" fill="#F3F3F3"/>
<path d="M86.3638 304.722V302.975H93.3526V304.722H91.6054V322.194H100.341V320.447H102.089V318.7H103.836V322.194H102.089V323.941H86.3638V322.194H88.1109V304.722H86.3638Z" fill="#F3F3F3"/>
<path d="M104.172 304.722V302.975H111.16V304.722H109.413V322.194H118.149V320.447H119.896V318.7H121.644V322.194H119.896V323.941H104.172V322.194H105.919V304.722H104.172Z" fill="#F3F3F3"/>
<path d="M121.979 304.722V302.975H128.968V304.722H127.221V322.194H135.957V320.447H137.704V318.7H139.451V322.194H137.704V323.941H121.979V322.194H123.727V304.722H121.979Z" fill="#F3F3F3"/>
<path d="M139.787 304.722V302.975H146.776V304.722H145.029V322.194H153.765V320.447H155.512V318.7H157.259V322.194H155.512V323.941H139.787V322.194H141.534V304.722H139.787Z" fill="#F3F3F3"/>
<path d="M157.595 304.722V302.975H164.584V304.722H162.836V322.194H171.572V320.447H173.32V318.7H175.067V322.194H173.32V323.941H157.595V322.194H159.342V304.722H157.595Z" fill="#F3F3F3"/>
<path d="M175.403 304.722V302.975H182.392V304.722H180.644V322.194H189.38V320.447H191.128V318.7H192.875V322.194H191.128V323.941H175.403V322.194H177.15V304.722H175.403Z" fill="#F3F3F3"/>
<path d="M193.21 304.722V302.975H200.199V304.722H198.452V322.194H207.188V320.447H208.935V318.7H210.683V322.194H208.935V323.941H193.21V322.194H194.958V304.722H193.21Z" fill="#F3F3F3"/>
<path d="M211.018 304.722V302.975H218.007V304.722H216.26V322.194H224.996V320.447H226.743V318.7H228.49V322.194H226.743V323.941H211.018V322.194H212.765V304.722H211.018Z" fill="#F3F3F3"/>
<path d="M228.826 304.722V302.975H235.815V304.722H234.068V322.194H242.804V320.447H244.551V318.7H246.298V322.194H244.551V323.941H228.826V322.194H230.573V304.722H228.826Z" fill="#F3F3F3"/>
<path d="M246.634 304.722V302.975H253.623V304.722H251.875V322.194H260.611V320.447H262.359V318.7H264.106V322.194H262.359V323.941H246.634V322.194H248.381V304.722H246.634Z" fill="#F3F3F3"/>
<path d="M264.442 304.722V302.975H271.43V304.722H269.683V322.194H278.419V320.447H280.166V318.7H281.914V322.194H280.166V323.941H264.442V322.194H266.189V304.722H264.442Z" fill="#F3F3F3"/>
<path d="M296.227 304.722H294.48V302.975H299.721V304.722H297.974V309.964H296.227V315.205H294.48V320.447H292.733V313.458H294.48V308.217H296.227V304.722ZM283.997 309.964V304.722H282.249V302.975H289.238V304.722H287.491V308.217H289.238V313.458H290.985V320.447H292.733V323.941H290.985V322.194H289.238V320.447H287.491V315.205H285.744V309.964H283.997Z" fill="#F3F3F3"/>
<path d="M314.035 304.722H312.288V302.975H317.529V304.722H315.782V309.964H314.035V315.205H312.288V320.447H310.54V313.458H312.288V308.217H314.035V304.722ZM301.804 309.964V304.722H300.057V302.975H307.046V304.722H305.299V308.217H307.046V313.458H308.793V320.447H310.54V323.941H308.793V322.194H307.046V320.447H305.299V315.205H303.552V309.964H301.804Z" fill="#F3F3F3"/>
</g>
<g filter="url(#filter0_f_877_139)">
<path d="M156.5 234.853C199.773 234.853 234.853 199.773 234.853 156.5C234.853 113.227 199.773 78.1465 156.5 78.1465C113.227 78.1465 78.1465 113.227 78.1465 156.5C78.1465 199.773 113.227 234.853 156.5 234.853Z" fill="#FF2E00"/>
</g>
<g filter="url(#filter1_dd_877_139)">
<path d="M113.837 113.84H85.3945V142.282H113.837V113.84Z" fill="#F3F3F3"/>
<path d="M142.28 142.279H113.838V170.721H142.28V142.279Z" fill="#F3F3F3"/>
<path d="M142.28 85.3965H113.838V113.839H142.28V85.3965Z" fill="#F3F3F3"/>
<path d="M170.721 85.3944H142.279V113.837H170.721V85.3944Z" fill="#F3F3F3"/>
<path d="M170.721 142.279H142.279V170.721H170.721V142.279Z" fill="#F3F3F3"/>
<path d="M170.721 199.168H142.279V227.61H170.721V199.168Z" fill="#F3F3F3"/>
<path d="M199.167 199.168H170.725V227.61H199.167V199.168Z" fill="#F3F3F3"/>
<path d="M227.104 170.727H198.662V199.169H227.104V170.727Z" fill="#F3F3F3"/>
<path d="M198.661 142.285H170.219V170.727H198.661V142.285Z" fill="#F3F3F3"/>
<path d="M142.28 199.168H113.838V227.61H142.28V199.168Z" fill="#F3F3F3"/>
<path d="M113.837 184.943H85.3945V199.167H113.837V184.943Z" fill="#F3F3F3"/>
<path d="M199.161 85.3965H170.719V113.839H199.161V85.3965Z" fill="#F3F3F3"/>
<path d="M227.608 113.834H199.166V128.058H227.608V113.834Z" fill="#F3F3F3"/>
<path d="M149.391 56.9306V85.3729H163.615V56.9306H149.391Z" fill="#F3F3F3"/>
<path d="M149.391 227.628V256.07H163.615V227.628H149.391Z" fill="#F3F3F3"/>
</g>
</g>
</g>
<defs>
<filter id="filter0_f_877_139" x="64.8465" y="64.8465" width="183.307" height="183.307" filterUnits="userSpaceOnUse" color-interpolation-filters="sRGB">
<feFlood flood-opacity="0" result="BackgroundImageFix"/>
<feBlend mode="normal" in="SourceGraphic" in2="BackgroundImageFix" result="shape"/>
<feGaussianBlur stdDeviation="6.65" result="effect1_foregroundBlur_877_139"/>
</filter>
<filter id="filter1_dd_877_139" x="80.3945" y="51.9307" width="152.214" height="209.139" filterUnits="userSpaceOnUse" color-interpolation-filters="sRGB">
<feFlood flood-opacity="0" result="BackgroundImageFix"/>
<feColorMatrix in="SourceAlpha" type="matrix" values="0 0 0 0 0 0 0 0 0 0 0 0 0 0 0 0 0 0 127 0" result="hardAlpha"/>
<feOffset dx="-5" dy="5"/>
<feComposite in2="hardAlpha" operator="out"/>
<feColorMatrix type="matrix" values="0 0 0 0 1 0 0 0 0 0.18 0 0 0 0 0 0 0 0 1 0"/>
<feBlend mode="normal" in2="BackgroundImageFix" result="effect1_dropShadow_877_139"/>
<feColorMatrix in="SourceAlpha" type="matrix" values="0 0 0 0 0 0 0 0 0 0 0 0 0 0 0 0 0 0 127 0" result="hardAlpha"/>
<feOffset dx="5" dy="-5"/>
<feComposite in2="hardAlpha" operator="out"/>
<feColorMatrix type="matrix" values="0 0 0 0 1 0 0 0 0 0.18 0 0 0 0 0 0 0 0 1 0"/>
<feBlend mode="normal" in2="effect1_dropShadow_877_139" result="effect2_dropShadow_877_139"/>
<feBlend mode="normal" in="SourceGraphic" in2="effect2_dropShadow_877_139" result="shape"/>
</filter>
<clipPath id="clip0_877_139">
<rect width="313" height="313" fill="white"/>
</clipPath>
</defs>
</svg>
