<svg width="40" height="40" viewBox="0 0 40 40" fill="none" xmlns="http://www.w3.org/2000/svg">
<g clip-path="url(#clip0_14406_1070)">
<path d="M0 20C0 8.95431 8.95431 0 20 0C31.0457 0 40 8.95431 40 20C40 31.0457 31.0457 40 20 40C8.95431 40 0 31.0457 0 20Z" fill="#2C6EFF"/>
<path d="M39 20C39 9.50659 30.4934 1 20 1C9.50659 1 1 9.50659 1 20C1 30.4934 9.50659 39 20 39V40C8.95431 40 0 31.0457 0 20C0 8.95431 8.95431 0 20 0C31.0457 0 40 8.95431 40 20C40 31.0457 31.0457 40 20 40V39C30.4934 39 39 30.4934 39 20Z" fill="white" fill-opacity="0.2"/>
<path fill-rule="evenodd" clip-rule="evenodd" d="M20.0003 3.5C29.1129 3.50004 36.4999 10.8877 36.5 20.0003C36.5 29.113 29.113 36.5 20.0003 36.5C10.8876 36.5 3.50004 29.113 3.5 20.0003C3.50009 10.8876 10.8876 3.5 20.0003 3.5ZM30.6516 18.0375C30.6432 18.0602 30.6216 18.0757 30.5973 18.0758L29.4386 18.0841C29.0695 18.0841 28.7392 18.3157 28.6121 18.664L25.1749 28.0546C24.827 29.0038 23.9245 29.6351 22.9142 29.6351H22.8345C21.8985 29.635 21.0472 29.0924 20.6516 28.244L15.431 17.0375C15.2861 16.7263 14.973 16.5265 14.6304 16.5265H14.074C14.0446 16.5265 14.0181 16.5454 14.008 16.5732L9.82802 28.051C9.59805 28.6828 9.12124 29.1735 8.53068 29.4327C11.2542 32.7407 15.3809 34.8499 20.0003 34.8499C28.2014 34.8498 34.8498 28.2014 34.8499 20.0003C34.8498 17.1986 34.0734 14.5785 32.7248 12.3425L30.6516 18.0375ZM20.0003 5.15074C11.7991 5.15074 5.15083 11.7992 5.15074 20.0003C5.15075 22.8302 5.94267 25.4752 7.31652 27.726L9.36903 22.0192C9.37736 21.996 9.39982 21.9802 9.42448 21.9802H10.5932C10.964 21.9802 11.2961 21.749 11.4233 21.3991L14.8428 12.0044C15.1891 11.0517 16.0934 10.4186 17.1053 10.4186C18.0413 10.4186 18.8926 10.9618 19.2882 11.8121L24.4634 22.9336C24.6083 23.2445 24.9209 23.4445 25.2634 23.4445H25.972C26.0014 23.4445 26.028 23.4257 26.0381 23.3979L30.1855 12.0044C30.4185 11.3647 30.9045 10.8692 31.5053 10.6127C28.7822 7.27947 24.6401 5.15076 20.0003 5.15074Z" fill="white"/>
</g>
<defs>
<clipPath id="clip0_14406_1070">
<rect width="40" height="40" fill="white"/>
</clipPath>
</defs>
</svg>
