<?xml version="1.0" encoding="UTF-8"?><svg id="Layer_1" xmlns="http://www.w3.org/2000/svg" xmlns:xlink="http://www.w3.org/1999/xlink" viewBox="0 0 150 150"><defs><style>.cls-1{clip-path:url(#clippath);}.cls-2{fill:none;}.cls-2,.cls-3,.cls-4,.cls-5{stroke-width:0px;}.cls-3{fill:#f96d30;}.cls-4{fill:#1d1d1f;}.cls-5{fill:#f1f1f1;}</style><clipPath id="clippath"><rect class="cls-2" width="150" height="150"/></clipPath></defs><g class="cls-1"><path class="cls-4" d="M75,150c41.4213,0,75-33.5787,75-75S116.4213,0,75,0,0,33.5787,0,75s33.5787,75,75,75Z"/><path class="cls-3" d="M110.7636,127.0161c-4.0035,0-7.2636-3.2575-7.2636-7.258s3.2601-7.258,7.2636-7.258,7.2636,3.2575,7.2636,7.258-3.2601,7.258-7.2636,7.258Z"/><path class="cls-5" d="M99.2307,87.0066c-1.1666-3.2982-3.092-6.2374-5.8334-8.8324s-5.8263-5.0321-9.312-7.3258c-.7401-.4329-1.4085-.9088-2.0916-1.3273l4.689-18.4767s.1141.029.0994.0866c1.321,1.2542,2.2266,2.7095,2.7741,4.38.3088.9362.489,1.9008.4264,2.8652-.0216,1.2811.9,2.434,2.1549,2.7526l10.7233,2.7213c1.7112.4342,3.4744-.7724,3.6276-2.5716.3047-3.3537-.0488-6.5067-1.1172-9.4736-1.4343-3.9175-3.8571-7.2894-7.2828-10.0581-2.2746-1.8026-4.9367-3.2746-7.9716-4.4738l2.9654-11.6847c.336-1.3239-.4702-2.6925-1.7822-3.0255l-4.392-1.1145c-1.3119-.333-2.6732.4855-3.0091,1.8094l-2.9216,11.512c-3.453-.5086-6.7375-.4845-9.9108.0581-4.374.728-8.0968,2.4789-11.097,5.2098-3.0572,2.7163-5.1488,6.4129-6.3321,11.0752-1.1832,4.6624-.9578,10.2336,1.3467,14.3108,2.2899,4.1346,6.1958,7.8828,11.6881,11.3598,1.0386.6924,2.0916,1.3273,3.0732,2.0053l-5.3465,21.0669c-.4125-.2884-.768-.5625-1.1088-.894-1.5623-1.4994-2.6948-3.2571-3.2832-5.2445-.4069-1.2673-.5565-2.592-.5056-3.9882.0507-1.3964-.8417-2.6643-2.1536-2.9973l-10.3812-2.6344c-1.7112-.4343-3.4029.7293-3.6129,2.514-.4507,3.9292-.1002,7.5717,1.1658,10.9563,1.5894,4.2633,4.2535,7.8803,8.1064,10.8798,2.5306,1.99,5.4209,3.52,8.6123,4.8201l-2.6003,10.2458c-.336,1.3239.4703,2.6925,1.7822,3.0255l4.392,1.1145c1.3119.333,2.6732-.4855,3.0091-1.8094l2.5417-10.0155c4.3086.7258,8.2074.6738,11.7681-.1994,4.5333-1.1165,8.2575-3.112,11.1875-6.0446,2.9298-2.9325,4.906-6.4134,5.9431-10.5001,1.0371-4.0867,1.2201-8.6354.0535-11.9335l-.0847-.144ZM72.9774,62.9442c-1.3781-1.2688-2.3129-2.6088-2.8617-4.0347-.5489-1.4259-.6254-3.0382-.158-4.8802.4675-1.8419,1.3036-3.2226,2.466-4.2143,1.1623-.9916,2.5938-1.6086,4.2229-1.8078.3714-.0283.7575-.1141,1.1713-.0703l-3.9879,15.7139c-.2414-.2451-.5544-.447-.7957-.6921l-.057-.0144ZM80.2902,100.3962c-1.2486,1.0923-2.8089,1.7379-4.5958,2.0808-.6435.1431-1.3717.142-2.1.141l4.5721-18.0162c.398.3461.7957.6919,1.1365,1.0236,1.5624,1.4993,2.6816,3.0699,3.3431,4.7696.6615,1.6995.7367,3.5566.2254,5.5711-.5114,2.0147-1.3475,3.3954-2.6385,4.4157l.0571.0144Z"/></g></svg>