<svg fill="none" height="347" viewBox="0 0 346 347" width="346" xmlns="http://www.w3.org/2000/svg" xmlns:xlink="http://www.w3.org/1999/xlink"><radialGradient id="a" cx="0" cy="0" gradientTransform="matrix(0 -538.897 538.897 0 173 539.624)" gradientUnits="userSpaceOnUse" r="1"><stop offset="0" stop-color="#ffef79"/><stop offset="1" stop-color="#00c2a1"/></radialGradient><circle cx="173" cy="173.728" fill="url(#a)" r="173"/><path d="m106.836 219.209h-24.6191c2.0097 38.436 34.1651 71.848 91.1921 71.848 56.775 0 92.95-31.151 92.95-71.346 0-76.37-115.309-72.099-115.309-116.313 0-12.3098 9.295-26.8803 30.9-26.8803 24.117 0 52.504 18.8412 54.514 42.9583h24.368c-2.512-38.9389-40.446-66.0703-88.679-66.0703-49.993 0-87.6751 29.1412-87.6751 70.3403 0 78.631 115.3081 68.331 115.3081 116.816 0 15.073-9.295 27.634-32.658 27.634-29.141 0-58.533-20.348-60.292-48.987zm20.6-110.033c0 59.789 114.304 47.982 114.304 111.791 0 19.093-12.561 35.924-27.634 40.195 5.275-5.024 9.295-16.078 9.295-26.629 0-59.036-114.555-50.997-114.555-111.54 0-20.349 13.063-36.6779 29.392-41.7022-6.28 7.5365-10.802 17.334-10.802 27.8852z" fill="#fff"/></svg>