<svg width="260" height="260" viewBox="0 0 260 260" fill="none" xmlns="http://www.w3.org/2000/svg">
<g clip-path="url(#clip0_6_66)">
<circle cx="130" cy="130" r="130" fill="white"/>
<circle cx="130" cy="130" r="130" fill="url(#paint0_linear_6_66)" fill-opacity="0.23"/>
<g clip-path="url(#clip1_6_66)">
<path d="M176.929 73.6636C177.148 69.8282 177.67 67.2983 178.719 64.988C179.134 64.0735 179.524 63.3251 179.584 63.3251C179.644 63.3251 179.463 64.0001 179.182 64.8249C178.419 67.0671 178.294 70.1339 178.82 73.702C179.487 78.2292 179.866 78.8824 184.668 83.7729C186.92 86.0667 189.541 88.9596 190.49 90.2016L192.217 92.4602L190.49 90.8462C188.378 88.8726 183.521 85.0231 182.449 84.4729C181.729 84.1039 181.622 84.1102 181.179 84.5503C180.77 84.9558 180.684 85.5652 180.627 88.4458C180.539 92.935 179.924 95.8168 178.442 98.698C177.641 100.256 177.514 99.9238 178.24 98.1647C178.781 96.8515 178.837 96.274 178.832 91.9281C178.824 83.1958 177.784 81.0964 171.682 77.5002C170.137 76.5891 167.59 75.2752 166.023 74.5803C164.456 73.8853 163.211 73.28 163.257 73.2347C163.43 73.0634 169.38 74.7939 171.775 75.7119C175.337 77.0774 175.925 77.2543 176.358 77.0896C176.648 76.9792 176.788 76.1376 176.929 73.6636Z" fill="#F50DB4"/>
<path d="M101.662 60.9599C99.5481 60.6339 99.4589 60.5956 100.453 60.4436C102.359 60.1521 106.859 60.5494 109.961 61.2828C117.2 62.9943 123.788 67.3789 130.82 75.1658L132.688 77.2345L135.361 76.8072C146.619 75.0076 158.073 76.4378 167.653 80.8393C170.288 82.0503 174.443 84.4607 174.962 85.0801C175.128 85.2775 175.432 86.5484 175.637 87.9044C176.349 92.5956 175.993 96.1911 174.55 98.8769C173.765 100.339 173.721 100.802 174.249 102.052C174.67 103.051 175.845 103.789 177.008 103.788C179.389 103.785 181.951 99.9569 183.138 94.6311L183.61 92.5158L184.544 93.5684C189.669 99.343 193.694 107.218 194.385 112.824L194.565 114.285L193.704 112.956C192.221 110.67 190.732 109.114 188.825 107.859C185.386 105.596 181.751 104.826 172.123 104.321C163.427 103.865 158.506 103.126 153.626 101.544C145.323 98.8514 141.137 95.2656 131.275 82.396C126.894 76.6796 124.186 73.5169 121.493 70.9699C115.373 65.1826 109.359 62.1475 101.662 60.9599Z" fill="#F50DB4"/>
<path d="M105.766 88.6423C101.476 82.7677 98.8218 73.7608 99.3966 67.0278L99.574 64.9442L100.551 65.1214C102.385 65.4541 105.547 66.6247 107.027 67.5191C111.09 69.9734 112.849 73.2046 114.639 81.502C115.163 83.9324 115.851 86.6826 116.167 87.6137C116.677 89.1126 118.602 92.6132 120.167 94.8868C121.294 96.5241 120.546 97.3 118.054 97.0765C114.248 96.7348 109.092 93.196 105.766 88.6423Z" fill="#F50DB4"/>
<path d="M171.72 132.363C151.671 124.334 144.609 117.365 144.609 105.606C144.609 103.876 144.669 102.46 144.742 102.46C144.815 102.46 145.591 103.031 146.466 103.729C150.532 106.972 155.084 108.358 167.688 110.186C175.105 111.263 179.278 112.132 183.128 113.402C195.366 117.438 202.936 125.629 204.742 136.787C205.267 140.029 204.959 146.108 204.109 149.312C203.437 151.843 201.388 156.405 200.844 156.58C200.694 156.628 200.546 156.054 200.507 155.272C200.301 151.083 198.172 147.004 194.598 143.949C190.533 140.475 185.072 137.71 171.72 132.363Z" fill="#F50DB4"/>
<path d="M157.645 135.698C157.393 134.212 156.958 132.313 156.677 131.479L156.165 129.963L157.115 131.024C158.43 132.492 159.469 134.37 160.35 136.872C161.022 138.781 161.098 139.35 161.093 142.452C161.088 145.499 161.004 146.137 160.383 147.856C159.404 150.566 158.19 152.488 156.151 154.551C152.489 158.258 147.781 160.311 140.986 161.162C139.804 161.31 136.362 161.559 133.336 161.715C125.709 162.11 120.689 162.925 116.178 164.5C115.53 164.727 114.951 164.865 114.892 164.806C114.709 164.625 117.78 162.805 120.317 161.589C123.894 159.876 127.454 158.941 135.432 157.619C139.372 156.966 143.442 156.175 144.475 155.859C154.234 152.884 159.25 145.204 157.645 135.698Z" fill="#F50DB4"/>
<path d="M166.836 151.932C164.172 146.237 163.56 140.738 165.019 135.61C165.176 135.062 165.427 134.613 165.578 134.613C165.729 134.613 166.357 134.951 166.974 135.364C168.202 136.186 170.664 137.571 177.223 141.127C185.408 145.565 190.074 149.002 193.248 152.928C196.027 156.367 197.747 160.283 198.574 165.059C199.043 167.764 198.769 174.273 198.07 176.997C195.87 185.586 190.756 192.333 183.461 196.269C182.392 196.846 181.432 197.32 181.329 197.322C181.225 197.324 181.614 196.339 182.194 195.133C184.648 190.031 184.927 185.068 183.072 179.544C181.936 176.162 179.62 172.035 174.943 165.06C169.506 156.951 168.173 154.792 166.836 151.932Z" fill="#F50DB4"/>
<path d="M91.5282 182.662C98.9684 176.414 108.226 171.975 116.658 170.613C120.292 170.026 126.346 170.259 129.712 171.115C135.106 172.488 139.932 175.564 142.441 179.227C144.894 182.809 145.946 185.929 147.041 192.872C147.474 195.611 147.943 198.361 148.086 198.984C148.908 202.582 150.509 205.458 152.493 206.903C155.644 209.197 161.07 209.339 166.408 207.268C167.314 206.917 168.1 206.674 168.156 206.729C168.349 206.92 165.661 208.709 163.765 209.651C161.214 210.919 159.185 211.409 156.489 211.409C151.601 211.409 147.542 208.936 144.156 203.892C143.489 202.9 141.991 199.927 140.827 197.286C137.251 189.175 135.486 186.704 131.334 183.999C127.721 181.646 123.061 181.225 119.556 182.934C114.951 185.18 113.667 191.032 116.964 194.741C118.275 196.215 120.719 197.486 122.718 197.734C126.457 198.196 129.67 195.367 129.67 191.612C129.67 189.174 128.728 187.783 126.357 186.718C123.117 185.264 119.635 186.964 119.652 189.991C119.659 191.281 120.224 192.092 121.525 192.677C122.359 193.053 122.379 193.083 121.698 192.942C118.726 192.329 118.03 188.765 120.42 186.399C123.289 183.559 129.222 184.812 131.259 188.689C132.115 190.318 132.214 193.561 131.468 195.519C129.798 199.902 124.928 202.207 119.988 200.953C116.625 200.099 115.255 199.174 111.2 195.02C104.154 187.801 101.418 186.402 91.2597 184.824L89.3131 184.522L91.5282 182.662Z" fill="#F50DB4"/>
<path fill-rule="evenodd" clip-rule="evenodd" d="M58.4656 53.4543C81.9973 81.8602 98.2049 93.58 100.006 96.0561C101.493 98.1006 100.933 99.9385 98.3856 101.379C96.9689 102.18 94.0563 102.991 92.5979 102.991C90.9484 102.991 90.3821 102.359 90.3821 102.359C89.4257 101.456 88.887 101.614 83.9757 92.9436C77.1572 82.4208 71.451 73.6916 71.2953 73.5454C70.9354 73.2074 70.9415 73.2188 83.2805 95.1767C85.2741 99.7532 83.677 101.433 83.677 102.085C83.677 103.411 83.3133 104.108 81.6687 105.932C78.927 108.975 77.7014 112.393 76.8166 119.467C75.8248 127.397 73.0359 132.998 65.3069 142.585C60.7826 148.197 60.0423 149.226 58.9007 151.487C57.4627 154.336 57.0673 155.931 56.9071 159.528C56.7377 163.331 57.0676 165.788 58.2358 169.424C59.2585 172.607 60.326 174.709 63.055 178.913C65.4102 182.541 66.7663 185.237 66.7663 186.292C66.7663 187.131 66.9274 187.132 70.5769 186.312C79.3106 184.351 86.4023 180.901 90.3909 176.673C92.8593 174.056 93.4386 172.611 93.4578 169.025C93.4701 166.679 93.3869 166.189 92.7494 164.839C91.7118 162.643 89.8226 160.817 85.6588 157.986C80.2031 154.276 77.8729 151.29 77.2292 147.183C76.7012 143.813 77.3137 141.436 80.3319 135.145C83.4558 128.632 84.23 125.857 84.7537 119.293C85.0919 115.053 85.5603 113.38 86.7854 112.038C88.0631 110.638 89.2133 110.164 92.3753 109.734C97.5303 109.034 100.813 107.707 103.511 105.234C105.852 103.089 106.831 101.022 106.982 97.9101L107.096 95.5517L105.788 94.0349C101.051 88.5419 55.2933 49.1362 55.0018 49.1362C54.9395 49.1362 56.4983 51.0795 58.4656 53.4543ZM69.4253 163.831C70.4963 161.945 69.9273 159.52 68.1358 158.335C66.4431 157.215 63.8136 157.742 63.8136 159.201C63.8136 159.646 64.0611 159.97 64.6189 160.256C65.5581 160.737 65.6263 161.277 64.8873 162.382C64.1389 163.501 64.1993 164.484 65.0578 165.153C66.4412 166.23 68.3996 165.638 69.4253 163.831Z" fill="#F50DB4"/>
<path fill-rule="evenodd" clip-rule="evenodd" d="M110.349 110.971C107.929 111.711 105.576 114.262 104.848 116.937C104.404 118.568 104.656 121.431 105.321 122.315C106.396 123.743 107.436 124.119 110.251 124.099C115.762 124.061 120.553 121.71 121.11 118.771C121.567 116.362 119.463 113.023 116.565 111.558C115.069 110.802 111.888 110.502 110.349 110.971ZM116.792 115.982C117.642 114.781 117.27 113.483 115.824 112.605C113.072 110.933 108.909 112.317 108.909 114.903C108.909 116.19 111.08 117.595 113.07 117.595C114.394 117.595 116.206 116.809 116.792 115.982Z" fill="#F50DB4"/>
</g>
</g>
<defs>
<linearGradient id="paint0_linear_6_66" x1="0" y1="130" x2="260" y2="130" gradientUnits="userSpaceOnUse">
<stop stop-color="white"/>
<stop offset="1" stop-color="#F50DB4"/>
</linearGradient>
<clipPath id="clip0_6_66">
<rect width="260" height="260" rx="130" fill="white"/>
</clipPath>
<clipPath id="clip1_6_66">
<rect width="150" height="162.75" fill="white" transform="translate(55 49)"/>
</clipPath>
</defs>
</svg>
