<svg version="1.2" xmlns="http://www.w3.org/2000/svg" viewBox="0 0 150 150" width="150" height="150">
	<title>uniBTC-svg</title>
	<style>
		.s0 { fill: #ffffff } 
		.s1 { fill: #664aed } 
		.s2 { fill: #146af4 } 
		.s3 { fill: #9077ed } 
		.s4 { fill: #9ff7ec } 
	</style>
	<path class="s0" d="m75 150c-41.5 0-75-33.5-75-75 0-41.5 33.5-75 75-75 41.5 0 75 33.5 75 75 0 41.5-33.5 75-75 75z"/>
	<path class="s1" d="m63.9 115.8l-11.5-2.9-4.2 16.7 11.4 2.9z"/>
	<path class="s2" d="m83.8 120.8l-11.5-2.9-4.2 16.7 11.4 3zm25.4-100.3l-11.5-2.9-4.2 16.7 11.5 2.9z"/>
	<path class="s1" d="m89.3 15.5l-11.5-2.9-4.2 16.7 11.5 2.9z"/>
	<path class="s3" d="m89.1 122.3l-59.3-15.1 3.6-14.1 59.3 15.1c5.1 1.3 10.2-1.6 11.3-6.3 1.2-4.7-1.9-9.6-7-10.9l-37.1-9.4 3.6-14.1 37 9.4c13.4 3.4 21.8 16.3 18.6 28.8-3.2 12.4-16.7 19.9-30 16.5z"/>
	<path class="s1" d="m85.1 32.2l-19.4-4.9-21.2 83.7 19.4 4.9z"/>
	<path class="s4" d="m91.2 82l-37-9.3 3.5-14.1 37.1 9.3c5.1 1.3 10.2-1.5 11.4-6.2 1.1-4.7-2-9.6-7.1-10.9l-51.8-13.1 3.6-14.1 51.8 13.1c13.3 3.4 21.7 16.3 18.5 28.8-3.2 12.4-16.6 19.9-30 16.5z"/>
	<path class="s1" d="m85 32.2l-19.4-4.9-4 16 19.3 4.9z"/>
</svg>