<svg width="57" height="57" viewBox="0 0 57 57" fill="none" xmlns="http://www.w3.org/2000/svg">
<rect width="56.7" height="56.7" rx="28.35" fill="white"/>
<g clip-path="url(#clip0_40_72)">
<path d="M56.3 18.9V4.4C56.3 2 54.3 0 51.9 0H4.4C2 0 0 2 0 4.4V52.4C0 54.8 2 56.8 4.4 56.8H52C54.4 56.8 56.4 54.8 56.4 52.4V37.8H46.2C42.8 44.3 36 48.7 28.2 48.7C17 48.7 7.8 39.6 7.8 28.3C7.8 17 16.9 8 28.2 8C36 8 42.8 12.4 46.2 18.9H56.3Z" fill="black"/>
<path d="M27.2 26.4C26.3 26.1 25.7 25.8 25.2 25.5C24.7 25.1 24.5 24.7 24.5 24.1C24.5 23.5 24.7 22.9 25.2 22.5C25.6 22.1 26.3 21.8 27.2 21.6V26.4ZM29.4 30.2C30.2999 30.5 31 30.8 31.5 31.1C32 31.5 32.2 32 32.2 32.6C32.2 33.2 32 33.7 31.5 34.1C31 34.5 30.2999 34.8 29.4 34.9V30.2ZM29.4 27V21.6C30.9 21.8 32.4 22.3 33.7999 23L34.9 20.3C34.2 19.8 33.3 19.5 32.4 19.2C31.4 18.9 30.5 18.7 29.5 18.7V16.7H27.2999V18.8C25.2999 19 23.8 19.6 22.7 20.6C21.6 21.6 21.1 22.9 21.1 24.3C21.1 25.5 21.4 26.4 22 27.1C22.6 27.8 23.3 28.3 24.1 28.7C24.9 29.1 25.9999 29.4 27.2999 29.7V35.1C26.2999 35 25.2999 34.8 24.2999 34.4C23.3999 34 22.5 33.6 21.9 33L20.7 35.7C21.4 36.3 22.3 36.8 23.5 37.2C24.7 37.6 25.8999 37.8 27.2999 37.9V39.9H29.5V37.8C31.5 37.6 33.0999 37 34.0999 36C35.1999 35 35.7 33.8 35.7 32.3C35.7 31.1 35.4 30.2 34.7999 29.5C34.1999 28.8 33.5 28.3 32.7 27.9C31.8 27.6 30.7 27.3 29.4 27ZM56.2999 25.2H46.4V31.5H56.2999V25.2Z" fill="#E60028"/>
</g>
<defs>
<clipPath id="clip0_40_72">
<rect width="56.7" height="56.7" rx="28.35" fill="white"/>
</clipPath>
</defs>
</svg>
