<svg width="391" height="391" viewBox="0 0 391 391" fill="none" xmlns="http://www.w3.org/2000/svg">
<g clip-path="url(#clip0_965_20)">
<path d="M195.095 3.52832H195.102C300.901 3.52832 386.668 89.2958 386.668 195.095V195.102C386.668 300.901 300.901 386.668 195.102 386.668H195.095C89.2958 386.668 3.52832 300.901 3.52832 195.102V195.095C3.52832 89.2958 89.2958 3.52832 195.095 3.52832Z" fill="white" stroke="black" stroke-width="7.05706"/>
<path fill-rule="evenodd" clip-rule="evenodd" d="M355.161 163.802C340.656 88.4941 274.4 31.6084 194.859 31.6084C115.317 31.6084 49.0611 88.4941 34.5555 163.802H49.8558C64.1318 96.8313 123.629 46.6011 194.859 46.6011C266.088 46.6011 325.585 96.8313 339.861 163.802H355.161ZM339.801 226.203H355.107C340.491 301.372 274.302 358.116 194.858 358.116C115.415 358.116 49.2255 301.372 34.6097 226.203H49.9158C64.2978 293.034 123.729 343.124 194.858 343.124C265.988 343.124 325.419 293.034 339.801 226.203Z" fill="black"/>
<path fill-rule="evenodd" clip-rule="evenodd" d="M219.91 78H202.75V103.941H196.575H191.071H188.73V78H171.57V104.689C161.984 106.119 153.935 109.6 147.422 115.132C138.799 122.424 134.487 132.258 134.487 144.637V158.371C134.487 168.884 137.841 177.617 144.548 184.569C151.255 191.521 160.677 196.1 172.813 198.304L215.93 205.934C223.276 207.121 229.025 209.75 233.177 213.819C237.489 217.889 239.645 222.806 239.645 228.571V244.85C239.645 252.141 236.77 258.076 231.021 262.654C225.273 267.063 217.687 269.267 208.265 269.267H181.676C172.095 269.267 164.35 266.045 158.441 259.602C152.692 252.989 149.818 244.426 149.818 233.913H132.571C132.571 244.256 134.567 253.413 138.559 261.382C142.711 269.182 148.46 275.287 155.806 279.695C160.587 282.454 165.842 284.315 171.57 285.279V311.999H188.73V286.054H191.655H197.73H202.75V311.999H219.91V285.237C229.414 283.766 237.43 280.308 243.957 274.863C252.899 267.232 257.371 257.228 257.371 244.85V228.571C257.371 218.228 253.937 209.75 247.071 203.137C240.204 196.354 230.542 191.776 218.086 189.402L175.209 181.517C168.023 180.16 162.354 177.447 158.202 173.378C154.209 169.308 152.213 164.306 152.213 158.371V144.637C152.213 137.345 154.928 131.58 160.357 127.341C165.787 122.932 173.053 120.728 182.155 120.728H209.223C217.687 120.728 224.474 123.526 229.584 129.121C234.694 134.717 237.25 142.178 237.25 151.504H254.496C254.496 137.26 250.344 125.815 242.04 117.167C236.039 110.795 228.662 106.726 219.91 104.958V78Z" fill="black"/>
</g>
<defs>
<clipPath id="clip0_965_20">
<rect width="391" height="391" rx="195.5" fill="white"/>
</clipPath>
</defs>
</svg>
