<svg width="150" height="150" viewBox="0 0 150 150" fill="none" xmlns="http://www.w3.org/2000/svg">
<g clip-path="url(#clip0_2_2)">
<path d="M75 150C116.421 150 150 116.421 150 75C150 33.5786 116.421 0 75 0C33.5786 0 0 33.5786 0 75C0 116.421 33.5786 150 75 150Z" fill="#25262A"/>
<path d="M107.51 39C107.51 45.52 107.48 50.67 107.43 54.43C107.38 58.19 107.35 61.65 107.35 64.79C107.35 68.77 107.35 72.19 107.38 75.07C107.4 77.95 107.41 80.42 107.41 82.47C107.41 87.25 106.6 91.37 104.98 94.84C103.36 98.31 101.15 101.18 98.36 103.45C95.19 106 91.74 107.86 88.03 109.05C84.32 110.24 79.98 110.83 75.03 110.83C69.52 110.83 64.89 110.16 61.14 108.82C57.39 107.48 54.16 105.64 51.44 103.3C48.54 100.89 46.35 97.97 44.85 94.54C43.35 91.11 42.6 87 42.6 82.22C42.6 80.16 42.6 77.69 42.63 74.82C42.65 71.94 42.66 68.52 42.66 64.54C42.66 61.09 42.63 57.61 42.58 54.1C42.53 50.59 42.5 45.56 42.5 39.01H59.82C59.78 41.97 59.75 45.67 59.72 50.1C59.68 54.53 59.67 59.52 59.67 65.06C59.67 67.75 59.67 70.42 59.7 73.09C59.72 75.76 59.73 78.5 59.73 81.33C59.73 86.42 61.12 90.28 63.89 92.89C66.66 95.51 70.39 96.81 75.06 96.81C80.05 96.81 83.84 95.54 86.44 92.99C89.04 90.44 90.34 86.56 90.34 81.32C90.34 78.49 90.34 75.68 90.37 72.87C90.39 70.06 90.4 67.46 90.4 65.05C90.4 59.44 90.37 54.4 90.32 49.96C90.27 45.52 90.24 41.86 90.24 39H107.56H107.51Z" fill="white"/>
<path d="M43.5 64.29H26.36V72.86H43.5V64.29Z" fill="white"/>
<path d="M43.5 77.14H26.36V85.71H43.5V77.14Z" fill="white"/>
<path d="M123.64 64.29H106.5V72.86H123.64V64.29Z" fill="white"/>
<path d="M123.64 77.14H106.5V85.71H123.64V77.14Z" fill="white"/>
</g>
<defs>
<clipPath id="clip0_2_2">
<rect width="150" height="150" rx="75" fill="white"/>
</clipPath>
</defs>
</svg>
