<svg width="48" height="48" viewBox="0 0 48 48" fill="none" xmlns="http://www.w3.org/2000/svg">
<g clip-path="url(#clip0_213_98)">
<mask id="mask0_213_98" style="mask-type:luminance" maskUnits="userSpaceOnUse" x="0" y="0" width="48" height="48">
<path d="M48 0H0V48H48V0Z" fill="white"/>
</mask>
<g mask="url(#mask0_213_98)">
<mask id="mask1_213_98" style="mask-type:alpha" maskUnits="userSpaceOnUse" x="0" y="0" width="48" height="48">
<path fill-rule="evenodd" clip-rule="evenodd" d="M24 0C10.7452 0 0 10.7452 0 24C0 37.2548 10.7452 48 24 48C26.1672 48 28.2673 47.7127 30.2644 47.1742C27.6564 44.973 26 41.6799 26 38C26 31.3726 31.3726 26 38 26C41.6799 26 44.973 27.6564 47.1742 30.2644C47.7127 28.2673 48 26.1672 48 24C48 10.7452 37.2548 0 24 0Z" fill="#D9D9D9"/>
</mask>
<g mask="url(#mask1_213_98)">
<path d="M48 0H0V48H48V0Z" fill="url(#paint0_linear_213_98)"/>
<path d="M13.874 30.1886C14.0551 30.0076 14.304 29.902 14.568 29.902H38.5082C38.9456 29.902 39.1643 30.43 38.8551 30.7393L34.126 35.4685C33.9448 35.6495 33.696 35.7551 33.432 35.7551H9.49171C9.05433 35.7551 8.83558 35.2271 9.14483 34.9179L13.874 30.1886Z" fill="white"/>
<path d="M13.874 12.5314C14.0626 12.3504 14.3115 12.2448 14.568 12.2448H38.5082C38.9456 12.2448 39.1643 12.7728 38.8551 13.082L34.126 17.8113C33.9448 17.9923 33.696 18.0979 33.432 18.0979H9.49171C9.05433 18.0979 8.83558 17.5699 9.14483 17.2606L13.874 12.5314Z" fill="white"/>
<path d="M34.126 21.3035C33.9448 21.1225 33.696 21.0169 33.432 21.0169H9.49171C9.05433 21.0169 8.83558 21.5449 9.14483 21.8541L13.874 26.5833C14.0551 26.7644 14.304 26.8699 14.568 26.8699H38.5082C38.9456 26.8699 39.1643 26.342 38.8551 26.0328L34.126 21.3035Z" fill="white"/>
</g>
<path d="M48 38C48 32.4772 43.5228 28 38 28C32.4772 28 28 32.4772 28 38C28 43.5228 32.4772 48 38 48C43.5228 48 48 43.5228 48 38Z" fill="#1C1917"/>
<path d="M44.3528 34.0447C44.3528 34.5451 43.9516 34.9499 43.4577 34.9499C42.9638 34.9499 42.5625 34.5451 42.5625 34.0447C42.5625 33.5443 42.9638 33.1395 43.4577 33.1395C43.9516 33.1395 44.3528 33.5443 44.3528 34.0447ZM33.4377 34.1251C33.4377 34.6255 33.0364 35.0303 32.5425 35.0303C32.0486 35.0303 31.6474 34.6255 31.6474 34.1251C31.6474 33.6247 32.0486 33.2199 32.5425 33.2199C33.0364 33.2199 33.4377 33.6247 33.4377 34.1251ZM33.4377 36.2934C33.4377 36.7938 33.0364 37.1987 32.5425 37.1987C32.0486 37.1987 31.6474 36.7938 31.6474 36.2934C31.6474 35.7931 32.0486 35.3882 32.5425 35.3882C33.0364 35.3882 33.4377 35.7931 33.4377 36.2934ZM33.4396 38.4618C33.4396 38.9622 33.0383 39.367 32.5444 39.367C32.0505 39.367 31.6493 38.9622 31.6493 38.4618C31.6493 37.9614 32.0505 37.5566 32.5444 37.5566C33.0383 37.5566 33.4396 37.9614 33.4396 38.4618ZM33.8623 40.5765C33.8623 41.0769 33.461 41.4817 32.9671 41.4817C32.4732 41.4817 32.072 41.0769 32.072 40.5765C32.072 40.0761 32.4732 39.6713 32.9671 39.6713C33.461 39.6713 33.8623 40.0761 33.8623 40.5765ZM35.0585 42.3623C35.0585 42.8627 34.6572 43.2675 34.1633 43.2675C33.6694 43.2675 33.2682 42.8627 33.2682 42.3623C33.2682 41.8619 33.6694 41.4571 34.1633 41.4571C34.6572 41.4571 35.0585 41.8619 35.0585 42.3623ZM36.8402 43.5475C36.8402 44.0479 36.4389 44.4528 35.945 44.4528C35.4511 44.4528 35.0499 44.0479 35.0499 43.5475C35.0499 43.0471 35.4511 42.6423 35.945 42.6423C36.4389 42.6423 36.8402 43.0471 36.8402 43.5475ZM38.9347 43.9553C38.9347 44.4557 38.5335 44.8605 38.0396 44.8605C37.5457 44.8605 37.1445 44.4557 37.1445 43.9553C37.1445 43.4549 37.5457 43.0501 38.0396 43.0501C38.5335 43.0501 38.9347 43.4549 38.9347 43.9553ZM41.0258 43.5226C41.0258 44.023 40.6246 44.4278 40.1307 44.4278C39.6368 44.4278 39.2355 44.023 39.2355 43.5226C39.2355 43.0222 39.6368 42.6174 40.1307 42.6174C40.6246 42.6174 41.0258 43.0222 41.0258 43.5226ZM42.7863 42.3043C42.7863 42.8047 42.3851 43.2095 41.8912 43.2095C41.3973 43.2095 40.9961 42.8047 40.9961 42.3043C40.9961 41.8039 41.3973 41.3991 41.8912 41.3991C42.3851 41.3991 42.7863 41.8039 42.7863 42.3043ZM43.9517 40.4997C43.9517 41.0001 43.5505 41.4049 43.0566 41.4049C42.5627 41.4049 42.1615 41.0001 42.1615 40.4997C42.1615 39.9993 42.5627 39.5945 43.0566 39.5945C43.5505 39.5945 43.9517 39.9993 43.9517 40.4997ZM44.3528 38.3815C44.3528 38.8819 43.9516 39.2867 43.4577 39.2867C42.9638 39.2867 42.5625 38.8819 42.5625 38.3815C42.5625 37.8811 42.9638 37.4763 43.4577 37.4763C43.9516 37.4763 44.3528 37.8811 44.3528 38.3815ZM44.3528 36.2131C44.3528 36.7135 43.9516 37.1183 43.4577 37.1183C42.9638 37.1183 42.5625 36.7135 42.5625 36.2131C42.5625 35.7127 42.9638 35.3079 43.4577 35.3079C43.9516 35.3079 44.3528 35.7127 44.3528 36.2131ZM35.9131 34.1619C35.9131 34.6623 35.5119 35.0671 35.018 35.0671C34.5241 35.0671 34.1228 34.6623 34.1228 34.1619C34.1228 33.6615 34.5241 33.2567 35.018 33.2567C35.5119 33.2567 35.9131 33.6615 35.9131 34.1619ZM35.9131 36.4634C35.9131 36.9638 35.5119 37.3687 35.018 37.3687C34.5241 37.3687 34.1228 36.9638 34.1228 36.4634C34.1228 35.963 34.5241 35.5582 35.018 35.5582C35.5119 35.5582 35.9131 35.963 35.9131 36.4634ZM35.9394 38.7633C35.9394 39.2637 35.5382 39.6685 35.0443 39.6685C34.5504 39.6685 34.1492 39.2637 34.1492 38.7633C34.1492 38.2629 34.5504 37.8581 35.0443 37.8581C35.5382 37.8581 35.9394 38.2629 35.9394 38.7633ZM36.8922 40.7857C36.8922 41.2861 36.4909 41.6909 35.997 41.6909C35.5031 41.6909 35.1019 41.2861 35.1019 40.7857C35.1019 40.2853 35.5031 39.8805 35.997 39.8805C36.4909 39.8805 36.8922 40.2853 36.8922 40.7857ZM38.9672 41.5858C38.9672 42.0862 38.566 42.491 38.0721 42.491C37.5782 42.491 37.177 42.0862 37.177 41.5858C37.177 41.0854 37.5782 40.6806 38.0721 40.6806C38.566 40.6806 38.9672 41.0854 38.9672 41.5858ZM41.0192 40.7139C41.0192 41.2143 40.618 41.6191 40.1241 41.6191C39.6302 41.6191 39.229 41.2143 39.229 40.7139C39.229 40.2135 39.6302 39.8087 40.1241 39.8087C40.618 39.8087 41.0192 40.2135 41.0192 40.7139ZM41.8955 38.647C41.8955 39.1474 41.4943 39.5523 41.0004 39.5523C40.5064 39.5523 40.1052 39.1474 40.1052 38.647C40.1052 38.1466 40.5064 37.7418 41.0004 37.7418C41.4943 37.7418 41.8955 38.1466 41.8955 38.647ZM41.9063 36.3462C41.9063 36.8466 41.5051 37.2514 41.0112 37.2514C40.5173 37.2514 40.116 36.8466 40.116 36.3462C40.116 35.8458 40.5173 35.441 41.0112 35.441C41.5051 35.441 41.9063 35.8458 41.9063 36.3462ZM41.9063 34.0447C41.9063 34.5451 41.5051 34.9499 41.0112 34.9499C40.5173 34.9499 40.116 34.5451 40.116 34.0447C40.116 33.5443 40.5173 33.1395 41.0112 33.1395C41.5051 33.1395 41.9063 33.5443 41.9063 34.0447Z" fill="url(#paint1_linear_213_98)" stroke="#E7E5E4" stroke-width="0.0916667"/>
</g>
</g>
<defs>
<linearGradient id="paint0_linear_213_98" x1="37.7213" y1="-9.65338" x2="-0.323887" y2="47.4545" gradientUnits="userSpaceOnUse">
<stop stop-color="#00FFA3"/>
<stop offset="1" stop-color="#DC1FFF"/>
</linearGradient>
<linearGradient id="paint1_linear_213_98" x1="38.0001" y1="33.0937" x2="38.0001" y2="44.9063" gradientUnits="userSpaceOnUse">
<stop stop-color="#D6D3D1"/>
<stop offset="1" stop-color="#A8A29E"/>
</linearGradient>
<clipPath id="clip0_213_98">
<rect width="48" height="48" fill="white"/>
</clipPath>
</defs>
</svg>
