<svg width="48" height="48" viewBox="0 0 48 48" fill="none" xmlns="http://www.w3.org/2000/svg">
<g clip-path="url(#clip0_295_21)">
<mask id="mask0_295_21" style="mask-type:luminance" maskUnits="userSpaceOnUse" x="0" y="0" width="48" height="48">
<path d="M48 0H0V48H48V0Z" fill="white"/>
</mask>
<g mask="url(#mask0_295_21)">
<mask id="mask1_295_21" style="mask-type:alpha" maskUnits="userSpaceOnUse" x="4" y="4" width="40" height="40">
<path fill-rule="evenodd" clip-rule="evenodd" d="M24 4.80005C13.3962 4.80005 4.80005 13.3962 4.80005 24.0001C4.80005 34.604 13.3962 43.2001 24 43.2001C25.0443 43.2001 26.0691 43.1167 27.0682 42.9563C26.3821 41.4455 26.0001 39.7674 26.0001 38.0001C26.0001 31.3727 31.3726 26.0001 38.0001 26.0001C39.7674 26.0001 41.4455 26.3821 42.9562 27.0682C43.1167 26.0691 43.2001 25.0443 43.2001 24.0001C43.2001 13.3962 34.6039 4.80005 24 4.80005Z" fill="white"/>
</mask>
<g mask="url(#mask1_295_21)">
<path d="M43.2001 4.80005H4.80005V43.2001H43.2001V4.80005Z" fill="#EFF7FD"/>
<path fill-rule="evenodd" clip-rule="evenodd" d="M28.5029 22.4124C29.2849 23.3841 29.7526 24.613 29.7526 25.9498C29.7526 27.2866 29.2707 28.553 28.4681 29.5302L28.3986 29.6146L28.3804 29.5075C28.3646 29.4168 28.3464 29.3246 28.3251 29.2324C27.923 27.4844 26.6132 25.9858 24.4574 24.7717C23.0015 23.954 22.1681 22.9706 21.9493 21.8519C21.8078 21.1288 21.9129 20.4026 22.1159 19.7803C22.319 19.1588 22.6207 18.6374 22.8775 18.3239L23.7164 17.3092C23.8634 17.131 24.1391 17.131 24.2859 17.3092L28.5029 22.4124ZM29.8292 21.3985L24.2077 14.5973C24.1003 14.4676 23.8997 14.4676 23.7923 14.5973L18.1716 21.3985L18.1534 21.4212C17.1193 22.6915 16.5 24.3058 16.5 26.0632C16.5 30.1556 19.8582 33.4733 24 33.4733C28.1419 33.4733 31.5 30.1556 31.5 26.0632C31.5 24.3058 30.8807 22.6915 29.8466 21.4219L29.8284 21.3993L29.8292 21.3985ZM19.5169 22.3905L20.0193 21.7816L20.0343 21.8941C20.0462 21.9832 20.0612 22.0723 20.0786 22.1622C20.404 23.8516 21.5661 25.2595 23.5087 26.3501C25.1976 27.3014 26.1811 28.3951 26.4639 29.5943C26.5824 30.0946 26.603 30.5871 26.5516 31.0179L26.5484 31.0444L26.524 31.0562C25.7617 31.4243 24.9045 31.6315 23.9992 31.6315C20.8227 31.6315 18.2474 29.0877 18.2474 25.949C18.2474 24.6013 18.7222 23.3638 19.5153 22.389L19.5169 22.3905Z" fill="#4DA2FF"/>
</g>
<path d="M48 38C48 32.4772 43.5228 28 38 28C32.4772 28 28 32.4772 28 38C28 43.5228 32.4772 48 38 48C43.5228 48 48 43.5228 48 38Z" fill="#1C1917"/>
<path d="M44.3527 34.0448C44.3527 34.5452 43.9515 34.9501 43.4575 34.9501C42.9636 34.9501 42.5624 34.5452 42.5624 34.0448C42.5624 33.5444 42.9636 33.1396 43.4575 33.1396C43.9515 33.1396 44.3527 33.5444 44.3527 34.0448ZM33.4375 34.1252C33.4375 34.6256 33.0363 35.0304 32.5424 35.0304C32.0485 35.0304 31.6473 34.6256 31.6473 34.1252C31.6473 33.6248 32.0485 33.22 32.5424 33.22C33.0363 33.22 33.4375 33.6248 33.4375 34.1252ZM33.4375 36.2936C33.4375 36.794 33.0363 37.1988 32.5424 37.1988C32.0485 37.1988 31.6473 36.794 31.6473 36.2936C31.6473 35.7932 32.0485 35.3885 32.5424 35.3885C33.0363 35.3885 33.4375 35.7932 33.4375 36.2936ZM33.4394 38.462C33.4394 38.9624 33.0382 39.3672 32.5443 39.3672C32.0504 39.3672 31.6492 38.9624 31.6492 38.462C31.6492 37.9616 32.0504 37.5567 32.5443 37.5567C33.0382 37.5567 33.4394 37.9616 33.4394 38.462ZM33.8621 40.5766C33.8621 41.077 33.4609 41.4818 32.967 41.4818C32.4731 41.4818 32.0719 41.077 32.0719 40.5766C32.0719 40.0762 32.4731 39.6714 32.967 39.6714C33.4609 39.6714 33.8621 40.0762 33.8621 40.5766ZM35.0583 42.3624C35.0583 42.8628 34.6571 43.2677 34.1632 43.2677C33.6693 43.2677 33.2681 42.8628 33.2681 42.3624C33.2681 41.862 33.6693 41.4572 34.1632 41.4572C34.6571 41.4572 35.0583 41.862 35.0583 42.3624ZM36.84 43.5477C36.84 44.0481 36.4388 44.4529 35.9449 44.4529C35.451 44.4529 35.0498 44.0481 35.0498 43.5477C35.0498 43.0473 35.451 42.6425 35.9449 42.6425C36.4388 42.6425 36.84 43.0473 36.84 43.5477ZM38.9346 43.9554C38.9346 44.4558 38.5334 44.8606 38.0395 44.8606C37.5456 44.8606 37.1444 44.4558 37.1444 43.9554C37.1444 43.455 37.5456 43.0502 38.0395 43.0502C38.5334 43.0502 38.9346 43.455 38.9346 43.9554ZM41.0257 43.5227C41.0257 44.0231 40.6245 44.4279 40.1305 44.4279C39.6366 44.4279 39.2354 44.0231 39.2354 43.5227C39.2354 43.0223 39.6366 42.6175 40.1305 42.6175C40.6245 42.6175 41.0257 43.0223 41.0257 43.5227ZM42.7862 42.3044C42.7862 42.8048 42.385 43.2096 41.8911 43.2096C41.3972 43.2096 40.996 42.8048 40.996 42.3044C40.996 41.804 41.3972 41.3993 41.8911 41.3993C42.385 41.3993 42.7862 41.804 42.7862 42.3044ZM43.9516 40.4998C43.9516 41.0002 43.5504 41.405 43.0565 41.405C42.5626 41.405 42.1613 41.0002 42.1613 40.4998C42.1613 39.9994 42.5626 39.5947 43.0565 39.5947C43.5504 39.5947 43.9516 39.9994 43.9516 40.4998ZM44.3527 38.3816C44.3527 38.882 43.9515 39.2868 43.4575 39.2868C42.9636 39.2868 42.5624 38.882 42.5624 38.3816C42.5624 37.8812 42.9636 37.4764 43.4575 37.4764C43.9515 37.4764 44.3527 37.8812 44.3527 38.3816ZM44.3527 36.2132C44.3527 36.7136 43.9515 37.1185 43.4575 37.1185C42.9636 37.1185 42.5624 36.7136 42.5624 36.2132C42.5624 35.7128 42.9636 35.308 43.4575 35.308C43.9515 35.308 44.3527 35.7128 44.3527 36.2132ZM35.913 34.162C35.913 34.6624 35.5117 35.0673 35.0178 35.0673C34.5239 35.0673 34.1227 34.6624 34.1227 34.162C34.1227 33.6617 34.5239 33.2568 35.0178 33.2568C35.5117 33.2568 35.913 33.6617 35.913 34.162ZM35.913 36.4636C35.913 36.964 35.5117 37.3688 35.0178 37.3688C34.5239 37.3688 34.1227 36.964 34.1227 36.4636C34.1227 35.9632 34.5239 35.5584 35.0178 35.5584C35.5117 35.5584 35.913 35.9632 35.913 36.4636ZM35.9393 38.7635C35.9393 39.2639 35.5381 39.6686 35.0442 39.6686C34.5503 39.6686 34.1491 39.2639 34.1491 38.7635C34.1491 38.2631 34.5503 37.8582 35.0442 37.8582C35.5381 37.8582 35.9393 38.2631 35.9393 38.7635ZM36.892 40.7859C36.892 41.2863 36.4908 41.691 35.9969 41.691C35.503 41.691 35.1018 41.2863 35.1018 40.7859C35.1018 40.2855 35.503 39.8806 35.9969 39.8806C36.4908 39.8806 36.892 40.2855 36.892 40.7859ZM38.9671 41.5859C38.9671 42.0863 38.5659 42.4911 38.072 42.4911C37.5781 42.4911 37.1768 42.0863 37.1768 41.5859C37.1768 41.0855 37.5781 40.6807 38.072 40.6807C38.5659 40.6807 38.9671 41.0855 38.9671 41.5859ZM41.0191 40.7141C41.0191 41.2145 40.6179 41.6192 40.124 41.6192C39.6301 41.6192 39.2288 41.2145 39.2288 40.7141C39.2288 40.2137 39.6301 39.8088 40.124 39.8088C40.6179 39.8088 41.0191 40.2137 41.0191 40.7141ZM41.8954 38.6472C41.8954 39.1476 41.4941 39.5524 41.0002 39.5524C40.5063 39.5524 40.1051 39.1476 40.1051 38.6472C40.1051 38.1468 40.5063 37.7421 41.0002 37.7421C41.4941 37.7421 41.8954 38.1468 41.8954 38.6472ZM41.9062 36.3464C41.9062 36.8468 41.505 37.2516 41.0111 37.2516C40.5171 37.2516 40.1159 36.8468 40.1159 36.3464C40.1159 35.846 40.5171 35.4412 41.0111 35.4412C41.505 35.4412 41.9062 35.846 41.9062 36.3464ZM41.9062 34.0448C41.9062 34.5452 41.505 34.9501 41.0111 34.9501C40.5171 34.9501 40.1159 34.5452 40.1159 34.0448C40.1159 33.5444 40.5171 33.1396 41.0111 33.1396C41.505 33.1396 41.9062 33.5444 41.9062 34.0448Z" fill="url(#paint0_linear_295_21)" stroke="#E7E5E4" stroke-width="0.0916667"/>
</g>
</g>
<defs>
<linearGradient id="paint0_linear_295_21" x1="38" y1="33.0938" x2="38" y2="44.9065" gradientUnits="userSpaceOnUse">
<stop stop-color="#D6D3D1"/>
<stop offset="1" stop-color="#A8A29E"/>
</linearGradient>
<clipPath id="clip0_295_21">
<rect width="48" height="48" fill="white"/>
</clipPath>
</defs>
</svg>
