<svg width="24" height="24" viewBox="0 0 24 24" fill="none" xmlns="http://www.w3.org/2000/svg">
<g clip-path="url(#clip0_42_8886)">
<path d="M12 24C18.6274 24 24 18.6274 24 12C24 5.37258 18.6274 0 12 0C5.37258 0 0 5.37258 0 12C0 18.6274 5.37258 24 12 24Z" fill="#0541B2"/>
<path d="M11.9987 16.4697L6.48535 13.2126L11.9987 20.9838L17.517 13.2126L11.9987 16.4697Z" fill="#FCFCFC"/>
<path d="M17.5129 12.1674L11.9979 15.4261L6.48291 12.1674L11.9979 3.0162L17.5129 12.1674Z" fill="#FCFCFC"/>
<path d="M17.5135 12.1674L11.9985 9.66011V3.0162L17.5135 12.1674Z" fill="#C1CCF7"/>
<path d="M17.5168 13.2126L11.9985 20.9838V16.4697L17.5168 13.2126Z" fill="#C1CCF7"/>
<path d="M11.9987 9.6601V15.4261L6.48535 12.1674L11.9987 9.6601Z" fill="#C1CCF7"/>
<path d="M17.5135 12.1674L11.9985 15.4261V9.6601L17.5135 12.1674Z" fill="#8198EE"/>
</g>
<defs>
<clipPath id="clip0_42_8886">
<rect width="24" height="24" fill="white"/>
</clipPath>
</defs>
</svg>

