<svg width="24" height="24" viewBox="0 0 24 24" fill="none" xmlns="http://www.w3.org/2000/svg">
<g clip-path="url(#clip0_30_3499)">
<path d="M12 0C18.6271 0 24 5.37288 24 12C24 18.6271 18.6269 24 12 24C5.37312 24 0 18.6286 0 12C0 5.37144 5.37216 0 12 0Z" fill="#53AE94"/>
<path d="M13.4814 10.4015V8.61634H17.5635V5.89642H6.44769V8.61634H10.5303V10.4C7.21233 10.5524 4.71753 11.2095 4.71753 11.9967C4.71753 12.7839 7.21353 13.4411 10.5303 13.5944V19.3124H13.4823V13.5939C16.7943 13.4411 19.2841 12.7844 19.2841 11.9979C19.2841 11.2115 16.7943 10.5548 13.4823 10.4019M13.4823 13.1096V13.1082C13.399 13.1135 12.9711 13.1391 12.0183 13.1391C11.2566 13.1391 10.7206 13.1175 10.5318 13.1077V13.1101C7.60041 12.9803 5.41233 12.4698 5.41233 11.859C5.41233 11.2482 7.60065 10.7384 10.5318 10.6083V12.6015C10.7238 12.6147 11.2729 12.6471 12.0308 12.6471C12.9411 12.6471 13.3988 12.6092 13.4828 12.6015V10.6083C16.4084 10.7387 18.5914 11.2496 18.5914 11.8583C18.5914 12.4669 16.4074 12.9781 13.4828 13.1084" fill="#FCFCFC"/>
</g>
<defs>
<clipPath id="clip0_30_3499">
<rect width="24" height="24" fill="white"/>
</clipPath>
</defs>
</svg>

