<svg width="24" height="24" viewBox="0 0 24 24" fill="none" xmlns="http://www.w3.org/2000/svg">
<path d="M12 24C18.65 24 24 18.65 24 12C24 5.34996 18.65 0 12 0C5.34996 0 0 5.34996 0 12C0 18.65 5.34996 24 12 24Z" fill="#2775CA"/>
<path d="M15.3005 13.9007C15.3005 12.1507 14.2505 11.5507 12.1505 11.3007C10.6505 11.1007 10.3505 10.7007 10.3505 10.0007C10.3505 9.30058 10.8506 8.8507 11.8505 8.8507C12.7505 8.8507 13.2506 9.1507 13.5005 9.9007C13.5506 10.0507 13.7006 10.1507 13.8506 10.1507H14.6505C14.8505 10.1507 15.0005 10.0007 15.0005 9.80074V9.7507C14.8005 8.65066 13.9005 7.8007 12.7505 7.70074V6.50074C12.7505 6.3007 12.6005 6.1507 12.3506 6.10066H11.6006C11.4005 6.10066 11.2505 6.25066 11.2005 6.50074V7.6507C9.70051 7.85074 8.75059 8.8507 8.75059 10.1007C8.75059 11.7507 9.75055 12.4007 11.8505 12.6507C13.2506 12.9007 13.7006 13.2007 13.7006 14.0007C13.7006 14.8008 13.0005 15.3507 12.0506 15.3507C10.7505 15.3507 10.3005 14.8007 10.1505 14.0507C10.1006 13.8507 9.95059 13.7507 9.80059 13.7507H8.95051C8.75059 13.7507 8.60059 13.9007 8.60059 14.1007V14.1507C8.80051 15.4007 9.60055 16.3007 11.2505 16.5507V17.7507C11.2505 17.9507 11.4005 18.1007 11.6505 18.1507H12.4005C12.6005 18.1507 12.7505 18.0007 12.8006 17.7507V16.5507C14.3006 16.3007 15.3005 15.2507 15.3005 13.9007Z" fill="#FCFCFC"/>
<path d="M9.45 19.1499C5.55 17.75 3.54996 13.4 5.00004 9.54993C5.75004 7.44993 7.40004 5.84997 9.45 5.09997C9.65004 5.00002 9.75 4.85001 9.75 4.59993V3.89998C9.75 3.69994 9.65004 3.54994 9.45 3.50002C9.39996 3.50002 9.3 3.50001 9.24996 3.54993C4.5 5.04993 1.89996 10.1 3.39996 14.85C4.29996 17.6499 6.45 19.8 9.24996 20.7C9.45 20.7999 9.65004 20.7 9.69996 20.4999C9.75 20.45 9.75 20.4 9.75 20.3V19.5999C9.75 19.4499 9.6 19.25 9.45 19.1499ZM14.75 3.54993C14.55 3.44997 14.35 3.54994 14.3 3.74998C14.25 3.80002 14.25 3.84994 14.25 3.95002V4.64998C14.25 4.85002 14.4 5.04994 14.55 5.15002C18.45 6.54994 20.45 10.8999 19 14.75C18.25 16.85 16.6 18.45 14.55 19.2C14.35 19.2999 14.25 19.4499 14.25 19.7V20.4C14.25 20.6 14.35 20.75 14.55 20.7999C14.6 20.7999 14.7 20.7999 14.75 20.75C19.5 19.25 22.1 14.1999 20.6 9.44997C19.7 6.59997 17.5 4.44993 14.75 3.54993Z" fill="#FCFCFC"/>
</svg>

