<svg width="24" height="24" viewBox="0 0 24 24" fill="none" xmlns="http://www.w3.org/2000/svg">
<g clip-path="url(#clip0_867_19878)">
<path d="M12 24C18.65 24 24 18.65 24 12C24 5.34996 18.65 0 12 0C5.34996 0 0 5.34996 0 12C0 18.65 5.34996 24 12 24Z" fill="#F7931A"/>
<path fill-rule="evenodd" clip-rule="evenodd" d="M17.8846 10.3652C18.1468 8.61208 16.8122 7.66972 14.9871 7.04108L15.5791 4.66637L14.1336 4.30617L13.5572 6.61836C13.1772 6.52358 12.7869 6.43427 12.399 6.34573L12.9796 4.01828L11.5349 3.65808L10.9425 6.03202C10.628 5.96042 10.3192 5.88966 10.0195 5.81509L10.0212 5.80762L8.02771 5.30982L7.64317 6.85377C7.64317 6.85377 8.71565 7.09961 8.69305 7.11474C9.27842 7.26085 9.38428 7.64835 9.3667 7.95549L8.69228 10.6608L7.74445 14.4611C7.67292 14.6389 7.49134 14.9058 7.08207 14.8045C7.09656 14.8255 6.03142 14.5423 6.03142 14.5423L5.31372 16.197L7.19488 16.6659C7.54484 16.7537 7.88779 16.8455 8.22551 16.9319L7.62733 19.3338L9.07122 19.694L9.66361 17.3176C10.0581 17.4247 10.4409 17.5234 10.8156 17.6165L10.2252 19.9818L11.6708 20.342L12.269 17.9445C14.734 18.4111 16.5874 18.223 17.3676 15.9934C17.9962 14.1983 17.3363 13.1629 16.0395 12.4877C16.984 12.2699 17.6955 11.6487 17.8852 10.3654L17.8846 10.3652ZM10.1329 15.5779C11.1128 15.8212 14.1351 16.7916 14.5819 14.9965C15.0487 13.1244 11.9065 12.6403 10.9267 12.3957L10.1329 15.5779ZM11.2898 10.939C11.3578 10.956 11.4375 10.9772 11.5269 11.0011C12.5102 11.2635 14.6553 11.836 15.0289 10.3392C15.4104 8.80824 13.3258 8.34669 12.3076 8.12127C12.1931 8.09591 12.092 8.07354 12.0095 8.05298L11.2898 10.939Z" fill="white"/>
</g>
<defs>
<clipPath id="clip0_867_19878">
<rect width="24" height="24" fill="white"/>
</clipPath>
</defs>
</svg>

