<?xml version="1.0" encoding="UTF-8"?>
<svg xmlns="http://www.w3.org/2000/svg" xmlns:xlink="http://www.w3.org/1999/xlink" width="32px" height="32px" viewBox="0 0 32 32" version="1.1">
<defs>
<clipPath id="clip1">
  <path d="M 2 2 L 25 2 L 25 22 L 2 22 Z M 2 2 "/>
</clipPath>
<clipPath id="clip2">
  <path d="M 16 2 C 23.726562 2 30 8.273438 30 16 C 30 23.726562 23.726562 30 16 30 C 8.273438 30 2 23.726562 2 16 C 2 8.273438 8.273438 2 16 2 Z M 16 4 C 9.378906 4 4 9.378906 4 16 C 4 22.621094 9.378906 28 16 28 C 22.621094 28 28 22.621094 28 16 C 28 9.378906 22.621094 4 16 4 Z M 16 4 "/>
</clipPath>
<linearGradient id="linear0" gradientUnits="userSpaceOnUse" x1="0" y1="0" x2="1" y2="0" gradientTransform="matrix(9.52595,-16.462,16.462,9.52595,6.4847,21.4813)">
<stop offset="0" style="stop-color:rgb(100%,100%,100%);stop-opacity:0.25;"/>
<stop offset="1" style="stop-color:rgb(100%,100%,100%);stop-opacity:0.75;"/>
</linearGradient>
<clipPath id="clip3">
  <path d="M 16 2 L 30 2 L 30 30 L 16 30 Z M 16 2 "/>
</clipPath>
<clipPath id="clip4">
  <path d="M 16 2 C 23.726562 2 30 8.273438 30 16 C 30 23.726562 23.726562 30 16 30 C 8.273438 30 2 23.726562 2 16 C 2 8.273438 8.273438 2 16 2 Z M 16 4 C 9.378906 4 4 9.378906 4 16 C 4 22.621094 9.378906 28 16 28 C 22.621094 28 28 22.621094 28 16 C 28 9.378906 22.621094 4 16 4 Z M 16 4 "/>
</clipPath>
<linearGradient id="linear1" gradientUnits="userSpaceOnUse" x1="0" y1="0" x2="1" y2="0" gradientTransform="matrix(9.49345,16.480551,-16.480551,9.49345,16.0107,5.0193)">
<stop offset="0" style="stop-color:rgb(100%,100%,100%);stop-opacity:0.25;"/>
<stop offset="1" style="stop-color:rgb(100%,100%,100%);stop-opacity:0.75;"/>
</linearGradient>
<clipPath id="clip5">
  <path d="M 2 15 L 27 15 L 27 30 L 2 30 Z M 2 15 "/>
</clipPath>
<clipPath id="clip6">
  <path d="M 16 2 C 23.726562 2 30 8.273438 30 16 C 30 23.726562 23.726562 30 16 30 C 8.273438 30 2 23.726562 2 16 C 2 8.273438 8.273438 2 16 2 Z M 16 4 C 9.378906 4 4 9.378906 4 16 C 4 22.621094 9.378906 28 16 28 C 22.621094 28 28 22.621094 28 16 C 28 9.378906 22.621094 4 16 4 Z M 16 4 "/>
</clipPath>
<linearGradient id="linear2" gradientUnits="userSpaceOnUse" x1="0" y1="0" x2="1" y2="0" gradientTransform="matrix(19.0193,0.0187153,-0.0187153,19.0193,6.48485,21.48115)">
<stop offset="0" style="stop-color:rgb(100%,100%,100%);stop-opacity:0.75;"/>
<stop offset="1" style="stop-color:rgb(100%,100%,100%);stop-opacity:0.25;"/>
</linearGradient>
</defs>
<g id="surface1">
<path style=" stroke:none;fill-rule:evenodd;fill:rgb(0%,32.156864%,100%);fill-opacity:1;" d="M 32 16 C 32 24.835938 24.835938 32 16 32 C 7.164062 32 0 24.835938 0 16 C 0 7.164062 7.164062 0 16 0 C 24.835938 0 32 7.164062 32 16 Z M 32 16 "/>
<g clip-path="url(#clip1)" clip-rule="nonzero">
<g clip-path="url(#clip2)" clip-rule="evenodd">
<path style=" stroke:none;fill-rule:evenodd;fill:url(#linear0);" d="M 0.0234375 15.089844 C 0.160156 12.691406 0.835938 10.289062 2.105469 8.066406 C 2.117188 8.042969 2.128906 8.023438 2.144531 8 C 2.15625 7.976562 2.167969 7.957031 2.183594 7.933594 C 3.847656 5.078125 6.269531 2.929688 9.042969 1.59375 C 12.03125 0.15625 15.433594 -0.34375 18.75 0.234375 C 20.550781 0.550781 22.328125 1.179688 24 2.144531 C 24.261719 2.296875 24.519531 2.453125 24.769531 2.617188 C 21.515625 1.085938 17.566406 2.285156 15.738281 5.457031 L 6.484375 21.480469 C 3.054688 21.230469 0.308594 18.507812 0.0234375 15.089844 Z M 0.0234375 15.089844 "/>
</g>
</g>
<g clip-path="url(#clip3)" clip-rule="nonzero">
<g clip-path="url(#clip4)" clip-rule="evenodd">
<path style=" stroke:none;fill-rule:evenodd;fill:url(#linear1);" d="M 24.777344 2.621094 C 26.785156 3.933594 28.527344 5.722656 29.816406 7.933594 C 29.832031 7.957031 29.84375 7.976562 29.855469 8 C 29.867188 8.023438 29.882812 8.042969 29.894531 8.066406 C 31.535156 10.9375 32.1875 14.109375 31.953125 17.179688 C 31.707031 20.488281 30.4375 23.679688 28.277344 26.265625 C 27.105469 27.667969 25.671875 28.890625 24 29.855469 C 23.738281 30.007812 23.472656 30.152344 23.203125 30.285156 C 26.15625 28.230469 27.09375 24.214844 25.261719 21.042969 L 16.011719 5.019531 C 17.941406 2.175781 21.671875 1.160156 24.777344 2.621094 Z M 24.777344 2.621094 "/>
</g>
</g>
<g clip-path="url(#clip5)" clip-rule="nonzero">
<g clip-path="url(#clip6)" clip-rule="evenodd">
<path style=" stroke:none;fill-rule:evenodd;fill:url(#linear2);" d="M 23.199219 30.289062 C 21.054688 31.371094 18.636719 31.988281 16.078125 32 C 16.050781 32 16.027344 32 16 32 C 15.972656 32 15.949219 32 15.921875 32 C 12.617188 31.984375 9.546875 30.964844 7 29.226562 C 4.261719 27.359375 2.132812 24.664062 0.972656 21.5 C 0.34375 19.785156 0 17.933594 0 16 C 0 15.695312 0.0078125 15.394531 0.0234375 15.09375 C 0.328125 18.679688 3.335938 21.5 7 21.5 L 25.503906 21.5 C 27.003906 24.59375 26.015625 28.332031 23.199219 30.289062 Z M 23.199219 30.289062 "/>
</g>
</g>
<path style=" stroke:none;fill-rule:evenodd;fill:rgb(100%,100%,100%);fill-opacity:1;" d="M 23.363281 17.40625 C 22.703125 20.875 19.65625 23.5 15.996094 23.5 C 11.855469 23.5 8.496094 20.140625 8.496094 16 C 8.496094 11.859375 11.855469 8.5 15.996094 8.5 C 19.65625 8.5 22.703125 11.125 23.363281 14.59375 L 20.46875 14.59375 C 19.871094 12.691406 18.09375 11.3125 15.996094 11.3125 C 13.410156 11.3125 11.308594 13.414062 11.308594 16 C 11.308594 18.585938 13.410156 20.6875 15.996094 20.6875 C 18.09375 20.6875 19.871094 19.308594 20.46875 17.40625 Z M 23.363281 17.40625 "/>
</g>
</svg>
