<svg width="201" height="201" viewBox="0 0 201 201" fill="none" xmlns="http://www.w3.org/2000/svg">
<g clip-path="url(#clip0_1_3)">
<path d="M100.36 200.721C155.788 200.721 200.721 155.788 200.721 100.36C200.721 44.9329 155.788 0 100.36 0C44.9329 0 0 44.9329 0 100.36C0 155.788 44.9329 200.721 100.36 200.721Z" fill="white"/>
<path d="M163.667 42.1235L158.161 47.6303C171.31 62.0122 178.602 80.7945 178.602 100.282C178.602 119.769 171.31 138.551 158.161 152.933L163.667 158.44C178.285 142.577 186.4 121.796 186.4 100.225C186.4 78.6539 178.285 57.8723 163.667 42.0094V42.1235Z" fill="#5A5564"/>
<path d="M47.764 42.6033C62.1452 29.4521 80.9275 22.159 100.415 22.159C119.903 22.159 138.686 29.4521 153.067 42.6033L158.574 37.0965C142.71 22.4712 121.923 14.3515 100.347 14.3515C78.77 14.3515 57.9832 22.4712 42.1195 37.0965L47.764 42.6033Z" fill="#5A5564"/>
<path d="M42.6033 153.012C29.4669 138.634 22.1828 119.863 22.1828 100.388C22.1828 80.9125 29.4669 62.1416 42.6033 47.7641L37.0965 42.2572C22.4712 58.1209 14.3515 78.9076 14.3515 100.484C14.3515 122.061 22.4712 142.848 37.0965 158.711L42.6033 153.012Z" fill="#5A5564"/>
<path d="M153.012 158.082C138.631 171.233 119.848 178.526 100.36 178.526C80.8724 178.526 62.0901 171.233 47.709 158.082L42.2021 163.589C58.0658 178.214 78.8526 186.334 100.429 186.334C122.006 186.334 142.793 178.214 158.656 163.589L153.012 158.082Z" fill="#5A5564"/>
<path d="M135.154 81.9695C134.052 70.4719 124.14 66.6289 111.584 65.4489V49.601H101.877V65.1421H94.1317V49.601H84.5065V65.5472H64.8392V75.9159C64.8392 75.9159 72.0021 75.7861 71.8919 75.9159C73.1829 75.775 74.4778 76.1401 75.5048 76.9346C76.5318 77.7292 77.2107 78.8911 77.3988 80.1758V123.837C77.3382 124.751 76.9169 125.603 76.2282 126.207C75.539 126.81 74.6386 127.115 73.7249 127.055C73.8547 127.165 66.6722 127.055 66.6722 127.055L64.8353 138.647H84.3256V154.849H94.0098V138.883H101.763V154.774H111.482V138.757C127.869 137.762 139.296 133.722 140.728 118.382C141.884 106.038 136.078 100.524 126.803 98.3209C132.455 95.5281 135.944 90.3831 135.154 81.9695ZM121.544 116.47C121.544 128.522 100.897 127.145 94.3205 127.145V105.763C100.913 105.779 121.544 103.887 121.544 116.47ZM117.06 86.3435C117.06 97.3572 99.8274 96.0237 94.352 96.0237V76.5885C99.8274 76.5885 117.06 74.8617 117.06 86.3435Z" fill="#F09242"/>
<path d="M100.343 200.721C44.9162 200.709 0 155.765 0 100.343C0 44.9202 44.9516 0 100.378 0C155.805 0 200.709 44.928 200.721 100.343C200.733 155.757 155.805 200.709 100.378 200.721H100.343ZM100.343 7.82759C49.2666 7.86693 7.90626 49.302 7.93773 100.378C7.9692 151.454 49.4122 192.814 100.488 192.783C151.564 192.752 192.873 151.371 192.893 100.347C192.913 49.3217 151.525 7.86693 100.453 7.82759H100.343Z" fill="#282138"/>
</g>
<defs>
<clipPath id="clip0_1_3">
<rect width="201" height="201" fill="white"/>
</clipPath>
</defs>
</svg>
