<svg width="29" height="30" viewBox="0 0 29 30" fill="none" xmlns="http://www.w3.org/2000/svg">
<path d="M21.0214 11.3901L7.06743 11.3789C3.26266 11.3789 0.0997981 14.4589 8.23943e-05 18.4177C-0.00303372 18.523 0.0826594 18.6107 0.185491 18.6107L14.1395 18.6203C17.9442 18.6219 21.1071 15.5419 21.2068 11.5847C21.2099 11.4794 21.1242 11.3917 21.0214 11.3917V11.3901Z" fill="#E62058"/>
<path d="M28.2617 0.0111651L7.10937 0C3.28201 0 0.10039 3.07998 8.2883e-05 7.03881C-0.00305172 7.14408 0.08315 7.23181 0.186592 7.23181L21.3389 7.24138C25.1663 7.24297 28.3479 4.16299 28.4482 0.205757C28.4513 0.100486 28.3651 0.0127601 28.2617 0.0127601V0.0111651Z" fill="#E62058"/>
<path d="M3.62069 29.9989C5.62034 29.9989 7.24138 28.262 7.24138 26.1195C7.24138 23.9771 5.62034 22.2402 3.62069 22.2402C1.62104 22.2402 0 23.9771 0 26.1195C0 28.262 1.62104 29.9989 3.62069 29.9989Z" fill="#E62058"/>
</svg>
