<svg width="24" height="24" viewBox="0 0 24 24" fill="none" xmlns="http://www.w3.org/2000/svg">
<g clip-path="url(#clip0_17_2)">
<path d="M0 12C0 5.37258 5.37258 0 12 0C18.6274 0 24 5.37258 24 12C24 18.6274 18.6274 24 12 24C5.37258 24 0 18.6274 0 12Z" fill="#DCC5F7"/>
<path d="M10 6H6V10H10V6Z" fill="#6800D1"/>
<path d="M18 14H14V18H18V14Z" fill="black"/>
<path d="M18 6H14L10 10H18V6Z" fill="#6800D1"/>
<path d="M6 14V18H10V10L6 14Z" fill="#6800D1"/>
<path d="M24 13H13V24H24V13Z" fill="#6800D1"/>
<path d="M16.1298 21L14.5378 15.4H15.8338L16.7858 19.48L17.7618 15.4H19.2258L20.2098 19.472L21.1618 15.4H22.4658L20.8898 21H19.5458L18.5058 17.104L17.4498 21H16.1298Z" fill="#DCC5F7"/>
</g>
<defs>
<clipPath id="clip0_17_2">
<rect width="24" height="24" rx="12" fill="white"/>
</clipPath>
</defs>
</svg>
