<svg width="40" height="41" viewBox="0 0 40 41" fill="none" xmlns="http://www.w3.org/2000/svg">
<circle cx="20" cy="20.1953" r="20" fill="#98FCE4"/>
<g clip-path="url(#clip0_276_1105)">
<path d="M34.6821 19.6625C34.7224 21.8732 34.4855 24.0231 33.4138 26.0192C32.6752 27.3942 31.6723 28.4899 30.2411 29.1296C28.6146 29.8567 26.855 29.7739 25.3661 28.4543C24.5668 27.7458 23.9723 26.8735 23.3638 26.0116C22.7104 25.0856 22.0581 24.159 21.155 23.4464C19.2857 21.9711 16.4497 21.928 14.5927 23.8272C14.0058 24.4273 13.4959 25.1019 12.9375 25.7311C12.3967 26.3405 11.8606 26.9744 11.0566 27.2438C9.72933 27.6893 8.23928 27.2099 7.30348 26.0647C6.58704 25.1877 6.23115 24.1526 5.9902 23.0645C5.73933 21.9291 5.65474 20.7804 5.73466 19.6258C5.81634 18.4391 6.06838 17.2904 6.71131 16.2611C7.47967 15.0313 8.88921 14.4639 10.2929 14.6954C11.6126 14.9135 12.4924 15.7631 13.3354 16.6822C14.0519 17.4624 14.787 18.2204 15.7601 18.6835C16.5938 19.08 17.4806 19.1704 18.3972 19.1039C20.4129 18.9575 21.6666 17.7423 22.6643 16.1375C23.3323 15.0634 23.9811 13.9735 24.7173 12.9466C25.2868 12.1524 26.044 11.5361 27.0423 11.3145C27.7826 11.15 28.5253 11.1745 29.2622 11.3483C30.3234 11.5985 31.2318 12.1326 32.0241 12.8673C32.7948 13.5817 33.3548 14.4464 33.779 15.4028C34.3554 16.7037 34.608 18.0758 34.6739 19.4887C34.6769 19.5471 34.6792 19.6048 34.6821 19.6631V19.6625ZM31.8992 19.9057C31.8724 19.9028 31.8345 19.8929 31.7965 19.8946C30.8876 19.9395 29.9786 19.9891 29.069 20.0281C28.8456 20.0381 28.8304 20.1681 28.831 20.3389C28.8339 21.1717 28.8398 22.0044 28.8263 22.8365C28.8223 23.1065 28.9232 23.2068 29.1846 23.1852C29.8695 23.128 30.5614 23.117 31.2388 23.0132C31.936 22.9065 31.8 23.0342 31.8718 22.3356C31.88 22.2586 31.8969 22.1816 31.8969 22.1047C31.8986 21.3816 31.898 20.6591 31.898 19.9051L31.8992 19.9057ZM28.4465 21.5903C28.4465 21.1547 28.443 20.7186 28.4483 20.283C28.45 20.1039 28.387 20.0264 28.1951 20.0171C27.5078 19.985 26.8217 19.9337 26.135 19.8946C25.5394 19.8608 25.5394 19.8643 25.5569 20.4433C25.5592 20.5209 25.5563 20.5984 25.558 20.676C25.5744 21.3343 25.5936 21.9927 25.6065 22.651C25.61 22.8178 25.6531 22.9228 25.8451 22.9414C26.6059 23.0143 27.3661 23.0942 28.1257 23.1782C28.3462 23.2027 28.4535 23.1333 28.4489 22.8977C28.4407 22.4621 28.4465 22.0259 28.4465 21.5903ZM9.77133 21.2795C10.276 21.2556 10.6535 21.2434 11.0298 21.2183C11.252 21.2037 11.3857 21.1028 11.3641 20.8469C11.3191 20.3075 11.2911 19.7669 11.2515 19.2275C11.2351 19.0048 11.1173 18.9219 10.8851 18.9237C10.15 18.9284 9.41428 18.9132 8.67917 18.8992C8.50823 18.8957 8.39563 18.9406 8.38046 19.129C8.33321 19.7156 8.28653 20.3016 8.23753 20.8883C8.22236 21.0679 8.29412 21.1507 8.48081 21.1641C8.9528 21.1985 9.42362 21.2475 9.77075 21.2795H9.77133ZM9.72408 23.9188C10.0998 23.8849 10.5519 23.8395 11.0047 23.8045C11.1931 23.7899 11.2731 23.7129 11.2771 23.5158C11.2894 22.9741 11.3121 22.4324 11.3483 21.8918C11.3652 21.644 11.2917 21.5664 11.0374 21.5979C10.6826 21.6411 10.3227 21.665 9.96561 21.658C9.48196 21.6481 8.99947 21.602 8.5164 21.5693C8.35654 21.5588 8.22703 21.5653 8.23578 21.7863C8.25911 22.3566 8.27487 22.9274 8.28653 23.4983C8.2912 23.7123 8.39622 23.8231 8.60041 23.84C8.94755 23.8686 9.29526 23.8896 9.72349 23.9188H9.72408ZM30.0113 19.606C30.0124 19.6147 30.0136 19.624 30.0148 19.6328C30.5924 19.578 31.1694 19.5179 31.7475 19.4707C31.908 19.4573 31.9832 19.3943 31.9593 19.2368C31.8695 18.6461 31.7819 18.0548 31.6746 17.467C31.6641 17.4087 31.5159 17.3265 31.4418 17.3358C30.6559 17.4338 29.8724 17.5528 29.0871 17.6554C28.915 17.6781 28.8538 17.7586 28.8549 17.9207C28.8573 18.3948 28.8596 18.8689 28.8532 19.343C28.8503 19.5494 28.9512 19.6124 29.1402 19.6083C29.4308 19.6019 29.7213 19.6065 30.0119 19.6065L30.0113 19.606ZM25.1847 21.2982C25.1701 21.2982 25.1555 21.2982 25.1409 21.2982C25.1409 20.8918 25.1339 20.4853 25.1438 20.0795C25.1491 19.8608 25.0639 19.7786 24.8434 19.7541C24.3445 19.6987 23.8469 19.6246 23.3533 19.5325C23.1264 19.4905 23.0523 19.5616 23.0499 19.7745C23.0441 20.3541 23.0371 20.9337 23.0213 21.5128C23.0091 21.9647 23.0383 22.3805 23.6298 22.4277C23.6386 22.4283 23.6462 22.4388 23.6555 22.4411C24.0645 22.5542 24.4717 22.6732 24.8824 22.7782C25.124 22.84 25.2062 22.7408 25.1911 22.4866C25.1671 22.0918 25.1847 21.6941 25.1847 21.2976V21.2982ZM14.4678 21.7822H14.4859C14.4859 21.5303 14.4842 21.2778 14.4865 21.0259C14.4889 20.8165 14.441 20.7267 14.1942 20.806C13.4778 21.037 12.7538 21.2434 12.0309 21.4539C11.8372 21.5105 11.7351 21.6189 11.7322 21.8253C11.7246 22.3682 11.7129 22.9111 11.7007 23.454C11.6966 23.6243 11.748 23.7112 11.9416 23.6651C12.4591 23.5415 12.9883 23.4575 13.4953 23.3018C14.4503 23.0085 14.4457 22.9922 14.4678 21.9857C14.4696 21.9181 14.4678 21.8498 14.4678 21.7822ZM9.79292 27.0105C9.97145 26.9499 10.2036 26.9394 10.3162 26.8175C10.5263 26.5901 10.7246 26.3178 10.8221 26.0285C10.9819 25.5562 11.0589 25.0553 11.168 24.566C11.245 24.2208 11.2258 24.2138 10.8693 24.2197C10.1249 24.2319 9.38044 24.2366 8.636 24.2267C8.42072 24.2237 8.33904 24.303 8.38455 24.4955C8.52865 25.1043 8.63659 25.7282 8.8542 26.3108C8.99247 26.681 9.27134 27.0292 9.79234 27.0105H9.79292ZM34.2597 19.4229C33.6675 19.543 33.0894 19.6538 32.5165 19.7844C32.4575 19.7978 32.3899 19.9255 32.3852 20.0037C32.3385 20.8451 32.3094 21.6877 32.2621 22.5298C32.2487 22.7688 32.3269 22.8522 32.5608 22.7974C33.0316 22.6866 33.5065 22.5939 33.9709 22.4621C34.0637 22.4359 34.1524 22.2778 34.1804 22.1653C34.2317 21.9606 34.2533 21.7443 34.2562 21.532C34.265 20.8375 34.2597 20.143 34.2597 19.4234V19.4229ZM11.748 20.0876C11.748 20.3949 11.7474 20.6078 11.748 20.8206C11.7491 21.0416 11.8261 21.1536 12.07 21.0638C12.2509 20.9973 12.4381 20.9483 12.6225 20.8918C13.1569 20.7279 13.6902 20.5582 14.2269 20.4031C14.3949 20.3547 14.4772 20.2684 14.4603 20.0946C14.4148 19.6229 14.3716 19.1511 14.3185 18.6805C14.3121 18.6251 14.2578 18.5336 14.2187 18.5301C13.8955 18.4974 13.5624 18.428 13.2473 18.4729C12.7631 18.5423 12.2911 18.6992 11.8115 18.8065C11.626 18.8479 11.5811 18.9418 11.6103 19.1185C11.668 19.4707 11.7106 19.8252 11.7468 20.0882L11.748 20.0876ZM28.4734 18.642C28.4734 18.642 28.4757 18.642 28.4769 18.642C28.4769 18.41 28.4716 18.1779 28.4786 17.9458C28.4839 17.7668 28.4203 17.6875 28.2278 17.6799C27.4559 17.6484 26.6846 17.607 25.9139 17.5586C25.729 17.5469 25.6339 17.6105 25.6251 17.7907C25.6006 18.2735 25.5715 18.7563 25.568 19.2398C25.568 19.3132 25.6916 19.4468 25.7657 19.452C26.5854 19.5121 27.4069 19.5506 28.2278 19.5984C28.4203 19.6095 28.4839 19.522 28.4757 19.3383C28.4658 19.1068 28.4734 18.8741 28.4734 18.642ZM27.2184 17.2781C27.5492 17.2781 27.8596 17.2781 28.17 17.2781C28.38 17.2781 28.4862 17.1965 28.4769 16.9626C28.4588 16.4979 28.46 16.0326 28.4611 15.5672C28.4611 15.3742 28.38 15.285 28.1858 15.2739C27.6531 15.2442 27.1199 15.2185 26.5889 15.166C26.3293 15.1404 26.2132 15.2482 26.1525 15.4763C26.0329 15.9235 25.9139 16.3714 25.7827 16.8151C25.7086 17.0664 25.7943 17.1848 26.0481 17.2006C26.4448 17.2262 26.8421 17.253 27.219 17.2775L27.2184 17.2781ZM22.6433 22.065C22.6433 21.1664 22.6485 20.3675 22.6345 19.5698C22.6334 19.5004 22.5184 19.3966 22.4373 19.3715C21.879 19.1995 21.3148 19.0444 20.7209 18.8747C20.7238 18.8706 20.6713 18.9138 20.6643 18.9634C20.5792 19.5441 20.4899 20.1249 20.4339 20.7087C20.4257 20.7932 20.5721 20.9262 20.6766 20.9827C21.1737 21.2527 21.6824 21.5011 22.1836 21.7641C22.3166 21.8341 22.4368 21.9286 22.6439 22.0656L22.6433 22.065ZM29.7569 25.2734C30.0813 25.232 30.6857 25.1521 31.2901 25.0774C31.4686 25.0553 31.5667 24.9655 31.5941 24.7865C31.6553 24.3853 31.7236 23.9852 31.7884 23.5846C31.8216 23.3788 31.6956 23.3607 31.5416 23.3782C31.1186 23.4249 30.6962 23.4797 30.2726 23.5152C29.9063 23.5461 29.5375 23.566 29.17 23.5689C28.9016 23.5712 28.8123 23.6972 28.8205 23.9462C28.8281 24.1783 28.8164 24.4109 28.8141 24.643C28.8102 25.0804 29.1243 25.2905 29.7563 25.2734H29.7569ZM17.6755 21.3419C17.6755 21.2743 17.6755 21.2061 17.6755 21.1384C17.6761 20.6719 17.6638 20.6352 17.1977 20.6218C16.5489 20.6031 15.8996 20.6212 15.2502 20.6253C15.004 20.627 14.8967 20.7291 14.8978 20.9996C14.9002 21.4924 14.8512 21.9845 14.8377 22.4773C14.8342 22.6003 14.8517 22.8032 14.9177 22.8307C15.0192 22.8732 15.1901 22.8277 15.2975 22.763C15.8494 22.4306 16.4281 22.1915 17.0664 22.0668C17.7817 21.9268 17.6737 22.1128 17.6749 21.3413L17.6755 21.3419ZM28.8333 16.2425C28.8398 16.2425 28.8462 16.2425 28.8526 16.2425C28.8526 16.4652 28.8666 16.6886 28.8491 16.9096C28.8269 17.1906 28.9564 17.274 29.2114 17.239C29.9197 17.1428 30.6297 17.053 31.3362 16.9451C31.3957 16.9358 31.4949 16.7842 31.4768 16.737C31.2802 16.225 31.069 15.7188 30.8461 15.2173C30.817 15.152 30.6974 15.0815 30.6256 15.0873C30.1151 15.1281 29.6064 15.1905 29.0965 15.2412C28.9063 15.2605 28.8252 15.3561 28.8316 15.5468C28.8392 15.7783 28.8333 16.0104 28.8333 16.2425ZM28.4075 24.3841C28.4162 24.3841 28.4244 24.3841 28.4331 24.3841C28.4331 24.2097 28.4232 24.0348 28.436 23.861C28.4495 23.6779 28.3649 23.5794 28.1951 23.5642C27.4326 23.4972 26.67 23.4324 25.9063 23.3823C25.8404 23.3782 25.7027 23.4925 25.7062 23.5444C25.7371 23.9782 25.785 24.4115 25.8509 24.8413C25.862 24.913 25.9816 25.0104 26.0615 25.0215C26.7231 25.1148 27.3882 25.1842 28.0504 25.2734C28.3264 25.3107 28.4203 25.1935 28.408 24.9363C28.3993 24.7526 28.4063 24.5684 28.4063 24.3841H28.4075ZM32.6991 19.371C33.0999 19.2677 33.4972 19.1476 33.9027 19.0666C34.1798 19.0112 34.2504 18.8636 34.2055 18.6141C34.1127 18.1021 34.0048 17.5924 33.9371 17.0769C33.9015 16.8058 33.7679 16.79 33.5614 16.8414C33.1687 16.9387 32.779 17.0513 32.3817 17.1277C32.146 17.1732 32.0725 17.2758 32.1122 17.5049C32.2032 18.0268 32.2942 18.5493 32.3601 19.0747C32.3881 19.2981 32.4599 19.3995 32.6991 19.3698V19.371ZM23.3801 16.9539C23.3451 17.0565 23.2839 17.1714 23.2693 17.2915C23.2063 17.7988 23.1619 18.3091 23.1001 18.817C23.0727 19.0432 23.1759 19.1377 23.3831 19.1634C23.8912 19.2258 24.4 19.287 24.9075 19.3546C25.0656 19.3756 25.1409 19.3284 25.152 19.1604C25.1829 18.6794 25.2325 18.1989 25.2535 17.7172C25.2576 17.6257 25.1847 17.4682 25.1146 17.4461C24.5563 17.2717 23.9898 17.123 23.3807 16.9539H23.3801ZM24.1526 14.5922C24.1205 14.5631 24.0878 14.5339 24.0557 14.5042C24.0149 14.5922 23.9846 14.6867 23.9315 14.7666C23.6444 15.1987 23.5727 15.6955 23.4758 16.1882C23.4385 16.3783 23.4822 16.4944 23.6561 16.5539C24.1211 16.7136 24.5913 16.8588 25.0546 17.0245C25.2745 17.1032 25.3515 17.0128 25.4017 16.8169C25.5353 16.2938 25.6858 15.7754 25.8124 15.2506C25.8264 15.1923 25.7447 15.0622 25.6823 15.0424C25.3509 14.9369 25.0108 14.8599 24.6759 14.7654C24.4997 14.7159 24.3276 14.65 24.1538 14.5916L24.1526 14.5922ZM6.11389 19.7237C6.11389 20.0351 6.11622 20.2672 6.1133 20.4999C6.11097 20.6964 6.19965 20.802 6.39626 20.8364C6.78657 20.9052 7.17687 20.9786 7.56426 21.062C7.73112 21.0982 7.80171 21.037 7.81572 20.8795C7.87172 20.2532 7.93357 19.6275 7.97674 19.0001C7.98141 18.933 7.88864 18.8112 7.82213 18.7954C7.40966 18.6974 6.99076 18.6257 6.57595 18.5377C6.39451 18.4992 6.27258 18.5272 6.24632 18.7388C6.20198 19.0928 6.15122 19.4456 6.11389 19.7237ZM14.301 23.5205C14.1598 23.5292 14.0845 23.5222 14.0157 23.5397C13.3162 23.7188 12.6184 23.9036 11.9189 24.0815C11.7328 24.1287 11.6038 24.2086 11.5887 24.4238C11.5321 25.25 11.3378 26.0396 10.9043 26.8274C11.042 26.7918 11.1464 26.7936 11.2118 26.7434C11.5403 26.4921 11.8915 26.2589 12.1738 25.9615C12.6779 25.4296 13.1371 24.8559 13.6166 24.3007C13.8278 24.0558 14.0425 23.8138 14.3004 23.5199L14.301 23.5205ZM33.7778 16.3708C33.5118 15.8005 33.2755 15.285 33.0293 14.7742C32.9575 14.6255 32.8747 14.5147 32.6507 14.5922C32.2691 14.7246 31.8735 14.8261 31.4768 14.9019C31.2283 14.9497 31.23 15.0605 31.3035 15.2436C31.4908 15.7078 31.6682 16.1766 31.8689 16.6355C31.9015 16.7101 32.0439 16.8005 32.1139 16.7848C32.6489 16.6664 33.1781 16.523 33.7778 16.3702V16.3708ZM20.5185 21.3478L20.4158 21.43C20.4619 21.6889 20.4911 21.953 20.5599 22.2061C20.6124 22.4009 20.6072 22.6225 20.8324 22.7531C21.5978 23.1969 22.1976 23.826 22.7419 24.5124C22.8166 24.6063 22.9058 24.6879 22.9881 24.7754C23.0015 24.6296 22.9601 24.5141 22.9414 24.3952C22.8516 23.8313 22.7734 23.2657 22.6754 22.7035C22.6579 22.6026 22.5867 22.4837 22.5038 22.426C22.1952 22.2102 21.8819 21.9979 21.5511 21.8201C21.2186 21.6411 20.8639 21.504 20.5191 21.3483L20.5185 21.3478ZM6.17456 21.2166C6.16698 21.3454 6.14364 21.451 6.15823 21.5513C6.23465 22.065 6.33033 22.5764 6.39976 23.0907C6.42776 23.2989 6.54795 23.3963 6.72239 23.4476C7.03627 23.5409 7.35365 23.6231 7.67044 23.7088C7.84955 23.7572 7.92307 23.6855 7.91256 23.5036C7.87814 22.9059 7.85714 22.307 7.80755 21.7105C7.79996 21.6189 7.68153 21.4795 7.59402 21.4609C7.14245 21.3647 6.68447 21.3005 6.17573 21.216L6.17456 21.2166ZM23.0698 22.7193C23.1783 23.289 23.2745 23.8074 23.3796 24.324C23.3889 24.3695 23.4478 24.4267 23.4945 24.4389C24.0639 24.5894 24.6339 24.7351 25.2057 24.8751C25.3795 24.9177 25.4268 24.8249 25.4081 24.6628C25.3632 24.2692 25.3346 23.8733 25.2803 23.4808C25.2687 23.3945 25.1922 23.2662 25.1211 23.2464C24.4705 23.0674 23.8148 22.9076 23.0698 22.7199V22.7193ZM31.4103 25.5247C30.5708 25.5842 29.7727 25.6349 28.9769 25.7061C28.9098 25.7119 28.8094 25.8489 28.8013 25.9323C28.7744 26.2105 28.7972 26.4933 28.7733 26.772C28.7511 27.0251 28.8298 27.1353 29.0936 27.1038C29.6402 27.0385 30.188 26.9878 30.7341 26.916C30.8526 26.9003 31.0247 26.8525 31.0661 26.7679C31.258 26.3743 31.3841 25.9556 31.4115 25.5241L31.4103 25.5247ZM27.5667 27.1312L27.5714 27.0974C27.7552 27.1061 27.939 27.1108 28.1222 27.1248C28.2844 27.137 28.3514 27.0659 28.3526 26.9073C28.3549 26.5784 28.3789 26.2489 28.3596 25.9218C28.3544 25.8355 28.233 25.695 28.1513 25.6839C27.4909 25.5947 26.8276 25.5294 26.1642 25.46C26.0271 25.4454 25.9314 25.4856 25.9682 25.6547C26.0464 26.0128 26.1076 26.3755 26.2097 26.7259C26.2395 26.828 26.3748 26.9481 26.4804 26.9703C26.8381 27.0455 27.2044 27.0805 27.5673 27.1306L27.5667 27.1312ZM14.0151 18.0653C14.0227 18.0397 14.0309 18.0146 14.0385 17.9889C13.6417 17.5679 13.2479 17.1452 12.8454 16.73C12.7993 16.6822 12.7018 16.6489 12.6371 16.6606C12.1517 16.7481 11.6692 16.8483 11.1855 16.944C11.0251 16.9761 11.0222 17.06 11.0729 17.1988C11.1995 17.5417 11.3238 17.8875 11.4183 18.2403C11.472 18.4397 11.5566 18.4729 11.7485 18.4432C12.5058 18.326 13.2082 17.9056 14.0151 18.0653ZM8.48548 18.5108C9.32268 18.5108 10.0934 18.5149 10.8635 18.5009C10.9125 18.4998 11.0146 18.3417 10.9971 18.2852C10.8781 17.8892 10.7416 17.4974 10.5899 17.1119C10.5671 17.0536 10.4376 17.0087 10.3559 17.007C9.95919 16.9976 9.56247 16.9959 9.16633 17.0145C9.0759 17.0186 8.9388 17.0979 8.91137 17.1743C8.7626 17.5878 8.64125 18.0117 8.48548 18.5108ZM14.8383 18.6409C14.8045 18.6607 14.7712 18.6811 14.7374 18.7009C14.7905 19.1861 14.8389 19.6719 14.9048 20.1553C14.9107 20.1978 15.032 20.2532 15.0997 20.2538C15.8704 20.2626 16.6411 20.2626 17.4118 20.2614C17.4847 20.2614 17.6183 20.2468 17.6212 20.2252C17.6481 20.0276 17.6766 19.8235 17.6475 19.6299C17.6387 19.5698 17.4555 19.5033 17.3488 19.4963C16.6825 19.4532 16.0577 19.2701 15.4655 18.9686C15.2549 18.8613 15.0466 18.7505 14.8372 18.6409H14.8383ZM34.0596 22.9508C33.9698 22.9309 33.9406 22.9158 33.9155 22.9205C33.4044 23.0266 32.8904 23.1228 32.3858 23.2552C32.2919 23.2797 32.1933 23.4418 32.1711 23.5549C32.1005 23.924 32.0678 24.3007 32.013 24.6733C31.9867 24.8541 32.0672 24.9089 32.2265 24.8704C32.433 24.8197 32.6442 24.7771 32.8397 24.6961C33.2784 24.5147 33.8192 24.4541 33.8828 23.8115C33.9114 23.5228 33.9978 23.24 34.059 22.9508H34.0596ZM23.4974 24.8932C23.5663 25.1614 23.6363 25.3696 23.6707 25.583C23.7325 25.9638 23.9262 26.2472 24.2751 26.3976C24.575 26.5271 24.8912 26.6227 25.2045 26.7184C25.3801 26.772 25.5645 26.7959 25.7972 26.8443C25.7231 26.5108 25.621 26.2577 25.621 26.0046C25.621 25.4891 25.3719 25.2885 24.8854 25.2226C24.4408 25.1626 24.0079 25.018 23.4974 24.8932ZM26.757 13.2849C26.2972 13.1741 25.8603 13.0574 25.4174 12.9717C25.3171 12.9525 25.1555 13.0067 25.0919 13.0843C24.8469 13.3822 24.6322 13.7047 24.4029 14.0161C24.3037 14.1514 24.3615 14.2494 24.4898 14.2843C24.9455 14.408 25.404 14.5234 25.8661 14.6196C25.939 14.6348 26.0744 14.559 26.1152 14.4879C26.3357 14.1024 26.5353 13.7059 26.757 13.2849ZM7.03919 16.6979C7.0106 16.7166 6.89275 16.7515 6.85716 16.8256C6.70722 17.1376 6.57479 17.4583 6.44993 17.7814C6.36534 18 6.46277 18.1429 6.68564 18.1837C7.09461 18.2583 7.50475 18.3307 7.91723 18.3779C7.99833 18.3872 8.14593 18.2951 8.17277 18.2187C8.28828 17.8828 8.38046 17.537 8.45689 17.1901C8.47148 17.1236 8.39447 16.9772 8.33671 16.9632C7.93357 16.8658 7.52401 16.7935 7.03977 16.6985L7.03919 16.6979ZM30.8683 27.3499C30.7184 27.3563 30.6454 27.3557 30.5731 27.3633C30.0533 27.4193 29.5346 27.4922 29.0136 27.5272C28.7721 27.5435 28.6968 27.642 28.6834 27.8642C28.6618 28.2205 28.6251 28.5768 28.5801 28.9313C28.5562 29.1191 28.6362 29.1488 28.7954 29.129C29.4967 29.0421 30.0113 28.6549 30.4167 28.108C30.5784 27.8899 30.6974 27.6403 30.8683 27.3499ZM30.2306 13.212C30.2435 13.3047 30.2406 13.3268 30.2493 13.3414C30.3952 13.5799 30.5416 13.8178 30.6898 14.0552C31.0118 14.5707 31.0147 14.5829 31.6017 14.4669C31.9371 14.4004 32.2633 14.2849 32.5935 14.1916C32.6051 14.1578 32.6168 14.1246 32.6285 14.0907C32.293 13.7362 31.9587 13.3805 31.6192 13.03C31.576 12.9851 31.4943 12.9373 31.4424 12.9478C31.0346 13.0289 30.6291 13.1233 30.2306 13.2126V13.212ZM26.4577 14.6575C26.4705 14.6954 26.4833 14.7328 26.4962 14.7707C27.0726 14.8057 27.6484 14.8476 28.2254 14.8651C28.2855 14.8669 28.4022 14.7223 28.4028 14.6453C28.404 14.2873 28.3777 13.9286 28.3497 13.5712C28.3444 13.5076 28.2879 13.3986 28.2488 13.3957C27.9308 13.3729 27.6105 13.3636 27.2914 13.3688C27.233 13.37 27.1578 13.4458 27.1222 13.5059C26.8958 13.8872 26.6782 14.2733 26.4577 14.6581V14.6575ZM20.1748 19.1686C19.5092 19.2835 18.8843 19.3879 18.2618 19.5057C18.2011 19.5173 18.1288 19.6071 18.1113 19.6736C18.0845 19.7733 18.1113 19.8864 18.0961 19.9914C18.0605 20.2456 18.1702 20.3664 18.4188 20.4031C18.6667 20.4404 18.9112 20.5005 19.1562 20.5524C19.4257 20.6089 19.6947 20.6672 19.973 20.7267C20.0453 20.1687 20.1118 19.6555 20.1748 19.1686ZM18.0979 20.7028C18.0979 21.0947 18.1049 21.402 18.0955 21.7093C18.0891 21.9099 18.179 21.9635 18.3692 21.9915C18.847 22.0615 19.3201 22.1624 19.7939 22.2569C19.8989 22.2778 19.9992 22.3222 20.127 22.3641C20.0803 21.9635 20.0418 21.6125 19.9951 21.2626C19.9899 21.2253 19.9415 21.174 19.9036 21.1641C19.3271 21.013 18.749 20.8678 18.0979 20.7028ZM28.7989 14.0797C28.7989 14.2441 28.8042 14.4085 28.7978 14.5724C28.7884 14.7957 28.8853 14.8902 29.1105 14.8651C29.5235 14.8185 29.9378 14.7806 30.3514 14.7351C30.5258 14.7159 30.5638 14.6266 30.4704 14.4768C30.2721 14.1578 30.0725 13.8394 29.8823 13.5158C29.7814 13.3443 29.6577 13.2866 29.4529 13.3158C28.7768 13.4114 28.7756 13.4032 28.7995 14.0797H28.7989ZM26.4262 27.4333C26.5428 27.6811 26.6251 27.8864 26.7319 28.077C26.9915 28.5395 27.2925 28.9576 27.8579 29.0917C28.0691 29.1418 28.1747 29.0911 28.1968 28.8736C28.2324 28.5173 28.2669 28.161 28.31 27.8059C28.3351 27.5995 28.2458 27.5417 28.0481 27.533C27.6233 27.5143 27.1998 27.4671 26.7751 27.435C26.6811 27.428 26.5854 27.4339 26.4262 27.4339V27.4333ZM8.38513 26.5119C8.23578 25.7714 8.09809 25.0739 7.95224 24.3789C7.9359 24.3019 7.88689 24.187 7.8303 24.1713C7.45516 24.0663 7.07419 23.9841 6.62904 23.8785C6.96509 24.9917 7.46683 25.8868 8.38572 26.5119H8.38513ZM22.9443 16.5585C22.3382 17.2536 21.7676 17.9073 21.1573 18.6071C21.5628 18.7161 21.9508 18.7937 22.3183 18.9278C22.6374 19.0444 22.683 18.8922 22.7121 18.642C22.774 18.1137 22.851 17.5878 22.9157 17.06C22.935 16.9043 22.9344 16.7469 22.9443 16.5585ZM33.5124 24.9492C33.4097 24.9363 33.3793 24.9235 33.3548 24.9311C32.9225 25.0605 32.4902 25.1894 32.0608 25.327C31.9937 25.3486 31.9039 25.4046 31.8881 25.4617C31.7819 25.8466 31.6927 26.2367 31.5772 26.7102C31.9091 26.6093 32.1833 26.5434 32.4435 26.4402C32.6057 26.3761 32.8012 26.2903 32.8852 26.1545C33.1156 25.7819 33.2947 25.3772 33.5124 24.9497V24.9492ZM10.3513 15.6284C10.4831 15.8868 10.5922 16.1352 10.7351 16.3626C10.7894 16.4489 10.9271 16.5445 11.0169 16.5358C11.3921 16.4996 11.7643 16.4297 12.1353 16.3614C12.2019 16.3492 12.259 16.2874 12.325 16.2448C11.4014 15.3439 11.2573 15.3083 10.3507 15.6284H10.3513ZM9.02748 15.6465C8.26261 15.327 7.75446 15.4663 7.3309 16.0839C7.23288 16.2267 7.24047 16.3329 7.40266 16.3679C7.75212 16.4437 8.10626 16.5072 8.46156 16.541C8.55199 16.5498 8.69784 16.4507 8.74393 16.3626C8.85887 16.1422 8.93121 15.899 9.02748 15.6459V15.6465ZM24.6759 27.0111C24.6602 27.0344 24.6438 27.0577 24.6281 27.0811C25.1922 27.7528 25.7552 28.4263 26.6584 28.817C26.4087 28.298 26.1981 27.8578 25.9834 27.4193C25.9594 27.3709 25.9192 27.3067 25.8748 27.2957C25.4764 27.1948 25.0756 27.1044 24.6753 27.0111H24.6759ZM9.66048 16.653L9.66165 16.6652C9.82442 16.6483 9.99478 16.6548 10.1459 16.604C10.2136 16.5813 10.3017 16.4163 10.2777 16.362C10.1721 16.1276 10.0432 15.8996 9.89327 15.6897C9.7795 15.5299 9.54205 15.5631 9.44462 15.7404C9.36177 15.8914 9.29935 16.0535 9.23517 16.2145C9.08348 16.5941 9.11849 16.6413 9.54497 16.653C9.58347 16.6542 9.62198 16.653 9.66048 16.653ZM25.6648 12.6049C25.8293 12.6545 25.9904 12.7146 26.1572 12.7501C26.3462 12.791 26.5405 12.8049 26.7307 12.8393C27.086 12.9041 27.2044 12.8172 27.2546 12.4457C26.9862 12.3699 26.7132 12.3058 26.4495 12.2154C26.1047 12.0964 25.82 12.2253 25.6648 12.6049ZM32.2446 27.0583C32.2318 27.0286 32.2183 26.9988 32.2055 26.9691C31.95 27.0362 31.6927 27.0991 31.4395 27.1755C31.3934 27.1895 31.3555 27.2543 31.3292 27.3038C31.1507 27.6379 30.9757 27.9738 30.7592 28.3867C31.3771 28.0007 31.8712 27.5965 32.2452 27.0583H32.2446ZM30.9506 12.6446C30.9611 12.6178 30.9716 12.5904 30.9821 12.5635C30.8706 12.4831 30.7464 12.4154 30.6501 12.3198C30.3234 11.9932 30.0031 12.2416 29.6846 12.3262C29.6501 12.3355 29.6064 12.4714 29.6303 12.511C29.7341 12.6831 29.8386 12.8697 30.0999 12.8125C30.3823 12.7507 30.667 12.7 30.9506 12.6446ZM26.8351 11.8329L26.8462 11.9291C26.9752 11.9571 27.1041 11.9845 27.2325 12.0136C27.6478 12.1075 27.7132 12.0655 27.8328 11.6066C27.4781 11.6294 27.1374 11.6521 26.8351 11.8329ZM29.408 12.9414C29.2377 12.6685 29.1268 12.4399 28.8281 12.5122C28.7598 12.5285 28.6834 12.6527 28.6764 12.7332C28.6712 12.7985 28.7569 12.9227 28.8158 12.9321C28.9897 12.9589 29.17 12.9414 29.4074 12.9414H29.408ZM27.5446 12.9274C27.7295 12.9379 27.8876 12.9647 28.0411 12.9484C28.1222 12.9402 28.1957 12.858 28.2727 12.809C28.1986 12.7181 28.1391 12.5717 28.0469 12.5466C27.782 12.4743 27.6578 12.6615 27.5446 12.9274ZM29.5673 11.9431C29.5737 11.9116 29.5795 11.8807 29.586 11.8492C29.3818 11.7961 29.1776 11.7431 28.9734 11.69C29.1023 12.03 29.3298 12.0055 29.5673 11.9431Z" fill="#072723"/>
</g>
<defs>
<clipPath id="clip0_276_1105">
<rect width="29.0886" height="29.0886" fill="white" transform="translate(5.45605 5.65283)"/>
</clipPath>
</defs>
</svg>
