<svg width="32" height="32" viewBox="0 0 32 32" fill="none" xmlns="http://www.w3.org/2000/svg">
<g clip-path="url(#clip0_10_2)">
<g filter="url(#filter0_d_10_2)">
<g filter="url(#filter1_d_10_2)">
<path d="M15.8523 30.523C23.8732 30.523 30.3754 24.0208 30.3754 15.9999C30.3754 7.97901 23.8732 1.47681 15.8523 1.47681C7.83143 1.47681 1.32922 7.97901 1.32922 15.9999C1.32922 24.0208 7.83143 30.523 15.8523 30.523Z" fill="url(#paint0_linear_10_2)"/>
</g>
<path d="M15.9999 30.7692C24.1568 30.7692 30.7692 24.1568 30.7692 15.9999C30.7692 7.84312 24.1568 1.23071 15.9999 1.23071C7.84312 1.23071 1.23071 7.84312 1.23071 15.9999C1.23071 24.1568 7.84312 30.7692 15.9999 30.7692Z" stroke="#FFFCF5" stroke-width="100"/>
<g filter="url(#filter2_d_10_2)">
<path d="M15.8413 10.3697C15.257 10.3624 14.7094 10.4574 14.1982 10.6545C13.6943 10.8444 13.2818 11.1073 12.9604 11.4432C12.6391 11.7791 12.4785 12.1698 12.4785 12.6153C12.4785 13.163 12.6281 13.5792 12.9276 13.864C13.227 14.1488 13.6286 14.3606 14.1325 14.4993C14.6436 14.6308 15.2132 14.7513 15.8413 14.8608C16.849 15.0214 17.7801 15.288 18.6345 15.6604C19.4962 16.0329 20.1863 16.5295 20.7048 17.1502C21.2306 17.7636 21.4935 18.5194 21.4935 19.4176C21.4935 20.2428 21.2744 20.9768 20.8362 21.6193C20.3981 22.2547 19.8103 22.7695 19.0727 23.1638C18.3425 23.5509 17.5354 23.7955 16.6519 23.8977V26.1214H15.0417V23.8977C14.3041 23.8248 13.603 23.6495 12.9385 23.372C12.2813 23.0944 11.708 22.7257 11.2188 22.2656C10.7295 21.8056 10.3753 21.2725 10.1562 20.6664L12.2922 19.8667C12.4164 20.2172 12.6537 20.5312 13.0042 20.8088C13.362 21.0789 13.7857 21.2907 14.2749 21.4441C14.7715 21.5974 15.2936 21.6741 15.8413 21.6741C16.4255 21.6741 16.9732 21.5792 17.4844 21.3893C18.0029 21.1994 18.4191 20.9365 18.7331 20.6006C19.0545 20.2648 19.2151 19.8704 19.2151 19.4176C19.2151 18.9503 19.0471 18.5669 18.7112 18.2675C18.3826 17.968 17.9591 17.7307 17.4406 17.5555C16.9294 17.3802 16.3962 17.2488 15.8413 17.1611C14.7678 16.9859 13.8039 16.7302 12.9495 16.3944C12.1024 16.0585 11.4306 15.5875 10.934 14.9813C10.4447 14.3752 10.2001 13.5865 10.2001 12.6153C10.2001 11.7901 10.4191 11.0562 10.8573 10.4136C11.2954 9.77093 11.8797 9.2561 12.6099 8.86906C13.3475 8.47472 14.1581 8.23008 15.0417 8.13515V5.87866H16.6519V8.13515C17.3676 8.20818 18.054 8.38344 18.7112 8.66094C19.3757 8.93844 19.9563 9.30722 20.4529 9.76728C20.9495 10.22 21.311 10.7604 21.5373 11.3884L19.3794 12.1662C19.2552 11.8083 19.0179 11.498 18.6674 11.2351C18.3169 10.9649 17.8934 10.7531 17.3967 10.5998C16.9075 10.4464 16.389 10.3697 15.8413 10.3697Z" fill="#FFFCF5"/>
</g>
</g>
</g>
<defs>
<filter id="filter0_d_10_2" x="-98.7693" y="-98.7693" width="229.538" height="229.539" filterUnits="userSpaceOnUse" color-interpolation-filters="sRGB">
<feFlood flood-opacity="0" result="BackgroundImageFix"/>
<feColorMatrix in="SourceAlpha" type="matrix" values="0 0 0 0 0 0 0 0 0 0 0 0 0 0 0 0 0 0 127 0" result="hardAlpha"/>
<feOffset/>
<feGaussianBlur stdDeviation="25"/>
<feComposite in2="hardAlpha" operator="out"/>
<feColorMatrix type="matrix" values="0 0 0 0 0.675749 0 0 0 0 0.384462 0 0 0 0 0.895833 0 0 0 1 0"/>
<feBlend mode="normal" in2="BackgroundImageFix" result="effect1_dropShadow_10_2"/>
<feBlend mode="normal" in="SourceGraphic" in2="effect1_dropShadow_10_2" result="shape"/>
</filter>
<filter id="filter1_d_10_2" x="-28.6708" y="-28.5232" width="89.0461" height="89.0461" filterUnits="userSpaceOnUse" color-interpolation-filters="sRGB">
<feFlood flood-opacity="0" result="BackgroundImageFix"/>
<feColorMatrix in="SourceAlpha" type="matrix" values="0 0 0 0 0 0 0 0 0 0 0 0 0 0 0 0 0 0 127 0" result="hardAlpha"/>
<feOffset/>
<feGaussianBlur stdDeviation="15"/>
<feComposite in2="hardAlpha" operator="out"/>
<feColorMatrix type="matrix" values="0 0 0 0 0 0 0 0 0 0 0 0 0 0 0 0 0 0 0.25 0"/>
<feBlend mode="normal" in2="BackgroundImageFix" result="effect1_dropShadow_10_2"/>
<feBlend mode="normal" in="SourceGraphic" in2="effect1_dropShadow_10_2" result="shape"/>
</filter>
<filter id="filter2_d_10_2" x="10.1562" y="5.87866" width="61.3811" height="40.2427" filterUnits="userSpaceOnUse" color-interpolation-filters="sRGB">
<feFlood flood-opacity="0" result="BackgroundImageFix"/>
<feColorMatrix in="SourceAlpha" type="matrix" values="0 0 0 0 0 0 0 0 0 0 0 0 0 0 0 0 0 0 127 0" result="hardAlpha"/>
<feOffset dx="40" dy="10"/>
<feGaussianBlur stdDeviation="5"/>
<feComposite in2="hardAlpha" operator="out"/>
<feColorMatrix type="matrix" values="0 0 0 0 0 0 0 0 0 0 0 0 0 0 0 0 0 0 0.25 0"/>
<feBlend mode="normal" in2="BackgroundImageFix" result="effect1_dropShadow_10_2"/>
<feBlend mode="normal" in="SourceGraphic" in2="effect1_dropShadow_10_2" result="shape"/>
</filter>
<linearGradient id="paint0_linear_10_2" x1="1.81541" y1="61.0864" x2="31.4725" y2="60.7573" gradientUnits="userSpaceOnUse">
<stop stop-color="#7A8FD9"/>
<stop offset="1" stop-color="#AC62E4"/>
</linearGradient>
<clipPath id="clip0_10_2">
<rect width="32" height="32" fill="white"/>
</clipPath>
</defs>
</svg>
