<svg width="200" height="200" viewBox="0 0 200 200" fill="none" xmlns="http://www.w3.org/2000/svg">
<g clip-path="url(#clip0_98_15)">
<path d="M200 0H0V200H200V0Z" fill="#2A2A2A"/>
<mask id="mask0_98_15" style="mask-type:luminance" maskUnits="userSpaceOnUse" x="53" y="46" width="94" height="108">
<path d="M146.688 46H53.3125V154H146.688V46Z" fill="white"/>
</mask>
<g mask="url(#mask0_98_15)">
<path d="M135.976 105.38V120.796L121.432 129.212L132.148 135.416L146.692 127V105.38H135.976Z" fill="white"/>
<path d="M64.0285 94.6761V79.2041L89.2885 64.5881L85.2605 60.8401L78.5765 58.4121L53.3125 73.0001V94.6761H64.0285Z" fill="white"/>
<path d="M64.0285 120.796V105.38H53.3125V127L67.8565 135.416L78.5965 129.212L64.0245 120.796H64.0285Z" fill="white"/>
<path d="M121.433 129.208L100.001 141.588L78.5974 129.208L71.5414 131.208L67.8574 135.412L100.001 153.996L132.145 135.412L130.457 131.044L121.433 129.208Z" fill="white"/>
<path d="M89.2843 64.584L100 58.408L110.716 64.612L121.456 58.408L100 46L78.5723 58.408L89.2883 64.584H89.2843Z" fill="white"/>
<path d="M121.457 58.408L114.545 59.852L110.717 64.612L135.977 79.204V94.676H146.693V73L121.461 58.408H121.457Z" fill="white"/>
<path d="M100 116.856L85.4281 108.468V91.6119L99.9721 83.1719L114.544 91.5319V108.36L100 116.852V116.856ZM100 129.212L105.344 126.124L119.916 117.656L125.26 114.568V85.3599L119.916 82.2719L105.344 73.8839L100 70.7959L94.6561 73.8839L80.1401 82.3239L74.7441 85.4119V114.676L80.0881 117.764L94.6601 126.124L100.004 129.212H100Z" fill="white"/>
</g>
</g>
<defs>
<clipPath id="clip0_98_15">
<rect width="200" height="200" rx="100" fill="white"/>
</clipPath>
</defs>
</svg>
