<svg width="240" height="240" viewBox="0 0 240 240" fill="none" xmlns="http://www.w3.org/2000/svg">
  <rect width="240" height="240" rx="120" fill="#162F29"/>
  <path d="M211.875 120.492C211.875 121.424 211.862 122.355 211.835 123.287H211.729H167.148V121.251H124.139C124.139 120.825 124.152 120.399 124.152 119.987C124.152 119.574 124.152 119.135 124.139 118.722H167.148V116.7H167.215H211.795C211.848 117.964 211.875 119.228 211.875 120.492ZM123.38 111.324L165.472 106.147L165.725 108.17L210.172 102.7C209.746 100.518 209.24 98.362 208.668 96.2461L164.913 101.636L165.166 103.658L122.874 108.862C123.061 109.687 123.234 110.512 123.38 111.35V111.324ZM121.184 103.179L161.413 93.1321L161.905 95.1017L204.596 84.4424C203.717 82.3797 202.773 80.3436 201.761 78.3608L160.322 88.7141L160.814 90.6836L120.253 100.824C120.586 101.609 120.892 102.394 121.184 103.193V103.179ZM117.618 95.5541L155.225 81.355L155.944 83.258L195.733 68.2338C194.442 66.3441 193.085 64.5077 191.648 62.7245L153.615 77.0833L154.333 78.9863L116.274 93.3584C116.74 94.077 117.192 94.8089 117.618 95.5541ZM112.681 88.5011L145.896 71.1881L146.828 72.9979L183.557 53.8484C181.867 52.2116 180.11 50.6546 178.3 49.1509L143.781 67.1426L144.712 68.9524L110.938 86.5582C111.523 87.197 112.109 87.8358 112.668 88.5011H112.681ZM104.67 80.8892L134.745 61.7664L135.836 63.483L169.025 42.3773C166.936 41.0466 164.806 39.809 162.611 38.6512L132.309 57.9205L133.401 59.6372L102.461 79.3056C103.219 79.8113 103.951 80.3436 104.683 80.8892H104.67ZM97.5635 76.4445L122.768 55.778L124.059 57.3483L152.444 34.0601C150.035 33.1419 147.56 32.3169 145.058 31.5983L119.88 52.2515L121.171 53.8218L95.0484 75.2469C95.9001 75.6195 96.7385 76.0187 97.5635 76.4445ZM88.1551 72.785L108.063 52.9701L109.487 54.4073L134.785 29.2694C132.043 28.817 129.262 28.4843 126.441 28.2714L104.869 49.7364L106.293 51.1736L85.2674 72.093C86.2389 72.2926 87.197 72.5188 88.1551 72.785ZM77.1498 71.1215L93.0257 51.8789L94.596 53.1697L115.263 28.125C112.122 28.2714 109.021 28.5775 105.974 29.0299L89.5125 48.9779L91.0828 50.2687L73.8895 71.1082C74.3686 71.0949 74.8609 71.0816 75.34 71.0816C75.9522 71.0816 76.551 71.0816 77.1498 71.1082V71.1215ZM67.635 71.6938L79.8646 52.7705L81.5679 53.875L96.3526 30.9861C92.9725 31.8644 89.6722 32.929 86.4518 34.1666L76.0453 50.282L77.7487 51.3865L64.2016 72.3591C65.3328 72.093 66.4772 71.8668 67.635 71.6805V71.6938ZM57.0688 74.6347L65.8651 58.1467L67.6483 59.1049L79.2923 37.2939C75.5529 39.117 71.9599 41.1797 68.5266 43.4685L61.8329 56.0042L63.6294 56.9624L53.2762 76.3647C54.5005 75.7392 55.7647 75.167 57.0555 74.648L57.0688 74.6347ZM49.4835 78.5072L53.2229 67.8878L55.1392 68.5665L62.4051 47.9399C58.719 50.8675 55.259 54.0613 52.0519 57.508L48.9246 66.3841L50.8409 67.0628L45.9437 80.9558C47.0882 80.0908 48.2593 79.279 49.4702 78.5205L49.4835 78.5072Z" fill="white"/>
</svg>
