<svg width="120" height="120" viewBox="0 0 120 120" fill="none" xmlns="http://www.w3.org/2000/svg">
<g clip-path="url(#clip0_2_19113)">
<path d="M59.9982 119.996C93.1344 119.996 119.996 93.1344 119.996 59.9982C119.996 26.8621 93.1344 0 59.9982 0C26.8621 0 0 26.8621 0 59.9982C0 93.1344 26.8621 119.996 59.9982 119.996Z" fill="#0E3FC7"/>
<path d="M23.7235 31.3172C24.0814 31.3172 24.4182 31.1558 24.6497 30.8821C33.0981 20.7532 45.8058 14.2941 59.9975 14.2941C74.1892 14.2941 86.8969 20.7532 95.3453 30.8821C95.5733 31.1558 95.9137 31.3172 96.2715 31.3172H98.8959C99.2783 31.3172 99.4993 30.8786 99.2677 30.5734C90.2615 18.7078 76.0101 11.0312 59.9975 11.0312C43.9849 11.0312 29.737 18.7078 20.7273 30.5734C20.4957 30.8786 20.7167 31.3172 21.0992 31.3172H23.7235Z" fill="white"/>
<path d="M96.7642 88.7109C96.3993 88.7109 96.0555 88.8793 95.8275 89.1635C87.3861 99.6293 74.4574 106.334 59.9955 106.334C45.5336 106.334 32.6084 99.6293 24.1636 89.1635C23.9355 88.8793 23.5917 88.7109 23.2268 88.7109H20.6481C20.2692 88.7109 20.0446 89.1425 20.2692 89.4477C29.2473 101.657 43.7092 109.593 59.992 109.593C76.2748 109.593 90.7367 101.654 99.7148 89.4477C99.9394 89.1425 99.7148 88.7109 99.3359 88.7109H96.7572H96.7642Z" fill="white"/>
<path d="M57.5174 70.5429C55.8579 70.5429 54.2195 70.2412 52.5986 69.6342C50.9777 69.0308 49.5322 68.1887 48.2656 67.1151L51.0759 63.4558C52.3249 64.4697 53.4757 65.1995 54.5317 65.6381C55.5878 66.0766 56.707 66.2977 57.8999 66.2977C58.6787 66.2977 59.3454 66.2205 59.8892 66.0626C60.4365 65.9082 60.854 65.6767 61.1487 65.3749C61.4399 65.0732 61.5873 64.7153 61.5873 64.3048C61.5873 63.74 61.3732 63.3014 60.9417 62.9857C60.5137 62.6734 59.7804 62.4278 58.7454 62.2524L54.237 61.463C52.5775 61.1718 51.2969 60.5368 50.4023 59.5614C49.5041 58.5861 49.055 57.3476 49.055 55.8424C49.055 54.5162 49.3918 53.3725 50.0655 52.4147C50.7391 51.4569 51.7039 50.7271 52.9635 50.2184C54.223 49.7096 55.7211 49.457 57.4578 49.457C58.9805 49.457 60.5137 49.7167 62.0539 50.2324C63.5941 50.7481 64.9343 51.4674 66.0641 52.3831L63.3976 56.1021C61.289 54.4812 59.191 53.6707 57.1034 53.6707C56.4193 53.6707 55.8299 53.7444 55.3317 53.8917C54.8335 54.0391 54.4546 54.2426 54.1879 54.5057C53.9248 54.7688 53.7915 55.0881 53.7915 55.4565C53.7915 55.9652 53.9809 56.3547 54.3633 56.6283C54.7458 56.902 55.3632 57.116 56.2228 57.2739L60.4681 57.9756C62.4398 58.2878 63.9379 58.9404 64.9624 59.9368C65.9869 60.9332 66.4991 62.2208 66.4991 63.8031C66.4991 65.189 66.1377 66.3854 65.415 67.3888C64.6923 68.3957 63.6573 69.1711 62.31 69.7184C60.9628 70.2657 59.3629 70.5394 57.5069 70.5394L57.5174 70.5429Z" fill="white"/>
<path d="M50.5715 39.5191H45.579C42.1652 39.5191 38.9795 41.2348 37.099 44.0836L31.5451 52.504L23.2265 40.6769C22.7143 39.9472 21.8793 39.5156 20.9881 39.5156H14.3747C13.3292 39.5156 12.7152 40.6945 13.3186 41.5505L25.7035 59.1314L16.5464 72.425C14.7817 74.9546 13.7397 76.6001 12.3994 77.8456C11.7854 78.4175 11.1785 78.8876 10.6312 79.263C10.0768 79.6454 10.3435 80.512 11.0171 80.512H16.0096C19.4234 80.512 22.6091 78.7964 24.4896 75.9475L30.7838 66.401L39.9303 79.3577C40.4426 80.084 41.2776 80.5155 42.1652 80.5155H48.7857C49.8312 80.5155 50.4452 79.3367 49.8418 78.4806L36.6604 59.7735L45.0422 47.6097C46.8069 45.08 47.8489 43.4346 49.1892 42.1891C49.8032 41.6172 50.4101 41.1471 50.9574 40.7717C51.5118 40.3892 51.2451 39.5226 50.5715 39.5226V39.5191Z" fill="white"/>
<path d="M79.6573 70.5752C78.1135 70.5752 76.6786 70.3051 75.3524 69.7718C74.0262 69.235 72.8579 68.4842 71.8544 67.5158C70.8475 66.551 70.0686 65.4283 69.5108 64.1477C68.9529 62.8706 68.6758 61.4883 68.6758 60.0042C68.6758 58.5201 68.9529 57.1378 69.5108 55.8607C70.0686 54.5836 70.837 53.4609 71.8229 52.4926C72.8088 51.5277 73.9665 50.7769 75.2927 50.2366C76.6189 49.6998 78.0469 49.4297 79.5696 49.4297C81.3062 49.4297 82.9482 49.7876 84.4884 50.4998C86.0286 51.212 87.2882 52.1944 88.267 53.4434L84.7235 56.6361C84.0604 55.7765 83.292 55.1345 82.4254 54.7029C81.5553 54.2749 80.6046 54.0574 79.5696 54.0574C78.7486 54.0574 77.9943 54.2082 77.2996 54.5099C76.6049 54.8117 76.0015 55.2257 75.4857 55.7554C74.97 56.2817 74.5665 56.9062 74.2858 57.629C74.0016 58.3517 73.8613 59.1411 73.8613 60.0007C73.8613 60.8603 74.0086 61.6567 74.2998 62.3865C74.5911 63.1197 75.0086 63.7547 75.5454 64.2915C76.0822 64.8283 76.7067 65.2494 77.4189 65.5511C78.1311 65.8528 78.9065 66.0037 79.7485 66.0037C80.5905 66.0037 81.2747 65.8668 81.9308 65.5932C82.5833 65.3195 83.1447 64.9406 83.6148 64.4494C84.085 63.9617 84.4148 63.4039 84.6112 62.7794H79.0784V58.4149H90.0599V59.8779C90.0599 61.4216 89.8002 62.839 89.2845 64.1372C88.7688 65.4353 88.046 66.5685 87.1163 67.5334C86.19 68.4982 85.0919 69.2455 83.8218 69.7753C82.5518 70.3015 81.1659 70.5647 79.6643 70.5647L79.6573 70.5752Z" fill="white"/>
<path d="M93.3008 70.2543V49.7578H101.616C103.139 49.7578 104.552 50.0209 105.861 50.5472C107.17 51.0735 108.317 51.8068 109.303 52.7435C110.289 53.6803 111.061 54.7749 111.615 56.0239C112.173 57.2729 112.45 58.6202 112.45 60.0657C112.45 61.5112 112.173 62.8198 111.615 64.0478C111.057 65.2793 110.289 66.3564 109.303 67.2826C108.317 68.2088 107.17 68.9386 105.861 69.4649C104.552 69.9911 103.139 70.2543 101.616 70.2543H93.3008ZM98.3354 65.802H101.497C102.296 65.802 103.044 65.6547 103.735 65.3635C104.426 65.0723 105.037 64.6618 105.566 64.132C106.093 63.6057 106.503 62.9952 106.798 62.3006C107.089 61.6094 107.236 60.8621 107.236 60.0622C107.236 59.2622 107.089 58.4763 106.798 57.7641C106.507 57.0519 106.096 56.4309 105.566 55.9046C105.04 55.3784 104.43 54.9644 103.735 54.6591C103.04 54.3574 102.296 54.2065 101.497 54.2065H98.3354V65.802Z" fill="white"/>
</g>
<defs>
<clipPath id="clip0_2_19113">
<rect width="120" height="120" fill="white"/>
</clipPath>
</defs>
</svg>
