<svg xmlns="http://www.w3.org/2000/svg" width="24" height="24" viewBox="0 0 24 24" fill="none">
  <path d="M12.0254 0.599976C18.7619 0.600144 24.7739 4.28999 23.1084 8.63611C23.0801 8.59963 19.3139 3.7701 12.0254 3.7699C7.34108 3.7699 3.38108 5.91995 3.38086 8.47791C3.38086 8.85472 3.46837 9.222 3.62988 9.57556C5.83764 8.20108 8.81575 7.4145 11.9736 7.41443C18.7105 7.41443 23.999 10.878 23.999 15.2924C23.9989 19.7066 18.7104 23.1703 11.9736 23.1703C5.23714 23.1701 -0.774859 19.4803 0.890625 15.1342C0.920617 15.1728 4.68673 20.0002 11.9736 20.0004C16.6579 20.0004 20.6179 17.8503 20.6182 15.2924C20.6182 14.9151 20.53 14.5476 20.3682 14.1937C18.1604 15.5681 15.1832 16.3558 12.0254 16.3558C5.28849 16.3558 0 12.8922 0 8.47791C0.000170019 4.06367 5.2886 0.599976 12.0254 0.599976ZM11.9736 10.5834C9.79176 10.5834 7.69675 11.056 6.10352 11.8734C7.66416 12.6822 9.7599 13.1869 12.0254 13.1869C14.2071 13.1868 16.3014 12.7132 17.8945 11.8959C16.334 11.0874 14.2386 10.5834 11.9736 10.5834Z" fill="black"/>
</svg>
