<svg width="150" height="150" viewBox="0 0 150 150" fill="none" xmlns="http://www.w3.org/2000/svg">
<path fill-rule="evenodd" clip-rule="evenodd" d="M75 0C116.4 0 150 33.6 150 75C150 116.4 116.4 150 75 150C33.6 150 0 116.4 0 75C0 33.6 33.6 0 75 0Z" fill="#131313"/>
<path d="M49.1999 32.7999C48.5999 33.0999 47.7999 33.5999 47.8999 33.5999C48.9666 34.1999 50.0332 34.7666 51.0999 35.2999C53.3999 36.5999 55.5999 37.8999 57.7999 39.1999C60.1999 40.5999 62.5999 41.9999 64.9999 43.3999C68.1332 45.1999 71.2666 46.9999 74.3999 48.7999C74.6999 48.9999 75.2999 48.9999 75.5999 48.8999C78.1332 47.4332 80.6666 45.9666 83.1999 44.4999C83.9332 44.0332 84.6666 43.5999 85.3999 43.1999C86.3332 42.6666 87.2666 42.0999 88.1999 41.4999C90.5332 40.1666 92.8666 38.8332 95.1999 37.4999C96.2666 36.8999 97.2999 36.2999 98.2999 35.6999C99.2999 35.1666 100.267 34.6332 101.2 34.0999C102 33.5999 102 33.4999 101.1 32.9999C99.6999 32.1999 98.2999 31.3666 96.8999 30.4999C95.4999 29.5999 93.8999 29.3999 92.4999 30.1999C88.6999 32.1999 84.8999 34.2666 81.0999 36.3999C79.2332 37.4666 77.3332 38.4999 75.3999 39.4999C75.1999 39.6999 74.7999 39.7999 74.5999 39.5999C72.3332 38.3332 70.0332 37.0332 67.6999 35.6999C64.5666 33.8999 61.3999 32.1332 58.1999 30.3999C56.7999 29.5999 55.1999 29.3999 53.5999 30.2999C52.4666 30.8999 51.3332 31.5332 50.1999 32.1999C49.9999 32.3332 49.7666 32.4666 49.4999 32.5999C49.3666 32.6666 49.2666 32.7332 49.1999 32.7999Z" fill="#FF5C00"/>
<path d="M75.0999 51.2001C74.3999 51.2001 73.7999 51.0001 73.2999 50.7001C70.1999 49.0001 67.1999 47.2001 64.1999 45.4001H64.0999L63.7999 45.2001C61.4999 43.8001 59.0999 42.4001 56.6999 41.1001C54.4999 39.8001 52.2999 38.6001 49.9999 37.3001V37.2001C48.9999 36.6668 47.9999 36.1001 46.9999 35.5001C46.3999 35.3001 45.9999 34.8001 45.7999 34.1001C45.6999 33.8001 45.4999 32.5001 46.7999 31.7001C46.9332 31.5668 47.0665 31.4668 47.1999 31.4001C47.4999 31.2001 47.7999 31.1001 48.0999 30.9001C48.2332 30.8334 48.3332 30.7668 48.3999 30.7001L49.1999 30.3001C50.2665 29.6334 51.3665 28.9668 52.4999 28.3001C54.6999 27.2001 57.0999 27.2001 59.2999 28.5001C62.4999 30.2001 65.6999 32.1001 68.7999 33.8001C70.7999 35.0001 72.8999 36.2001 74.9999 37.3001C76.7332 36.3668 78.4332 35.4334 80.0999 34.5001C83.7999 32.4001 87.5999 30.3001 91.3999 28.2001C93.4999 27.2001 95.8999 27.3001 98.0999 28.6001C99.2999 29.4001 100.7 30.2001 102.2 31.1001C102.8 31.4001 104 32.1001 104 33.6001C104 35.0001 102.8 35.7001 102.3 36.0001C101.3 36.5334 100.333 37.0668 99.3999 37.6001L99.2999 37.7001C98.2999 38.2001 97.2999 38.8001 96.2999 39.4001C93.9999 40.7001 91.5999 42.1001 89.3999 43.4001H89.2999C88.3665 44.0001 87.4332 44.5668 86.4999 45.1001C85.7665 45.5001 85.0332 45.9334 84.2999 46.4001H84.1999C81.6999 47.9001 79.1999 49.3001 76.6999 50.8001C76.1999 51.0001 75.5999 51.2001 75.0999 51.2001ZM65.9999 41.4001L66.0999 41.5001C68.9999 43.2001 71.9999 44.9001 74.9999 46.7001C77.3999 45.3001 79.7999 43.9001 82.0999 42.6001C82.8332 42.1334 83.5665 41.7001 84.2999 41.3001C85.2332 40.7668 86.1665 40.2334 87.0999 39.7001V39.6001C89.3999 38.3001 91.7999 36.9001 94.0999 35.6001C95.1665 35.0001 96.1999 34.4001 97.1999 33.8001H97.2999C97.4332 33.7334 97.5665 33.6334 97.6999 33.5001C97.0332 33.1001 96.3999 32.7334 95.7999 32.4001C94.9332 31.8668 94.1665 31.7668 93.4999 32.1001C89.6999 34.1001 85.8999 36.3001 82.1999 38.3001C80.3332 39.3668 78.4332 40.4334 76.4999 41.5001C75.7999 41.9001 74.5999 42.1001 73.5999 41.6001C71.2999 40.3001 68.8999 38.9001 66.6999 37.7001L66.5999 37.6001C63.4999 35.9001 60.2999 34.1001 57.1999 32.3001C55.9999 31.6001 55.1999 31.9001 54.6999 32.2001C53.8999 32.6001 53.0999 33.0334 52.2999 33.5001C54.5999 34.8001 56.6999 36.0001 58.8999 37.3001C61.1999 38.6001 63.5999 40.0001 65.9999 41.4001Z" fill="#FF5C00"/>
<path d="M71.0999 105.4C71.0999 106.6 71.0999 107.8 71.0999 109C71.0999 110.266 71.0999 111.533 71.0999 112.8C71.0999 116.1 71.0999 119.4 71.0999 122.6C70.9999 123.9 71.5 124.5 72.4 125C72.6 125.066 72.7666 125.166 72.9 125.3C73.4333 125.566 73.9999 125.833 74.5999 126.1C74.7999 126.3 75.2 126.3 75.5 126.2C75.9 125.933 76.2999 125.7 76.6999 125.5C77.0999 125.233 77.5333 124.966 78 124.7C78.7 124.4 78.9 123.9 79 123C79.1 119.3 79 115.5 79 111.7C78.9 105.2 78.8 98.6998 79.4 92.1998C79.5 91.1998 79.6 90.1998 79.9 89.1998C80.5666 86.9331 81.3333 84.6998 82.1999 82.4998C83.6999 78.4998 86.1 74.8998 88.9 71.5998C91.7 68.2998 95 65.3998 98.9 63.1998C100.233 62.3998 101.567 61.6331 102.9 60.8998C105.167 59.5665 107.433 58.2331 109.7 56.8998C113.567 54.6331 117.467 52.3998 121.4 50.1998C121.8 49.8998 122.1 49.6998 122.1 48.9998C122.033 48.5331 122.033 48.0665 122.1 47.5998C122.1 46.9331 122.067 46.2998 122 45.6998C122 45.2998 121.7 44.8998 121.4 44.6998C120.6 44.1665 119.767 43.6998 118.9 43.2998C118.6 43.0998 118.1 42.9998 117.8 43.1998C115.667 44.3998 113.533 45.6331 111.4 46.8998C110.333 47.4998 109.233 48.1331 108.1 48.7998C106.967 49.4665 105.833 50.1331 104.7 50.7998C102.433 52.0665 100.2 53.3331 98 54.5998L97.8 54.7998C95.1 56.3998 92.5 57.9998 90 59.7998C87 62.0998 84.4 64.6998 82 67.6998C79.3 70.9998 77 74.5998 75.4 78.4998C75.3 78.6998 75.1 78.8998 75 78.8998C74.9 78.7998 74.6999 78.5998 74.6999 78.4998C74.6333 78.4331 74.5999 78.3665 74.5999 78.2998C74.5999 78.1665 74.5666 78.0665 74.5 77.9998C72.5 73.8998 70.0999 69.9998 67.0999 66.4998C62.9999 61.6998 58 57.9998 52.5 54.8998C48 52.3998 43.6 49.8998 39.3 47.2998C36.9666 45.8998 34.6333 44.5331 32.3 43.1998C32 42.9998 31.5 42.9998 31.2 43.1998C30.3333 43.5998 29.5 44.0665 28.7 44.5998C28.3 44.8998 28.1 45.2998 28 45.6998C27.9333 46.8331 27.9333 47.9665 28 49.0998C28.1 49.5998 28.4 49.9998 28.7 50.1998C30.2333 51.0665 31.7333 51.9331 33.2 52.7998C34.3333 53.3998 35.5 54.0331 36.7 54.6998C38.4333 55.6998 40.1333 56.7331 41.8 57.7998C44.7 59.4998 47.6999 61.1998 50.5999 62.8998C55.6999 65.6998 59.8999 69.5998 63.2999 74.2998C66.6999 78.7998 68.8999 83.7998 70.1999 89.2998C70.6999 91.6998 70.9 94.2998 71 96.6998C71.1 99.5998 71.0999 102.5 71.0999 105.4Z" fill="#FF5C00"/>
<path d="M75.1 128.4C74.5 128.4 74 128.3 73.7 128.1C73.0333 127.833 72.4 127.533 71.8 127.2L71.7 127.1C71.6333 127.033 71.5333 126.966 71.4 126.9C69.6 126 68.8 124.6 68.9 122.6C68.9 119.3 68.9 116 68.9 112.8C68.9 111.533 68.9 110.266 68.9 109C68.9 107.8 68.9 106.6 68.9 105.4V105.3C68.9 102.5 68.9 99.6998 68.8 96.7998C68.7 94.0998 68.5 91.7998 68 89.7998C66.8 84.5998 64.7 79.7998 61.6 75.5998C58.2 70.9998 54.1 67.3998 49.5 64.7998C46.6 63.0998 43.6 61.3998 40.7 59.6998V59.5998C39 58.5998 37.3 57.5998 35.6 56.5998C34.4 55.9998 33.3 55.2998 32.1 54.6998C30.6 53.7998 29.1 52.9998 27.6 52.0998C26.6 51.4998 25.9 50.3998 25.8 49.2998C25.7333 48.0998 25.7333 46.8332 25.8 45.4998C25.9 44.4998 26.5 43.4998 27.4 42.8998C28.2667 42.2332 29.2333 41.6665 30.3 41.1998C31.2 40.6998 32.5 40.7998 33.4 41.2998C35.8 42.6998 38.1 44.0998 40.4 45.3998C44.7 47.8998 49.1 50.4998 53.5 52.9998C59.6 56.2998 64.6 60.2998 68.8 65.0998C71.1 67.7998 73.2 70.7998 75 74.1998C76.4 71.5998 78.2 68.9998 80.3 66.2998C83 62.9998 85.7 60.2998 88.7 58.0998C91.2 56.1998 94 54.4998 96.6 52.8998L96.9 52.7998C99.1 51.3998 101.4 50.0998 103.6 48.8998C104.7 48.1998 105.9 47.5998 107 46.8998C108.133 46.2998 109.233 45.6665 110.3 44.9998C112.4 43.7998 114.6 42.4998 116.8 41.2998C117.8 40.6998 119 40.8998 119.9 41.2998C120.967 41.8332 121.9 42.3665 122.7 42.8998C123.5 43.3998 124.1 44.4998 124.2 45.4998C124.267 46.2332 124.267 46.9332 124.2 47.5998C124.2 48.0665 124.233 48.5332 124.3 48.9998V49.0998C124.3 50.9998 122.9 51.7998 122.5 52.0998C119 54.0998 115.3 56.1998 110.8 58.7998C108.6 60.0665 106.367 61.3665 104.1 62.6998L104 62.7998C102.667 63.5332 101.333 64.2998 100 65.0998C96.5 67.0998 93.3 69.7998 90.5 73.0998C87.6 76.4998 85.5 79.8998 84.2 83.2998C83.5 85.2998 82.7 87.4998 82 89.8998C81.8 90.5998 81.7 91.4998 81.6 92.3998C81 98.7998 81.1 105.3 81.2 111.7C81.2 115.4 81.2 119.3 81.2 123.1C81.1 123.7 81.1 125.7 79 126.7C78.6 126.9 78.2 127.133 77.8 127.4C77.4 127.666 76.9333 127.9 76.4 128.1C76 128.3 75.5 128.4 75.1 128.4ZM74.1 123.4C74.4333 123.6 74.7333 123.766 75 123.9C75.2 123.833 75.3667 123.733 75.5 123.6C75.9 123.333 76.3333 123.1 76.8 122.9C76.9 119.2 76.8 115.4 76.8 111.7C76.7 105.3 76.6 98.5998 77.2 91.9998C77.3 90.8998 77.5 89.6998 77.8 88.5998C78.6 86.0998 79.3 83.8998 80.1 81.7998C81.6 77.8998 83.9 74.0998 87.2 70.1998C90.3 66.5998 93.8 63.5998 97.8 61.2998C99.0667 60.5665 100.367 59.7998 101.7 58.9998L101.9 58.8998C104.167 57.5665 106.4 56.2665 108.6 54.9998C112.9 52.4998 116.5 50.3998 119.9 48.4998C119.9 48.1665 119.9 47.8665 119.9 47.5998C119.9 47.1332 119.9 46.6998 119.9 46.2998C119.433 46.0332 118.9 45.7332 118.3 45.3998C116.4 46.4998 114.4 47.6998 112.5 48.7998C111.433 49.3998 110.333 50.0332 109.2 50.6998C108.067 51.3665 106.9 52.0332 105.7 52.6998C103.6 53.8998 101.3 55.1998 99.1 56.4998L98.9 56.6998C96.3 58.1998 93.7 59.7998 91.3 61.5998C88.6 63.5998 86.2 65.9998 83.7 69.0998C80.9 72.5998 78.8 75.9998 77.4 79.3998C77.1 80.2998 76.1 81.0998 74.9 80.9998C74 80.9998 73.2 80.4998 72.7 79.5998C72.6 79.2998 72.5 78.9998 72.5 78.7998C70.4 74.5998 68.1 70.9998 65.5 67.9998C61.7 63.5998 57.1 59.8998 51.4 56.7998C46.9 54.3998 42.5 51.6998 38.2 49.1998C36 47.8998 33.8 46.5998 31.7 45.3998C31.1667 45.6665 30.6667 45.9665 30.2 46.2998C30.1333 47.0332 30.1333 47.7665 30.2 48.4998C31.5 49.2998 32.9 50.0998 34.3 50.8998C35.4333 51.4998 36.6 52.1332 37.8 52.7998C39.5 53.7998 41.2 54.8998 42.9 55.8998H43C45.8 57.5998 48.8 59.2998 51.7 60.9998C56.8 63.8998 61.3 67.8998 65.1 72.9998C68.6 77.6998 71 82.9998 72.3 88.7998C72.8 91.1998 73.1 93.6998 73.2 96.6998C73.3 99.5998 73.3 102.5 73.3 105.4V105.5C73.3 105.9 73.3 106.333 73.3 106.8V109C73.3 110.266 73.3 111.5 73.3 112.7C73.3 116 73.3 119.4 73.2 122.7C73.2 122.833 73.2333 122.933 73.3 123C73.3 123 73.3667 123.033 73.5 123.1C73.6333 123.166 73.7667 123.233 73.9 123.3L74.1 123.4Z" fill="#FF5C00"/>
<path d="M94.6 115.1C94.5 115.4 94.4 103 94.7 97.0999C95 91.5999 96.9 86.5999 100.5 82.2999C102.9 79.2999 106 77.1999 109.2 75.3999C110.333 74.7332 111.467 74.0665 112.6 73.3999C115.533 71.6665 118.467 69.9665 121.4 68.2999C121.533 68.2332 121.667 68.1999 121.8 68.1999C121.9 68.0999 122.1 68.1999 122.1 68.3999C122.1 68.9332 122.1 69.4332 122.1 69.8999C122.1 71.3999 122.1 72.8999 122 74.3999C122 75.0999 121.8 75.9999 121.4 76.5999C120.8 77.2999 120.1 77.9999 119.3 78.4999C118.033 79.2332 116.767 79.9665 115.5 80.6999C113.6 81.7999 111.7 82.8999 109.8 84.0999C106.6 86.1999 104.5 89.2999 103.3 92.9999C102.7 94.7999 102.5 96.6999 102.5 98.4999C102.5 99.8332 102.5 101.133 102.5 102.4C102.5 103.933 102.5 105.467 102.5 107C102.5 109.5 99.9 112 99.3 112.5C99.0333 112.633 98.8 112.767 98.6 112.9C98 113.4 97.8 113.5 94.6 115.1Z" fill="#FF5C00"/>
<path d="M96.4 116.7C96.2 116.833 96 116.933 95.8 117C95.3 117.3 94.7 117.4 94.2 117.3C93.9 117.2 92.5 116.8 92.4 115.1C92.4 115.033 92.4 114.9 92.4 114.7C92.4 114.3 92.4 113.8 92.4 113.2C92.4 111.8 92.3 110.1 92.3 108.3C92.3 106.1 92.3 100.6 92.5 96.9999C92.8 90.9999 94.9 85.5999 98.8 80.8999C101.6 77.4999 105 75.1999 108.1 73.4999L111.5 71.4999C114.433 69.7666 117.367 68.0666 120.3 66.3999C120.7 66.1999 121.1 66.0999 121.3 65.9999C121.9 65.8999 122.5 65.9999 123 66.2999C123.8 66.6999 124.2 67.4999 124.2 68.3999C124.267 68.8666 124.3 69.3666 124.3 69.8999C124.3 71.3999 124.3 72.9999 124.2 74.4999C124.2 75.6999 123.8 76.9999 123.1 77.7999C122.4 78.7999 121.5 79.6999 120.4 80.3999C119.133 81.1332 117.833 81.8666 116.5 82.5999C114.7 83.6999 112.8 84.7999 111 85.8999C108.3 87.6999 106.4 90.2999 105.4 93.6999C104.9 95.1999 104.7 96.7999 104.7 98.4999C104.7 99.8332 104.7 101.133 104.7 102.4V102.5C104.7 103.9 104.7 105.5 104.7 107C104.8 110.6 101.4 113.6 100.5 114.3C100.3 114.4 100.1 114.6 99.9 114.7C99.2 115.2 98.9 115.4 96.4 116.7ZM119.9 71.6999C117.833 72.8999 115.767 74.0999 113.7 75.2999L110.3 77.2999C107.4 78.8999 104.5 80.7999 102.2 83.6999C98.9 87.5999 97.1 92.1999 96.9 97.1999C96.7 101 96.7 107.6 96.7 111.5C97 111.4 97.1 111.3 97.3 111.2C97.5 111 97.7 110.9 98 110.7C98.6 110.3 100.3 108.4 100.3 107C100.3 105.5 100.3 103.9 100.3 102.4C100.3 101.133 100.3 99.8666 100.3 98.5999C100.3 96.2999 100.6 94.2999 101.2 92.2999C102.6 87.9999 105.1 84.5999 108.6 82.2999C110.5 80.9999 112.5 79.8999 114.4 78.7999C115.6 78.0999 116.9 77.3999 118.1 76.5999C118.7 76.2999 119.2 75.7999 119.6 75.2999C119.7 75.0999 119.8 74.6999 119.8 74.2999C119.867 73.4332 119.9 72.5666 119.9 71.6999Z" fill="#FF5C00"/>
<path d="M56.7001 115.1C53.5001 113.5 53.4001 113.4 52.7001 112.9C52.5667 112.767 52.3667 112.633 52.1 112.5C51.4 112 48.8001 109.5 48.9001 107C48.9001 105.467 48.9001 103.933 48.9001 102.4C48.9001 101.133 48.9001 99.8332 48.9001 98.4999C48.9001 96.6999 48.7 94.7999 48.1 92.9999C46.9 89.2999 44.8 86.1999 41.5 84.0999C39.7 82.8999 37.8001 81.7999 35.9001 80.6999C34.6334 79.9665 33.3667 79.2332 32.1 78.4999C31.3 77.9999 30.6 77.2999 30 76.5999C29.6 75.9999 29.4 75.0999 29.3 74.3999C29.3 72.8999 29.3 71.3999 29.3 69.8999C29.3 69.4332 29.3 68.9332 29.3 68.3999C29.3 68.1999 29.4 68.0999 29.6 68.1999C29.7334 68.1999 29.8334 68.2332 29.9 68.2999C32.8334 69.9665 35.8 71.6665 38.8 73.3999C39.9334 74.0665 41.0667 74.7332 42.2001 75.3999C45.4001 77.1999 48.5001 79.2999 50.9001 82.2999C54.5001 86.5999 56.4001 91.5999 56.7001 97.0999C56.9001 103 56.8001 115.4 56.7001 115.1Z" fill="#FF5C00"/>
<path d="M55.0001 116.7C52.4001 115.4 52.2001 115.2 51.4001 114.7C51.2668 114.567 51.1001 114.433 50.9001 114.3C50.0001 113.6 46.6001 110.6 46.7001 107C46.7001 105.5 46.7001 103.9 46.7001 102.5V102.4C46.7001 101.133 46.7001 99.8332 46.7001 98.4999C46.7001 96.7999 46.5001 95.1999 46.0001 93.6999C44.9001 90.2999 43.0001 87.6999 40.3001 85.8999C38.6001 84.7999 36.7001 83.6999 34.8001 82.5999C33.5334 81.8666 32.2668 81.1332 31.0001 80.3999C29.9001 79.6999 28.9001 78.7999 28.2001 77.7999C27.6001 76.9999 27.2001 75.6999 27.1001 74.4999C27.1001 72.9999 27.1001 71.3999 27.1001 69.8999C27.1001 69.3666 27.1001 68.8666 27.1001 68.3999C27.1001 67.4999 27.6001 66.6999 28.3001 66.2999C28.9001 65.9999 29.5001 65.8999 30.1001 65.9999C30.3001 66.0999 30.7001 66.1999 31.0001 66.3999C33.9334 68.0666 36.9001 69.7666 39.9001 71.4999L43.3001 73.4999C46.3001 75.1999 49.8001 77.4999 52.6001 80.8999C56.5001 85.5999 58.6001 90.9999 58.9001 96.9999C59.0001 100.6 59.0001 106.1 59.0001 108.3C59.0001 110.1 59.0001 111.8 59.0001 113.2C59.0001 113.8 59.0001 114.3 59.0001 114.7C58.9334 114.9 58.9001 115.033 58.9001 115.1C58.8001 116.8 57.5001 117.2 57.2001 117.3C56.6001 117.4 56.1001 117.3 55.6001 117C55.4001 116.933 55.2001 116.833 55.0001 116.7ZM31.5001 74.2999C31.5001 74.6999 31.7001 75.0999 31.8001 75.2999C32.1001 75.7999 32.7001 76.2999 33.2001 76.5999C34.5001 77.3999 35.8001 78.0999 37.0001 78.7999C38.9001 79.8999 40.9001 80.9999 42.7001 82.2999C46.3001 84.5999 48.8001 87.9999 50.2001 92.2999C50.8001 94.2999 51.1001 96.2999 51.1001 98.5999C51.0334 99.8666 51.0334 101.133 51.1001 102.4C51.1001 103.9 51.1001 105.5 51.1001 107C51.0001 108.4 52.8001 110.3 53.4001 110.7C53.7001 110.9 53.9001 111 54.0001 111.2C54.2001 111.3 54.4001 111.4 54.6001 111.5C54.7001 107.6 54.7001 101 54.5001 97.1999C54.2001 92.1999 52.5001 87.5999 49.2001 83.6999C46.9001 80.7999 43.9001 78.8999 41.1001 77.2999L37.7001 75.2999C35.6334 74.0999 33.5668 72.8999 31.5001 71.6999C31.5001 72.5666 31.5001 73.4332 31.5001 74.2999Z" fill="#FF5C00"/>
</svg>
