<svg width="613" height="99" viewBox="0 0 613 99" fill="none" xmlns="http://www.w3.org/2000/svg">
<path d="M110.867 98.4115C104.083 98.4115 97.5959 97.3867 91.4053 95.337C85.2148 93.2019 80.3386 90.469 76.777 87.1383L81.4835 77.1461C84.8756 80.1352 89.2005 82.6119 94.4582 84.5762C99.7159 86.5405 105.186 87.5226 110.867 87.5226C116.04 87.5226 120.238 86.9248 123.46 85.7291C126.683 84.5335 129.057 82.9108 130.584 80.8612C132.11 78.7261 132.873 76.3348 132.873 73.6873C132.873 70.6128 131.856 68.1361 129.821 66.2572C127.87 64.3784 125.284 62.8838 122.061 61.7736C118.924 60.5779 115.447 59.5531 111.631 58.6991C107.814 57.845 103.956 56.8629 100.055 55.7527C96.239 54.557 92.7197 53.0625 89.4973 51.269C86.3596 49.4756 83.8155 47.0843 81.8651 44.0952C79.9146 41.0207 78.9394 37.0921 78.9394 32.3095C78.9394 27.6978 80.1266 23.4703 82.5011 19.6272C84.9604 15.6986 88.6916 12.5814 93.695 10.2756C98.7831 7.88427 105.228 6.68863 113.03 6.68863C118.203 6.68863 123.333 7.37185 128.421 8.7383C133.509 10.1047 137.919 12.069 141.65 14.6311L137.453 24.8795C133.637 22.3174 129.609 20.4812 125.368 19.371C121.128 18.1753 117.016 17.5775 113.03 17.5775C108.026 17.5775 103.914 18.218 100.691 19.4991C97.4687 20.7801 95.0942 22.4882 93.5678 24.6233C92.1261 26.7583 91.4053 29.1496 91.4053 31.7971C91.4053 34.957 92.3805 37.4764 94.331 39.3553C96.3662 41.2342 98.9527 42.7287 102.09 43.839C105.313 44.9492 108.832 45.974 112.648 46.9135C116.464 47.7675 120.28 48.7496 124.096 49.8599C127.997 50.9701 131.517 52.422 134.654 54.2154C137.877 56.0089 140.463 58.4002 142.414 61.3893C144.364 64.3784 145.339 68.2215 145.339 72.9187C145.339 77.4451 144.11 81.6725 141.65 85.601C139.191 89.4442 135.375 92.5614 130.202 94.9527C125.114 97.2586 118.669 98.4115 110.867 98.4115ZM185.42 98.1553C179.654 98.1553 174.566 97.0878 170.156 94.9527C165.831 92.8176 162.439 89.5723 159.98 85.2167C157.605 80.7758 156.418 75.2246 156.418 68.5631V29.4912H168.629V67.154C168.629 73.8154 170.198 78.8115 173.336 82.1422C176.558 85.4729 181.053 87.1383 186.819 87.1383C191.06 87.1383 194.748 86.2843 197.886 84.5762C201.024 82.7827 203.441 80.2206 205.137 76.8899C206.833 73.4738 207.681 69.3745 207.681 64.5919V29.4912H219.892V97.3867H208.317V79.0677L210.225 83.9357C208.02 88.462 204.713 91.9636 200.303 94.4403C195.893 96.917 190.932 98.1553 185.42 98.1553ZM317.299 28.8507C322.726 28.8507 327.518 29.9183 331.673 32.0533C335.828 34.1884 339.051 37.4337 341.34 41.7893C343.715 46.1448 344.902 51.6533 344.902 58.3148V97.3867H332.69V59.7239C332.69 53.1479 331.164 48.1945 328.111 44.8638C325.058 41.5331 320.776 39.8677 315.264 39.8677C311.193 39.8677 307.631 40.7217 304.579 42.4298C301.526 44.1379 299.151 46.6573 297.455 49.988C295.844 53.3187 295.038 57.4607 295.038 62.4141V97.3867H282.827V59.7239C282.827 53.1479 281.3 48.1945 278.248 44.8638C275.279 41.5331 270.997 39.8677 265.4 39.8677C261.414 39.8677 257.895 40.7217 254.842 42.4298C251.789 44.1379 249.415 46.6573 247.719 49.988C246.023 53.3187 245.175 57.4607 245.175 62.4141V97.3867H232.963V29.4912H244.666V47.554L242.758 42.9422C244.878 38.5013 248.143 35.0424 252.553 32.5657C256.962 30.0891 262.093 28.8507 267.944 28.8507C274.389 28.8507 279.944 30.4734 284.608 33.7187C289.272 36.8786 292.325 41.7039 293.766 48.1945L288.805 46.1448C290.841 40.9352 294.402 36.7505 299.49 33.5906C304.579 30.4307 310.515 28.8507 317.299 28.8507ZM441.53 28.8507C446.958 28.8507 451.749 29.9183 455.904 32.0533C460.06 34.1884 463.282 37.4337 465.572 41.7893C467.946 46.1448 469.133 51.6533 469.133 58.3148V97.3867H456.922V59.7239C456.922 53.1479 455.396 48.1945 452.343 44.8638C449.29 41.5331 445.007 39.8677 439.495 39.8677C435.425 39.8677 431.863 40.7217 428.81 42.4298C425.757 44.1379 423.383 46.6573 421.687 49.988C420.076 53.3187 419.27 57.4607 419.27 62.4141V97.3867H407.058V59.7239C407.058 53.1479 405.532 48.1945 402.479 44.8638C399.511 41.5331 395.229 39.8677 389.632 39.8677C385.646 39.8677 382.127 40.7217 379.074 42.4298C376.021 44.1379 373.646 46.6573 371.95 49.988C370.254 53.3187 369.406 57.4607 369.406 62.4141V97.3867H357.195V29.4912H368.898V47.554L366.989 42.9422C369.11 38.5013 372.374 35.0424 376.784 32.5657C381.194 30.0891 386.324 28.8507 392.176 28.8507C398.621 28.8507 404.175 30.4734 408.839 33.7187C413.503 36.8786 416.556 41.7039 417.998 48.1945L413.037 46.1448C415.072 40.9352 418.634 36.7505 423.722 33.5906C428.81 30.4307 434.746 28.8507 441.53 28.8507ZM481.426 97.3867V29.4912H493.638V97.3867H481.426ZM487.532 16.4246C485.158 16.4246 483.165 15.6559 481.554 14.1187C480.027 12.5814 479.264 10.7026 479.264 8.48209C479.264 6.17621 480.027 4.25464 481.554 2.71738C483.165 1.18013 485.158 0.411499 487.532 0.411499C489.907 0.411499 491.857 1.18013 493.384 2.71738C494.995 4.16923 495.8 6.0054 495.8 8.22588C495.8 10.5318 495.037 12.496 493.511 14.1187C491.984 15.6559 489.991 16.4246 487.532 16.4246ZM536.289 98.1553C529.505 98.1553 524.247 96.3191 520.516 92.6468C516.784 88.9745 514.919 83.7222 514.919 76.8899V14.6311H527.13V76.3775C527.13 80.0498 528.021 82.8682 529.801 84.8324C531.667 86.7967 534.296 87.7788 537.688 87.7788C541.504 87.7788 544.684 86.7113 547.228 84.5762L551.044 93.4154C549.179 95.0381 546.931 96.2337 544.302 97.0024C541.758 97.771 539.087 98.1553 536.289 98.1553ZM503.47 39.6115V29.4912H546.465V39.6115H503.47ZM583.871 98.1553C578.274 98.1553 572.931 97.3867 567.843 95.8494C562.84 94.3122 558.896 92.4333 556.013 90.2128L561.101 80.4769C563.984 82.4411 567.546 84.1065 571.786 85.4729C576.026 86.8394 580.351 87.5226 584.761 87.5226C590.443 87.5226 594.513 86.7113 596.972 85.0886C599.516 83.466 600.788 81.2028 600.788 78.2991C600.788 76.164 600.025 74.4987 598.499 73.303C596.972 72.1074 594.937 71.2106 592.393 70.6128C589.934 70.015 587.178 69.5026 584.125 69.0755C581.072 68.5631 578.019 67.9653 574.966 67.2821C571.913 66.5135 569.115 65.4886 566.571 64.2076C564.027 62.8411 561.992 61.005 560.465 58.6991C558.939 56.3078 558.176 53.1479 558.176 49.2193C558.176 45.12 559.32 41.5331 561.61 38.4586C563.9 35.3841 567.122 33.0355 571.277 31.4128C575.517 29.7047 580.521 28.8507 586.287 28.8507C590.697 28.8507 595.149 29.4058 599.644 30.5161C604.223 31.5409 607.954 33.0355 610.838 34.9997L605.622 44.7357C602.569 42.686 599.389 41.2769 596.082 40.5082C592.775 39.7396 589.467 39.3553 586.16 39.3553C580.818 39.3553 576.832 40.252 574.203 42.0455C571.574 43.7535 570.26 45.974 570.26 48.7069C570.26 51.0128 571.023 52.8063 572.549 54.0873C574.161 55.283 576.196 56.2224 578.655 56.9056C581.199 57.5888 583.998 58.1867 587.051 58.6991C590.103 59.1261 593.156 59.7239 596.209 60.4925C599.262 61.1758 602.018 62.1579 604.477 63.439C607.021 64.72 609.057 66.5135 610.583 68.8193C612.194 71.1252 613 74.1997 613 78.0429C613 82.1422 611.813 85.6864 609.438 88.6756C607.064 91.6647 603.714 94.0132 599.389 95.7213C595.064 97.344 589.892 98.1553 583.871 98.1553Z" fill="url(#paint0_linear_77_247)"/>
<path fill-rule="evenodd" clip-rule="evenodd" d="M69.6276 42.5392C69.6276 23.1895 54.0291 7.47982 34.8107 7.47982C15.5984 7.47982 0 23.1895 0 42.5392C0 61.847 15.531 77.5305 34.686 77.5983L17.1035 97.8731H33.0147L60.2611 66.4548C66.0706 60.1891 69.6276 51.7792 69.6276 42.5392ZM57.4402 42.5392C57.4402 29.9645 47.2993 19.7555 34.8107 19.7555C22.3282 19.7555 12.1874 29.9645 12.1874 42.5392C12.1874 55.1138 22.3282 65.3228 34.8107 65.3228C47.2993 65.3228 57.4402 55.1138 57.4402 42.5392Z" fill="url(#paint0_linear_77_247)"/>
<defs>
<linearGradient id="paint0_linear_77_247" x1="377" y1="206" x2="348.5" y2="-155.5" gradientUnits="userSpaceOnUse">
<stop stop-color="#FFCBCC"/>
<stop offset="0.416244" stop-color="#FFCACA"/>
<stop offset="0.745" stop-color="#FFF5DA"/>
</linearGradient>
</defs>
</svg>
