<svg width="100" height="40" viewBox="0 0 441 49" fill="none" xmlns="http://www.w3.org/2000/svg">
<g clip-path="url(#clip0_155_72)">
<path d="M406.484 47.5243C406.149 47.5243 405.712 47.4236 405.176 47.2222C404.706 47.0208 404.471 46.7188 404.471 46.316C404.471 45.779 404.74 45.4098 405.276 45.2085C405.813 44.94 406.35 44.7722 406.886 44.705C408.631 44.3694 410.174 43.8324 411.515 43.094C412.857 42.3557 413.528 41.0803 413.528 39.2679V8.75977C413.528 7.14878 413.327 6.20903 412.924 5.94054C412.589 5.67204 411.583 5.53778 409.905 5.53778H403.666C402.593 5.53778 401.486 6.07478 400.346 7.14878C399.205 8.22277 398.366 9.19608 397.83 10.0687C397.696 10.3372 397.494 10.6393 397.226 10.9749C397.025 11.3105 396.756 11.6126 396.421 11.8811C396.086 12.0824 395.75 12.1831 395.415 12.1831C395.146 12.1831 394.945 12.116 394.811 11.9818C394.744 11.8475 394.71 11.6461 394.71 11.3776C394.71 10.9749 394.777 10.505 394.911 9.96802C395.113 9.43102 395.314 8.52484 395.515 7.24947C395.784 5.90697 395.985 3.99392 396.119 1.5103C396.186 0.771932 396.354 0.335623 396.622 0.201375C396.958 0.0671258 397.192 0 397.327 0C397.595 0 397.863 0.10069 398.132 0.302063C398.467 0.503437 398.937 0.73837 399.54 1.00687C400.211 1.27537 401.05 1.54387 402.056 1.81236C403.063 2.01374 404.371 2.11443 405.981 2.11443H428.421C430.501 2.11443 432.245 1.98018 433.654 1.71168C435.063 1.44318 436.237 1.14112 437.176 0.805494C437.713 0.60412 438.182 0.436313 438.585 0.302063C439.055 0.167814 439.424 0.100688 439.692 0.100688C439.96 0.100688 440.161 0.234935 440.296 0.503435C440.497 0.704808 440.598 0.939745 440.598 1.20824C440.598 2.88636 440.631 4.29598 440.698 5.4371C440.765 6.57822 440.832 7.55153 440.899 8.35702C440.967 9.09539 441 9.83377 441 10.5721C441 10.7735 440.899 11.1763 440.698 11.7804C440.564 12.3174 440.296 12.5523 439.893 12.4852C439.491 12.4181 439.155 12.1831 438.887 11.7804C438.619 11.3105 438.384 10.7735 438.182 10.1694C437.713 8.75977 436.975 7.65221 435.969 6.84672C434.962 5.97409 433.52 5.53778 431.641 5.53778L423.792 5.63847C422.92 5.63847 422.249 6.00766 421.78 6.74603C421.31 7.41727 421.075 8.08852 421.075 8.75977V39.2679C421.075 41.0803 421.746 42.3557 423.088 43.094C424.43 43.8324 425.973 44.3694 427.717 44.705C428.254 44.7722 428.79 44.94 429.327 45.2085C429.864 45.4098 430.132 45.779 430.132 46.316C430.132 46.7188 429.864 47.0208 429.327 47.2222C428.857 47.4236 428.455 47.5243 428.119 47.5243C426.845 47.5243 425.637 47.4571 424.497 47.3229C423.423 47.2558 422.316 47.1886 421.176 47.1215C420.035 46.9873 418.761 46.9201 417.352 46.9201C415.943 46.9201 414.669 46.9873 413.528 47.1215C412.388 47.1886 411.247 47.2558 410.107 47.3229C409.033 47.4571 407.826 47.5243 406.484 47.5243Z" fill="black"/>
<path d="M371.381 48.7586C367.957 48.7586 364.666 48.1881 361.505 47.047C358.345 45.9058 355.515 44.2948 353.013 42.214C350.577 40.066 348.635 37.5488 347.186 34.6625C345.738 31.709 345.014 28.487 345.014 24.9965C345.014 21.4389 345.771 18.2169 347.285 15.3306C348.799 12.3771 350.84 9.85989 353.408 7.77903C356.041 5.69817 359.004 4.08716 362.295 2.94604C365.587 1.80492 368.978 1.23438 372.467 1.23438C374.179 1.23438 375.726 1.3015 377.108 1.43575C378.557 1.57 379.906 1.77137 381.157 2.03987C382.474 2.24125 383.758 2.5433 385.008 2.94604C385.733 3.14742 386.226 3.38236 386.49 3.65086C386.753 3.85224 386.951 4.1543 387.082 4.55705C387.411 5.56391 387.642 6.97353 387.773 8.7859C387.971 10.5311 388.07 11.9743 388.07 13.1154C388.07 13.9209 387.872 14.4579 387.477 14.7264C387.148 14.9949 386.753 14.9949 386.292 14.7264C385.897 14.4579 385.535 13.9545 385.206 13.2161C384.35 10.8668 383.33 9.0544 382.145 7.77903C380.96 6.50366 379.478 5.63104 377.701 5.16116C375.989 4.62416 373.817 4.35566 371.183 4.35566C367.891 4.35566 364.929 5.22829 362.295 6.97353C359.728 8.71878 357.687 11.0346 356.173 13.9209C354.659 16.8073 353.902 19.9286 353.902 23.2848C353.902 27.0438 354.692 30.6014 356.272 33.9577C357.852 37.3139 360.057 40.0324 362.888 42.1133C365.719 44.1942 368.978 45.2346 372.664 45.2346C374.31 45.2346 376.022 44.9325 377.799 44.3284C379.577 43.6572 381.223 42.7174 382.737 41.5092C384.251 40.2338 385.37 38.7235 386.095 36.9783C386.49 36.0385 387.148 35.4344 388.07 35.1659C388.991 34.8974 389.452 35.3002 389.452 36.3741C389.452 36.6426 389.288 37.2468 388.958 38.1865C388.695 39.0591 388.333 40.0324 387.872 41.1064C387.477 42.1804 387.115 43.1202 386.786 43.9257C386.588 44.3955 386.325 44.7983 385.996 45.1339C385.667 45.4695 385.239 45.7716 384.712 46.0401C383.33 46.7113 381.322 47.3155 378.688 47.8525C376.121 48.4566 373.685 48.7586 371.381 48.7586Z" fill="black"/>
<path d="M302.587 47.5242C302.252 47.5242 301.816 47.4268 301.28 47.2319C300.81 47.037 300.576 46.7446 300.576 46.3548C300.576 45.835 300.844 45.4777 301.38 45.2828C301.917 45.0229 302.453 44.8605 302.99 44.7955C304.733 44.4707 306.275 43.951 307.616 43.2363C308.957 42.5217 309.628 41.2873 309.628 39.5331V12.9286C309.628 10.9146 309.192 9.35537 308.32 8.25091C307.449 7.14645 305.94 6.4318 303.794 6.10696C303.191 5.97702 302.621 5.74963 302.084 5.42479C301.615 5.09995 301.38 4.71014 301.38 4.25536C301.38 3.86555 301.615 3.5732 302.084 3.37829C302.621 3.18339 303.057 3.08594 303.392 3.08594C304.733 3.08594 305.873 3.11842 306.812 3.18339C307.75 3.24835 308.689 3.34581 309.628 3.47574C310.567 3.54071 311.606 3.5732 312.746 3.5732C314.959 3.5732 317.171 3.5732 319.384 3.5732C321.664 3.50823 323.843 3.47574 325.922 3.47574C328.001 3.41077 329.912 3.37829 331.655 3.37829C333.398 3.31332 334.84 3.28084 335.98 3.28084C336.181 3.28084 336.416 3.31332 336.684 3.37829C337.019 3.44326 337.187 3.60568 337.187 3.86555C337.321 6.33435 337.522 8.28339 337.79 9.71269C338.059 11.142 338.193 12.1815 338.193 12.8312C338.193 13.0261 338.092 13.2859 337.891 13.6108C337.757 13.9356 337.589 14.0981 337.388 14.0981C337.12 14.0981 336.785 13.9681 336.382 13.7082C336.047 13.3834 335.745 12.9286 335.477 12.3439C334.807 10.7197 334.069 9.35537 333.264 8.25091C332.46 7.14645 331.186 6.59422 329.442 6.59422H319.686C319.284 6.59422 318.747 6.72415 318.077 6.98403C317.473 7.2439 317.171 7.69868 317.171 8.34836V21.3095C317.171 21.6344 317.272 22.1216 317.473 22.7713C317.741 23.356 318.01 23.6484 318.278 23.6484H326.224C327.297 23.6484 328.068 23.3235 328.537 22.6739C329.073 21.9592 329.543 21.0172 329.945 19.8477C330.079 19.5229 330.28 19.1656 330.549 18.7758C330.817 18.386 331.119 18.1911 331.454 18.1911C331.856 18.1911 332.158 18.3535 332.359 18.6783C332.627 19.0032 332.728 19.328 332.661 19.6528C332.594 20.4325 332.527 21.342 332.46 22.3815C332.393 23.421 332.359 24.2981 332.359 25.0127C332.359 25.8573 332.393 26.7344 332.46 27.6439C332.594 28.5535 332.694 29.463 332.761 30.3726C332.828 30.6325 332.761 30.9898 332.56 31.4446C332.359 31.8344 332.091 32.0293 331.756 32.0293C331.152 32.0293 330.716 31.7044 330.448 31.0548C330.247 30.3401 330.079 29.8853 329.945 29.6904C329.677 28.6509 329.208 27.9688 328.537 27.6439C327.866 27.2541 327.263 27.0267 326.727 26.9618C325.721 26.8318 324.547 26.7669 323.206 26.7669C321.932 26.7669 320.759 26.7669 319.686 26.7669C318.747 26.7669 318.077 26.8318 317.674 26.9618C317.339 27.0917 317.171 27.6115 317.171 28.521V39.6306C317.171 41.3847 317.339 42.4892 317.674 42.944C318.077 43.3987 319.015 43.6261 320.491 43.6261H330.549C332.627 43.6261 334.371 43.0414 335.779 41.872C337.187 40.7026 338.226 39.4032 338.897 37.9739C339.031 37.779 339.165 37.4866 339.299 37.0968C339.5 36.707 339.836 36.5121 340.305 36.5121C340.774 36.5121 341.043 36.707 341.11 37.0968C341.244 37.4217 341.311 37.7465 341.311 38.0713C341.177 39.3707 340.942 40.8 340.607 42.3592C340.271 43.8535 339.936 45.1529 339.601 46.2573C339.534 46.5172 339.299 46.7771 338.897 47.037C338.562 47.2968 338.226 47.4268 337.891 47.4268C335.41 47.4268 332.996 47.3943 330.649 47.3293C328.369 47.2643 326.157 47.2319 324.011 47.2319C321.932 47.1669 319.921 47.1019 317.976 47.037C316.032 46.972 314.188 46.9395 312.444 46.9395C311.237 46.9395 310.131 47.0045 309.125 47.1344C308.119 47.1994 307.113 47.2643 306.108 47.3293C305.102 47.4592 303.928 47.5242 302.587 47.5242Z" fill="black"/>
<path d="M260.651 47.5243C260.329 47.5243 259.91 47.4236 259.395 47.2222C258.944 47.0208 258.719 46.7188 258.719 46.316C258.719 45.779 258.976 45.4098 259.492 45.2085C260.007 44.94 260.522 44.7722 261.037 44.705C262.712 44.3694 264.193 43.8324 265.481 43.094C266.769 42.3557 267.413 41.0803 267.413 39.2679V8.75977C267.413 7.14878 267.22 6.20903 266.834 5.94054C266.512 5.67204 265.546 5.53778 263.935 5.53778H257.946C256.916 5.53778 255.853 6.07478 254.758 7.14878C253.663 8.22277 252.858 9.19608 252.343 10.0687C252.214 10.3372 252.021 10.6393 251.763 10.9749C251.57 11.3105 251.312 11.6126 250.99 11.8811C250.668 12.0824 250.346 12.1831 250.024 12.1831C249.767 12.1831 249.574 12.116 249.445 11.9818C249.38 11.8475 249.348 11.6461 249.348 11.3776C249.348 10.9749 249.413 10.505 249.541 9.96802C249.735 9.43102 249.928 8.52484 250.121 7.24947C250.379 5.90697 250.572 3.99392 250.701 1.5103C250.765 0.771932 250.926 0.335623 251.184 0.201375C251.506 0.0671258 251.731 0 251.86 0C252.117 0 252.375 0.10069 252.633 0.302063C252.955 0.503437 253.406 0.73837 253.985 1.00687C254.629 1.27537 255.434 1.54387 256.4 1.81236C257.366 2.01374 258.622 2.11443 260.168 2.11443H281.711C283.707 2.11443 285.382 1.98018 286.734 1.71168C288.087 1.44318 289.214 1.14112 290.115 0.805494C290.631 0.60412 291.082 0.436313 291.468 0.302063C291.919 0.167814 292.273 0.100688 292.531 0.100688C292.788 0.100688 292.981 0.234935 293.11 0.503435C293.303 0.704808 293.4 0.939745 293.4 1.20824C293.4 2.88636 293.432 4.29598 293.497 5.4371C293.561 6.57822 293.625 7.55153 293.69 8.35702C293.754 9.09539 293.786 9.83377 293.786 10.5721C293.786 10.7735 293.69 11.1763 293.497 11.7804C293.368 12.3174 293.11 12.5523 292.724 12.4852C292.337 12.4181 292.015 12.1831 291.758 11.7804C291.5 11.3105 291.275 10.7735 291.082 10.1694C290.631 8.75977 289.922 7.65221 288.956 6.84672C287.99 5.97409 286.605 5.53778 284.802 5.53778L277.267 5.63847C276.43 5.63847 275.786 6.00766 275.335 6.74603C274.884 7.41727 274.659 8.08852 274.659 8.75977V39.2679C274.659 41.0803 275.303 42.3557 276.591 43.094C277.879 43.8324 279.36 44.3694 281.035 44.705C281.55 44.7722 282.065 44.94 282.58 45.2085C283.095 45.4098 283.353 45.779 283.353 46.316C283.353 46.7188 283.095 47.0208 282.58 47.2222C282.129 47.4236 281.743 47.5243 281.421 47.5243C280.197 47.5243 279.038 47.4571 277.943 47.3229C276.913 47.2558 275.85 47.1886 274.755 47.1215C273.66 46.9873 272.437 46.9201 271.084 46.9201C269.732 46.9201 268.508 46.9873 267.413 47.1215C266.318 47.1886 265.224 47.2558 264.129 47.3229C263.098 47.4571 261.939 47.5243 260.651 47.5243Z" fill="black"/>
<path d="M219.807 47.5242C219.485 47.5242 219.065 47.4268 218.549 47.2319C218.097 47.037 217.871 46.7446 217.871 46.3548C217.871 45.835 218.129 45.4777 218.646 45.2828C219.162 45.0229 219.678 44.8605 220.195 44.7955C221.873 44.4707 223.357 43.951 224.648 43.2363C225.939 42.5217 226.584 41.2873 226.584 39.5331V12.9286C226.584 10.9146 226.165 9.35537 225.326 8.25091C224.487 7.14645 223.035 6.4318 220.969 6.10696C220.388 5.97702 219.84 5.74963 219.323 5.42479C218.872 5.09995 218.646 4.71014 218.646 4.25536C218.646 3.86555 218.872 3.5732 219.323 3.37829C219.84 3.18339 220.259 3.08594 220.582 3.08594C221.873 3.08594 223.002 3.11842 223.97 3.18339C225.003 3.24835 226.004 3.34581 226.972 3.47574C228.004 3.54071 229.102 3.5732 230.263 3.5732C231.425 3.5732 232.49 3.54071 233.458 3.47574C234.427 3.34581 235.427 3.24835 236.46 3.18339C237.492 3.11842 238.622 3.08594 239.848 3.08594C240.171 3.08594 240.558 3.18339 241.01 3.37829C241.526 3.5732 241.784 3.86555 241.784 4.25536C241.784 4.71014 241.526 5.09995 241.01 5.42479C240.558 5.74963 240.042 5.97702 239.461 6.10696C238.106 6.30186 237.008 6.69167 236.169 7.27639C235.395 7.8611 234.814 8.60824 234.427 9.51779C234.039 10.4273 233.846 11.5643 233.846 12.9286V39.5331C233.846 41.2873 234.491 42.5217 235.782 43.2363C237.073 43.951 238.557 44.4707 240.235 44.7955C240.752 44.8605 241.268 45.0229 241.784 45.2828C242.301 45.4777 242.559 45.835 242.559 46.3548C242.559 46.7446 242.301 47.037 241.784 47.2319C241.333 47.4268 240.945 47.5242 240.623 47.5242C239.396 47.5242 238.235 47.4592 237.137 47.3293C236.105 47.2643 235.04 47.1994 233.942 47.1344C232.845 47.0045 231.619 46.9395 230.263 46.9395C228.908 46.9395 227.682 47.0045 226.584 47.1344C225.487 47.1994 224.39 47.2643 223.293 47.3293C222.26 47.4592 221.098 47.5242 219.807 47.5242Z" fill="black"/>
<path d="M155.023 47.5242C154.697 47.5242 154.273 47.4268 153.75 47.2319C153.294 47.037 153.065 46.7446 153.065 46.3548C153.065 45.835 153.326 45.4777 153.848 45.2828C154.371 45.0229 154.893 44.8605 155.415 44.7955C157.112 44.4707 158.613 43.951 159.918 43.2363C161.224 42.5217 161.876 41.2873 161.876 39.5331V12.9286C161.876 10.9796 161.452 9.45282 160.604 8.34836C159.755 7.17893 158.287 6.4318 156.198 6.10696C155.611 5.97702 155.056 5.74963 154.534 5.42479C154.077 5.09995 153.848 4.71014 153.848 4.25536C153.848 3.86555 154.077 3.5732 154.534 3.37829C155.056 3.18339 155.48 3.08594 155.806 3.08594C157.112 3.08594 158.254 3.11842 159.233 3.18339C160.277 3.24835 161.289 3.34581 162.268 3.47574C163.312 3.54071 164.422 3.5732 165.596 3.5732C166.771 3.5732 167.848 3.54071 168.827 3.47574C169.806 3.34581 170.818 3.24835 171.862 3.18339C172.906 3.11842 174.049 3.08594 175.289 3.08594C175.615 3.08594 176.007 3.18339 176.463 3.37829C176.986 3.5732 177.247 3.86555 177.247 4.25536C177.247 4.71014 176.986 5.09995 176.463 5.42479C176.007 5.74963 175.484 5.97702 174.897 6.10696C172.874 6.4318 171.405 7.17893 170.491 8.34836C169.643 9.45282 169.219 10.9796 169.219 12.9286V22.0891C169.219 22.479 169.545 22.6739 170.198 22.6739C172.678 22.6739 174.636 22.7063 176.072 22.7713C177.508 22.8363 179.205 22.8688 181.163 22.8688C182.86 22.8688 184.752 22.8363 186.841 22.7713C188.929 22.7063 191.051 22.6739 193.204 22.6739C193.531 22.6739 193.694 22.414 193.694 21.8942V12.9286C193.694 11.0445 193.27 9.51779 192.421 8.34836C191.573 7.17893 190.104 6.4318 188.016 6.10696C187.428 5.97702 186.873 5.74963 186.351 5.42479C185.894 5.09995 185.666 4.71014 185.666 4.25536C185.666 3.86555 185.894 3.5732 186.351 3.37829C186.873 3.18339 187.298 3.08594 187.624 3.08594C188.929 3.08594 190.072 3.11842 191.051 3.18339C192.095 3.24835 193.106 3.34581 194.085 3.47574C195.13 3.54071 196.239 3.5732 197.414 3.5732C198.589 3.5732 199.666 3.54071 200.645 3.47574C201.624 3.34581 202.635 3.24835 203.68 3.18339C204.724 3.11842 205.866 3.08594 207.106 3.08594C207.433 3.08594 207.824 3.18339 208.281 3.37829C208.803 3.5732 209.064 3.86555 209.064 4.25536C209.064 4.71014 208.803 5.09995 208.281 5.42479C207.824 5.74963 207.302 5.97702 206.715 6.10696C204.691 6.4318 203.223 7.17893 202.309 8.34836C201.461 9.51779 201.036 11.0445 201.036 12.9286V39.5331C201.036 41.2873 201.689 42.5217 202.994 43.2363C204.3 43.951 205.801 44.4707 207.498 44.7955C208.02 44.8605 208.542 45.0229 209.064 45.2828C209.586 45.4777 209.847 45.835 209.847 46.3548C209.847 46.7446 209.586 47.037 209.064 47.2319C208.607 47.4268 208.216 47.5242 207.889 47.5242C206.649 47.5242 205.475 47.4592 204.365 47.3293C203.321 47.2643 202.244 47.1994 201.134 47.1344C200.025 47.0045 198.785 46.9395 197.414 46.9395C196.043 46.9395 194.803 47.0045 193.694 47.1344C192.584 47.1994 191.475 47.2643 190.365 47.3293C189.321 47.4592 188.146 47.5242 186.841 47.5242C186.514 47.5242 186.09 47.4268 185.568 47.2319C185.111 47.037 184.883 46.7446 184.883 46.3548C184.883 45.835 185.144 45.4777 185.666 45.2828C186.188 45.0229 186.71 44.8605 187.232 44.7955C188.929 44.4707 190.431 43.951 191.736 43.2363C193.041 42.5217 193.694 41.2873 193.694 39.5331V26.572C193.694 26.2471 193.563 26.0847 193.302 26.0847C190.692 26.0847 188.473 26.0522 186.645 25.9872C184.883 25.9223 182.957 25.8898 180.869 25.8898C179.172 25.8898 177.41 25.9223 175.582 25.9872C173.755 26.0522 171.732 26.0847 169.512 26.0847C169.317 26.0847 169.219 26.3121 169.219 26.7669V39.5331C169.219 41.2873 169.871 42.5217 171.177 43.2363C172.482 43.951 173.983 44.4707 175.68 44.7955C176.202 44.8605 176.724 45.0229 177.247 45.2828C177.769 45.4777 178.03 45.835 178.03 46.3548C178.03 46.7446 177.769 47.037 177.247 47.2319C176.79 47.4268 176.398 47.5242 176.072 47.5242C174.832 47.5242 173.657 47.4592 172.547 47.3293C171.503 47.2643 170.426 47.1994 169.317 47.1344C168.207 47.0045 166.967 46.9395 165.596 46.9395C164.226 46.9395 162.986 47.0045 161.876 47.1344C160.767 47.1994 159.657 47.2643 158.548 47.3293C157.503 47.4592 156.329 47.5242 155.023 47.5242Z" fill="black"/>
<path d="M130.673 48.7586C127.25 48.7586 123.958 48.1881 120.798 47.047C117.638 45.9058 114.807 44.2948 112.306 42.214C109.87 40.066 107.928 37.5488 106.479 34.6625C105.031 31.709 104.307 28.487 104.307 24.9965C104.307 21.4389 105.064 18.2169 106.578 15.3306C108.092 12.3771 110.133 9.85989 112.701 7.77903C115.334 5.69817 118.296 4.08716 121.588 2.94604C124.88 1.80492 128.27 1.23438 131.76 1.23438C133.471 1.23438 135.018 1.3015 136.401 1.43575C137.849 1.57 139.199 1.77137 140.45 2.03987C141.766 2.24125 143.05 2.5433 144.301 2.94604C145.025 3.14742 145.519 3.38236 145.782 3.65086C146.046 3.85224 146.243 4.1543 146.375 4.55705C146.704 5.56391 146.934 6.97353 147.066 8.7859C147.264 10.5311 147.362 11.9743 147.362 13.1154C147.362 13.9209 147.165 14.4579 146.77 14.7264C146.441 14.9949 146.046 14.9949 145.585 14.7264C145.19 14.4579 144.828 13.9545 144.499 13.2161C143.643 10.8668 142.622 9.0544 141.437 7.77903C140.252 6.50366 138.771 5.63104 136.993 5.16116C135.282 4.62416 133.109 4.35566 130.476 4.35566C127.184 4.35566 124.222 5.22829 121.588 6.97353C119.021 8.71878 116.98 11.0346 115.466 13.9209C113.951 16.8073 113.194 19.9286 113.194 23.2848C113.194 27.0438 113.984 30.6014 115.564 33.9577C117.144 37.3139 119.35 40.0324 122.181 42.1133C125.012 44.1942 128.27 45.2346 131.957 45.2346C133.603 45.2346 135.315 44.9325 137.092 44.3284C138.87 43.6572 140.516 42.7174 142.03 41.5092C143.544 40.2338 144.663 38.7235 145.387 36.9783C145.782 36.0385 146.441 35.4344 147.362 35.1659C148.284 34.8974 148.745 35.3002 148.745 36.3741C148.745 36.6426 148.58 37.2468 148.251 38.1865C147.988 39.0591 147.626 40.0324 147.165 41.1064C146.77 42.1804 146.408 43.1202 146.079 43.9257C145.881 44.3955 145.618 44.7983 145.289 45.1339C144.959 45.4695 144.532 45.7716 144.005 46.0401C142.622 46.7113 140.614 47.3155 137.981 47.8525C135.413 48.4566 132.978 48.7586 130.673 48.7586Z" fill="black"/>
<path d="M100.017 48.7586C98.6885 48.7586 97.4261 48.563 96.2301 48.1718C95.0341 47.7806 93.9046 47.2264 92.8415 46.5092C91.8449 45.7268 90.9147 44.8466 90.0509 43.8686C89.3865 43.0862 88.4895 41.9126 87.36 40.3478C86.2969 38.7178 85.2006 36.99 84.0711 35.1644C82.9415 33.3388 82.0113 31.7414 81.2804 30.3722C80.8818 29.655 80.0513 29.003 78.7888 28.4162C77.5264 27.8294 76.1311 27.536 74.6029 27.536C74.2707 27.536 73.8388 27.699 73.3073 28.025C72.8422 28.2858 72.6097 28.6444 72.6097 29.1008V39.6632C72.6097 41.4236 73.0083 42.6298 73.8056 43.2818C74.6029 43.9338 75.8654 44.4228 77.5929 44.7488C78.1244 44.814 78.656 44.977 79.1875 45.2378C79.719 45.4334 79.9848 45.792 79.9848 46.3136C79.9848 46.7048 79.719 46.9982 79.1875 47.1938C78.7224 47.3894 78.3237 47.4872 77.9915 47.4872C76.9949 47.4872 76.1311 47.4546 75.4003 47.3894C74.6694 47.3894 73.9717 47.3568 73.3073 47.2916C72.7093 47.2264 72.0449 47.1938 71.314 47.1938C70.6496 47.1286 69.8523 47.096 68.9221 47.096C67.5268 47.096 66.2644 47.1612 65.1348 47.2916C64.0053 47.3568 62.8758 47.422 61.7462 47.4872C60.6832 47.6176 59.4872 47.6828 58.1583 47.6828C57.8261 47.6828 57.3942 47.585 56.8627 47.3894C56.3976 47.1938 56.165 46.9004 56.165 46.5092C56.165 45.9876 56.4308 45.629 56.9624 45.4334C57.4939 45.1726 58.0254 45.0096 58.557 44.9444C60.2845 44.6184 61.8127 44.0968 63.1415 43.3796C64.4704 42.6624 65.1348 41.4236 65.1348 39.6632V12.9637C65.1348 10.9425 64.7029 9.37774 63.8392 8.26934C62.9754 7.16094 61.4805 6.44374 59.3543 6.11774C58.7563 5.98734 58.1915 5.75914 57.66 5.43314C57.1949 5.10714 56.9624 4.71594 56.9624 4.25954C56.9624 3.86833 57.1949 3.57494 57.66 3.37934C58.1915 3.18374 58.6234 3.08594 58.9556 3.08594C60.2845 3.08594 61.414 3.11854 62.3442 3.18373C63.2744 3.24893 64.2046 3.34673 65.1348 3.47713C66.065 3.54233 67.0949 3.57493 68.2244 3.57493C69.6197 3.57493 71.3472 3.50974 73.407 3.37934C75.5331 3.18374 77.6261 3.08594 79.6858 3.08594C82.6093 3.08594 85.3335 3.41194 87.8583 4.06394C90.4496 4.71594 92.5425 5.85694 94.1371 7.48694C95.7318 9.05174 96.5291 11.2685 96.5291 14.1374C96.5955 16.0282 96.1969 17.7234 95.3331 19.223C94.4694 20.6574 93.4063 21.831 92.1439 22.7438C90.8814 23.6566 89.619 24.3086 88.3566 24.6998C87.6922 24.8954 87.4596 25.2214 87.659 25.6778C88.3234 27.3078 89.1539 29.0682 90.1506 30.959C91.1472 32.8498 92.2103 34.6428 93.3398 36.338C94.5358 38.0332 95.6321 39.4676 96.6288 40.6412C97.3596 41.4236 98.323 42.1734 99.519 42.8906C100.715 43.6078 101.878 44.1946 103.007 44.651C104.203 45.1074 105.067 45.3682 105.599 45.4334C105.931 45.4986 106.296 45.629 106.695 45.8246C107.16 45.955 107.393 46.281 107.393 46.8026C107.393 47.1938 106.994 47.5198 106.197 47.7806C105.399 48.1066 104.436 48.3348 103.306 48.4652C102.177 48.6608 101.08 48.7586 100.017 48.7586ZM75.1013 24.7976C78.8885 24.7976 82.0778 24.0804 84.669 22.646C87.3267 21.2116 88.6224 18.7014 88.5559 15.1154C88.5559 13.029 87.9247 11.3337 86.6623 10.0297C85.3999 8.66054 83.8053 7.64994 81.8784 6.99794C80.018 6.28074 78.058 5.92214 75.9982 5.92214C74.7358 5.92214 73.8388 6.11774 73.3073 6.50894C72.8422 6.83494 72.6097 7.55214 72.6097 8.66054V22.3526C72.6097 23.5262 72.809 24.2434 73.2076 24.5042C73.6727 24.6998 74.3039 24.7976 75.1013 24.7976Z" fill="black"/>
<path d="M31.8432 47.5243C31.5115 47.5243 31.0803 47.4249 30.5495 47.2262C30.0852 47.0276 29.853 46.7296 29.853 46.3322C29.853 45.8025 30.0852 45.4051 30.5495 45.1402C31.0803 44.8753 31.611 44.6767 32.1417 44.5442C33.9329 44.0144 35.0938 43.4515 35.6245 42.8555C36.1553 42.1933 36.1553 41.0675 35.6245 39.4782L33.9329 34.1141C33.8665 33.783 33.7007 33.5843 33.4353 33.5181C33.2363 33.4519 32.7719 33.4188 32.0422 33.4188H17.1157C16.7177 33.4188 16.386 33.5181 16.1206 33.7168C15.9216 33.8492 15.7226 34.1472 15.5235 34.6108C14.7275 36.3326 14.1967 37.5908 13.9314 38.3855C13.666 39.1802 13.5333 39.9748 13.5333 40.7695C13.5333 42.0277 13.8982 42.8886 14.628 43.3522C15.3577 43.8158 16.2201 44.2131 17.2152 44.5442C17.7459 44.7429 18.2435 44.9747 18.7079 45.2396C19.2386 45.4382 19.5039 45.8025 19.5039 46.3322C19.5039 46.7296 19.2386 47.0276 18.7079 47.2262C18.2435 47.4249 17.8454 47.5243 17.5137 47.5243C16.2533 47.5243 15.225 47.458 14.4289 47.3256C13.6992 47.2594 12.9695 47.1931 12.2397 47.1269C11.5763 47.0607 10.6807 47.0276 9.55295 47.0276C8.42517 47.0276 7.52958 47.0607 6.86618 47.1269C6.26912 47.1931 5.6389 47.2594 4.9755 47.3256C4.3121 47.458 3.317 47.5243 1.9902 47.5243C1.6585 47.5243 1.22729 47.4249 0.696569 47.2262C0.23219 47.0276 0 46.7296 0 46.3322C0 45.8025 0.23219 45.4382 0.696569 45.2396C1.22729 44.9747 1.75801 44.776 2.28873 44.6435C3.35017 44.3787 4.3121 44.1138 5.17452 43.8489C6.10327 43.5178 6.99886 42.9549 7.86128 42.1602C8.7237 41.2993 9.55295 39.9417 10.349 38.0875L21.8922 11.4658C22.6219 9.81025 22.9536 8.61824 22.8873 7.88978C22.8873 7.09511 22.9536 6.63154 23.0863 6.49909C23.418 6.16798 23.8492 5.73753 24.3799 5.20774C24.9106 4.67796 25.4082 4.14819 25.8726 3.6184C26.4033 3.0224 26.7682 2.62505 26.9672 2.42638C27.3652 1.96281 27.6969 1.66481 27.9623 1.53237C28.2276 1.3337 28.4267 1.23438 28.5593 1.23438C28.7584 1.23438 28.891 1.3006 28.9574 1.43304C29.0901 1.56549 29.1896 1.79727 29.2559 2.12838L42.6898 36.5975C43.3531 38.253 44.1492 39.9086 45.078 41.5642C46.0731 43.1535 47.5657 44.1469 49.5559 44.5442C50.0867 44.6104 50.5842 44.8091 51.0486 45.1402C51.5793 45.4051 51.8447 45.8025 51.8447 46.3322C51.8447 46.7296 51.5793 47.0276 51.0486 47.2262C50.5842 47.4249 50.1862 47.5243 49.8545 47.5243C47.9306 47.5243 46.4048 47.4249 45.277 47.2262C44.2156 47.0938 42.8224 47.0276 41.0976 47.0276C39.9698 47.0276 38.9415 47.0607 38.0128 47.1269C37.084 47.1931 36.1553 47.2594 35.2265 47.3256C34.2978 47.458 33.17 47.5243 31.8432 47.5243ZM19.2054 29.8427H31.1466C31.6773 29.8427 31.9759 29.8096 32.0422 29.7434C32.1085 29.6109 32.0754 29.3129 31.9427 28.8494C31.7437 28.1871 31.3788 27.1607 30.8481 25.77C30.3174 24.3131 29.7203 22.79 29.0569 21.2006C28.3935 19.545 27.7633 17.9888 27.1662 16.5319C26.6355 15.075 26.2043 13.9492 25.8726 13.1545C25.6072 12.4261 25.375 12.0618 25.176 12.0618C25.0433 12.0618 24.8111 12.4261 24.4794 13.1545C23.617 15.2074 22.5556 17.7239 21.2951 20.7039C20.0347 23.684 18.9069 26.3991 17.9118 28.8494C17.7128 29.3129 17.7128 29.6109 17.9118 29.7434C18.1771 29.8096 18.6084 29.8427 19.2054 29.8427Z" fill="black"/>
</g>
<defs>
<clipPath id="clip0_155_72">
<rect width="441" height="49" fill="white"/>
</clipPath>
</defs>
</svg>